# generated by worldgen/generate_region.py
mtllib buildings.mtl
v 35.800 28.600 0.000
v 43.000 28.600 0.000
v 43.000 28.600 12.000
v 35.800 28.600 12.000
v 43.000 28.600 0.000
v 43.000 41.400 0.000
v 43.000 41.400 12.000
v 43.000 28.600 12.000
v 43.000 41.400 0.000
v 35.800 41.400 0.000
v 35.800 41.400 12.000
v 43.000 41.400 12.000
v 35.800 41.400 0.000
v 35.800 28.600 0.000
v 35.800 28.600 12.000
v 35.800 41.400 12.000
v 35.800 28.600 12.000
v 43.000 28.600 12.000
v 43.000 41.400 12.000
v 35.800 41.400 12.000
v 27.000 85.600 0.000
v 34.200 85.600 0.000
v 34.200 85.600 6.000
v 27.000 85.600 6.000
v 34.200 85.600 0.000
v 34.200 98.400 0.000
v 34.200 98.400 6.000
v 34.200 85.600 6.000
v 34.200 98.400 0.000
v 27.000 98.400 0.000
v 27.000 98.400 6.000
v 34.200 98.400 6.000
v 27.000 98.400 0.000
v 27.000 85.600 0.000
v 27.000 85.600 6.000
v 27.000 98.400 6.000
v 27.000 85.600 6.000
v 34.200 85.600 6.000
v 34.200 98.400 6.000
v 27.000 98.400 6.000
v 35.800 85.600 0.000
v 43.000 85.600 0.000
v 43.000 85.600 18.000
v 35.800 85.600 18.000
v 43.000 85.600 0.000
v 43.000 98.400 0.000
v 43.000 98.400 18.000
v 43.000 85.600 18.000
v 43.000 98.400 0.000
v 35.800 98.400 0.000
v 35.800 98.400 18.000
v 43.000 98.400 18.000
v 35.800 98.400 0.000
v 35.800 85.600 0.000
v 35.800 85.600 18.000
v 35.800 98.400 18.000
v 35.800 85.600 18.000
v 43.000 85.600 18.000
v 43.000 98.400 18.000
v 35.800 98.400 18.000
v 57.000 85.600 0.000
v 64.200 85.600 0.000
v 64.200 85.600 6.000
v 57.000 85.600 6.000
v 64.200 85.600 0.000
v 64.200 98.400 0.000
v 64.200 98.400 6.000
v 64.200 85.600 6.000
v 64.200 98.400 0.000
v 57.000 98.400 0.000
v 57.000 98.400 6.000
v 64.200 98.400 6.000
v 57.000 98.400 0.000
v 57.000 85.600 0.000
v 57.000 85.600 6.000
v 57.000 98.400 6.000
v 57.000 85.600 6.000
v 64.200 85.600 6.000
v 64.200 98.400 6.000
v 57.000 98.400 6.000
v 65.800 85.600 0.000
v 73.000 85.600 0.000
v 73.000 85.600 18.000
v 65.800 85.600 18.000
v 73.000 85.600 0.000
v 73.000 98.400 0.000
v 73.000 98.400 18.000
v 73.000 85.600 18.000
v 73.000 98.400 0.000
v 65.800 98.400 0.000
v 65.800 98.400 18.000
v 73.000 98.400 18.000
v 65.800 98.400 0.000
v 65.800 85.600 0.000
v 65.800 85.600 18.000
v 65.800 98.400 18.000
v 65.800 85.600 18.000
v 73.000 85.600 18.000
v 73.000 98.400 18.000
v 65.800 98.400 18.000
v 92.500 31.000 0.000
v 97.000 31.000 0.000
v 97.000 31.000 6.000
v 92.500 31.000 6.000
v 97.000 31.000 0.000
v 97.000 39.000 0.000
v 97.000 39.000 6.000
v 97.000 31.000 6.000
v 97.000 39.000 0.000
v 92.500 39.000 0.000
v 92.500 39.000 6.000
v 97.000 39.000 6.000
v 92.500 39.000 0.000
v 92.500 31.000 0.000
v 92.500 31.000 6.000
v 92.500 39.000 6.000
v 92.500 31.000 6.000
v 97.000 31.000 6.000
v 97.000 39.000 6.000
v 92.500 39.000 6.000
v 87.000 61.000 0.000
v 91.500 61.000 0.000
v 91.500 61.000 12.000
v 87.000 61.000 12.000
v 91.500 61.000 0.000
v 91.500 69.000 0.000
v 91.500 69.000 12.000
v 91.500 61.000 12.000
v 91.500 69.000 0.000
v 87.000 69.000 0.000
v 87.000 69.000 12.000
v 91.500 69.000 12.000
v 87.000 69.000 0.000
v 87.000 61.000 0.000
v 87.000 61.000 12.000
v 87.000 69.000 12.000
v 87.000 61.000 12.000
v 91.500 61.000 12.000
v 91.500 69.000 12.000
v 87.000 69.000 12.000
v 92.500 61.000 0.000
v 97.000 61.000 0.000
v 97.000 61.000 12.000
v 92.500 61.000 12.000
v 97.000 61.000 0.000
v 97.000 69.000 0.000
v 97.000 69.000 12.000
v 97.000 61.000 12.000
v 97.000 69.000 0.000
v 92.500 69.000 0.000
v 92.500 69.000 12.000
v 97.000 69.000 12.000
v 92.500 69.000 0.000
v 92.500 61.000 0.000
v 92.500 61.000 12.000
v 92.500 69.000 12.000
v 92.500 61.000 12.000
v 97.000 61.000 12.000
v 97.000 69.000 12.000
v 92.500 69.000 12.000
v 92.500 88.000 0.000
v 97.000 88.000 0.000
v 97.000 88.000 9.000
v 92.500 88.000 9.000
v 97.000 88.000 0.000
v 97.000 96.000 0.000
v 97.000 96.000 9.000
v 97.000 88.000 9.000
v 97.000 96.000 0.000
v 92.500 96.000 0.000
v 92.500 96.000 9.000
v 97.000 96.000 9.000
v 92.500 96.000 0.000
v 92.500 88.000 0.000
v 92.500 88.000 9.000
v 92.500 96.000 9.000
v 92.500 88.000 9.000
v 97.000 88.000 9.000
v 97.000 96.000 9.000
v 92.500 96.000 9.000
v -87.428 -62.664 0.000
v -83.069 -62.102 0.000
v -83.069 -62.102 0.900
v -87.428 -62.664 0.900
v -83.069 -62.102 0.000
v -83.505 -58.718 0.000
v -83.505 -58.718 0.900
v -83.069 -62.102 0.900
v -83.505 -58.718 0.000
v -87.864 -59.279 0.000
v -87.864 -59.279 0.900
v -83.505 -58.718 0.900
v -87.864 -59.279 0.000
v -87.428 -62.664 0.000
v -87.428 -62.664 0.900
v -87.864 -59.279 0.900
v -87.428 -62.664 0.900
v -83.069 -62.102 0.900
v -83.505 -58.718 0.900
v -87.864 -59.279 0.900
v -85.384 -63.175 0.900
v -81.815 -61.326 0.900
v -82.883 -59.266 1.800
v -86.451 -61.115 1.800
v -83.950 -57.207 0.900
v -87.518 -59.056 0.900
v -86.451 -61.115 1.800
v -82.883 -59.266 1.800
v -81.815 -61.326 0.900
v -83.950 -57.207 0.900
v -82.883 -59.266 1.800
v -87.518 -59.056 0.900
v -85.384 -63.175 0.900
v -86.451 -61.115 1.800
v -46.188 -91.830 0.000
v -40.713 -90.888 0.000
v -40.713 -90.888 2.600
v -46.188 -91.830 2.600
v -40.713 -90.888 0.000
v -41.437 -86.682 0.000
v -41.437 -86.682 2.600
v -40.713 -90.888 2.600
v -41.437 -86.682 0.000
v -46.912 -87.625 0.000
v -46.912 -87.625 2.600
v -41.437 -86.682 2.600
v -46.912 -87.625 0.000
v -46.188 -91.830 0.000
v -46.188 -91.830 2.600
v -46.912 -87.625 2.600
v -46.188 -91.830 2.600
v -40.713 -90.888 2.600
v -41.437 -86.682 2.600
v -46.912 -87.625 2.600
v -46.415 -92.275 2.600
v -40.349 -91.231 2.600
v -40.779 -88.734 4.200
v -46.845 -89.778 4.200
v -41.209 -86.237 2.600
v -47.275 -87.281 2.600
v -46.845 -89.778 4.200
v -40.779 -88.734 4.200
v -40.349 -91.231 2.600
v -41.209 -86.237 2.600
v -40.779 -88.734 4.200
v -47.275 -87.281 2.600
v -46.415 -92.275 2.600
v -46.845 -89.778 4.200
v -14.262 -84.556 0.000
v -19.271 -81.266 0.000
v -19.271 -81.266 2.600
v -14.262 -84.556 2.600
v -19.271 -81.266 0.000
v -21.795 -85.109 0.000
v -21.795 -85.109 2.600
v -19.271 -81.266 2.600
v -21.795 -85.109 0.000
v -16.787 -88.399 0.000
v -16.787 -88.399 2.600
v -21.795 -85.109 2.600
v -16.787 -88.399 0.000
v -14.262 -84.556 0.000
v -14.262 -84.556 2.600
v -16.787 -88.399 2.600
v -14.262 -84.556 2.600
v -19.271 -81.266 2.600
v -21.795 -85.109 2.600
v -16.787 -88.399 2.600
v -13.792 -84.387 2.600
v -19.302 -80.767 2.600
v -20.784 -83.023 4.200
v -15.274 -86.643 4.200
v -22.266 -85.279 2.600
v -16.756 -88.898 2.600
v -15.274 -86.643 4.200
v -20.784 -83.023 4.200
v -19.302 -80.767 2.600
v -22.266 -85.279 2.600
v -20.784 -83.023 4.200
v -16.756 -88.898 2.600
v -13.792 -84.387 2.600
v -15.274 -86.643 4.200
v -19.878 -71.925 0.000
v -24.031 -70.857 0.000
v -24.031 -70.857 2.600
v -19.878 -71.925 2.600
v -24.031 -70.857 0.000
v -25.089 -74.977 0.000
v -25.089 -74.977 2.600
v -24.031 -70.857 2.600
v -25.089 -74.977 0.000
v -20.937 -76.044 0.000
v -20.937 -76.044 2.600
v -25.089 -74.977 2.600
v -20.937 -76.044 0.000
v -19.878 -71.925 0.000
v -19.878 -71.925 2.600
v -20.937 -76.044 2.600
v -19.878 -71.925 2.600
v -24.031 -70.857 2.600
v -25.089 -74.977 2.600
v -20.937 -76.044 2.600
v -19.488 -71.612 2.600
v -24.222 -70.395 2.600
v -24.851 -72.842 4.200
v -20.117 -74.059 4.200
v -25.480 -75.289 2.600
v -20.746 -76.506 2.600
v -20.117 -74.059 4.200
v -24.851 -72.842 4.200
v -24.222 -70.395 2.600
v -25.480 -75.289 2.600
v -24.851 -72.842 4.200
v -20.746 -76.506 2.600
v -19.488 -71.612 2.600
v -20.117 -74.059 4.200
v -79.905 -77.195 0.000
v -76.005 -74.684 0.000
v -76.005 -74.684 2.600
v -79.905 -77.195 2.600
v -76.005 -74.684 0.000
v -77.930 -71.695 0.000
v -77.930 -71.695 2.600
v -76.005 -74.684 2.600
v -77.930 -71.695 0.000
v -81.830 -74.206 0.000
v -81.830 -74.206 2.600
v -77.930 -71.695 2.600
v -81.830 -74.206 0.000
v -79.905 -77.195 0.000
v -79.905 -77.195 2.600
v -81.830 -74.206 2.600
v -79.905 -77.195 2.600
v -76.005 -74.684 2.600
v -77.930 -71.695 2.600
v -81.830 -74.206 2.600
v -79.941 -77.694 2.600
v -75.537 -74.858 2.600
v -76.715 -73.027 4.200
v -81.120 -75.863 4.200
v -77.894 -71.196 2.600
v -82.298 -74.032 2.600
v -81.120 -75.863 4.200
v -76.715 -73.027 4.200
v -75.537 -74.858 2.600
v -77.894 -71.196 2.600
v -76.715 -73.027 4.200
v -82.298 -74.032 2.600
v -79.941 -77.694 2.600
v -81.120 -75.863 4.200
v -21.496 -48.711 0.000
v -27.259 -48.583 0.000
v -27.259 -48.583 2.600
v -21.496 -48.711 2.600
v -27.259 -48.583 0.000
v -27.340 -52.239 0.000
v -27.340 -52.239 2.600
v -27.259 -48.583 2.600
v -27.340 -52.239 0.000
v -21.577 -52.367 0.000
v -21.577 -52.367 2.600
v -27.340 -52.239 2.600
v -21.577 -52.367 0.000
v -21.496 -48.711 0.000
v -21.496 -48.711 2.600
v -21.577 -52.367 2.600
v -21.496 -48.711 2.600
v -27.259 -48.583 2.600
v -27.340 -52.239 2.600
v -21.577 -52.367 2.600
v -21.187 -48.318 2.600
v -27.550 -48.177 2.600
v -27.600 -50.405 4.200
v -21.236 -50.546 4.200
v -27.649 -52.633 2.600
v -21.285 -52.774 2.600
v -21.236 -50.546 4.200
v -27.600 -50.405 4.200
v -27.550 -48.177 2.600
v -27.649 -52.633 2.600
v -27.600 -50.405 4.200
v -21.285 -52.774 2.600
v -21.187 -48.318 2.600
v -21.236 -50.546 4.200
v -41.394 -65.269 0.000
v -42.484 -60.873 0.000
v -42.484 -60.873 2.600
v -41.394 -65.269 2.600
v -42.484 -60.873 0.000
v -47.323 -62.073 0.000
v -47.323 -62.073 2.600
v -42.484 -60.873 2.600
v -47.323 -62.073 0.000
v -46.233 -66.469 0.000
v -46.233 -66.469 2.600
v -47.323 -62.073 2.600
v -46.233 -66.469 0.000
v -41.394 -65.269 0.000
v -41.394 -65.269 2.600
v -46.233 -66.469 2.600
v -41.394 -65.269 2.600
v -42.484 -60.873 2.600
v -47.323 -62.073 2.600
v -46.233 -66.469 2.600
v -40.933 -65.464 2.600
v -42.168 -60.485 2.600
v -44.976 -61.182 4.200
v -43.741 -66.160 4.200
v -47.783 -61.878 2.600
v -46.549 -66.857 2.600
v -43.741 -66.160 4.200
v -44.976 -61.182 4.200
v -42.168 -60.485 2.600
v -47.783 -61.878 2.600
v -44.976 -61.182 4.200
v -46.549 -66.857 2.600
v -40.933 -65.464 2.600
v -43.741 -66.160 4.200
v -68.262 -35.910 0.000
v -63.959 -35.252 0.000
v -63.959 -35.252 2.600
v -68.262 -35.910 2.600
v -63.959 -35.252 0.000
v -64.656 -30.689 0.000
v -64.656 -30.689 2.600
v -63.959 -35.252 2.600
v -64.656 -30.689 0.000
v -68.960 -31.347 0.000
v -68.960 -31.347 2.600
v -64.656 -30.689 2.600
v -68.960 -31.347 0.000
v -68.262 -35.910 0.000
v -68.262 -35.910 2.600
v -68.960 -31.347 2.600
v -68.262 -35.910 2.600
v -63.959 -35.252 2.600
v -64.656 -30.689 2.600
v -68.960 -31.347 2.600
v -68.498 -36.350 2.600
v -63.602 -35.602 2.600
v -64.011 -32.925 4.200
v -68.908 -33.674 4.200
v -64.420 -30.249 2.600
v -69.317 -30.997 2.600
v -68.908 -33.674 4.200
v -64.011 -32.925 4.200
v -63.602 -35.602 2.600
v -64.420 -30.249 2.600
v -64.011 -32.925 4.200
v -69.317 -30.997 2.600
v -68.498 -36.350 2.600
v -68.908 -33.674 4.200
v -46.235 -17.307 0.000
v -40.908 -17.277 0.000
v -40.908 -17.277 2.600
v -46.235 -17.307 2.600
v -40.908 -17.277 0.000
v -40.930 -13.308 0.000
v -40.930 -13.308 2.600
v -40.908 -17.277 2.600
v -40.930 -13.308 0.000
v -46.257 -13.338 0.000
v -46.257 -13.338 2.600
v -40.930 -13.308 2.600
v -46.257 -13.338 0.000
v -46.235 -17.307 0.000
v -46.235 -17.307 2.600
v -46.257 -13.338 2.600
v -46.235 -17.307 2.600
v -40.908 -17.277 2.600
v -40.930 -13.308 2.600
v -46.257 -13.338 2.600
v -46.533 -17.709 2.600
v -40.605 -17.675 2.600
v -40.619 -15.291 4.200
v -46.546 -15.324 4.200
v -40.632 -12.906 2.600
v -46.560 -12.940 2.600
v -46.546 -15.324 4.200
v -40.619 -15.291 4.200
v -40.605 -17.675 2.600
v -40.632 -12.906 2.600
v -40.619 -15.291 4.200
v -46.560 -12.940 2.600
v -46.533 -17.709 2.600
v -46.546 -15.324 4.200
v -90.239 -82.515 0.000
v -94.843 -80.948 0.000
v -94.843 -80.948 2.600
v -90.239 -82.515 2.600
v -94.843 -80.948 0.000
v -96.219 -84.989 0.000
v -96.219 -84.989 2.600
v -94.843 -80.948 2.600
v -96.219 -84.989 0.000
v -91.614 -86.557 0.000
v -91.614 -86.557 2.600
v -96.219 -84.989 2.600
v -91.614 -86.557 0.000
v -90.239 -82.515 0.000
v -90.239 -82.515 2.600
v -91.614 -86.557 2.600
v -90.239 -82.515 2.600
v -94.843 -80.948 2.600
v -96.219 -84.989 2.600
v -91.614 -86.557 2.600
v -89.826 -82.233 2.600
v -94.999 -80.472 2.600
v -95.815 -82.871 4.200
v -90.643 -84.633 4.200
v -96.632 -85.271 2.600
v -91.459 -87.032 2.600
v -90.643 -84.633 4.200
v -95.815 -82.871 4.200
v -94.999 -80.472 2.600
v -96.632 -85.271 2.600
v -95.815 -82.871 4.200
v -91.459 -87.032 2.600
v -89.826 -82.233 2.600
v -90.643 -84.633 4.200
v -93.753 -68.543 0.000
v -94.854 -64.446 0.000
v -94.854 -64.446 0.900
v -93.753 -68.543 0.900
v -94.854 -64.446 0.000
v -97.818 -65.243 0.000
v -97.818 -65.243 0.900
v -94.854 -64.446 0.900
v -97.818 -65.243 0.000
v -96.717 -69.340 0.000
v -96.717 -69.340 0.900
v -97.818 -65.243 0.900
v -96.717 -69.340 0.000
v -93.753 -68.543 0.000
v -93.753 -68.543 0.900
v -96.717 -69.340 0.900
v -93.753 -68.543 0.900
v -94.854 -64.446 0.900
v -97.818 -65.243 0.900
v -96.717 -69.340 0.900
v -92.125 -66.766 0.900
v -94.367 -63.575 0.900
v -96.107 -64.798 1.800
v -93.864 -67.988 1.800
v -97.846 -66.020 0.900
v -95.604 -69.211 0.900
v -93.864 -67.988 1.800
v -96.107 -64.798 1.800
v -94.367 -63.575 0.900
v -97.846 -66.020 0.900
v -96.107 -64.798 1.800
v -95.604 -69.211 0.900
v -92.125 -66.766 0.900
v -93.864 -67.988 1.800
v -72.970 -83.768 0.000
v -76.650 -80.765 0.000
v -76.650 -80.765 0.900
v -72.970 -83.768 0.900
v -76.650 -80.765 0.000
v -79.081 -83.745 0.000
v -79.081 -83.745 0.900
v -76.650 -80.765 0.900
v -79.081 -83.745 0.000
v -75.402 -86.747 0.000
v -75.402 -86.747 0.900
v -79.081 -83.745 0.900
v -75.402 -86.747 0.000
v -72.970 -83.768 0.000
v -72.970 -83.768 0.900
v -75.402 -86.747 0.900
v -72.970 -83.768 0.900
v -76.650 -80.765 0.900
v -79.081 -83.745 0.900
v -75.402 -86.747 0.900
v -72.357 -81.540 0.900
v -76.412 -80.131 0.900
v -77.254 -82.552 1.800
v -73.198 -83.961 1.800
v -78.095 -84.973 0.900
v -74.039 -86.382 0.900
v -73.198 -83.961 1.800
v -77.254 -82.552 1.800
v -76.412 -80.131 0.900
v -78.095 -84.973 0.900
v -77.254 -82.552 1.800
v -74.039 -86.382 0.900
v -72.357 -81.540 0.900
v -73.198 -83.961 1.800
v -89.524 -52.469 0.000
v -92.963 -49.604 0.000
v -92.963 -49.604 2.600
v -89.524 -52.469 2.600
v -92.963 -49.604 0.000
v -95.259 -52.360 0.000
v -95.259 -52.360 2.600
v -92.963 -49.604 2.600
v -95.259 -52.360 0.000
v -91.821 -55.225 0.000
v -91.821 -55.225 2.600
v -95.259 -52.360 2.600
v -91.821 -55.225 0.000
v -89.524 -52.469 0.000
v -89.524 -52.469 2.600
v -91.821 -55.225 2.600
v -89.524 -52.469 2.600
v -92.963 -49.604 2.600
v -95.259 -52.360 2.600
v -91.821 -55.225 2.600
v -89.038 -52.354 2.600
v -92.937 -49.105 2.600
v -94.341 -50.790 4.200
v -90.442 -54.039 4.200
v -95.746 -52.476 2.600
v -91.847 -55.725 2.600
v -90.442 -54.039 4.200
v -94.341 -50.790 4.200
v -92.937 -49.105 2.600
v -95.746 -52.476 2.600
v -94.341 -50.790 4.200
v -91.847 -55.725 2.600
v -89.038 -52.354 2.600
v -90.442 -54.039 4.200
v -80.663 -49.529 0.000
v -76.155 -46.773 0.000
v -76.155 -46.773 2.600
v -80.663 -49.529 2.600
v -76.155 -46.773 0.000
v -78.616 -42.746 0.000
v -78.616 -42.746 2.600
v -76.155 -46.773 2.600
v -78.616 -42.746 0.000
v -83.124 -45.501 0.000
v -83.124 -45.501 2.600
v -78.616 -42.746 2.600
v -83.124 -45.501 0.000
v -80.663 -49.529 0.000
v -80.663 -49.529 2.600
v -83.124 -45.501 2.600
v -80.663 -49.529 2.600
v -76.155 -46.773 2.600
v -78.616 -42.746 2.600
v -83.124 -45.501 2.600
v -80.710 -50.026 2.600
v -75.690 -46.958 2.600
v -77.130 -44.603 4.200
v -82.149 -47.671 4.200
v -78.569 -42.248 2.600
v -83.589 -45.316 2.600
v -82.149 -47.671 4.200
v -77.130 -44.603 4.200
v -75.690 -46.958 2.600
v -78.569 -42.248 2.600
v -77.130 -44.603 4.200
v -83.589 -45.316 2.600
v -80.710 -50.026 2.600
v -82.149 -47.671 4.200
v -88.802 -22.799 0.000
v -93.597 -20.249 0.000
v -93.597 -20.249 2.600
v -88.802 -22.799 2.600
v -93.597 -20.249 0.000
v -95.245 -23.348 0.000
v -95.245 -23.348 2.600
v -93.597 -20.249 2.600
v -95.245 -23.348 0.000
v -90.450 -25.897 0.000
v -90.450 -25.897 2.600
v -95.245 -23.348 2.600
v -90.450 -25.897 0.000
v -88.802 -22.799 0.000
v -88.802 -22.799 2.600
v -90.450 -25.897 2.600
v -88.802 -22.799 2.600
v -93.597 -20.249 2.600
v -95.245 -23.348 2.600
v -90.450 -25.897 2.600
v -88.350 -22.586 2.600
v -93.674 -19.755 2.600
v -94.686 -21.657 4.200
v -89.361 -24.489 4.200
v -95.698 -23.560 2.600
v -90.373 -26.391 2.600
v -89.361 -24.489 4.200
v -94.686 -21.657 4.200
v -93.674 -19.755 2.600
v -95.698 -23.560 2.600
v -94.686 -21.657 4.200
v -90.373 -26.391 2.600
v -88.350 -22.586 2.600
v -89.361 -24.489 4.200
v -36.591 -60.460 0.000
v -31.952 -58.867 0.000
v -31.952 -58.867 2.600
v -36.591 -60.460 2.600
v -31.952 -58.867 0.000
v -33.198 -55.236 0.000
v -33.198 -55.236 2.600
v -31.952 -58.867 2.600
v -33.198 -55.236 0.000
v -37.838 -56.829 0.000
v -37.838 -56.829 2.600
v -33.198 -55.236 2.600
v -37.838 -56.829 0.000
v -36.591 -60.460 0.000
v -36.591 -60.460 2.600
v -37.838 -56.829 2.600
v -36.591 -60.460 2.600
v -31.952 -58.867 2.600
v -33.198 -55.236 2.600
v -37.838 -56.829 2.600
v -36.745 -60.936 2.600
v -31.538 -59.148 2.600
v -32.291 -56.954 4.200
v -37.498 -58.742 4.200
v -33.045 -54.761 2.600
v -38.251 -56.548 2.600
v -37.498 -58.742 4.200
v -32.291 -56.954 4.200
v -31.538 -59.148 2.600
v -33.045 -54.761 2.600
v -32.291 -56.954 4.200
v -38.251 -56.548 2.600
v -36.745 -60.936 2.600
v -37.498 -58.742 4.200
v -73.460 -92.093 0.000
v -78.322 -89.524 0.000
v -78.322 -89.524 2.600
v -73.460 -92.093 2.600
v -78.322 -89.524 0.000
v -80.444 -93.541 0.000
v -80.444 -93.541 2.600
v -78.322 -89.524 2.600
v -80.444 -93.541 0.000
v -75.581 -96.109 0.000
v -75.581 -96.109 2.600
v -80.444 -93.541 2.600
v -75.581 -96.109 0.000
v -73.460 -92.093 0.000
v -73.460 -92.093 2.600
v -75.581 -96.109 2.600
v -73.460 -92.093 2.600
v -78.322 -89.524 2.600
v -80.444 -93.541 2.600
v -75.581 -96.109 2.600
v -73.007 -91.879 2.600
v -78.401 -89.031 2.600
v -79.648 -91.393 4.200
v -74.255 -94.241 4.200
v -80.896 -93.755 2.600
v -75.503 -96.603 2.600
v -74.255 -94.241 4.200
v -79.648 -91.393 4.200
v -78.401 -89.031 2.600
v -80.896 -93.755 2.600
v -79.648 -91.393 4.200
v -75.503 -96.603 2.600
v -73.007 -91.879 2.600
v -74.255 -94.241 4.200
v -21.235 -92.865 0.000
v -25.640 -92.092 0.000
v -25.640 -92.092 2.600
v -21.235 -92.865 2.600
v -25.640 -92.092 0.000
v -26.438 -96.638 0.000
v -26.438 -96.638 2.600
v -25.640 -92.092 2.600
v -26.438 -96.638 0.000
v -22.033 -97.411 0.000
v -22.033 -97.411 2.600
v -26.438 -96.638 2.600
v -22.033 -97.411 0.000
v -21.235 -92.865 0.000
v -21.235 -92.865 2.600
v -22.033 -97.411 2.600
v -21.235 -92.865 2.600
v -25.640 -92.092 2.600
v -26.438 -96.638 2.600
v -22.033 -97.411 2.600
v -20.870 -92.523 2.600
v -25.866 -91.646 2.600
v -26.334 -94.313 4.200
v -21.338 -95.190 4.200
v -26.802 -96.980 2.600
v -21.806 -97.857 2.600
v -21.338 -95.190 4.200
v -26.334 -94.313 4.200
v -25.866 -91.646 2.600
v -26.802 -96.980 2.600
v -26.334 -94.313 4.200
v -21.806 -97.857 2.600
v -20.870 -92.523 2.600
v -21.338 -95.190 4.200
v -22.834 -20.238 0.000
v -18.887 -19.810 0.000
v -18.887 -19.810 0.900
v -22.834 -20.238 0.900
v -18.887 -19.810 0.000
v -19.203 -16.892 0.000
v -19.203 -16.892 0.900
v -18.887 -19.810 0.900
v -19.203 -16.892 0.000
v -23.150 -17.321 0.000
v -23.150 -17.321 0.900
v -19.203 -16.892 0.900
v -23.150 -17.321 0.000
v -22.834 -20.238 0.000
v -22.834 -20.238 0.900
v -23.150 -17.321 0.900
v -22.834 -20.238 0.900
v -18.887 -19.810 0.900
v -19.203 -16.892 0.900
v -23.150 -17.321 0.900
v -20.965 -20.720 0.900
v -17.658 -19.089 0.900
v -18.565 -17.250 1.800
v -21.872 -18.881 1.800
v -19.472 -15.411 0.900
v -22.779 -17.042 0.900
v -21.872 -18.881 1.800
v -18.565 -17.250 1.800
v -17.658 -19.089 0.900
v -19.472 -15.411 0.900
v -18.565 -17.250 1.800
v -22.779 -17.042 0.900
v -20.965 -20.720 0.900
v -21.872 -18.881 1.800
v -45.626 -30.777 0.000
v -41.265 -29.392 0.000
v -41.265 -29.392 2.600
v -45.626 -30.777 2.600
v -41.265 -29.392 0.000
v -42.370 -25.914 0.000
v -42.370 -25.914 2.600
v -41.265 -29.392 2.600
v -42.370 -25.914 0.000
v -46.730 -27.298 0.000
v -46.730 -27.298 2.600
v -42.370 -25.914 2.600
v -46.730 -27.298 0.000
v -45.626 -30.777 0.000
v -45.626 -30.777 2.600
v -46.730 -27.298 2.600
v -45.626 -30.777 2.600
v -41.265 -29.392 2.600
v -42.370 -25.914 2.600
v -46.730 -27.298 2.600
v -45.791 -31.249 2.600
v -40.858 -29.683 2.600
v -41.532 -27.562 4.200
v -46.464 -29.128 4.200
v -42.205 -25.441 2.600
v -47.137 -27.007 2.600
v -46.464 -29.128 4.200
v -41.532 -27.562 4.200
v -40.858 -29.683 2.600
v -42.205 -25.441 2.600
v -41.532 -27.562 4.200
v -47.137 -27.007 2.600
v -45.791 -31.249 2.600
v -46.464 -29.128 4.200
v -67.334 -61.849 0.000
v -69.882 -58.685 0.000
v -69.882 -58.685 0.900
v -67.334 -61.849 0.900
v -69.882 -58.685 0.000
v -72.327 -60.653 0.000
v -72.327 -60.653 0.900
v -69.882 -58.685 0.900
v -72.327 -60.653 0.000
v -69.780 -63.818 0.000
v -69.780 -63.818 0.900
v -72.327 -60.653 0.900
v -69.780 -63.818 0.000
v -67.334 -61.849 0.000
v -67.334 -61.849 0.900
v -69.780 -63.818 0.900
v -67.334 -61.849 0.900
v -69.882 -58.685 0.900
v -72.327 -60.653 0.900
v -69.780 -63.818 0.900
v -66.302 -59.868 0.900
v -69.521 -57.926 0.900
v -70.640 -59.780 1.800
v -67.421 -61.722 1.800
v -71.759 -61.634 0.900
v -68.540 -63.577 0.900
v -67.421 -61.722 1.800
v -70.640 -59.780 1.800
v -69.521 -57.926 0.900
v -71.759 -61.634 0.900
v -70.640 -59.780 1.800
v -68.540 -63.577 0.900
v -66.302 -59.868 0.900
v -67.421 -61.722 1.800
v -52.486 -81.341 0.000
v -48.889 -79.209 0.000
v -48.889 -79.209 2.600
v -52.486 -81.341 2.600
v -48.889 -79.209 0.000
v -51.302 -75.140 0.000
v -51.302 -75.140 2.600
v -48.889 -79.209 2.600
v -51.302 -75.140 0.000
v -54.898 -77.273 0.000
v -54.898 -77.273 2.600
v -51.302 -75.140 2.600
v -54.898 -77.273 0.000
v -52.486 -81.341 0.000
v -52.486 -81.341 2.600
v -54.898 -77.273 2.600
v -52.486 -81.341 2.600
v -48.889 -79.209 2.600
v -51.302 -75.140 2.600
v -54.898 -77.273 2.600
v -52.540 -81.839 2.600
v -48.427 -79.400 2.600
v -49.837 -77.021 4.200
v -53.950 -79.460 4.200
v -51.247 -74.643 2.600
v -55.361 -77.082 2.600
v -53.950 -79.460 4.200
v -49.837 -77.021 4.200
v -48.427 -79.400 2.600
v -51.247 -74.643 2.600
v -49.837 -77.021 4.200
v -55.361 -77.082 2.600
v -52.540 -81.839 2.600
v -53.950 -79.460 4.200
v -12.581 -32.232 0.000
v -14.627 -27.813 0.000
v -14.627 -27.813 2.600
v -12.581 -32.232 2.600
v -14.627 -27.813 0.000
v -18.070 -29.406 0.000
v -18.070 -29.406 2.600
v -14.627 -27.813 2.600
v -18.070 -29.406 0.000
v -16.025 -33.826 0.000
v -16.025 -33.826 2.600
v -18.070 -29.406 2.600
v -16.025 -33.826 0.000
v -12.581 -32.232 0.000
v -12.581 -32.232 2.600
v -16.025 -33.826 2.600
v -12.581 -32.232 2.600
v -14.627 -27.813 2.600
v -18.070 -29.406 2.600
v -16.025 -33.826 2.600
v -12.092 -32.336 2.600
v -14.390 -27.372 2.600
v -16.474 -28.337 4.200
v -14.177 -33.301 4.200
v -18.559 -29.302 2.600
v -16.262 -34.266 2.600
v -14.177 -33.301 4.200
v -16.474 -28.337 4.200
v -14.390 -27.372 2.600
v -18.559 -29.302 2.600
v -16.474 -28.337 4.200
v -16.262 -34.266 2.600
v -12.092 -32.336 2.600
v -14.177 -33.301 4.200
v -22.255 -64.102 0.000
v -18.114 -60.485 0.000
v -18.114 -60.485 2.600
v -22.255 -64.102 2.600
v -18.114 -60.485 0.000
v -20.833 -57.373 0.000
v -20.833 -57.373 2.600
v -18.114 -60.485 2.600
v -20.833 -57.373 0.000
v -24.973 -60.991 0.000
v -24.973 -60.991 2.600
v -20.833 -57.373 2.600
v -24.973 -60.991 0.000
v -22.255 -64.102 0.000
v -22.255 -64.102 2.600
v -24.973 -60.991 2.600
v -22.255 -64.102 2.600
v -18.114 -60.485 2.600
v -20.833 -57.373 2.600
v -24.973 -60.991 2.600
v -22.218 -64.601 2.600
v -17.625 -60.589 2.600
v -19.247 -58.732 4.200
v -23.840 -62.744 4.200
v -20.870 -56.875 2.600
v -25.462 -60.887 2.600
v -23.840 -62.744 4.200
v -19.247 -58.732 4.200
v -17.625 -60.589 2.600
v -20.870 -56.875 2.600
v -19.247 -58.732 4.200
v -25.462 -60.887 2.600
v -22.218 -64.601 2.600
v -23.840 -62.744 4.200
v -84.742 -17.835 0.000
v -83.467 -13.924 0.000
v -83.467 -13.924 2.600
v -84.742 -17.835 2.600
v -83.467 -13.924 0.000
v -87.186 -12.712 0.000
v -87.186 -12.712 2.600
v -83.467 -13.924 2.600
v -87.186 -12.712 0.000
v -88.461 -16.623 0.000
v -88.461 -16.623 2.600
v -87.186 -12.712 2.600
v -88.461 -16.623 0.000
v -84.742 -17.835 0.000
v -84.742 -17.835 2.600
v -88.461 -16.623 2.600
v -84.742 -17.835 2.600
v -83.467 -13.924 2.600
v -87.186 -12.712 2.600
v -88.461 -16.623 2.600
v -84.454 -18.244 2.600
v -82.993 -13.763 2.600
v -85.233 -13.033 4.200
v -86.694 -17.514 4.200
v -87.473 -12.303 2.600
v -88.934 -16.784 2.600
v -86.694 -17.514 4.200
v -85.233 -13.033 4.200
v -82.993 -13.763 2.600
v -87.473 -12.303 2.600
v -85.233 -13.033 4.200
v -88.934 -16.784 2.600
v -84.454 -18.244 2.600
v -86.694 -17.514 4.200
v -64.959 -76.549 0.000
v -65.379 -71.632 0.000
v -65.379 -71.632 0.900
v -64.959 -76.549 0.900
v -65.379 -71.632 0.000
v -69.292 -71.966 0.000
v -69.292 -71.966 0.900
v -65.379 -71.632 0.900
v -69.292 -71.966 0.000
v -68.873 -76.882 0.000
v -68.873 -76.882 0.900
v -69.292 -71.966 0.900
v -68.873 -76.882 0.000
v -64.959 -76.549 0.000
v -64.959 -76.549 0.900
v -68.873 -76.882 0.900
v -64.959 -76.549 0.900
v -65.379 -71.632 0.900
v -69.292 -71.966 0.900
v -68.873 -76.882 0.900
v -63.024 -74.670 0.900
v -64.895 -70.645 0.900
v -67.261 -71.745 1.800
v -65.391 -75.769 1.800
v -69.627 -72.845 0.900
v -67.757 -76.869 0.900
v -65.391 -75.769 1.800
v -67.261 -71.745 1.800
v -64.895 -70.645 0.900
v -69.627 -72.845 0.900
v -67.261 -71.745 1.800
v -67.757 -76.869 0.900
v -63.024 -74.670 0.900
v -65.391 -75.769 1.800
v 30.261 33.300 0.000
v 31.456 36.623 0.000
v 31.456 36.623 1.232
v 30.261 33.300 1.232
v 31.456 36.623 0.000
v 27.218 38.148 0.000
v 27.218 38.148 1.232
v 31.456 36.623 1.232
v 27.218 38.148 0.000
v 26.023 34.825 0.000
v 26.023 34.825 1.232
v 27.218 38.148 1.232
v 26.023 34.825 0.000
v 30.261 33.300 0.000
v 30.261 33.300 1.232
v 26.023 34.825 1.232
v 30.261 33.300 1.232
v 31.456 36.623 1.232
v 27.218 38.148 1.232
v 26.023 34.825 1.232
v 29.865 33.298 0.000
v 31.797 37.124 0.000
v 31.797 37.124 0.831
v 29.865 33.298 0.831
v 31.797 37.124 0.000
v 26.810 39.642 0.000
v 26.810 39.642 0.831
v 31.797 37.124 0.831
v 26.810 39.642 0.000
v 24.878 35.816 0.000
v 24.878 35.816 0.831
v 26.810 39.642 0.831
v 24.878 35.816 0.000
v 29.865 33.298 0.000
v 29.865 33.298 0.831
v 24.878 35.816 0.831
v 29.865 33.298 0.831
v 31.797 37.124 0.831
v 26.810 39.642 0.831
v 24.878 35.816 0.831
v 30.284 31.995 0.000
v 34.345 34.380 0.000
v 34.345 34.380 1.618
v 30.284 31.995 1.618
v 34.345 34.380 0.000
v 32.204 38.026 0.000
v 32.204 38.026 1.618
v 34.345 34.380 1.618
v 32.204 38.026 0.000
v 28.143 35.641 0.000
v 28.143 35.641 1.618
v 32.204 38.026 1.618
v 28.143 35.641 0.000
v 30.284 31.995 0.000
v 30.284 31.995 1.618
v 28.143 35.641 1.618
v 30.284 31.995 1.618
v 34.345 34.380 1.618
v 32.204 38.026 1.618
v 28.143 35.641 1.618
v 33.170 40.359 0.000
v 30.132 41.478 0.000
v 30.132 41.478 1.070
v 33.170 40.359 1.070
v 30.132 41.478 0.000
v 27.779 35.088 0.000
v 27.779 35.088 1.070
v 30.132 41.478 1.070
v 27.779 35.088 0.000
v 30.817 33.970 0.000
v 30.817 33.970 1.070
v 27.779 35.088 1.070
v 30.817 33.970 0.000
v 33.170 40.359 0.000
v 33.170 40.359 1.070
v 30.817 33.970 1.070
v 33.170 40.359 1.070
v 30.132 41.478 1.070
v 27.779 35.088 1.070
v 30.817 33.970 1.070
v 33.246 36.635 0.000
v 31.213 38.543 0.000
v 31.213 38.543 1.326
v 33.246 36.635 1.326
v 31.213 38.543 0.000
v 28.520 35.673 0.000
v 28.520 35.673 1.326
v 31.213 38.543 1.326
v 28.520 35.673 0.000
v 30.554 33.765 0.000
v 30.554 33.765 1.326
v 28.520 35.673 1.326
v 30.554 33.765 0.000
v 33.246 36.635 0.000
v 33.246 36.635 1.326
v 30.554 33.765 1.326
v 33.246 36.635 1.326
v 31.213 38.543 1.326
v 28.520 35.673 1.326
v 30.554 33.765 1.326
v 87.825 33.971 0.000
v 89.512 34.684 0.000
v 89.512 34.684 1.249
v 87.825 33.971 1.249
v 89.512 34.684 0.000
v 88.535 36.992 0.000
v 88.535 36.992 1.249
v 89.512 34.684 1.249
v 88.535 36.992 0.000
v 86.849 36.278 0.000
v 86.849 36.278 1.249
v 88.535 36.992 1.249
v 86.849 36.278 0.000
v 87.825 33.971 0.000
v 87.825 33.971 1.249
v 86.849 36.278 1.249
v 87.825 33.971 1.249
v 89.512 34.684 1.249
v 88.535 36.992 1.249
v 86.849 36.278 1.249
v 89.525 38.050 0.000
v 87.501 39.034 0.000
v 87.501 39.034 1.003
v 89.525 38.050 1.003
v 87.501 39.034 0.000
v 86.084 36.121 0.000
v 86.084 36.121 1.003
v 87.501 39.034 1.003
v 86.084 36.121 0.000
v 88.107 35.136 0.000
v 88.107 35.136 1.003
v 86.084 36.121 1.003
v 88.107 35.136 0.000
v 89.525 38.050 0.000
v 89.525 38.050 1.003
v 88.107 35.136 1.003
v 89.525 38.050 1.003
v 87.501 39.034 1.003
v 86.084 36.121 1.003
v 88.107 35.136 1.003
v 90.606 38.463 0.000
v 88.872 38.762 0.000
v 88.872 38.762 1.743
v 90.606 38.463 1.743
v 88.872 38.762 0.000
v 88.410 36.085 0.000
v 88.410 36.085 1.743
v 88.872 38.762 1.743
v 88.410 36.085 0.000
v 90.144 35.785 0.000
v 90.144 35.785 1.743
v 88.410 36.085 1.743
v 90.144 35.785 0.000
v 90.606 38.463 0.000
v 90.606 38.463 1.743
v 90.144 35.785 1.743
v 90.606 38.463 1.743
v 88.872 38.762 1.743
v 88.410 36.085 1.743
v 90.144 35.785 1.743
v 89.850 32.503 0.000
v 91.775 34.144 0.000
v 91.775 34.144 1.809
v 89.850 32.503 1.809
v 91.775 34.144 0.000
v 89.952 36.284 0.000
v 89.952 36.284 1.809
v 91.775 34.144 1.809
v 89.952 36.284 0.000
v 88.026 34.642 0.000
v 88.026 34.642 1.809
v 89.952 36.284 1.809
v 88.026 34.642 0.000
v 89.850 32.503 0.000
v 89.850 32.503 1.809
v 88.026 34.642 1.809
v 89.850 32.503 1.809
v 91.775 34.144 1.809
v 89.952 36.284 1.809
v 88.026 34.642 1.809
v 90.178 37.415 0.000
v 88.475 37.983 0.000
v 88.475 37.983 2.081
v 90.178 37.415 2.081
v 88.475 37.983 0.000
v 87.327 34.544 0.000
v 87.327 34.544 2.081
v 88.475 37.983 2.081
v 87.327 34.544 0.000
v 89.029 33.976 0.000
v 89.029 33.976 2.081
v 87.327 34.544 2.081
v 89.029 33.976 0.000
v 90.178 37.415 0.000
v 90.178 37.415 2.081
v 89.029 33.976 2.081
v 90.178 37.415 2.081
v 88.475 37.983 2.081
v 87.327 34.544 2.081
v 89.029 33.976 2.081
v 89.251 89.062 0.000
v 90.953 90.903 0.000
v 90.953 90.903 1.787
v 89.251 89.062 1.787
v 90.953 90.903 0.000
v 89.097 92.618 0.000
v 89.097 92.618 1.787
v 90.953 90.903 1.787
v 89.097 92.618 0.000
v 87.396 90.777 0.000
v 87.396 90.777 1.787
v 89.097 92.618 1.787
v 87.396 90.777 0.000
v 89.251 89.062 0.000
v 89.251 89.062 1.787
v 87.396 90.777 1.787
v 89.251 89.062 1.787
v 90.953 90.903 1.787
v 89.097 92.618 1.787
v 87.396 90.777 1.787
v 92.526 93.593 0.000
v 90.095 95.208 0.000
v 90.095 95.208 1.046
v 92.526 93.593 1.046
v 90.095 95.208 0.000
v 88.013 92.073 0.000
v 88.013 92.073 1.046
v 90.095 95.208 1.046
v 88.013 92.073 0.000
v 90.445 90.458 0.000
v 90.445 90.458 1.046
v 88.013 92.073 1.046
v 90.445 90.458 0.000
v 92.526 93.593 0.000
v 92.526 93.593 1.046
v 90.445 90.458 1.046
v 92.526 93.593 1.046
v 90.095 95.208 1.046
v 88.013 92.073 1.046
v 90.445 90.458 1.046
v 90.960 89.278 0.000
v 92.497 90.957 0.000
v 92.497 90.957 1.468
v 90.960 89.278 1.468
v 92.497 90.957 0.000
v 89.607 93.603 0.000
v 89.607 93.603 1.468
v 92.497 90.957 1.468
v 89.607 93.603 0.000
v 88.070 91.924 0.000
v 88.070 91.924 1.468
v 89.607 93.603 1.468
v 88.070 91.924 0.000
v 90.960 89.278 0.000
v 90.960 89.278 1.468
v 88.070 91.924 1.468
v 90.960 89.278 1.468
v 92.497 90.957 1.468
v 89.607 93.603 1.468
v 88.070 91.924 1.468
v 90.971 90.560 0.000
v 92.721 92.022 0.000
v 92.721 92.022 1.716
v 90.971 90.560 1.716
v 92.721 92.022 0.000
v 90.627 94.529 0.000
v 90.627 94.529 1.716
v 92.721 92.022 1.716
v 90.627 94.529 0.000
v 88.876 93.066 0.000
v 88.876 93.066 1.716
v 90.627 94.529 1.716
v 88.876 93.066 0.000
v 90.971 90.560 0.000
v 90.971 90.560 1.716
v 88.876 93.066 1.716
v 90.971 90.560 1.716
v 92.721 92.022 1.716
v 90.627 94.529 1.716
v 88.876 93.066 1.716
v 90.185 92.137 0.000
v 91.994 92.810 0.000
v 91.994 92.810 1.997
v 90.185 92.137 1.997
v 91.994 92.810 0.000
v 91.048 95.353 0.000
v 91.048 95.353 1.997
v 91.994 92.810 1.997
v 91.048 95.353 0.000
v 89.238 94.680 0.000
v 89.238 94.680 1.997
v 91.048 95.353 1.997
v 89.238 94.680 0.000
v 90.185 92.137 0.000
v 90.185 92.137 1.997
v 89.238 94.680 1.997
v 90.185 92.137 1.997
v 91.994 92.810 1.997
v 91.048 95.353 1.997
v 89.238 94.680 1.997
v 30.282 31.687 0.400
v 33.248 32.138 0.400
v 33.248 32.138 0.650
v 30.282 31.687 0.650
v 33.248 32.138 0.400
v 32.918 34.313 0.400
v 32.918 34.313 0.650
v 33.248 32.138 0.650
v 32.918 34.313 0.400
v 29.952 33.862 0.400
v 29.952 33.862 0.650
v 32.918 34.313 0.650
v 29.952 33.862 0.400
v 30.282 31.687 0.400
v 30.282 31.687 0.650
v 29.952 33.862 0.650
v 30.282 31.687 0.650
v 33.248 32.138 0.650
v 32.918 34.313 0.650
v 29.952 33.862 0.650
v 88.917 31.703 0.400
v 91.888 32.118 0.400
v 91.888 32.118 0.650
v 88.917 31.703 0.650
v 91.888 32.118 0.400
v 91.583 34.297 0.400
v 91.583 34.297 0.650
v 91.888 32.118 0.650
v 91.583 34.297 0.400
v 88.612 33.882 0.400
v 88.612 33.882 0.650
v 91.583 34.297 0.650
v 88.612 33.882 0.400
v 88.917 31.703 0.400
v 88.917 31.703 0.650
v 88.612 33.882 0.650
v 88.917 31.703 0.650
v 91.888 32.118 0.650
v 91.583 34.297 0.650
v 88.612 33.882 0.650
v 88.879 88.743 0.400
v 91.861 89.070 0.400
v 91.861 89.070 0.650
v 88.879 88.743 0.650
v 91.861 89.070 0.400
v 91.621 91.257 0.400
v 91.621 91.257 0.650
v 91.861 89.070 0.650
v 91.621 91.257 0.400
v 88.639 90.930 0.400
v 88.639 90.930 0.650
v 91.621 91.257 0.650
v 88.639 90.930 0.400
v 88.879 88.743 0.400
v 88.879 88.743 0.650
v 88.639 90.930 0.650
v 88.879 88.743 0.650
v 91.861 89.070 0.650
v 91.621 91.257 0.650
v 88.639 90.930 0.650
vt 0.0000 0.0000
vt 1.8000 0.0000
vt 1.8000 4.0000
vt 0.0000 4.0000
vt 0.0000 0.0000
vt 3.2000 0.0000
vt 3.2000 4.0000
vt 0.0000 4.0000
vt 0.0000 0.0000
vt 1.8000 0.0000
vt 1.8000 4.0000
vt 0.0000 4.0000
vt 0.0000 0.0000
vt 3.2000 0.0000
vt 3.2000 4.0000
vt 0.0000 4.0000
vt 3.5800 2.8600
vt 4.3000 2.8600
vt 4.3000 4.1400
vt 3.5800 4.1400
vt 0.0000 0.0000
vt 1.8000 0.0000
vt 1.8000 2.0000
vt 0.0000 2.0000
vt 0.0000 0.0000
vt 3.2000 0.0000
vt 3.2000 2.0000
vt 0.0000 2.0000
vt 0.0000 0.0000
vt 1.8000 0.0000
vt 1.8000 2.0000
vt 0.0000 2.0000
vt 0.0000 0.0000
vt 3.2000 0.0000
vt 3.2000 2.0000
vt 0.0000 2.0000
vt 2.7000 8.5600
vt 3.4200 8.5600
vt 3.4200 9.8400
vt 2.7000 9.8400
vt 0.0000 0.0000
vt 1.8000 0.0000
vt 1.8000 6.0000
vt 0.0000 6.0000
vt 0.0000 0.0000
vt 3.2000 0.0000
vt 3.2000 6.0000
vt 0.0000 6.0000
vt 0.0000 0.0000
vt 1.8000 0.0000
vt 1.8000 6.0000
vt 0.0000 6.0000
vt 0.0000 0.0000
vt 3.2000 0.0000
vt 3.2000 6.0000
vt 0.0000 6.0000
vt 3.5800 8.5600
vt 4.3000 8.5600
vt 4.3000 9.8400
vt 3.5800 9.8400
vt 0.0000 0.0000
vt 1.8000 0.0000
vt 1.8000 2.0000
vt 0.0000 2.0000
vt 0.0000 0.0000
vt 3.2000 0.0000
vt 3.2000 2.0000
vt 0.0000 2.0000
vt 0.0000 0.0000
vt 1.8000 0.0000
vt 1.8000 2.0000
vt 0.0000 2.0000
vt 0.0000 0.0000
vt 3.2000 0.0000
vt 3.2000 2.0000
vt 0.0000 2.0000
vt 5.7000 8.5600
vt 6.4200 8.5600
vt 6.4200 9.8400
vt 5.7000 9.8400
vt 0.0000 0.0000
vt 1.8000 0.0000
vt 1.8000 6.0000
vt 0.0000 6.0000
vt 0.0000 0.0000
vt 3.2000 0.0000
vt 3.2000 6.0000
vt 0.0000 6.0000
vt 0.0000 0.0000
vt 1.8000 0.0000
vt 1.8000 6.0000
vt 0.0000 6.0000
vt 0.0000 0.0000
vt 3.2000 0.0000
vt 3.2000 6.0000
vt 0.0000 6.0000
vt 6.5800 8.5600
vt 7.3000 8.5600
vt 7.3000 9.8400
vt 6.5800 9.8400
vt 0.0000 0.0000
vt 1.1250 0.0000
vt 1.1250 2.0000
vt 0.0000 2.0000
vt 0.0000 0.0000
vt 2.0000 0.0000
vt 2.0000 2.0000
vt 0.0000 2.0000
vt 0.0000 0.0000
vt 1.1250 0.0000
vt 1.1250 2.0000
vt 0.0000 2.0000
vt 0.0000 0.0000
vt 2.0000 0.0000
vt 2.0000 2.0000
vt 0.0000 2.0000
vt 9.2500 3.1000
vt 9.7000 3.1000
vt 9.7000 3.9000
vt 9.2500 3.9000
vt 0.0000 0.0000
vt 1.1250 0.0000
vt 1.1250 4.0000
vt 0.0000 4.0000
vt 0.0000 0.0000
vt 2.0000 0.0000
vt 2.0000 4.0000
vt 0.0000 4.0000
vt 0.0000 0.0000
vt 1.1250 0.0000
vt 1.1250 4.0000
vt 0.0000 4.0000
vt 0.0000 0.0000
vt 2.0000 0.0000
vt 2.0000 4.0000
vt 0.0000 4.0000
vt 8.7000 6.1000
vt 9.1500 6.1000
vt 9.1500 6.9000
vt 8.7000 6.9000
vt 0.0000 0.0000
vt 1.1250 0.0000
vt 1.1250 4.0000
vt 0.0000 4.0000
vt 0.0000 0.0000
vt 2.0000 0.0000
vt 2.0000 4.0000
vt 0.0000 4.0000
vt 0.0000 0.0000
vt 1.1250 0.0000
vt 1.1250 4.0000
vt 0.0000 4.0000
vt 0.0000 0.0000
vt 2.0000 0.0000
vt 2.0000 4.0000
vt 0.0000 4.0000
vt 9.2500 6.1000
vt 9.7000 6.1000
vt 9.7000 6.9000
vt 9.2500 6.9000
vt 0.0000 0.0000
vt 1.1250 0.0000
vt 1.1250 3.0000
vt 0.0000 3.0000
vt 0.0000 0.0000
vt 2.0000 0.0000
vt 2.0000 3.0000
vt 0.0000 3.0000
vt 0.0000 0.0000
vt 1.1250 0.0000
vt 1.1250 3.0000
vt 0.0000 3.0000
vt 0.0000 0.0000
vt 2.0000 0.0000
vt 2.0000 3.0000
vt 0.0000 3.0000
vt 9.2500 8.8000
vt 9.7000 8.8000
vt 9.7000 9.6000
vt 9.2500 9.6000
vt 0.0000 0.0000
vt 2.1978 0.0000
vt 2.1978 0.4500
vt 0.0000 0.4500
vt 0.0000 0.0000
vt 1.7061 0.0000
vt 1.7061 0.4500
vt 0.0000 0.4500
vt 0.0000 0.0000
vt 2.1978 0.0000
vt 2.1978 0.4500
vt 0.0000 0.4500
vt 0.0000 0.0000
vt 1.7061 0.0000
vt 1.7061 0.4500
vt 0.0000 0.4500
vt -43.7142 -31.3319
vt -41.5345 -31.0511
vt -41.7524 -29.3590
vt -43.9321 -29.6397
vt 0.0000 0.0000
vt 1.7094 0.0000
vt 1.7094 1.2439
vt 0.0000 1.2439
vt 0.0000 0.0000
vt 1.7094 0.0000
vt 1.7094 1.2439
vt 0.0000 1.2439
vt 0.0000 0.0000
vt 1.0000 0.0000
vt 0.5000 0.5000
vt 0.0000 0.0000
vt 1.0000 0.0000
vt 0.5000 0.5000
vt 0.0000 0.0000
vt 2.7776 0.0000
vt 2.7776 1.3000
vt 0.0000 1.3000
vt 0.0000 0.0000
vt 2.1336 0.0000
vt 2.1336 1.3000
vt 0.0000 1.3000
vt 0.0000 0.0000
vt 2.7776 0.0000
vt 2.7776 1.3000
vt 0.0000 1.3000
vt 0.0000 0.0000
vt 2.1336 0.0000
vt 2.1336 1.3000
vt 0.0000 1.3000
vt -23.0938 -45.9151
vt -20.3564 -45.4438
vt -20.7184 -43.3412
vt -23.4558 -43.8124
vt 0.0000 0.0000
vt 2.7776 0.0000
vt 2.7776 1.4983
vt 0.0000 1.4983
vt 0.0000 0.0000
vt 2.7776 0.0000
vt 2.7776 1.4983
vt 0.0000 1.4983
vt 0.0000 0.0000
vt 1.0000 0.0000
vt 0.5000 0.5000
vt 0.0000 0.0000
vt 1.0000 0.0000
vt 0.5000 0.5000
vt 0.0000 0.0000
vt 2.9961 0.0000
vt 2.9961 1.3000
vt 0.0000 1.3000
vt 0.0000 0.0000
vt 2.2991 0.0000
vt 2.2991 1.3000
vt 0.0000 1.3000
vt 0.0000 0.0000
vt 2.9961 0.0000
vt 2.9961 1.3000
vt 0.0000 1.3000
vt 0.0000 0.0000
vt 2.2991 0.0000
vt 2.2991 1.3000
vt 0.0000 1.3000
vt -7.1312 -42.2781
vt -9.6353 -40.6331
vt -10.8976 -42.5546
vt -8.3935 -44.1997
vt 0.0000 0.0000
vt 2.9961 0.0000
vt 2.9961 1.5688
vt 0.0000 1.5688
vt 0.0000 0.0000
vt 2.9961 0.0000
vt 2.9961 1.5688
vt 0.0000 1.5688
vt 0.0000 0.0000
vt 1.0000 0.0000
vt 0.5000 0.5000
vt 0.0000 0.0000
vt 1.0000 0.0000
vt 0.5000 0.5000
vt 0.0000 0.0000
vt 2.1436 0.0000
vt 2.1436 1.3000
vt 0.0000 1.3000
vt 0.0000 0.0000
vt 2.1267 0.0000
vt 2.1267 1.3000
vt 0.0000 1.3000
vt 0.0000 0.0000
vt 2.1436 0.0000
vt 2.1436 1.3000
vt 0.0000 1.3000
vt 0.0000 0.0000
vt 2.1267 0.0000
vt 2.1267 1.3000
vt 0.0000 1.3000
vt -9.9392 -35.9623
vt -12.0153 -35.4286
vt -12.5447 -37.4883
vt -10.4687 -38.0220
vt 0.0000 0.0000
vt 2.1436 0.0000
vt 2.1436 1.4953
vt 0.0000 1.4953
vt 0.0000 0.0000
vt 2.1436 0.0000
vt 2.1436 1.4953
vt 0.0000 1.4953
vt 0.0000 0.0000
vt 1.0000 0.0000
vt 0.5000 0.5000
vt 0.0000 0.0000
vt 1.0000 0.0000
vt 0.5000 0.5000
vt 0.0000 0.0000
vt 2.3191 0.0000
vt 2.3191 1.3000
vt 0.0000 1.3000
vt 0.0000 0.0000
vt 1.7776 0.0000
vt 1.7776 1.3000
vt 0.0000 1.3000
vt 0.0000 0.0000
vt 2.3191 0.0000
vt 2.3191 1.3000
vt 0.0000 1.3000
vt 0.0000 0.0000
vt 1.7776 0.0000
vt 1.7776 1.3000
vt 0.0000 1.3000
vt -39.9525 -38.5975
vt -38.0026 -37.3420
vt -38.9650 -35.8474
vt -40.9148 -37.1029
vt 0.0000 0.0000
vt 2.3191 0.0000
vt 2.3191 1.3511
vt 0.0000 1.3511
vt 0.0000 0.0000
vt 2.3191 0.0000
vt 2.3191 1.3511
vt 0.0000 1.3511
vt 0.0000 0.0000
vt 1.0000 0.0000
vt 0.5000 0.5000
vt 0.0000 0.0000
vt 1.0000 0.0000
vt 0.5000 0.5000
vt 0.0000 0.0000
vt 2.8825 0.0000
vt 2.8825 1.3000
vt 0.0000 1.3000
vt 0.0000 0.0000
vt 1.8285 0.0000
vt 1.8285 1.3000
vt 0.0000 1.3000
vt 0.0000 0.0000
vt 2.8825 0.0000
vt 2.8825 1.3000
vt 0.0000 1.3000
vt 0.0000 0.0000
vt 1.8285 0.0000
vt 1.8285 1.3000
vt 0.0000 1.3000
vt -10.7478 -24.3555
vt -13.6296 -24.2917
vt -13.6701 -26.1197
vt -10.7883 -26.1835
vt 0.0000 0.0000
vt 2.8825 0.0000
vt 2.8825 1.3717
vt 0.0000 1.3717
vt 0.0000 0.0000
vt 2.8825 0.0000
vt 2.8825 1.3717
vt 0.0000 1.3717
vt 0.0000 0.0000
vt 1.0000 0.0000
vt 0.5000 0.5000
vt 0.0000 0.0000
vt 1.0000 0.0000
vt 0.5000 0.5000
vt 0.0000 0.0000
vt 2.2648 0.0000
vt 2.2648 1.3000
vt 0.0000 1.3000
vt 0.0000 0.0000
vt 2.4929 0.0000
vt 2.4929 1.3000
vt 0.0000 1.3000
vt 0.0000 0.0000
vt 2.2648 0.0000
vt 2.2648 1.3000
vt 0.0000 1.3000
vt 0.0000 0.0000
vt 2.4929 0.0000
vt 2.4929 1.3000
vt 0.0000 1.3000
vt -20.6969 -32.6346
vt -21.2419 -30.4364
vt -23.6615 -31.0363
vt -23.1165 -33.2345
vt 0.0000 0.0000
vt 2.2648 0.0000
vt 2.2648 1.6529
vt 0.0000 1.6529
vt 0.0000 0.0000
vt 2.2648 0.0000
vt 2.2648 1.6529
vt 0.0000 1.6529
vt 0.0000 0.0000
vt 1.0000 0.0000
vt 0.5000 0.5000
vt 0.0000 0.0000
vt 1.0000 0.0000
vt 0.5000 0.5000
vt 0.0000 0.0000
vt 2.1768 0.0000
vt 2.1768 1.3000
vt 0.0000 1.3000
vt 0.0000 0.0000
vt 2.3077 0.0000
vt 2.3077 1.3000
vt 0.0000 1.3000
vt 0.0000 0.0000
vt 2.1768 0.0000
vt 2.1768 1.3000
vt 0.0000 1.3000
vt 0.0000 0.0000
vt 2.3077 0.0000
vt 2.3077 1.3000
vt 0.0000 1.3000
vt -34.1312 -17.9549
vt -31.9794 -17.6259
vt -32.3282 -15.3447
vt -34.4800 -15.6737
vt 0.0000 0.0000
vt 2.1768 0.0000
vt 2.1768 1.5725
vt 0.0000 1.5725
vt 0.0000 0.0000
vt 2.1768 0.0000
vt 2.1768 1.5725
vt 0.0000 1.5725
vt 0.0000 0.0000
vt 1.0000 0.0000
vt 0.5000 0.5000
vt 0.0000 0.0000
vt 1.0000 0.0000
vt 0.5000 0.5000
vt 0.0000 0.0000
vt 2.6637 0.0000
vt 2.6637 1.3000
vt 0.0000 1.3000
vt 0.0000 0.0000
vt 1.9845 0.0000
vt 1.9845 1.3000
vt 0.0000 1.3000
vt 0.0000 0.0000
vt 2.6637 0.0000
vt 2.6637 1.3000
vt 0.0000 1.3000
vt 0.0000 0.0000
vt 1.9845 0.0000
vt 1.9845 1.3000
vt 0.0000 1.3000
vt -23.1175 -8.6535
vt -20.4538 -8.6385
vt -20.4650 -6.6540
vt -23.1287 -6.6690
vt 0.0000 0.0000
vt 2.6637 0.0000
vt 2.6637 1.4358
vt 0.0000 1.4358
vt 0.0000 0.0000
vt 2.6637 0.0000
vt 2.6637 1.4358
vt 0.0000 1.4358
vt 0.0000 0.0000
vt 1.0000 0.0000
vt 0.5000 0.5000
vt 0.0000 0.0000
vt 1.0000 0.0000
vt 0.5000 0.5000
vt 0.0000 0.0000
vt 2.4322 0.0000
vt 2.4322 1.3000
vt 0.0000 1.3000
vt 0.0000 0.0000
vt 2.1345 0.0000
vt 2.1345 1.3000
vt 0.0000 1.3000
vt 0.0000 0.0000
vt 2.4322 0.0000
vt 2.4322 1.3000
vt 0.0000 1.3000
vt 0.0000 0.0000
vt 2.1345 0.0000
vt 2.1345 1.3000
vt 0.0000 1.3000
vt -45.1193 -41.2577
vt -47.4217 -40.4738
vt -48.1097 -42.4944
vt -45.8072 -43.2783
vt 0.0000 0.0000
vt 2.4322 0.0000
vt 2.4322 1.4986
vt 0.0000 1.4986
vt 0.0000 0.0000
vt 2.4322 0.0000
vt 2.4322 1.4986
vt 0.0000 1.4986
vt 0.0000 0.0000
vt 1.0000 0.0000
vt 0.5000 0.5000
vt 0.0000 0.0000
vt 1.0000 0.0000
vt 0.5000 0.5000
vt 0.0000 0.0000
vt 2.1214 0.0000
vt 2.1214 0.4500
vt 0.0000 0.4500
vt 0.0000 0.0000
vt 1.5346 0.0000
vt 1.5346 0.4500
vt 0.0000 0.4500
vt 0.0000 0.0000
vt 2.1214 0.0000
vt 2.1214 0.4500
vt 0.0000 0.4500
vt 0.0000 0.0000
vt 1.5346 0.0000
vt 1.5346 0.4500
vt 0.0000 0.4500
vt -46.8764 -34.2717
vt -47.4272 -32.2230
vt -48.9091 -32.6214
vt -48.3584 -34.6701
vt 0.0000 0.0000
vt 1.6500 0.0000
vt 1.6500 1.1545
vt 0.0000 1.1545
vt 0.0000 0.0000
vt 1.6500 0.0000
vt 1.6500 1.1545
vt 0.0000 1.1545
vt 0.0000 0.0000
vt 1.0000 0.0000
vt 0.5000 0.5000
vt 0.0000 0.0000
vt 1.0000 0.0000
vt 0.5000 0.5000
vt 0.0000 0.0000
vt 2.3744 0.0000
vt 2.3744 0.4500
vt 0.0000 0.4500
vt 0.0000 0.0000
vt 1.9228 0.0000
vt 1.9228 0.4500
vt 0.0000 0.4500
vt 0.0000 0.0000
vt 2.3744 0.0000
vt 2.3744 0.4500
vt 0.0000 0.4500
vt 0.0000 0.0000
vt 1.9228 0.0000
vt 1.9228 0.4500
vt 0.0000 0.4500
vt -36.4852 -41.8838
vt -38.3250 -40.3827
vt -39.5405 -41.8725
vt -37.7008 -43.3736
vt 0.0000 0.0000
vt 1.8467 0.0000
vt 1.8467 1.3583
vt 0.0000 1.3583
vt 0.0000 0.0000
vt 1.8467 0.0000
vt 1.8467 1.3583
vt 0.0000 1.3583
vt 0.0000 0.0000
vt 1.0000 0.0000
vt 0.5000 0.5000
vt 0.0000 0.0000
vt 1.0000 0.0000
vt 0.5000 0.5000
vt 0.0000 0.0000
vt 2.2377 0.0000
vt 2.2377 1.3000
vt 0.0000 1.3000
vt 0.0000 0.0000
vt 1.7938 0.0000
vt 1.7938 1.3000
vt 0.0000 1.3000
vt 0.0000 0.0000
vt 2.2377 0.0000
vt 2.2377 1.3000
vt 0.0000 1.3000
vt 0.0000 0.0000
vt 1.7938 0.0000
vt 1.7938 1.3000
vt 0.0000 1.3000
vt -44.7622 -26.2346
vt -46.4813 -24.8021
vt -47.6296 -26.1802
vt -45.9105 -27.6126
vt 0.0000 0.0000
vt 2.2377 0.0000
vt 2.2377 1.3576
vt 0.0000 1.3576
vt 0.0000 0.0000
vt 2.2377 0.0000
vt 2.2377 1.3576
vt 0.0000 1.3576
vt 0.0000 0.0000
vt 1.0000 0.0000
vt 0.5000 0.5000
vt 0.0000 0.0000
vt 1.0000 0.0000
vt 0.5000 0.5000
vt 0.0000 0.0000
vt 2.6416 0.0000
vt 2.6416 1.3000
vt 0.0000 1.3000
vt 0.0000 0.0000
vt 2.3600 0.0000
vt 2.3600 1.3000
vt 0.0000 1.3000
vt 0.0000 0.0000
vt 2.6416 0.0000
vt 2.6416 1.3000
vt 0.0000 1.3000
vt 0.0000 0.0000
vt 2.3600 0.0000
vt 2.3600 1.3000
vt 0.0000 1.3000
vt -40.3313 -24.7643
vt -38.0774 -23.3866
vt -39.3082 -21.3729
vt -41.5621 -22.7506
vt 0.0000 0.0000
vt 2.6416 0.0000
vt 2.6416 1.5951
vt 0.0000 1.5951
vt 0.0000 0.0000
vt 2.6416 0.0000
vt 2.6416 1.5951
vt 0.0000 1.5951
vt 0.0000 0.0000
vt 1.0000 0.0000
vt 0.5000 0.5000
vt 0.0000 0.0000
vt 1.0000 0.0000
vt 0.5000 0.5000
vt 0.0000 0.0000
vt 2.7154 0.0000
vt 2.7154 1.3000
vt 0.0000 1.3000
vt 0.0000 0.0000
vt 1.7548 0.0000
vt 1.7548 1.3000
vt 0.0000 1.3000
vt 0.0000 0.0000
vt 2.7154 0.0000
vt 2.7154 1.3000
vt 0.0000 1.3000
vt 0.0000 0.0000
vt 1.7548 0.0000
vt 1.7548 1.3000
vt 0.0000 1.3000
vt -44.4012 -11.3993
vt -46.7987 -10.1244
vt -47.6226 -11.6738
vt -45.2251 -12.9487
vt 0.0000 0.0000
vt 2.7154 0.0000
vt 2.7154 1.3419
vt 0.0000 1.3419
vt 0.0000 0.0000
vt 2.7154 0.0000
vt 2.7154 1.3419
vt 0.0000 1.3419
vt 0.0000 0.0000
vt 1.0000 0.0000
vt 0.5000 0.5000
vt 0.0000 0.0000
vt 1.0000 0.0000
vt 0.5000 0.5000
vt 0.0000 0.0000
vt 2.4525 0.0000
vt 2.4525 1.3000
vt 0.0000 1.3000
vt 0.0000 0.0000
vt 1.9195 0.0000
vt 1.9195 1.3000
vt 0.0000 1.3000
vt 0.0000 0.0000
vt 2.4525 0.0000
vt 2.4525 1.3000
vt 0.0000 1.3000
vt 0.0000 0.0000
vt 1.9195 0.0000
vt 1.9195 1.3000
vt 0.0000 1.3000
vt -18.2954 -30.2301
vt -15.9759 -29.4336
vt -16.5992 -27.6182
vt -18.9188 -28.4146
vt 0.0000 0.0000
vt 2.4525 0.0000
vt 2.4525 1.4089
vt 0.0000 1.4089
vt 0.0000 0.0000
vt 2.4525 0.0000
vt 2.4525 1.4089
vt 0.0000 1.4089
vt 0.0000 0.0000
vt 1.0000 0.0000
vt 0.5000 0.5000
vt 0.0000 0.0000
vt 1.0000 0.0000
vt 0.5000 0.5000
vt 0.0000 0.0000
vt 2.7497 0.0000
vt 2.7497 1.3000
vt 0.0000 1.3000
vt 0.0000 0.0000
vt 2.2713 0.0000
vt 2.2713 1.3000
vt 0.0000 1.3000
vt 0.0000 0.0000
vt 2.7497 0.0000
vt 2.7497 1.3000
vt 0.0000 1.3000
vt 0.0000 0.0000
vt 2.2713 0.0000
vt 2.2713 1.3000
vt 0.0000 1.3000
vt -36.7298 -46.0463
vt -39.1612 -44.7622
vt -40.2219 -46.7706
vt -37.7905 -48.0547
vt 0.0000 0.0000
vt 2.7497 0.0000
vt 2.7497 1.5569
vt 0.0000 1.5569
vt 0.0000 0.0000
vt 2.7497 0.0000
vt 2.7497 1.5569
vt 0.0000 1.5569
vt 0.0000 0.0000
vt 1.0000 0.0000
vt 0.5000 0.5000
vt 0.0000 0.0000
vt 1.0000 0.0000
vt 0.5000 0.5000
vt 0.0000 0.0000
vt 2.2361 0.0000
vt 2.2361 1.3000
vt 0.0000 1.3000
vt 0.0000 0.0000
vt 2.3079 0.0000
vt 2.3079 1.3000
vt 0.0000 1.3000
vt 0.0000 0.0000
vt 2.2361 0.0000
vt 2.2361 1.3000
vt 0.0000 1.3000
vt 0.0000 0.0000
vt 2.3079 0.0000
vt 2.3079 1.3000
vt 0.0000 1.3000
vt -10.6174 -46.4324
vt -12.8199 -46.0458
vt -13.2188 -48.3190
vt -11.0164 -48.7055
vt 0.0000 0.0000
vt 2.2361 0.0000
vt 2.2361 1.5726
vt 0.0000 1.5726
vt 0.0000 0.0000
vt 2.2361 0.0000
vt 2.2361 1.5726
vt 0.0000 1.5726
vt 0.0000 0.0000
vt 1.0000 0.0000
vt 0.5000 0.5000
vt 0.0000 0.0000
vt 1.0000 0.0000
vt 0.5000 0.5000
vt 0.0000 0.0000
vt 1.9852 0.0000
vt 1.9852 0.4500
vt 0.0000 0.4500
vt 0.0000 0.0000
vt 1.4672 0.0000
vt 1.4672 0.4500
vt 0.0000 0.4500
vt 0.0000 0.0000
vt 1.9852 0.0000
vt 1.9852 0.4500
vt 0.0000 0.4500
vt 0.0000 0.0000
vt 1.4672 0.0000
vt 1.4672 0.4500
vt 0.0000 0.4500
vt -11.4168 -10.1191
vt -9.4433 -9.9048
vt -9.6017 -8.4462
vt -11.5752 -8.6605
vt 0.0000 0.0000
vt 1.5440 0.0000
vt 1.5440 1.1197
vt 0.0000 1.1197
vt 0.0000 0.0000
vt 1.5440 0.0000
vt 1.5440 1.1197
vt 0.0000 1.1197
vt 0.0000 0.0000
vt 1.0000 0.0000
vt 0.5000 0.5000
vt 0.0000 0.0000
vt 1.0000 0.0000
vt 0.5000 0.5000
vt 0.0000 0.0000
vt 2.2874 0.0000
vt 2.2874 1.3000
vt 0.0000 1.3000
vt 0.0000 0.0000
vt 1.8249 0.0000
vt 1.8249 1.3000
vt 0.0000 1.3000
vt 0.0000 0.0000
vt 2.2874 0.0000
vt 2.2874 1.3000
vt 0.0000 1.3000
vt 0.0000 0.0000
vt 1.8249 0.0000
vt 1.8249 1.3000
vt 0.0000 1.3000
vt -22.8128 -15.3883
vt -20.6327 -14.6961
vt -21.1850 -12.9568
vt -23.3651 -13.6490
vt 0.0000 0.0000
vt 2.2874 0.0000
vt 2.2874 1.3702
vt 0.0000 1.3702
vt 0.0000 0.0000
vt 2.2874 0.0000
vt 2.2874 1.3702
vt 0.0000 1.3702
vt 0.0000 0.0000
vt 1.0000 0.0000
vt 0.5000 0.5000
vt 0.0000 0.0000
vt 1.0000 0.0000
vt 0.5000 0.5000
vt 0.0000 0.0000
vt 2.0310 0.0000
vt 2.0310 0.4500
vt 0.0000 0.4500
vt 0.0000 0.0000
vt 1.5696 0.0000
vt 1.5696 0.4500
vt 0.0000 0.4500
vt 0.0000 0.0000
vt 2.0310 0.0000
vt 2.0310 0.4500
vt 0.0000 0.4500
vt 0.0000 0.0000
vt 1.5696 0.0000
vt 1.5696 0.4500
vt 0.0000 0.4500
vt -33.6672 -30.9245
vt -34.9409 -29.3425
vt -36.1634 -30.3267
vt -34.8898 -31.9088
vt 0.0000 0.0000
vt 1.5797 0.0000
vt 1.5797 1.1727
vt 0.0000 1.1727
vt 0.0000 0.0000
vt 1.5797 0.0000
vt 1.5797 1.1727
vt 0.0000 1.1727
vt 0.0000 0.0000
vt 1.0000 0.0000
vt 0.5000 0.5000
vt 0.0000 0.0000
vt 1.0000 0.0000
vt 0.5000 0.5000
vt 0.0000 0.0000
vt 2.0909 0.0000
vt 2.0909 1.3000
vt 0.0000 1.3000
vt 0.0000 0.0000
vt 2.3649 0.0000
vt 2.3649 1.3000
vt 0.0000 1.3000
vt 0.0000 0.0000
vt 2.0909 0.0000
vt 2.0909 1.3000
vt 0.0000 1.3000
vt 0.0000 0.0000
vt 2.3649 0.0000
vt 2.3649 1.3000
vt 0.0000 1.3000
vt -26.2430 -40.6707
vt -24.4446 -39.6043
vt -25.6508 -37.5702
vt -27.4492 -38.6366
vt 0.0000 0.0000
vt 2.0909 0.0000
vt 2.0909 1.5972
vt 0.0000 1.5972
vt 0.0000 0.0000
vt 2.0909 0.0000
vt 2.0909 1.5972
vt 0.0000 1.5972
vt 0.0000 0.0000
vt 1.0000 0.0000
vt 0.5000 0.5000
vt 0.0000 0.0000
vt 1.0000 0.0000
vt 0.5000 0.5000
vt 0.0000 0.0000
vt 2.4349 0.0000
vt 2.4349 1.3000
vt 0.0000 1.3000
vt 0.0000 0.0000
vt 1.8971 0.0000
vt 1.8971 1.3000
vt 0.0000 1.3000
vt 0.0000 0.0000
vt 2.4349 0.0000
vt 2.4349 1.3000
vt 0.0000 1.3000
vt 0.0000 0.0000
vt 1.8971 0.0000
vt 1.8971 1.3000
vt 0.0000 1.3000
vt -6.2906 -16.1160
vt -7.3134 -13.9063
vt -9.0351 -14.7032
vt -8.0123 -16.9129
vt 0.0000 0.0000
vt 2.4349 0.0000
vt 2.4349 1.3997
vt 0.0000 1.3997
vt 0.0000 0.0000
vt 2.4349 0.0000
vt 2.4349 1.3997
vt 0.0000 1.3997
vt 0.0000 0.0000
vt 1.0000 0.0000
vt 0.5000 0.5000
vt 0.0000 0.0000
vt 1.0000 0.0000
vt 0.5000 0.5000
vt 0.0000 0.0000
vt 2.7491 0.0000
vt 2.7491 1.3000
vt 0.0000 1.3000
vt 0.0000 0.0000
vt 2.0659 0.0000
vt 2.0659 1.3000
vt 0.0000 1.3000
vt 0.0000 0.0000
vt 2.7491 0.0000
vt 2.7491 1.3000
vt 0.0000 1.3000
vt 0.0000 0.0000
vt 2.0659 0.0000
vt 2.0659 1.3000
vt 0.0000 1.3000
vt -11.1274 -32.0511
vt -9.0571 -30.2424
vt -10.4163 -28.6866
vt -12.4866 -30.4953
vt 0.0000 0.0000
vt 2.7491 0.0000
vt 2.7491 1.4697
vt 0.0000 1.4697
vt 0.0000 0.0000
vt 2.7491 0.0000
vt 2.7491 1.4697
vt 0.0000 1.4697
vt 0.0000 0.0000
vt 1.0000 0.0000
vt 0.5000 0.5000
vt 0.0000 0.0000
vt 1.0000 0.0000
vt 0.5000 0.5000
vt 0.0000 0.0000
vt 2.0566 0.0000
vt 2.0566 1.3000
vt 0.0000 1.3000
vt 0.0000 0.0000
vt 1.9558 0.0000
vt 1.9558 1.3000
vt 0.0000 1.3000
vt 0.0000 0.0000
vt 2.0566 0.0000
vt 2.0566 1.3000
vt 0.0000 1.3000
vt 0.0000 0.0000
vt 1.9558 0.0000
vt 1.9558 1.3000
vt 0.0000 1.3000
vt -42.3708 -8.9176
vt -41.7334 -6.9622
vt -43.5928 -6.3560
vt -44.2303 -8.3114
vt 0.0000 0.0000
vt 2.0566 0.0000
vt 2.0566 1.4239
vt 0.0000 1.4239
vt 0.0000 0.0000
vt 2.0566 0.0000
vt 2.0566 1.4239
vt 0.0000 1.4239
vt 0.0000 0.0000
vt 1.0000 0.0000
vt 0.5000 0.5000
vt 0.0000 0.0000
vt 1.0000 0.0000
vt 0.5000 0.5000
vt 0.0000 0.0000
vt 2.4673 0.0000
vt 2.4673 0.4500
vt 0.0000 0.4500
vt 0.0000 0.0000
vt 1.9640 0.0000
vt 1.9640 0.4500
vt 0.0000 0.4500
vt 0.0000 0.0000
vt 2.4673 0.0000
vt 2.4673 0.4500
vt 0.0000 0.4500
vt 0.0000 0.0000
vt 1.9640 0.0000
vt 1.9640 0.4500
vt 0.0000 0.4500
vt -32.4796 -38.2743
vt -32.6893 -35.8159
vt -34.6461 -35.9828
vt -34.4365 -38.4412
vt 0.0000 0.0000
vt 1.9190 0.0000
vt 1.9190 1.3801
vt 0.0000 1.3801
vt 0.0000 0.0000
vt 1.9190 0.0000
vt 1.9190 1.3801
vt 0.0000 1.3801
vt 0.0000 0.0000
vt 1.0000 0.0000
vt 0.5000 0.5000
vt 0.0000 0.0000
vt 1.0000 0.0000
vt 0.5000 0.5000
vt 0.0000 0.0000
vt 1.7656 0.0000
vt 1.7656 0.6160
vt 0.0000 0.6160
vt 0.0000 0.0000
vt 2.2520 0.0000
vt 2.2520 0.6160
vt 0.0000 0.6160
vt 0.0000 0.0000
vt 1.7656 0.0000
vt 1.7656 0.6160
vt 0.0000 0.6160
vt 0.0000 0.0000
vt 2.2520 0.0000
vt 2.2520 0.6160
vt 0.0000 0.6160
vt 15.1303 16.6502
vt 15.7280 18.3116
vt 13.6090 19.0739
vt 13.0113 17.4126
vt 0.0000 0.0000
vt 2.1432 0.0000
vt 2.1432 0.4155
vt 0.0000 0.4155
vt 0.0000 0.0000
vt 2.7934 0.0000
vt 2.7934 0.4155
vt 0.0000 0.4155
vt 0.0000 0.0000
vt 2.1432 0.0000
vt 2.1432 0.4155
vt 0.0000 0.4155
vt 0.0000 0.0000
vt 2.7934 0.0000
vt 2.7934 0.4155
vt 0.0000 0.4155
vt 14.9326 16.6489
vt 15.8985 18.5621
vt 13.4048 19.8210
vt 12.4390 17.9078
vt 0.0000 0.0000
vt 2.3549 0.0000
vt 2.3549 0.8088
vt 0.0000 0.8088
vt 0.0000 0.0000
vt 2.1141 0.0000
vt 2.1141 0.8088
vt 0.0000 0.8088
vt 0.0000 0.0000
vt 2.3549 0.0000
vt 2.3549 0.8088
vt 0.0000 0.8088
vt 0.0000 0.0000
vt 2.1141 0.0000
vt 2.1141 0.8088
vt 0.0000 0.8088
vt 15.1420 15.9976
vt 17.1727 17.1900
vt 16.1022 19.0131
vt 14.0715 17.8207
vt 0.0000 0.0000
vt 1.6187 0.0000
vt 1.6187 0.5348
vt 0.0000 0.5348
vt 0.0000 0.0000
vt 3.4044 0.0000
vt 3.4044 0.5348
vt 0.0000 0.5348
vt 0.0000 0.0000
vt 1.6187 0.0000
vt 1.6187 0.5348
vt 0.0000 0.5348
vt 0.0000 0.0000
vt 3.4044 0.0000
vt 3.4044 0.5348
vt 0.0000 0.5348
vt 16.5850 20.1794
vt 15.0660 20.7388
vt 13.8896 17.5442
vt 15.4086 16.9848
vt 0.0000 0.0000
vt 1.3941 0.0000
vt 1.3941 0.6629
vt 0.0000 0.6629
vt 0.0000 0.0000
vt 1.9676 0.0000
vt 1.9676 0.6629
vt 0.0000 0.6629
vt 0.0000 0.0000
vt 1.3941 0.0000
vt 1.3941 0.6629
vt 0.0000 0.6629
vt 0.0000 0.0000
vt 1.9676 0.0000
vt 1.9676 0.6629
vt 0.0000 0.6629
vt 16.6232 18.3175
vt 15.6065 19.2714
vt 14.2602 17.8365
vt 15.2769 16.8826
vt 0.0000 0.0000
vt 0.9154 0.0000
vt 0.9154 0.6244
vt 0.0000 0.6244
vt 0.0000 0.0000
vt 1.2527 0.0000
vt 1.2527 0.6244
vt 0.0000 0.6244
vt 0.0000 0.0000
vt 0.9154 0.0000
vt 0.9154 0.6244
vt 0.0000 0.6244
vt 0.0000 0.0000
vt 1.2527 0.0000
vt 1.2527 0.6244
vt 0.0000 0.6244
vt 43.9127 16.9855
vt 44.7558 17.3422
vt 44.2676 18.4959
vt 43.4246 18.1391
vt 0.0000 0.0000
vt 1.1253 0.0000
vt 1.1253 0.5015
vt 0.0000 0.5015
vt 0.0000 0.0000
vt 1.6201 0.0000
vt 1.6201 0.5015
vt 0.0000 0.5015
vt 0.0000 0.0000
vt 1.1253 0.0000
vt 1.1253 0.5015
vt 0.0000 0.5015
vt 0.0000 0.0000
vt 1.6201 0.0000
vt 1.6201 0.5015
vt 0.0000 0.5015
vt 44.7623 19.0250
vt 43.7504 19.5172
vt 43.0418 18.0603
vt 44.0537 17.5681
vt 0.0000 0.0000
vt 0.8799 0.0000
vt 0.8799 0.8713
vt 0.0000 0.8713
vt 0.0000 0.0000
vt 1.3587 0.0000
vt 1.3587 0.8713
vt 0.0000 0.8713
vt 0.0000 0.0000
vt 0.8799 0.0000
vt 0.8799 0.8713
vt 0.0000 0.8713
vt 0.0000 0.0000
vt 1.3587 0.0000
vt 1.3587 0.8713
vt 0.0000 0.8713
vt 45.3030 19.2315
vt 44.4360 19.3812
vt 44.2048 18.0423
vt 45.0719 17.8926
vt 0.0000 0.0000
vt 1.2652 0.0000
vt 1.2652 0.9047
vt 0.0000 0.9047
vt 0.0000 0.0000
vt 1.4055 0.0000
vt 1.4055 0.9047
vt 0.0000 0.9047
vt 0.0000 0.0000
vt 1.2652 0.0000
vt 1.2652 0.9047
vt 0.0000 0.9047
vt 0.0000 0.0000
vt 1.4055 0.0000
vt 1.4055 0.9047
vt 0.0000 0.9047
vt 44.9249 16.2515
vt 45.8877 17.0722
vt 44.9760 18.1419
vt 44.0131 17.3211
vt 0.0000 0.0000
vt 0.8974 0.0000
vt 0.8974 1.0406
vt 0.0000 1.0406
vt 0.0000 0.0000
vt 1.8128 0.0000
vt 1.8128 1.0406
vt 0.0000 1.0406
vt 0.0000 0.0000
vt 0.8974 0.0000
vt 0.8974 1.0406
vt 0.0000 1.0406
vt 0.0000 0.0000
vt 1.8128 0.0000
vt 1.8128 1.0406
vt 0.0000 1.0406
vt 45.0889 18.7073
vt 44.2377 18.9916
vt 43.6635 17.2721
vt 44.5147 16.9879
vt 0.0000 0.0000
vt 1.2537 0.0000
vt 1.2537 0.8937
vt 0.0000 0.8937
vt 0.0000 0.0000
vt 1.2636 0.0000
vt 1.2636 0.8937
vt 0.0000 0.8937
vt 0.0000 0.0000
vt 1.2537 0.0000
vt 1.2537 0.8937
vt 0.0000 0.8937
vt 0.0000 0.0000
vt 1.2636 0.0000
vt 1.2636 0.8937
vt 0.0000 0.8937
vt 44.6257 44.5309
vt 45.4766 45.4515
vt 44.5487 46.3092
vt 43.6978 45.3886
vt 0.0000 0.0000
vt 1.4592 0.0000
vt 1.4592 0.5228
vt 0.0000 0.5228
vt 0.0000 0.0000
vt 1.8816 0.0000
vt 1.8816 0.5228
vt 0.0000 0.5228
vt 0.0000 0.0000
vt 1.4592 0.0000
vt 1.4592 0.5228
vt 0.0000 0.5228
vt 0.0000 0.0000
vt 1.8816 0.0000
vt 1.8816 0.5228
vt 0.0000 0.5228
vt 46.2632 46.7967
vt 45.0475 47.6039
vt 44.0067 46.0363
vt 45.2224 45.2292
vt 0.0000 0.0000
vt 1.1382 0.0000
vt 1.1382 0.7339
vt 0.0000 0.7339
vt 0.0000 0.0000
vt 1.9592 0.0000
vt 1.9592 0.7339
vt 0.0000 0.7339
vt 0.0000 0.0000
vt 1.1382 0.0000
vt 1.1382 0.7339
vt 0.0000 0.7339
vt 0.0000 0.0000
vt 1.9592 0.0000
vt 1.9592 0.7339
vt 0.0000 0.7339
vt 45.4802 44.6391
vt 46.2487 45.4787
vt 44.8036 46.8016
vt 44.0350 45.9620
vt 0.0000 0.0000
vt 1.1403 0.0000
vt 1.1403 0.8580
vt 0.0000 0.8580
vt 0.0000 0.0000
vt 1.6332 0.0000
vt 1.6332 0.8580
vt 0.0000 0.8580
vt 0.0000 0.0000
vt 1.1403 0.0000
vt 1.1403 0.8580
vt 0.0000 0.8580
vt 0.0000 0.0000
vt 1.6332 0.0000
vt 1.6332 0.8580
vt 0.0000 0.8580
vt 45.4855 45.2799
vt 46.3605 46.0110
vt 45.3133 47.2643
vt 44.4382 46.5331
vt 0.0000 0.0000
vt 0.9654 0.0000
vt 0.9654 0.9984
vt 0.0000 0.9984
vt 0.0000 0.0000
vt 1.3567 0.0000
vt 1.3567 0.9984
vt 0.0000 0.9984
vt 0.0000 0.0000
vt 0.9654 0.0000
vt 0.9654 0.9984
vt 0.0000 0.9984
vt 0.0000 0.0000
vt 1.3567 0.0000
vt 1.3567 0.9984
vt 0.0000 0.9984
vt 45.0924 46.0685
vt 45.9972 46.4051
vt 45.5241 47.6767
vt 44.6192 47.3400
vt 0.0000 0.0000
vt 1.5000 0.0000
vt 1.5000 0.1250
vt 0.0000 0.1250
vt 0.0000 0.0000
vt 1.1000 0.0000
vt 1.1000 0.1250
vt 0.0000 0.1250
vt 0.0000 0.0000
vt 1.5000 0.0000
vt 1.5000 0.1250
vt 0.0000 0.1250
vt 0.0000 0.0000
vt 1.1000 0.0000
vt 1.1000 0.1250
vt 0.0000 0.1250
vt 15.1412 15.8435
vt 16.6242 16.0690
vt 16.4588 17.1565
vt 14.9758 16.9310
vt 0.0000 0.0000
vt 1.5000 0.0000
vt 1.5000 0.1250
vt 0.0000 0.1250
vt 0.0000 0.0000
vt 1.1000 0.0000
vt 1.1000 0.1250
vt 0.0000 0.1250
vt 0.0000 0.0000
vt 1.5000 0.0000
vt 1.5000 0.1250
vt 0.0000 0.1250
vt 0.0000 0.0000
vt 1.1000 0.0000
vt 1.1000 0.1250
vt 0.0000 0.1250
vt 44.4584 15.8514
vt 45.9439 16.0591
vt 45.7916 17.1486
vt 44.3061 16.9409
vt 0.0000 0.0000
vt 1.5000 0.0000
vt 1.5000 0.1250
vt 0.0000 0.1250
vt 0.0000 0.0000
vt 1.1000 0.0000
vt 1.1000 0.1250
vt 0.0000 0.1250
vt 0.0000 0.0000
vt 1.5000 0.0000
vt 1.5000 0.1250
vt 0.0000 0.1250
vt 0.0000 0.0000
vt 1.1000 0.0000
vt 1.1000 0.1250
vt 0.0000 0.1250
vt 44.4393 44.3717
vt 45.9304 44.5348
vt 45.8107 45.6283
vt 44.3196 45.4652
vn 0.0000 -1.0000 0.0000
vn 1.0000 0.0000 0.0000
vn 0.0000 1.0000 0.0000
vn -1.0000 0.0000 0.0000
vn 0.0000 0.0000 1.0000
vn 0.0000 -1.0000 0.0000
vn 1.0000 0.0000 0.0000
vn 0.0000 1.0000 0.0000
vn -1.0000 0.0000 0.0000
vn 0.0000 0.0000 1.0000
vn 0.0000 -1.0000 0.0000
vn 1.0000 0.0000 0.0000
vn 0.0000 1.0000 0.0000
vn -1.0000 0.0000 0.0000
vn 0.0000 0.0000 1.0000
vn 0.0000 -1.0000 0.0000
vn 1.0000 0.0000 0.0000
vn 0.0000 1.0000 0.0000
vn -1.0000 0.0000 0.0000
vn 0.0000 0.0000 1.0000
vn 0.0000 -1.0000 0.0000
vn 1.0000 0.0000 0.0000
vn 0.0000 1.0000 0.0000
vn -1.0000 0.0000 0.0000
vn 0.0000 0.0000 1.0000
vn 0.0000 -1.0000 0.0000
vn 1.0000 0.0000 0.0000
vn 0.0000 1.0000 0.0000
vn -1.0000 0.0000 0.0000
vn 0.0000 0.0000 1.0000
vn 0.0000 -1.0000 0.0000
vn 1.0000 0.0000 0.0000
vn 0.0000 1.0000 0.0000
vn -1.0000 0.0000 0.0000
vn 0.0000 0.0000 1.0000
vn 0.0000 -1.0000 0.0000
vn 1.0000 0.0000 0.0000
vn 0.0000 1.0000 0.0000
vn -1.0000 0.0000 0.0000
vn 0.0000 0.0000 1.0000
vn 0.0000 -1.0000 0.0000
vn 1.0000 0.0000 0.0000
vn 0.0000 1.0000 0.0000
vn -1.0000 0.0000 0.0000
vn 0.0000 0.0000 1.0000
vn 0.1277 -0.9918 0.0000
vn 0.9918 0.1277 0.0000
vn -0.1277 0.9918 0.0000
vn -0.9918 -0.1277 0.0000
vn 0.0000 0.0000 1.0000
vn 0.1664 -0.3212 0.9323
vn -0.1664 0.3212 0.9323
vn 0.8879 0.4601 0.0000
vn -0.8879 -0.4601 0.0000
vn 0.1697 -0.9855 0.0000
vn 0.9855 0.1697 0.0000
vn -0.1697 0.9855 0.0000
vn -0.9855 -0.1697 0.0000
vn 0.0000 0.0000 1.0000
vn 0.0906 -0.5262 0.8455
vn -0.0906 0.5262 0.8455
vn 0.9855 0.1697 0.0000
vn -0.9855 -0.1697 0.0000
vn 0.5491 0.8358 0.0000
vn -0.8358 0.5491 0.0000
vn -0.5491 -0.8358 0.0000
vn 0.8358 -0.5491 0.0000
vn 0.0000 0.0000 1.0000
vn 0.2800 0.4262 0.8602
vn -0.2800 -0.4262 0.8602
vn -0.8358 0.5491 0.0000
vn 0.8358 -0.5491 0.0000
vn 0.2490 0.9685 0.0000
vn -0.9685 0.2490 0.0000
vn -0.2490 -0.9685 0.0000
vn 0.9685 -0.2490 0.0000
vn 0.0000 0.0000 1.0000
vn 0.1332 0.5182 0.8449
vn -0.1332 -0.5182 0.8449
vn -0.9685 0.2490 0.0000
vn 0.9685 -0.2490 0.0000
vn 0.5414 -0.8408 0.0000
vn 0.8408 0.5414 0.0000
vn -0.5414 0.8408 0.0000
vn -0.8408 -0.5414 0.0000
vn 0.0000 0.0000 1.0000
vn 0.3206 -0.4978 0.8059
vn -0.3206 0.4978 0.8059
vn 0.8408 0.5414 0.0000
vn -0.8408 -0.5414 0.0000
vn 0.0221 0.9998 0.0000
vn -0.9998 0.0221 0.0000
vn -0.0221 -0.9998 0.0000
vn 0.9998 -0.0221 0.0000
vn 0.0000 0.0000 1.0000
vn 0.0129 0.5831 0.8123
vn -0.0129 -0.5831 0.8123
vn -0.9998 0.0221 0.0000
vn 0.9998 -0.0221 0.0000
vn 0.9706 0.2406 0.0000
vn -0.2406 0.9706 0.0000
vn -0.9706 -0.2406 0.0000
vn 0.2406 -0.9706 0.0000
vn 0.0000 0.0000 1.0000
vn 0.4698 0.1165 0.8751
vn -0.4698 -0.1165 0.8751
vn -0.2406 0.9706 0.0000
vn 0.2406 -0.9706 0.0000
vn 0.1511 -0.9885 0.0000
vn 0.9885 0.1511 0.0000
vn -0.1511 0.9885 0.0000
vn -0.9885 -0.1511 0.0000
vn 0.0000 0.0000 1.0000
vn 0.0769 -0.5029 0.8609
vn -0.0769 0.5029 0.8609
vn 0.9885 0.1511 0.0000
vn -0.9885 -0.1511 0.0000
vn 0.0056 -1.0000 0.0000
vn 1.0000 0.0056 0.0000
vn -0.0056 1.0000 0.0000
vn -1.0000 -0.0056 0.0000
vn 0.0000 0.0000 1.0000
vn 0.0031 -0.5572 0.8304
vn -0.0031 0.5572 0.8304
vn 1.0000 0.0056 0.0000
vn -1.0000 -0.0056 0.0000
vn 0.3223 0.9466 0.0000
vn -0.9466 0.3223 0.0000
vn -0.3223 -0.9466 0.0000
vn 0.9466 -0.3223 0.0000
vn 0.0000 0.0000 1.0000
vn 0.1721 0.5053 0.8456
vn -0.1721 -0.5053 0.8456
vn -0.9466 0.3223 0.0000
vn 0.9466 -0.3223 0.0000
vn 0.9657 0.2596 0.0000
vn -0.2596 0.9657 0.0000
vn -0.9657 -0.2596 0.0000
vn 0.2596 -0.9657 0.0000
vn 0.0000 0.0000 1.0000
vn 0.3189 0.2241 0.9209
vn -0.3189 -0.2241 0.9209
vn -0.5750 0.8182 0.0000
vn 0.5750 -0.8182 0.0000
vn 0.6322 0.7748 0.0000
vn -0.7748 0.6322 0.0000
vn -0.6322 -0.7748 0.0000
vn 0.7748 -0.6322 0.0000
vn 0.0000 0.0000 1.0000
vn 0.1087 0.3130 0.9435
vn -0.1087 -0.3130 0.9435
vn -0.9446 0.3282 0.0000
vn 0.9446 -0.3282 0.0000
vn 0.6401 0.7683 0.0000
vn -0.7683 0.6401 0.0000
vn -0.6401 -0.7683 0.0000
vn 0.7683 -0.6401 0.0000
vn 0.0000 0.0000 1.0000
vn 0.3772 0.4527 0.8079
vn -0.3772 -0.4527 0.8079
vn -0.7683 0.6401 0.0000
vn 0.7683 -0.6401 0.0000
vn 0.5215 -0.8532 0.0000
vn 0.8532 0.5215 0.0000
vn -0.5215 0.8532 0.0000
vn -0.8532 -0.5215 0.0000
vn 0.0000 0.0000 1.0000
vn 0.2616 -0.4279 0.8651
vn -0.2616 0.4279 0.8651
vn 0.8532 0.5215 0.0000
vn -0.8532 -0.5215 0.0000
vn 0.4695 0.8829 0.0000
vn -0.8829 0.4695 0.0000
vn -0.4695 -0.8829 0.0000
vn 0.8829 -0.4695 0.0000
vn 0.0000 0.0000 1.0000
vn 0.2799 0.5264 0.8029
vn -0.2799 -0.5264 0.8029
vn -0.8829 0.4695 0.0000
vn 0.8829 -0.4695 0.0000
vn 0.3248 -0.9458 0.0000
vn 0.9458 0.3248 0.0000
vn -0.3248 0.9458 0.0000
vn -0.9458 -0.3248 0.0000
vn 0.0000 0.0000 1.0000
vn 0.1844 -0.5370 0.8232
vn -0.1844 0.5370 0.8232
vn 0.9458 0.3248 0.0000
vn -0.9458 -0.3248 0.0000
vn 0.4670 0.8843 0.0000
vn -0.8843 0.4670 0.0000
vn -0.4670 -0.8843 0.0000
vn 0.8843 -0.4670 0.0000
vn 0.0000 0.0000 1.0000
vn 0.2400 0.4544 0.8579
vn -0.2400 -0.4544 0.8579
vn -0.8843 0.4670 0.0000
vn 0.8843 -0.4670 0.0000
vn 0.1729 0.9849 0.0000
vn -0.9849 0.1729 0.0000
vn -0.1729 -0.9849 0.0000
vn 0.9849 -0.1729 0.0000
vn 0.0000 0.0000 1.0000
vn 0.0879 0.5010 0.8609
vn -0.0879 -0.5010 0.8609
vn -0.9849 0.1729 0.0000
vn 0.9849 -0.1729 0.0000
vn 0.1079 -0.9942 0.0000
vn 0.9942 0.1079 0.0000
vn -0.1079 0.9942 0.0000
vn -0.9942 -0.1079 0.0000
vn 0.0000 0.0000 1.0000
vn 0.1778 -0.3604 0.9157
vn -0.1778 0.3604 0.9157
vn 0.8969 0.4423 -0.0000
vn -0.8969 -0.4423 0.0000
vn 0.3026 -0.9531 0.0000
vn 0.9531 0.3026 0.0000
vn -0.3026 0.9531 0.0000
vn -0.9531 -0.3026 0.0000
vn 0.0000 0.0000 1.0000
vn 0.1767 -0.5565 0.8119
vn -0.1767 0.5565 0.8119
vn 0.9531 0.3026 0.0000
vn -0.9531 -0.3026 0.0000
vn 0.7789 0.6271 0.0000
vn -0.6271 0.7789 0.0000
vn -0.7789 -0.6271 0.0000
vn 0.6271 -0.7789 0.0000
vn 0.0000 0.0000 1.0000
vn 0.1983 0.3286 0.9234
vn -0.1983 -0.3286 0.9234
vn -0.8562 0.5167 0.0000
vn 0.8562 -0.5167 0.0000
vn 0.5100 -0.8601 0.0000
vn 0.8601 0.5100 0.0000
vn -0.5100 0.8601 0.0000
vn -0.8601 -0.5100 0.0000
vn 0.0000 0.0000 1.0000
vn 0.2555 -0.4308 0.8655
vn -0.2555 0.4308 0.8655
vn 0.8601 0.5100 0.0000
vn -0.8601 -0.5100 0.0000
vn 0.9075 0.4200 0.0000
vn -0.4200 0.9075 0.0000
vn -0.9075 -0.4200 0.0000
vn 0.4200 -0.9075 0.0000
vn 0.0000 0.0000 1.0000
vn 0.5187 0.2401 0.8206
vn -0.5187 -0.2401 0.8206
vn -0.4200 0.9075 0.0000
vn 0.4200 -0.9075 0.0000
vn 0.6579 -0.7531 0.0000
vn 0.7531 0.6579 0.0000
vn -0.6579 0.7531 0.0000
vn -0.7531 -0.6579 0.0000
vn 0.0000 0.0000 1.0000
vn 0.3581 -0.4099 0.8389
vn -0.3581 0.4099 0.8389
vn 0.7531 0.6579 0.0000
vn -0.7531 -0.6579 0.0000
vn 0.9507 -0.3100 0.0000
vn 0.3100 0.9507 0.0000
vn -0.9507 0.3100 0.0000
vn -0.3100 -0.9507 0.0000
vn 0.0000 -0.0000 1.0000
vn 0.5342 -0.1742 0.8272
vn -0.5342 0.1742 0.8272
vn 0.3100 0.9507 0.0000
vn -0.3100 -0.9507 0.0000
vn 0.9964 0.0850 0.0000
vn -0.0850 0.9964 0.0000
vn -0.9964 -0.0850 0.0000
vn 0.0850 -0.9964 0.0000
vn 0.0000 0.0000 1.0000
vn 0.2957 0.1374 0.9454
vn -0.2957 -0.1374 0.9454
vn -0.4215 0.9068 0.0000
vn 0.4215 -0.9068 0.0000
vn 0.9410 -0.3385 0.0000
vn 0.3385 0.9410 0.0000
vn -0.9410 0.3385 0.0000
vn -0.3385 -0.9410 0.0000
vn 0.0000 -0.0000 1.0000
vn 0.8927 -0.4507 0.0000
vn 0.4507 0.8927 0.0000
vn -0.8927 0.4507 0.0000
vn -0.4507 -0.8927 0.0000
vn 0.0000 -0.0000 1.0000
vn 0.5063 -0.8623 0.0000
vn 0.8623 0.5063 0.0000
vn -0.5063 0.8623 0.0000
vn -0.8623 -0.5063 0.0000
vn 0.0000 0.0000 1.0000
vn 0.3456 0.9384 0.0000
vn -0.9384 0.3456 0.0000
vn -0.3456 -0.9384 0.0000
vn 0.9384 -0.3456 0.0000
vn 0.0000 0.0000 1.0000
vn 0.6842 0.7293 0.0000
vn -0.7293 0.6842 0.0000
vn -0.6842 -0.7293 0.0000
vn 0.7293 -0.6842 0.0000
vn 0.0000 0.0000 1.0000
vn 0.3897 -0.9209 0.0000
vn 0.9209 0.3897 0.0000
vn -0.3897 0.9209 0.0000
vn -0.9209 -0.3897 0.0000
vn 0.0000 0.0000 1.0000
vn 0.4374 0.8993 0.0000
vn -0.8993 0.4374 0.0000
vn -0.4374 -0.8993 0.0000
vn 0.8993 -0.4374 0.0000
vn 0.0000 0.0000 1.0000
vn 0.1701 0.9854 0.0000
vn -0.9854 0.1701 0.0000
vn -0.1701 -0.9854 0.0000
vn 0.9854 -0.1701 0.0000
vn 0.0000 0.0000 1.0000
vn 0.6487 -0.7610 0.0000
vn 0.7610 0.6487 0.0000
vn -0.6487 0.7610 0.0000
vn -0.7610 -0.6487 0.0000
vn 0.0000 0.0000 1.0000
vn 0.3167 0.9485 0.0000
vn -0.9485 0.3167 0.0000
vn -0.3167 -0.9485 0.0000
vn 0.9485 -0.3167 0.0000
vn 0.0000 0.0000 1.0000
vn 0.7344 -0.6788 0.0000
vn 0.6788 0.7344 0.0000
vn -0.7344 0.6788 0.0000
vn -0.6788 -0.7344 0.0000
vn 0.0000 -0.0000 1.0000
vn 0.5531 0.8331 0.0000
vn -0.8331 0.5531 0.0000
vn -0.5531 -0.8331 0.0000
vn 0.8331 -0.5531 0.0000
vn 0.0000 0.0000 1.0000
vn 0.7376 -0.6752 0.0000
vn 0.6752 0.7376 0.0000
vn -0.7376 0.6752 0.0000
vn -0.6752 -0.7376 0.0000
vn 0.0000 -0.0000 1.0000
vn 0.6412 -0.7674 0.0000
vn 0.7674 0.6412 0.0000
vn -0.6412 0.7674 0.0000
vn -0.7674 -0.6412 0.0000
vn 0.0000 -0.0000 1.0000
vn 0.3487 -0.9372 0.0000
vn 0.9372 0.3487 0.0000
vn -0.3487 0.9372 0.0000
vn -0.9372 -0.3487 0.0000
vn 0.0000 0.0000 1.0000
vn 0.1504 -0.9886 0.0000
vn 0.9886 0.1504 0.0000
vn -0.1504 0.9886 0.0000
vn -0.9886 -0.1504 0.0000
vn 0.0000 0.0000 1.0000
vn 0.1385 -0.9904 0.0000
vn 0.9904 0.1385 0.0000
vn -0.1385 0.9904 0.0000
vn -0.9904 -0.1385 0.0000
vn 0.0000 0.0000 1.0000
vn 0.1087 -0.9941 0.0000
vn 0.9941 0.1087 0.0000
vn -0.1087 0.9941 0.0000
vn -0.9941 -0.1087 0.0000
vn 0.0000 0.0000 1.0000
usemtl facade
f 1/1/1 2/2/1 3/3/1 4/4/1
f 5/5/2 6/6/2 7/7/2 8/8/2
f 9/9/3 10/10/3 11/11/3 12/12/3
f 13/13/4 14/14/4 15/15/4 16/16/4
f 21/21/6 22/22/6 23/23/6 24/24/6
f 25/25/7 26/26/7 27/27/7 28/28/7
f 29/29/8 30/30/8 31/31/8 32/32/8
f 33/33/9 34/34/9 35/35/9 36/36/9
f 41/41/11 42/42/11 43/43/11 44/44/11
f 45/45/12 46/46/12 47/47/12 48/48/12
f 49/49/13 50/50/13 51/51/13 52/52/13
f 53/53/14 54/54/14 55/55/14 56/56/14
f 61/61/16 62/62/16 63/63/16 64/64/16
f 65/65/17 66/66/17 67/67/17 68/68/17
f 69/69/18 70/70/18 71/71/18 72/72/18
f 73/73/19 74/74/19 75/75/19 76/76/19
f 81/81/21 82/82/21 83/83/21 84/84/21
f 85/85/22 86/86/22 87/87/22 88/88/22
f 89/89/23 90/90/23 91/91/23 92/92/23
f 93/93/24 94/94/24 95/95/24 96/96/24
f 101/101/26 102/102/26 103/103/26 104/104/26
f 105/105/27 106/106/27 107/107/27 108/108/27
f 109/109/28 110/110/28 111/111/28 112/112/28
f 113/113/29 114/114/29 115/115/29 116/116/29
f 121/121/31 122/122/31 123/123/31 124/124/31
f 125/125/32 126/126/32 127/127/32 128/128/32
f 129/129/33 130/130/33 131/131/33 132/132/33
f 133/133/34 134/134/34 135/135/34 136/136/34
f 141/141/36 142/142/36 143/143/36 144/144/36
f 145/145/37 146/146/37 147/147/37 148/148/37
f 149/149/38 150/150/38 151/151/38 152/152/38
f 153/153/39 154/154/39 155/155/39 156/156/39
f 161/161/41 162/162/41 163/163/41 164/164/41
f 165/165/42 166/166/42 167/167/42 168/168/42
f 169/169/43 170/170/43 171/171/43 172/172/43
f 173/173/44 174/174/44 175/175/44 176/176/44
usemtl roof
f 17/17/5 18/18/5 19/19/5 20/20/5
f 37/37/10 38/38/10 39/39/10 40/40/10
f 57/57/15 58/58/15 59/59/15 60/60/15
f 77/77/20 78/78/20 79/79/20 80/80/20
f 97/97/25 98/98/25 99/99/25 100/100/25
f 117/117/30 118/118/30 119/119/30 120/120/30
f 137/137/35 138/138/35 139/139/35 140/140/35
f 157/157/40 158/158/40 159/159/40 160/160/40
f 177/177/45 178/178/45 179/179/45 180/180/45
usemtl mud
f 181/181/46 182/182/46 183/183/46 184/184/46
f 185/185/47 186/186/47 187/187/47 188/188/47
f 189/189/48 190/190/48 191/191/48 192/192/48
f 193/193/49 194/194/49 195/195/49 196/196/49
f 215/215/55 216/216/55 217/217/55 218/218/55
f 219/219/56 220/220/56 221/221/56 222/222/56
f 223/223/57 224/224/57 225/225/57 226/226/57
f 227/227/58 228/228/58 229/229/58 230/230/58
f 249/249/64 250/250/64 251/251/64 252/252/64
f 253/253/65 254/254/65 255/255/65 256/256/65
f 257/257/66 258/258/66 259/259/66 260/260/66
f 261/261/67 262/262/67 263/263/67 264/264/67
f 283/283/73 284/284/73 285/285/73 286/286/73
f 287/287/74 288/288/74 289/289/74 290/290/74
f 291/291/75 292/292/75 293/293/75 294/294/75
f 295/295/76 296/296/76 297/297/76 298/298/76
f 317/317/82 318/318/82 319/319/82 320/320/82
f 321/321/83 322/322/83 323/323/83 324/324/83
f 325/325/84 326/326/84 327/327/84 328/328/84
f 329/329/85 330/330/85 331/331/85 332/332/85
f 351/351/91 352/352/91 353/353/91 354/354/91
f 355/355/92 356/356/92 357/357/92 358/358/92
f 359/359/93 360/360/93 361/361/93 362/362/93
f 363/363/94 364/364/94 365/365/94 366/366/94
f 385/385/100 386/386/100 387/387/100 388/388/100
f 389/389/101 390/390/101 391/391/101 392/392/101
f 393/393/102 394/394/102 395/395/102 396/396/102
f 397/397/103 398/398/103 399/399/103 400/400/103
f 419/419/109 420/420/109 421/421/109 422/422/109
f 423/423/110 424/424/110 425/425/110 426/426/110
f 427/427/111 428/428/111 429/429/111 430/430/111
f 431/431/112 432/432/112 433/433/112 434/434/112
f 453/453/118 454/454/118 455/455/118 456/456/118
f 457/457/119 458/458/119 459/459/119 460/460/119
f 461/461/120 462/462/120 463/463/120 464/464/120
f 465/465/121 466/466/121 467/467/121 468/468/121
f 487/487/127 488/488/127 489/489/127 490/490/127
f 491/491/128 492/492/128 493/493/128 494/494/128
f 495/495/129 496/496/129 497/497/129 498/498/129
f 499/499/130 500/500/130 501/501/130 502/502/130
f 521/521/136 522/522/136 523/523/136 524/524/136
f 525/525/137 526/526/137 527/527/137 528/528/137
f 529/529/138 530/530/138 531/531/138 532/532/138
f 533/533/139 534/534/139 535/535/139 536/536/139
f 555/555/145 556/556/145 557/557/145 558/558/145
f 559/559/146 560/560/146 561/561/146 562/562/146
f 563/563/147 564/564/147 565/565/147 566/566/147
f 567/567/148 568/568/148 569/569/148 570/570/148
f 589/589/154 590/590/154 591/591/154 592/592/154
f 593/593/155 594/594/155 595/595/155 596/596/155
f 597/597/156 598/598/156 599/599/156 600/600/156
f 601/601/157 602/602/157 603/603/157 604/604/157
f 623/623/163 624/624/163 625/625/163 626/626/163
f 627/627/164 628/628/164 629/629/164 630/630/164
f 631/631/165 632/632/165 633/633/165 634/634/165
f 635/635/166 636/636/166 637/637/166 638/638/166
f 657/657/172 658/658/172 659/659/172 660/660/172
f 661/661/173 662/662/173 663/663/173 664/664/173
f 665/665/174 666/666/174 667/667/174 668/668/174
f 669/669/175 670/670/175 671/671/175 672/672/175
f 691/691/181 692/692/181 693/693/181 694/694/181
f 695/695/182 696/696/182 697/697/182 698/698/182
f 699/699/183 700/700/183 701/701/183 702/702/183
f 703/703/184 704/704/184 705/705/184 706/706/184
f 725/725/190 726/726/190 727/727/190 728/728/190
f 729/729/191 730/730/191 731/731/191 732/732/191
f 733/733/192 734/734/192 735/735/192 736/736/192
f 737/737/193 738/738/193 739/739/193 740/740/193
f 759/759/199 760/760/199 761/761/199 762/762/199
f 763/763/200 764/764/200 765/765/200 766/766/200
f 767/767/201 768/768/201 769/769/201 770/770/201
f 771/771/202 772/772/202 773/773/202 774/774/202
f 793/793/208 794/794/208 795/795/208 796/796/208
f 797/797/209 798/798/209 799/799/209 800/800/209
f 801/801/210 802/802/210 803/803/210 804/804/210
f 805/805/211 806/806/211 807/807/211 808/808/211
f 827/827/217 828/828/217 829/829/217 830/830/217
f 831/831/218 832/832/218 833/833/218 834/834/218
f 835/835/219 836/836/219 837/837/219 838/838/219
f 839/839/220 840/840/220 841/841/220 842/842/220
f 861/861/226 862/862/226 863/863/226 864/864/226
f 865/865/227 866/866/227 867/867/227 868/868/227
f 869/869/228 870/870/228 871/871/228 872/872/228
f 873/873/229 874/874/229 875/875/229 876/876/229
f 895/895/235 896/896/235 897/897/235 898/898/235
f 899/899/236 900/900/236 901/901/236 902/902/236
f 903/903/237 904/904/237 905/905/237 906/906/237
f 907/907/238 908/908/238 909/909/238 910/910/238
f 929/929/244 930/930/244 931/931/244 932/932/244
f 933/933/245 934/934/245 935/935/245 936/936/245
f 937/937/246 938/938/246 939/939/246 940/940/246
f 941/941/247 942/942/247 943/943/247 944/944/247
f 963/963/253 964/964/253 965/965/253 966/966/253
f 967/967/254 968/968/254 969/969/254 970/970/254
f 971/971/255 972/972/255 973/973/255 974/974/255
f 975/975/256 976/976/256 977/977/256 978/978/256
f 997/997/262 998/998/262 999/999/262 1000/1000/262
f 1001/1001/263 1002/1002/263 1003/1003/263 1004/1004/263
f 1005/1005/264 1006/1006/264 1007/1007/264 1008/1008/264
f 1009/1009/265 1010/1010/265 1011/1011/265 1012/1012/265
f 1031/1031/271 1032/1032/271 1033/1033/271 1034/1034/271
f 1035/1035/272 1036/1036/272 1037/1037/272 1038/1038/272
f 1039/1039/273 1040/1040/273 1041/1041/273 1042/1042/273
f 1043/1043/274 1044/1044/274 1045/1045/274 1046/1046/274
usemtl thatch
f 197/197/50 198/198/50 199/199/50 200/200/50
f 201/201/51 202/202/51 203/203/51 204/204/51
f 205/205/52 206/206/52 207/207/52 208/208/52
f 209/209/53 210/210/53 211/211/53
f 212/212/54 213/213/54 214/214/54
f 231/231/59 232/232/59 233/233/59 234/234/59
f 235/235/60 236/236/60 237/237/60 238/238/60
f 239/239/61 240/240/61 241/241/61 242/242/61
f 243/243/62 244/244/62 245/245/62
f 246/246/63 247/247/63 248/248/63
f 265/265/68 266/266/68 267/267/68 268/268/68
f 269/269/69 270/270/69 271/271/69 272/272/69
f 273/273/70 274/274/70 275/275/70 276/276/70
f 277/277/71 278/278/71 279/279/71
f 280/280/72 281/281/72 282/282/72
f 299/299/77 300/300/77 301/301/77 302/302/77
f 303/303/78 304/304/78 305/305/78 306/306/78
f 307/307/79 308/308/79 309/309/79 310/310/79
f 311/311/80 312/312/80 313/313/80
f 314/314/81 315/315/81 316/316/81
f 333/333/86 334/334/86 335/335/86 336/336/86
f 337/337/87 338/338/87 339/339/87 340/340/87
f 341/341/88 342/342/88 343/343/88 344/344/88
f 345/345/89 346/346/89 347/347/89
f 348/348/90 349/349/90 350/350/90
f 367/367/95 368/368/95 369/369/95 370/370/95
f 371/371/96 372/372/96 373/373/96 374/374/96
f 375/375/97 376/376/97 377/377/97 378/378/97
f 379/379/98 380/380/98 381/381/98
f 382/382/99 383/383/99 384/384/99
f 401/401/104 402/402/104 403/403/104 404/404/104
f 405/405/105 406/406/105 407/407/105 408/408/105
f 409/409/106 410/410/106 411/411/106 412/412/106
f 413/413/107 414/414/107 415/415/107
f 416/416/108 417/417/108 418/418/108
f 435/435/113 436/436/113 437/437/113 438/438/113
f 439/439/114 440/440/114 441/441/114 442/442/114
f 443/443/115 444/444/115 445/445/115 446/446/115
f 447/447/116 448/448/116 449/449/116
f 450/450/117 451/451/117 452/452/117
f 469/469/122 470/470/122 471/471/122 472/472/122
f 473/473/123 474/474/123 475/475/123 476/476/123
f 477/477/124 478/478/124 479/479/124 480/480/124
f 481/481/125 482/482/125 483/483/125
f 484/484/126 485/485/126 486/486/126
f 503/503/131 504/504/131 505/505/131 506/506/131
f 507/507/132 508/508/132 509/509/132 510/510/132
f 511/511/133 512/512/133 513/513/133 514/514/133
f 515/515/134 516/516/134 517/517/134
f 518/518/135 519/519/135 520/520/135
f 537/537/140 538/538/140 539/539/140 540/540/140
f 541/541/141 542/542/141 543/543/141 544/544/141
f 545/545/142 546/546/142 547/547/142 548/548/142
f 549/549/143 550/550/143 551/551/143
f 552/552/144 553/553/144 554/554/144
f 571/571/149 572/572/149 573/573/149 574/574/149
f 575/575/150 576/576/150 577/577/150 578/578/150
f 579/579/151 580/580/151 581/581/151 582/582/151
f 583/583/152 584/584/152 585/585/152
f 586/586/153 587/587/153 588/588/153
f 605/605/158 606/606/158 607/607/158 608/608/158
f 609/609/159 610/610/159 611/611/159 612/612/159
f 613/613/160 614/614/160 615/615/160 616/616/160
f 617/617/161 618/618/161 619/619/161
f 620/620/162 621/621/162 622/622/162
f 639/639/167 640/640/167 641/641/167 642/642/167
f 643/643/168 644/644/168 645/645/168 646/646/168
f 647/647/169 648/648/169 649/649/169 650/650/169
f 651/651/170 652/652/170 653/653/170
f 654/654/171 655/655/171 656/656/171
f 673/673/176 674/674/176 675/675/176 676/676/176
f 677/677/177 678/678/177 679/679/177 680/680/177
f 681/681/178 682/682/178 683/683/178 684/684/178
f 685/685/179 686/686/179 687/687/179
f 688/688/180 689/689/180 690/690/180
f 707/707/185 708/708/185 709/709/185 710/710/185
f 711/711/186 712/712/186 713/713/186 714/714/186
f 715/715/187 716/716/187 717/717/187 718/718/187
f 719/719/188 720/720/188 721/721/188
f 722/722/189 723/723/189 724/724/189
f 741/741/194 742/742/194 743/743/194 744/744/194
f 745/745/195 746/746/195 747/747/195 748/748/195
f 749/749/196 750/750/196 751/751/196 752/752/196
f 753/753/197 754/754/197 755/755/197
f 756/756/198 757/757/198 758/758/198
f 775/775/203 776/776/203 777/777/203 778/778/203
f 779/779/204 780/780/204 781/781/204 782/782/204
f 783/783/205 784/784/205 785/785/205 786/786/205
f 787/787/206 788/788/206 789/789/206
f 790/790/207 791/791/207 792/792/207
f 809/809/212 810/810/212 811/811/212 812/812/212
f 813/813/213 814/814/213 815/815/213 816/816/213
f 817/817/214 818/818/214 819/819/214 820/820/214
f 821/821/215 822/822/215 823/823/215
f 824/824/216 825/825/216 826/826/216
f 843/843/221 844/844/221 845/845/221 846/846/221
f 847/847/222 848/848/222 849/849/222 850/850/222
f 851/851/223 852/852/223 853/853/223 854/854/223
f 855/855/224 856/856/224 857/857/224
f 858/858/225 859/859/225 860/860/225
f 877/877/230 878/878/230 879/879/230 880/880/230
f 881/881/231 882/882/231 883/883/231 884/884/231
f 885/885/232 886/886/232 887/887/232 888/888/232
f 889/889/233 890/890/233 891/891/233
f 892/892/234 893/893/234 894/894/234
f 911/911/239 912/912/239 913/913/239 914/914/239
f 915/915/240 916/916/240 917/917/240 918/918/240
f 919/919/241 920/920/241 921/921/241 922/922/241
f 923/923/242 924/924/242 925/925/242
f 926/926/243 927/927/243 928/928/243
f 945/945/248 946/946/248 947/947/248 948/948/248
f 949/949/249 950/950/249 951/951/249 952/952/249
f 953/953/250 954/954/250 955/955/250 956/956/250
f 957/957/251 958/958/251 959/959/251
f 960/960/252 961/961/252 962/962/252
f 979/979/257 980/980/257 981/981/257 982/982/257
f 983/983/258 984/984/258 985/985/258 986/986/258
f 987/987/259 988/988/259 989/989/259 990/990/259
f 991/991/260 992/992/260 993/993/260
f 994/994/261 995/995/261 996/996/261
f 1013/1013/266 1014/1014/266 1015/1015/266 1016/1016/266
f 1017/1017/267 1018/1018/267 1019/1019/267 1020/1020/267
f 1021/1021/268 1022/1022/268 1023/1023/268 1024/1024/268
f 1025/1025/269 1026/1026/269 1027/1027/269
f 1028/1028/270 1029/1029/270 1030/1030/270
f 1047/1047/275 1048/1048/275 1049/1049/275 1050/1050/275
f 1051/1051/276 1052/1052/276 1053/1053/276 1054/1054/276
f 1055/1055/277 1056/1056/277 1057/1057/277 1058/1058/277
f 1059/1059/278 1060/1060/278 1061/1061/278
f 1062/1062/279 1063/1063/279 1064/1064/279
usemtl rubble
f 1065/1065/280 1066/1066/280 1067/1067/280 1068/1068/280
f 1069/1069/281 1070/1070/281 1071/1071/281 1072/1072/281
f 1073/1073/282 1074/1074/282 1075/1075/282 1076/1076/282
f 1077/1077/283 1078/1078/283 1079/1079/283 1080/1080/283
f 1081/1081/284 1082/1082/284 1083/1083/284 1084/1084/284
f 1085/1085/285 1086/1086/285 1087/1087/285 1088/1088/285
f 1089/1089/286 1090/1090/286 1091/1091/286 1092/1092/286
f 1093/1093/287 1094/1094/287 1095/1095/287 1096/1096/287
f 1097/1097/288 1098/1098/288 1099/1099/288 1100/1100/288
f 1101/1101/289 1102/1102/289 1103/1103/289 1104/1104/289
f 1105/1105/290 1106/1106/290 1107/1107/290 1108/1108/290
f 1109/1109/291 1110/1110/291 1111/1111/291 1112/1112/291
f 1113/1113/292 1114/1114/292 1115/1115/292 1116/1116/292
f 1117/1117/293 1118/1118/293 1119/1119/293 1120/1120/293
f 1121/1121/294 1122/1122/294 1123/1123/294 1124/1124/294
f 1125/1125/295 1126/1126/295 1127/1127/295 1128/1128/295
f 1129/1129/296 1130/1130/296 1131/1131/296 1132/1132/296
f 1133/1133/297 1134/1134/297 1135/1135/297 1136/1136/297
f 1137/1137/298 1138/1138/298 1139/1139/298 1140/1140/298
f 1141/1141/299 1142/1142/299 1143/1143/299 1144/1144/299
f 1145/1145/300 1146/1146/300 1147/1147/300 1148/1148/300
f 1149/1149/301 1150/1150/301 1151/1151/301 1152/1152/301
f 1153/1153/302 1154/1154/302 1155/1155/302 1156/1156/302
f 1157/1157/303 1158/1158/303 1159/1159/303 1160/1160/303
f 1161/1161/304 1162/1162/304 1163/1163/304 1164/1164/304
f 1165/1165/305 1166/1166/305 1167/1167/305 1168/1168/305
f 1169/1169/306 1170/1170/306 1171/1171/306 1172/1172/306
f 1173/1173/307 1174/1174/307 1175/1175/307 1176/1176/307
f 1177/1177/308 1178/1178/308 1179/1179/308 1180/1180/308
f 1181/1181/309 1182/1182/309 1183/1183/309 1184/1184/309
f 1185/1185/310 1186/1186/310 1187/1187/310 1188/1188/310
f 1189/1189/311 1190/1190/311 1191/1191/311 1192/1192/311
f 1193/1193/312 1194/1194/312 1195/1195/312 1196/1196/312
f 1197/1197/313 1198/1198/313 1199/1199/313 1200/1200/313
f 1201/1201/314 1202/1202/314 1203/1203/314 1204/1204/314
f 1205/1205/315 1206/1206/315 1207/1207/315 1208/1208/315
f 1209/1209/316 1210/1210/316 1211/1211/316 1212/1212/316
f 1213/1213/317 1214/1214/317 1215/1215/317 1216/1216/317
f 1217/1217/318 1218/1218/318 1219/1219/318 1220/1220/318
f 1221/1221/319 1222/1222/319 1223/1223/319 1224/1224/319
f 1225/1225/320 1226/1226/320 1227/1227/320 1228/1228/320
f 1229/1229/321 1230/1230/321 1231/1231/321 1232/1232/321
f 1233/1233/322 1234/1234/322 1235/1235/322 1236/1236/322
f 1237/1237/323 1238/1238/323 1239/1239/323 1240/1240/323
f 1241/1241/324 1242/1242/324 1243/1243/324 1244/1244/324
f 1245/1245/325 1246/1246/325 1247/1247/325 1248/1248/325
f 1249/1249/326 1250/1250/326 1251/1251/326 1252/1252/326
f 1253/1253/327 1254/1254/327 1255/1255/327 1256/1256/327
f 1257/1257/328 1258/1258/328 1259/1259/328 1260/1260/328
f 1261/1261/329 1262/1262/329 1263/1263/329 1264/1264/329
f 1265/1265/330 1266/1266/330 1267/1267/330 1268/1268/330
f 1269/1269/331 1270/1270/331 1271/1271/331 1272/1272/331
f 1273/1273/332 1274/1274/332 1275/1275/332 1276/1276/332
f 1277/1277/333 1278/1278/333 1279/1279/333 1280/1280/333
f 1281/1281/334 1282/1282/334 1283/1283/334 1284/1284/334
f 1285/1285/335 1286/1286/335 1287/1287/335 1288/1288/335
f 1289/1289/336 1290/1290/336 1291/1291/336 1292/1292/336
f 1293/1293/337 1294/1294/337 1295/1295/337 1296/1296/337
f 1297/1297/338 1298/1298/338 1299/1299/338 1300/1300/338
f 1301/1301/339 1302/1302/339 1303/1303/339 1304/1304/339
f 1305/1305/340 1306/1306/340 1307/1307/340 1308/1308/340
f 1309/1309/341 1310/1310/341 1311/1311/341 1312/1312/341
f 1313/1313/342 1314/1314/342 1315/1315/342 1316/1316/342
f 1317/1317/343 1318/1318/343 1319/1319/343 1320/1320/343
f 1321/1321/344 1322/1322/344 1323/1323/344 1324/1324/344
f 1325/1325/345 1326/1326/345 1327/1327/345 1328/1328/345
f 1329/1329/346 1330/1330/346 1331/1331/346 1332/1332/346
f 1333/1333/347 1334/1334/347 1335/1335/347 1336/1336/347
f 1337/1337/348 1338/1338/348 1339/1339/348 1340/1340/348
f 1341/1341/349 1342/1342/349 1343/1343/349 1344/1344/349
f 1345/1345/350 1346/1346/350 1347/1347/350 1348/1348/350
f 1349/1349/351 1350/1350/351 1351/1351/351 1352/1352/351
f 1353/1353/352 1354/1354/352 1355/1355/352 1356/1356/352
f 1357/1357/353 1358/1358/353 1359/1359/353 1360/1360/353
f 1361/1361/354 1362/1362/354 1363/1363/354 1364/1364/354
f 1365/1365/355 1366/1366/355 1367/1367/355 1368/1368/355
f 1369/1369/356 1370/1370/356 1371/1371/356 1372/1372/356
f 1373/1373/357 1374/1374/357 1375/1375/357 1376/1376/357
f 1377/1377/358 1378/1378/358 1379/1379/358 1380/1380/358
f 1381/1381/359 1382/1382/359 1383/1383/359 1384/1384/359
f 1385/1385/360 1386/1386/360 1387/1387/360 1388/1388/360
f 1389/1389/361 1390/1390/361 1391/1391/361 1392/1392/361
f 1393/1393/362 1394/1394/362 1395/1395/362 1396/1396/362
f 1397/1397/363 1398/1398/363 1399/1399/363 1400/1400/363
f 1401/1401/364 1402/1402/364 1403/1403/364 1404/1404/364
f 1405/1405/365 1406/1406/365 1407/1407/365 1408/1408/365
f 1409/1409/366 1410/1410/366 1411/1411/366 1412/1412/366
f 1413/1413/367 1414/1414/367 1415/1415/367 1416/1416/367
f 1417/1417/368 1418/1418/368 1419/1419/368 1420/1420/368
f 1421/1421/369 1422/1422/369 1423/1423/369 1424/1424/369
