# generated by worldgen/generate_region.py
mtllib water.mtl
v 53.644 -14.000 0.050
v 47.894 -20.000 0.050
v 57.894 -20.000 0.050
v 53.644 -14.000 0.050
v 57.894 -20.000 0.050
v 57.894 -8.000 0.050
v 53.644 -14.000 0.050
v 57.894 -8.000 0.050
v 50.894 -8.000 0.050
v 53.644 -14.000 0.050
v 50.894 -8.000 0.050
v 47.894 -20.000 0.050
vt 0.0000 0.0000
vt 1.0000 0.0000
vt 0.0000 1.0000
vt 0.0000 0.0000
vt 1.0000 0.0000
vt 0.0000 1.0000
vt 0.0000 0.0000
vt 1.0000 0.0000
vt 0.0000 1.0000
vt 0.0000 0.0000
vt 1.0000 0.0000
vt 0.0000 1.0000
vn 0.0000 0.0000 1.0000
vn -0.0000 0.0000 1.0000
vn 0.0000 -0.0000 1.0000
vn 0.0000 0.0000 1.0000
usemtl water
f 1/1/1 2/2/1 3/3/1
f 4/4/2 5/5/2 6/6/2
f 7/7/3 8/8/3 9/9/3
f 10/10/4 11/11/4 12/12/4
