# generated by worldgen/generate_region.py
mtllib ground.mtl
v -300.000 -300.000 0.000
v 300.000 -300.000 0.000
v 300.000 300.000 0.000
v -300.000 300.000 0.000
v -100.000 -4.000 0.030
v 100.000 -4.000 0.030
v 100.000 4.000 0.030
v -100.000 4.000 0.030
v -4.000 -100.000 0.030
v 4.000 -100.000 0.030
v 4.000 100.000 0.030
v -4.000 100.000 0.030
v 4.000 -64.000 0.030
v 100.000 -64.000 0.030
v 100.000 -56.000 0.030
v 4.000 -56.000 0.030
v 17.000 16.000 0.030
v 23.000 16.000 0.030
v 23.000 100.000 0.030
v 17.000 100.000 0.030
v 47.000 16.000 0.030
v 53.000 16.000 0.030
v 53.000 100.000 0.030
v 47.000 100.000 0.030
v 77.000 16.000 0.030
v 83.000 16.000 0.030
v 83.000 100.000 0.030
v 77.000 100.000 0.030
v 16.000 17.000 0.030
v 100.000 17.000 0.030
v 100.000 23.000 0.030
v 16.000 23.000 0.030
v 16.000 47.000 0.030
v 100.000 47.000 0.030
v 100.000 53.000 0.030
v 16.000 53.000 0.030
v 16.000 77.000 0.030
v 100.000 77.000 0.030
v 100.000 83.000 0.030
v 16.000 83.000 0.030
v -100.000 -42.000 0.030
v -8.000 -42.000 0.030
v -8.000 -38.000 0.030
v -100.000 -38.000 0.030
v -62.000 -100.000 0.030
v -58.000 -100.000 0.030
v -58.000 -4.000 0.030
v -62.000 -4.000 0.030
v -60.000 40.000 0.030
v -56.000 40.000 0.030
v -56.000 96.000 0.030
v -60.000 96.000 0.030
v -101.000 -73.000 0.020
v -79.000 -73.000 0.020
v -79.000 -47.000 0.020
v -101.000 -47.000 0.020
v -43.000 -98.000 0.020
v -17.000 -98.000 0.020
v -17.000 -82.000 0.020
v -43.000 -82.000 0.020
v -97.000 -97.000 0.020
v -79.000 -97.000 0.020
v -79.000 -83.000 0.020
v -97.000 -83.000 0.020
v -27.000 -69.000 0.020
v -13.000 -69.000 0.020
v -13.000 -51.000 0.020
v -27.000 -51.000 0.020
v 14.000 14.000 0.015
v 100.000 14.000 0.015
v 100.000 100.000 0.015
v 14.000 100.000 0.015
v -12.000 -12.000 0.035
v 12.000 -12.000 0.035
v 12.000 12.000 0.035
v -12.000 12.000 0.035
vt -50.0000 -50.0000
vt 50.0000 -50.0000
vt 50.0000 50.0000
vt -50.0000 50.0000
vt -12.5000 -0.5000
vt 12.5000 -0.5000
vt 12.5000 0.5000
vt -12.5000 0.5000
vt -0.5000 -12.5000
vt 0.5000 -12.5000
vt 0.5000 12.5000
vt -0.5000 12.5000
vt 0.5000 -8.0000
vt 12.5000 -8.0000
vt 12.5000 -7.0000
vt 0.5000 -7.0000
vt 2.1250 2.0000
vt 2.8750 2.0000
vt 2.8750 12.5000
vt 2.1250 12.5000
vt 5.8750 2.0000
vt 6.6250 2.0000
vt 6.6250 12.5000
vt 5.8750 12.5000
vt 9.6250 2.0000
vt 10.3750 2.0000
vt 10.3750 12.5000
vt 9.6250 12.5000
vt 2.0000 2.1250
vt 12.5000 2.1250
vt 12.5000 2.8750
vt 2.0000 2.8750
vt 2.0000 5.8750
vt 12.5000 5.8750
vt 12.5000 6.6250
vt 2.0000 6.6250
vt 2.0000 9.6250
vt 12.5000 9.6250
vt 12.5000 10.3750
vt 2.0000 10.3750
vt -12.5000 -5.2500
vt -1.0000 -5.2500
vt -1.0000 -4.7500
vt -12.5000 -4.7500
vt -7.7500 -12.5000
vt -7.2500 -12.5000
vt -7.2500 -0.5000
vt -7.7500 -0.5000
vt -10.0000 6.6667
vt -9.3333 6.6667
vt -9.3333 16.0000
vt -10.0000 16.0000
vt 0.0000 0.0000
vt 1.8333 0.0000
vt 1.8333 2.1667
vt 0.0000 2.1667
vt 0.0000 0.0000
vt 2.1667 0.0000
vt 2.1667 1.3333
vt 0.0000 1.3333
vt 0.0000 0.0000
vt 1.5000 0.0000
vt 1.5000 1.1667
vt 0.0000 1.1667
vt 0.0000 0.0000
vt 1.1667 0.0000
vt 1.1667 1.5000
vt 0.0000 1.5000
vt 0.0000 0.0000
vt 8.0000 0.0000
vt 8.0000 8.0000
vt 0.0000 8.0000
vt 0.0000 0.0000
vt 2.0000 0.0000
vt 2.0000 2.0000
vt 0.0000 2.0000
vn 0.0000 0.0000 1.0000
vn 0.0000 0.0000 1.0000
vn 0.0000 0.0000 1.0000
vn 0.0000 0.0000 1.0000
vn 0.0000 0.0000 1.0000
vn 0.0000 0.0000 1.0000
vn 0.0000 0.0000 1.0000
vn 0.0000 0.0000 1.0000
vn 0.0000 0.0000 1.0000
vn 0.0000 0.0000 1.0000
vn 0.0000 0.0000 1.0000
vn 0.0000 0.0000 1.0000
vn 0.0000 0.0000 1.0000
vn 0.0000 0.0000 1.0000
vn 0.0000 0.0000 1.0000
vn 0.0000 0.0000 1.0000
vn 0.0000 0.0000 1.0000
vn 0.0000 0.0000 1.0000
vn 0.0000 0.0000 1.0000
usemtl grass
f 1/1/1 2/2/1 3/3/1 4/4/1
usemtl asphalt
f 5/5/2 6/6/2 7/7/2 8/8/2
f 9/9/3 10/10/3 11/11/3 12/12/3
f 13/13/4 14/14/4 15/15/4 16/16/4
f 17/17/5 18/18/5 19/19/5 20/20/5
f 21/21/6 22/22/6 23/23/6 24/24/6
f 25/25/7 26/26/7 27/27/7 28/28/7
f 29/29/8 30/30/8 31/31/8 32/32/8
f 33/33/9 34/34/9 35/35/9 36/36/9
f 37/37/10 38/38/10 39/39/10 40/40/10
f 41/41/11 42/42/11 43/43/11 44/44/11
f 45/45/12 46/46/12 47/47/12 48/48/12
usemtl dirt
f 49/49/13 50/50/13 51/51/13 52/52/13
usemtl farmland
f 53/53/14 54/54/14 55/55/14 56/56/14
f 57/57/15 58/58/15 59/59/15 60/60/15
f 61/61/16 62/62/16 63/63/16 64/64/16
f 65/65/17 66/66/17 67/67/17 68/68/17
usemtl concrete
f 69/69/18 70/70/18 71/71/18 72/72/18
f 73/73/19 74/74/19 75/75/19 76/76/19
