<?xml version="1.0" encoding="utf-8"?>
<COLLADA xmlns="http://www.collada.org/2005/11/COLLADASchema" version="1.4.1">
  <asset><unit name="meter" meter="1"/><up_axis>Z_UP</up_axis></asset>
  <library_images><image id="img"><init_from>../materials/textures/rubble.jpg</init_from></image></library_images>
  <library_effects><effect id="fx"><profile_COMMON>
    <newparam sid="surf"><surface type="2D"><init_from>img</init_from></surface></newparam>
    <newparam sid="samp"><sampler2D><source>surf</source></sampler2D></newparam>
    <technique sid="common"><lambert><diffuse><texture texture="samp" texcoord="UV"/></diffuse></lambert></technique>
  </profile_COMMON></effect></library_effects>
  <library_materials><material id="mat"><instance_effect url="#fx"/></material></library_materials>
  <library_geometries><geometry id="g"><mesh>
    <source id="p"><float_array id="p-a" count="2289">0.2100 -1.1900 -0.0200 0.2800 -1.1900 -0.0200 0.3500 -1.1900 -0.0200 0.4200 -1.1900 -0.0200 0.4900 -1.1900 -0.0200 0.5600 -1.1900 -0.0200 0.0000 -1.1200 -0.0200 0.0700 -1.1200 -0.0200 0.1400 -1.1200 -0.0200 0.2100 -1.1200 -0.0200 0.2800 -1.1200 0.0050 0.3500 -1.1200 0.0067 0.4200 -1.1200 0.0050 0.4900 -1.1200 0.0050 0.5600 -1.1200 -0.0200 0.6300 -1.1200 -0.0200 0.7000 -1.1200 -0.0200 -0.2800 -1.0500 -0.0200 -0.2100 -1.0500 -0.0200 -0.1400 -1.0500 -0.0200 -0.0700 -1.0500 -0.0200 0.0000 -1.0500 0.0050 0.0700 -1.0500 0.0173 0.1400 -1.0500 0.0360 0.2100 -1.0500 0.0442 0.2800 -1.0500 0.0460 0.3500 -1.0500 0.0420 0.4200 -1.0500 0.0330 0.4900 -1.0500 0.0253 0.5600 -1.0500 0.0205 0.6300 -1.0500 0.0102 0.7000 -1.0500 -0.0200 0.7700 -1.0500 -0.0200 -0.4900 -0.9800 -0.0200 -0.4200 -0.9800 -0.0200 -0.3500 -0.9800 -0.0200 -0.2800 -0.9800 0.0050 -0.2100 -0.9800 0.0050 -0.1400 -0.9800 0.0073 -0.0700 -0.9800 0.0162 0.0000 -0.9800 0.0335 0.0700 -0.9800 0.0543 0.1400 -0.9800 0.0703 0.2100 -0.9800 0.0769 0.2800 -0.9800 0.0745 0.3500 -0.9800 0.0683 0.4200 -0.9800 0.0617 0.4900 -0.9800 0.0555 0.5600 -0.9800 0.0515 0.6300 -0.9800 0.0450 0.7000 -0.9800 0.0278 0.7700 -0.9800 -0.0200 0.8400 -0.9800 -0.0200 -0.5600 -0.9100 -0.0200 -0.4900 -0.9100 -0.0200 -0.4200 -0.9100 0.0122 -0.3500 -0.9100 0.0280 -0.2800 -0.9100 0.0409 -0.2100 -0.9100 0.0467 -0.1400 -0.9100 0.0485 -0.0700 -0.9100 0.0539 0.0000 -0.9100 0.0660 0.0700 -0.9100 0.0829 0.1400 -0.9100 0.0986 0.2100 -0.9100 0.1047 0.2800 -0.9100 0.1013 0.3500 -0.9100 0.0984 0.4200 -0.9100 0.0980 0.4900 -0.9100 0.0938 0.5600 -0.9100 0.0869 0.6300 -0.9100 0.0771 0.7000 -0.9100 0.0568 0.7700 -0.9100 0.0230 0.8400 -0.9100 -0.0200 -0.6300 -0.8400 -0.0200 -0.5600 -0.8400 0.0153 -0.4900 -0.8400 0.0359 -0.4200 -0.8400 0.0477 -0.3500 -0.8400 0.0621 -0.2800 -0.8400 0.0743 -0.2100 -0.8400 0.0826 -0.1400 -0.8400 0.0864 -0.0700 -0.8400 0.0887 0.0000 -0.8400 0.0953 0.0700 -0.8400 0.1086 0.1400 -0.8400 0.1232 0.2100 -0.8400 0.1287 0.2800 -0.8400 0.1286 0.3500 -0.8400 0.1313 0.4200 -0.8400 0.1320 0.4900 -0.8400 0.1243 0.5600 -0.8400 0.1132 0.6300 -0.8400 0.0998 0.7000 -0.8400 0.0750 0.7700 -0.8400 0.0381 0.8400 -0.8400 -0.0200 -0.7000 -0.7700 -0.0200 -0.6300 -0.7700 -0.0200 -0.5600 -0.7700 0.0389 -0.4900 -0.7700 0.0628 -0.4200 -0.7700 0.0815 -0.3500 -0.7700 0.0972 -0.2800 -0.7700 0.1084 -0.2100 -0.7700 0.1173 -0.1400 -0.7700 0.1218 -0.0700 -0.7700 0.1214 0.0000 -0.7700 0.1226 0.0700 -0.7700 0.1311 0.1400 -0.7700 0.1424 0.2100 -0.7700 0.1486 0.2800 -0.7700 0.1557 0.3500 -0.7700 0.1651 0.4200 -0.7700 0.1640 0.4900 -0.7700 0.1493 0.5600 -0.7700 0.1307 0.6300 -0.7700 0.1112 0.7000 -0.7700 0.0830 0.7700 -0.7700 0.0458 0.8400 -0.7700 -0.0200 0.9100 -0.7700 -0.0200 -0.7000 -0.7000 -0.0200 -0.6300 -0.7000 0.0081 -0.5600 -0.7000 0.0480 -0.4900 -0.7000 0.0801 -0.4200 -0.7000 0.1077 -0.3500 -0.7000 0.1294 -0.2800 -0.7000 0.1440 -0.2100 -0.7000 0.1522 -0.1400 -0.7000 0.1551 -0.0700 -0.7000 0.1525 0.0000 -0.7000 0.1486 0.0700 -0.7000 0.1512 0.1400 -0.7000 0.1603 0.2100 -0.7000 0.1708 0.2800 -0.7000 0.1849 0.3500 -0.7000 0.1977 0.4200 -0.7000 0.1957 0.4900 -0.7000 0.1770 0.5600 -0.7000 0.1501 0.6300 -0.7000 0.1206 0.7000 -0.7000 0.0873 0.7700 -0.7000 0.0489 0.8400 -0.7000 0.0081 0.9100 -0.7000 -0.0200 -0.7000 -0.6300 -0.0200 -0.6300 -0.6300 0.0178 -0.5600 -0.6300 0.0608 -0.4900 -0.6300 0.0984 -0.4200 -0.6300 0.1313 -0.3500 -0.6300 0.1589 -0.2800 -0.6300 0.1750 -0.2100 -0.6300 0.1788 -0.1400 -0.6300 0.1796 -0.0700 -0.6300 0.1784 0.0000 -0.6300 0.1736 0.0700 -0.6300 0.1721 0.1400 -0.6300 0.1803 0.2100 -0.6300 0.1953 0.2800 -0.6300 0.2096 0.3500 -0.6300 0.2185 0.4200 -0.6300 0.2166 0.4900 -0.6300 0.1996 0.5600 -0.6300 0.1691 0.6300 -0.6300 0.1316 0.7000 -0.6300 0.0920 0.7700 -0.6300 0.0489 0.8400 -0.6300 0.0050 0.9100 -0.6300 -0.0200 -0.7000 -0.5600 -0.0200 -0.6300 -0.5600 0.0350 -0.5600 -0.5600 0.0835 -0.4900 -0.5600 0.1248 -0.4200 -0.5600 0.1577 -0.3500 -0.5600 0.1837 -0.2800 -0.5600 0.1952 -0.2100 -0.5600 0.1936 -0.1400 -0.5600 0.1955 -0.0700 -0.5600 0.2016 0.0000 -0.5600 0.2028 0.0700 -0.5600 0.2006 0.1400 -0.5600 0.2059 0.2100 -0.5600 0.2188 0.2800 -0.5600 0.2264 0.3500 -0.5600 0.2282 0.4200 -0.5600 0.2260 0.4900 -0.5600 0.2115 0.5600 -0.5600 0.1804 0.6300 -0.5600 0.1386 0.7000 -0.5600 0.0944 0.7700 -0.5600 0.0490 0.8400 -0.5600 0.0050 0.9100 -0.5600 -0.0200 -0.7000 -0.4900 -0.0200 -0.6300 -0.4900 0.0488 -0.5600 -0.4900 0.1010 -0.4900 -0.4900 0.1453 -0.4200 -0.4900 0.1772 -0.3500 -0.4900 0.1987 -0.2800 -0.4900 0.2071 -0.2100 -0.4900 0.2066 -0.1400 -0.4900 0.2130 -0.0700 -0.4900 0.2263 0.0000 -0.4900 0.2351 0.0700 -0.4900 0.2363 0.1400 -0.4900 0.2390 0.2100 -0.4900 0.2447 0.2800 -0.4900 0.2436 0.3500 -0.4900 0.2385 0.4200 -0.4900 0.2320 0.4900 -0.4900 0.2150 0.5600 -0.4900 0.1822 0.6300 -0.4900 0.1381 0.7000 -0.4900 0.0924 0.7700 -0.4900 0.0499 0.8400 -0.4900 0.0050 0.9100 -0.4900 -0.0200 -0.7000 -0.4200 -0.0200 -0.6300 -0.4200 0.0546 -0.5600 -0.4200 0.1054 -0.4900 -0.4200 0.1526 -0.4200 -0.4200 0.1881 -0.3500 -0.4200 0.2110 -0.2800 -0.4200 0.2244 -0.2100 -0.4200 0.2329 -0.1400 -0.4200 0.2421 -0.0700 -0.4200 0.2533 0.0000 -0.4200 0.2642 0.0700 -0.4200 0.2716 0.1400 -0.4200 0.2761 0.2100 -0.4200 0.2759 0.2800 -0.4200 0.2669 0.3500 -0.4200 0.2528 0.4200 -0.4200 0.2359 0.4900 -0.4200 0.2118 0.5600 -0.4200 0.1770 0.6300 -0.4200 0.1334 0.7000 -0.4200 0.0884 0.7700 -0.4200 0.0479 0.8400 -0.4200 0.0050 0.9100 -0.4200 -0.0200 -0.7000 -0.3500 -0.0200 -0.6300 -0.3500 0.0549 -0.5600 -0.3500 0.1043 -0.4900 -0.3500 0.1549 -0.4200 -0.3500 0.1975 -0.3500 -0.3500 0.2278 -0.2800 -0.3500 0.2502 -0.2100 -0.3500 0.2691 -0.1400 -0.3500 0.2808 -0.0700 -0.3500 0.2869 0.0000 -0.3500 0.2952 0.0700 -0.3500 0.3044 0.1400 -0.3500 0.3080 0.2100 -0.3500 0.3016 0.2800 -0.3500 0.2842 0.3500 -0.3500 0.2594 0.4200 -0.3500 0.2314 0.4900 -0.3500 0.2021 0.5600 -0.3500 0.1676 0.6300 -0.3500 0.1260 0.7000 -0.3500 0.0821 0.7700 -0.3500 0.0411 0.8400 -0.3500 0.0050 -0.7000 -0.2800 -0.0200 -0.6300 -0.2800 0.0541 -0.5600 -0.2800 0.1027 -0.4900 -0.2800 0.1542 -0.4200 -0.2800 0.2015 -0.3500 -0.2800 0.2390 -0.2800 -0.2800 0.2677 -0.2100 -0.2800 0.2924 -0.1400 -0.2800 0.3094 -0.0700 -0.2800 0.3183 0.0000 -0.2800 0.3264 0.0700 -0.2800 0.3328 0.1400 -0.2800 0.3287 0.2100 -0.2800 0.3127 0.2800 -0.2800 0.2870 0.3500 -0.2800 0.2536 0.4200 -0.2800 0.2192 0.4900 -0.2800 0.1900 0.5600 -0.2800 0.1587 0.6300 -0.2800 0.1185 0.7000 -0.2800 0.0754 0.7700 -0.2800 0.0363 0.8400 -0.2800 -0.0200 -0.7700 -0.2100 -0.0200 -0.7000 -0.2100 0.0179 -0.6300 -0.2100 0.0635 -0.5600 -0.2100 0.1074 -0.4900 -0.2100 0.1536 -0.4200 -0.2100 0.1979 -0.3500 -0.2100 0.2364 -0.2800 -0.2100 0.2680 -0.2100 -0.2100 0.2966 -0.1400 -0.2100 0.3207 -0.0700 -0.2100 0.3358 0.0000 -0.2100 0.3466 0.0700 -0.2100 0.3535 0.1400 -0.2100 0.3432 0.2100 -0.2100 0.3187 0.2800 -0.2100 0.2873 0.3500 -0.2100 0.2499 0.4200 -0.2100 0.2141 0.4900 -0.2100 0.1882 0.5600 -0.2100 0.1609 0.6300 -0.2100 0.1203 0.7000 -0.2100 0.0765 0.7700 -0.2100 0.0397 0.8400 -0.2100 0.0050 0.9100 -0.2100 -0.0200 -0.7700 -0.1400 -0.0200 -0.7000 -0.1400 0.0499 -0.6300 -0.1400 0.0899 -0.5600 -0.1400 0.1278 -0.4900 -0.1400 0.1646 -0.4200 -0.1400 0.1983 -0.3500 -0.1400 0.2291 -0.2800 -0.1400 0.2592 -0.2100 -0.1400 0.2923 -0.1400 -0.1400 0.3255 -0.0700 -0.1400 0.3485 0.0000 -0.1400 0.3612 0.0700 -0.1400 0.3701 0.1400 -0.1400 0.3564 0.2100 -0.1400 0.3265 0.2800 -0.1400 0.2922 0.3500 -0.1400 0.2557 0.4200 -0.1400 0.2237 0.4900 -0.1400 0.2026 0.5600 -0.1400 0.1776 0.6300 -0.1400 0.1345 0.7000 -0.1400 0.0868 0.7700 -0.1400 0.0485 0.8400 -0.1400 0.0076 0.9100 -0.1400 -0.0200 -0.8400 -0.0700 -0.0200 -0.7700 -0.0700 0.0422 -0.7000 -0.0700 0.0865 -0.6300 -0.0700 0.1232 -0.5600 -0.0700 0.1584 -0.4900 -0.0700 0.1889 -0.4200 -0.0700 0.2114 -0.3500 -0.0700 0.2300 -0.2800 -0.0700 0.2540 -0.2100 -0.0700 0.2873 -0.1400 -0.0700 0.3268 -0.0700 -0.0700 0.3642 0.0000 -0.0700 0.3807 0.0700 -0.0700 0.3830 0.1400 -0.0700 0.3633 0.2100 -0.0700 0.3332 0.2800 -0.0700 0.2990 0.3500 -0.0700 0.2649 0.4200 -0.0700 0.2377 0.4900 -0.0700 0.2202 0.5600 -0.0700 0.1967 0.6300 -0.0700 0.1536 0.7000 -0.0700 0.1037 0.7700 -0.0700 0.0608 0.8400 -0.0700 0.0175 0.9100 -0.0700 -0.0200 -0.9100 0.0000 -0.0200 -0.8400 0.0000 0.0265 -0.7700 0.0000 0.0801 -0.7000 0.0000 0.1166 -0.6300 0.0000 0.1494 -0.5600 0.0000 0.1837 -0.4900 0.0000 0.2133 -0.4200 0.0000 0.2300 -0.3500 0.0000 0.2409 -0.2800 0.0000 0.2636 -0.2100 0.0000 0.3016 -0.1400 0.0000 0.3433 -0.0700 0.0000 0.3764 0.0000 0.0000 0.4024 0.0700 0.0000 0.3837 0.1400 0.0000 0.3679 0.2100 0.0000 0.3411 0.2800 0.0000 0.3054 0.3500 0.0000 0.2707 0.4200 0.0000 0.2443 0.4900 0.0000 0.2273 0.5600 0.0000 0.2063 0.6300 0.0000 0.1691 0.7000 0.0000 0.1227 0.7700 0.0000 0.0764 0.8400 0.0000 0.0292 0.9100 0.0000 -0.0200 -0.9100 0.0700 -0.0200 -0.8400 0.0700 0.0628 -0.7700 0.0700 0.1050 -0.7000 0.0700 0.1364 -0.6300 0.0700 0.1654 -0.5600 0.0700 0.1973 -0.4900 0.0700 0.2265 -0.4200 0.0700 0.2416 -0.3500 0.0700 0.2508 -0.2800 0.0700 0.2746 -0.2100 0.0700 0.3131 -0.1400 0.0700 0.3504 -0.0700 0.0700 0.3714 0.0000 0.0700 0.3795 0.0700 0.0700 0.3654 0.1400 0.0700 0.3576 0.2100 0.0700 0.3338 0.2800 0.0700 0.2976 0.3500 0.0700 0.2616 0.4200 0.0700 0.2351 0.4900 0.0700 0.2205 0.5600 0.0700 0.2058 0.6300 0.0700 0.1765 0.7000 0.0700 0.1343 0.7700 0.0700 0.0884 0.8400 0.0700 0.0405 0.9100 0.0700 -0.0200 -0.9800 0.1400 -0.0200 -0.9100 0.1400 0.0334 -0.8400 0.1400 0.0834 -0.7700 0.1400 0.1191 -0.7000 0.1400 0.1472 -0.6300 0.1400 0.1710 -0.5600 0.1400 0.1972 -0.4900 0.1400 0.2241 -0.4200 0.1400 0.2404 -0.3500 0.1400 0.2525 -0.2800 0.1400 0.2756 -0.2100 0.1400 0.3048 -0.1400 0.1400 0.3285 -0.0700 0.1400 0.3446 0.0000 0.1400 0.3531 0.0700 0.1400 0.3444 0.1400 0.1400 0.3278 0.2100 0.1400 0.3050 0.2800 0.1400 0.2727 0.3500 0.1400 0.2392 0.4200 0.1400 0.2150 0.4900 0.1400 0.2045 0.5600 0.1400 0.1952 0.6300 0.1400 0.1707 0.7000 0.1400 0.1311 0.7700 0.1400 0.0887 0.8400 0.1400 0.0457 0.9100 0.1400 -0.0200 -0.9800 0.2100 -0.0200 -0.9100 0.2100 0.0457 -0.8400 0.2100 0.0894 -0.7700 0.2100 0.1225 -0.7000 0.2100 0.1493 -0.6300 0.2100 0.1688 -0.5600 0.2100 0.1885 -0.4900 0.2100 0.2132 -0.4200 0.2100 0.2330 -0.3500 0.2100 0.2489 -0.2800 0.2100 0.2699 -0.2100 0.2100 0.2903 -0.1400 0.2100 0.3060 -0.0700 0.2100 0.3213 0.0000 0.2100 0.3315 0.0700 0.2100 0.3271 0.1400 0.2100 0.3059 0.2100 0.2100 0.2775 0.2800 0.2100 0.2480 0.3500 0.2100 0.2192 0.4200 0.2100 0.1975 0.4900 0.2100 0.1857 0.5600 0.2100 0.1733 0.6300 0.2100 0.1486 0.7000 0.2100 0.1131 0.7700 0.2100 0.0772 0.8400 0.2100 0.0397 0.9100 0.2100 -0.0200 -1.0500 0.2800 -0.0200 -0.9800 0.2800 0.0050 -0.9100 0.2800 0.0459 -0.8400 0.2800 0.0860 -0.7700 0.2800 0.1170 -0.7000 0.2800 0.1437 -0.6300 0.2800 0.1624 -0.5600 0.2800 0.1797 -0.4900 0.2800 0.2048 -0.4200 0.2800 0.2288 -0.3500 0.2800 0.2475 -0.2800 0.2800 0.2662 -0.2100 0.2800 0.2819 -0.1400 0.2800 0.2944 -0.0700 0.2800 0.3078 0.0000 0.2800 0.3169 0.0700 0.2800 0.3136 0.1400 0.2800 0.2935 0.2100 0.2800 0.2628 0.2800 0.2800 0.2322 0.3500 0.2800 0.2056 0.4200 0.2800 0.1839 0.4900 0.2800 0.1646 0.5600 0.2800 0.1431 0.6300 0.2800 0.1173 0.7000 0.2800 0.0898 0.7700 0.2800 0.0613 0.8400 0.2800 0.0226 0.9100 0.2800 -0.0200 -1.0500 0.3500 -0.0200 -0.9800 0.3500 0.0050 -0.9100 0.3500 0.0453 -0.8400 0.3500 0.0826 -0.7700 0.3500 0.1103 -0.7000 0.3500 0.1344 -0.6300 0.3500 0.1534 -0.5600 0.3500 0.1726 -0.4900 0.3500 0.1989 -0.4200 0.3500 0.2245 -0.3500 0.3500 0.2450 -0.2800 0.3500 0.2630 -0.2100 0.3500 0.2753 -0.1400 0.3500 0.2848 -0.0700 0.3500 0.2959 0.0000 0.3500 0.3035 0.0700 0.3500 0.3006 0.1400 0.3500 0.2815 0.2100 0.3500 0.2494 0.2800 0.3500 0.2156 0.3500 0.3500 0.1895 0.4200 0.3500 0.1684 0.4900 0.3500 0.1416 0.5600 0.3500 0.1102 0.6300 0.3500 0.0832 0.7000 0.3500 0.0623 0.7700 0.3500 0.0377 0.8400 0.3500 -0.0200 -1.0500 0.4200 -0.0200 -0.9800 0.4200 0.0050 -0.9100 0.4200 0.0475 -0.8400 0.4200 0.0818 -0.7700 0.4200 0.1053 -0.7000 0.4200 0.1252 -0.6300 0.4200 0.1441 -0.5600 0.4200 0.1656 -0.4900 0.4200 0.1901 -0.4200 0.4200 0.2119 -0.3500 0.4200 0.2309 -0.2800 0.4200 0.2488 -0.2100 0.4200 0.2605 -0.1400 0.4200 0.2692 -0.0700 0.4200 0.2784 0.0000 0.4200 0.2834 0.0700 0.4200 0.2794 0.1400 0.4200 0.2611 0.2100 0.4200 0.2282 0.2800 0.4200 0.1914 0.3500 0.4200 0.1663 0.4200 0.4200 0.1476 0.4900 0.4200 0.1164 0.5600 0.4200 0.0767 0.6300 0.4200 0.0451 0.7000 0.4200 0.0220 0.7700 0.4200 -0.0200 0.8400 0.4200 -0.0200 -1.0500 0.4900 -0.0200 -0.9800 0.4900 -0.0200 -0.9100 0.4900 0.0445 -0.8400 0.4900 0.0742 -0.7700 0.4900 0.0940 -0.7000 0.4900 0.1124 -0.6300 0.4900 0.1322 -0.5600 0.4900 0.1546 -0.4900 0.4900 0.1755 -0.4200 0.4900 0.1912 -0.3500 0.4900 0.2070 -0.2800 0.4900 0.2252 -0.2100 0.4900 0.2399 -0.1400 0.4900 0.2511 -0.0700 0.4900 0.2584 0.0000 0.4900 0.2588 0.0700 0.4900 0.2529 0.1400 0.4900 0.2380 0.2100 0.4900 0.2092 0.2800 0.4900 0.1729 0.3500 0.4900 0.1452 0.4200 0.4900 0.1232 0.4900 0.4900 0.0892 0.5600 0.4900 0.0457 0.6300 0.4900 0.0064 0.7000 0.4900 -0.0200 -0.9800 0.5600 -0.0200 -0.9100 0.5600 0.0265 -0.8400 0.5600 0.0532 -0.7700 0.5600 0.0719 -0.7000 0.5600 0.0926 -0.6300 0.5600 0.1159 -0.5600 0.5600 0.1391 -0.4900 0.5600 0.1570 -0.4200 0.5600 0.1684 -0.3500 0.5600 0.1826 -0.2800 0.5600 0.2012 -0.2100 0.5600 0.2176 -0.1400 0.5600 0.2304 -0.0700 0.5600 0.2370 0.0000 0.5600 0.2361 0.0700 0.5600 0.2311 0.1400 0.5600 0.2214 0.2100 0.5600 0.2016 0.2800 0.5600 0.1695 0.3500 0.5600 0.1336 0.4200 0.5600 0.0997 0.4900 0.5600 0.0624 0.5600 0.5600 0.0180 0.6300 0.5600 -0.0200 -0.9800 0.6300 -0.0200 -0.9100 0.6300 -0.0200 -0.8400 0.6300 0.0271 -0.7700 0.6300 0.0485 -0.7000 0.6300 0.0737 -0.6300 0.6300 0.1011 -0.5600 0.6300 0.1246 -0.4900 0.6300 0.1408 -0.4200 0.6300 0.1514 -0.3500 0.6300 0.1649 -0.2800 0.6300 0.1808 -0.2100 0.6300 0.1935 -0.1400 0.6300 0.2040 -0.0700 0.6300 0.2113 0.0000 0.6300 0.2132 0.0700 0.6300 0.2105 0.1400 0.6300 0.2048 0.2100 0.6300 0.1928 0.2800 0.6300 0.1657 0.3500 0.6300 0.1222 0.4200 0.6300 0.0757 0.4900 0.6300 0.0346 0.5600 0.6300 -0.0200 -0.9100 0.7000 -0.0200 -0.8400 0.7000 -0.0200 -0.7700 0.7000 0.0292 -0.7000 0.7000 0.0588 -0.6300 0.7000 0.0878 -0.5600 0.7000 0.1099 -0.4900 0.7000 0.1260 -0.4200 0.7000 0.1399 -0.3500 0.7000 0.1538 -0.2800 0.7000 0.1658 -0.2100 0.7000 0.1742 -0.1400 0.7000 0.1817 -0.0700 0.7000 0.1888 0.0000 0.7000 0.1914 0.0700 0.7000 0.1881 0.1400 0.7000 0.1823 0.2100 0.7000 0.1726 0.2800 0.7000 0.1489 0.3500 0.7000 0.1046 0.4200 0.7000 0.0532 0.4900 0.7000 0.0050 0.5600 0.7000 -0.0200 -0.8400 0.7700 -0.0200 -0.7700 0.7700 -0.0200 -0.7000 0.7700 0.0365 -0.6300 0.7700 0.0650 -0.5600 0.7700 0.0861 -0.4900 0.7700 0.1052 -0.4200 0.7700 0.1248 -0.3500 0.7700 0.1403 -0.2800 0.7700 0.1520 -0.2100 0.7700 0.1628 -0.1400 0.7700 0.1712 -0.0700 0.7700 0.1767 0.0000 0.7700 0.1767 0.0700 0.7700 0.1704 0.1400 0.7700 0.1616 0.2100 0.7700 0.1491 0.2800 0.7700 0.1268 0.3500 0.7700 0.0874 0.4200 0.7700 0.0371 0.4900 0.7700 -0.0200 -0.7700 0.8400 -0.0200 -0.7000 0.8400 -0.0200 -0.6300 0.8400 0.0262 -0.5600 0.8400 0.0498 -0.4900 0.8400 0.0758 -0.4200 0.8400 0.1010 -0.3500 0.8400 0.1178 -0.2800 0.8400 0.1318 -0.2100 0.8400 0.1476 -0.1400 0.8400 0.1596 -0.0700 0.8400 0.1658 0.0000 0.8400 0.1655 0.0700 0.8400 0.1588 0.1400 0.8400 0.1467 0.2100 0.8400 0.1285 0.2800 0.8400 0.1047 0.3500 0.8400 0.0699 0.4200 0.8400 0.0170 -0.7000 0.9100 -0.0200 -0.6300 0.9100 -0.0200 -0.5600 0.9100 0.0067 -0.4900 0.9100 0.0410 -0.4200 0.9100 0.0705 -0.3500 0.9100 0.0885 -0.2800 0.9100 0.1035 -0.2100 0.9100 0.1207 -0.1400 0.9100 0.1349 -0.0700 0.9100 0.1442 0.0000 0.9100 0.1490 0.0700 0.9100 0.1469 0.1400 0.9100 0.1331 0.2100 0.9100 0.1078 0.2800 0.9100 0.0785 0.3500 0.9100 0.0434 0.4200 0.9100 -0.0200 -0.6300 0.9800 -0.0200 -0.5600 0.9800 -0.0200 -0.4900 0.9800 0.0050 -0.4200 0.9800 0.0370 -0.3500 0.9800 0.0586 -0.2800 0.9800 0.0745 -0.2100 0.9800 0.0909 -0.1400 0.9800 0.1052 -0.0700 0.9800 0.1153 0.0000 0.9800 0.1229 0.0700 0.9800 0.1240 0.1400 0.9800 0.1089 0.2100 0.9800 0.0790 0.2800 0.9800 0.0450 0.3500 0.9800 -0.0200 -0.5600 1.0500 -0.0200 -0.4900 1.0500 -0.0200 -0.4200 1.0500 0.0050 -0.3500 1.0500 0.0296 -0.2800 1.0500 0.0490 -0.2100 1.0500 0.0658 -0.1400 1.0500 0.0792 -0.0700 1.0500 0.0859 0.0000 1.0500 0.0883 0.0700 1.0500 0.0855 0.1400 1.0500 0.0692 0.2100 1.0500 0.0403 0.2800 1.0500 0.0050 0.3500 1.0500 -0.0200 -0.4200 1.1200 -0.0200 -0.3500 1.1200 -0.0200 -0.2800 1.1200 0.0228 -0.2100 1.1200 0.0407 -0.1400 1.1200 0.0515 -0.0700 1.1200 0.0540 0.0000 1.1200 0.0498 0.0700 1.1200 0.0414 0.1400 1.1200 0.0255 0.2100 1.1200 0.0050 0.2800 1.1200 -0.0200 -0.3500 1.1900 -0.0200 -0.2800 1.1900 -0.0200 -0.2100 1.1900 -0.0200 -0.1400 1.1900 0.0129 -0.0700 1.1900 0.0146 0.0000 1.1900 0.0089 0.0700 1.1900 0.0050 0.1400 1.1900 -0.0200 0.2100 1.1900 -0.0200 -0.2800 1.2600 -0.0200 -0.2100 1.2600 -0.0200 -0.1400 1.2600 -0.0200 -0.0700 1.2600 -0.0200 0.0000 1.2600 -0.0200 0.0700 1.2600 -0.0200 0.1400 1.2600 -0.0200</float_array>
      <technique_common><accessor source="#p-a" count="763" stride="3"><param name="X" type="float"/><param name="Y" type="float"/><param name="Z" type="float"/></accessor></technique_common></source>
    <source id="n"><float_array id="n-a" count="2289">-0.1731 -0.1731 0.9696 -0.0078 -0.3432 0.9392 0.0078 -0.3501 0.9367 0.0000 -0.3363 0.9417 0.1150 -0.2301 0.9663 0.0000 0.0000 1.0000 -0.0803 -0.4055 0.9106 -0.0752 -0.5269 0.8466 -0.0298 -0.6424 0.7658 -0.1564 -0.5111 0.8452 -0.1088 -0.3677 0.9236 0.0196 -0.3882 0.9214 0.0250 -0.3424 0.9392 0.1214 -0.3459 0.9304 0.1585 -0.3581 0.9201 0.1369 -0.2739 0.9520 0.0000 0.0000 1.0000 0.0000 -0.3363 0.9417 -0.0102 -0.3454 0.9384 -0.0389 -0.3964 0.9173 -0.1788 -0.4260 0.8868 -0.2255 -0.3810 0.8966 -0.1643 -0.4375 0.8841 -0.1222 -0.5087 0.8522 -0.0348 -0.5520 0.8331 -0.0301 -0.4791 0.8773 0.0664 -0.4160 0.9070 0.0898 -0.3901 0.9164 0.0645 -0.3555 0.9324 0.1318 -0.4231 0.8964 0.2032 -0.4517 0.8687 0.2794 -0.3248 0.9036 0.0000 0.0000 1.0000 -0.2187 -0.2187 0.9510 -0.0664 -0.4709 0.8797 -0.1509 -0.5260 0.8370 -0.0980 -0.4412 0.8921 -0.0139 -0.4291 0.9031 -0.0595 -0.4288 0.9015 -0.1366 -0.4388 0.8881 -0.2488 -0.3935 0.8850 -0.2158 -0.3987 0.8913 -0.1500 -0.4074 0.9008 -0.0285 -0.3977 0.9171 0.0403 -0.3813 0.9236 0.0656 -0.3886 0.9191 0.0829 -0.4187 0.9043 0.0746 -0.4306 0.8994 0.0768 -0.4201 0.9042 0.1664 -0.4132 0.8953 0.3752 -0.4474 0.8118 0.3470 -0.3349 0.8760 0.0000 0.0000 1.0000 -0.1224 -0.5418 0.8315 -0.2340 -0.4527 0.8604 -0.2370 -0.3635 0.9009 -0.1440 -0.4751 0.8681 -0.1467 -0.4634 0.8739 -0.0397 -0.4783 0.8773 -0.0396 -0.4873 0.8723 -0.1060 -0.4540 0.8847 -0.1895 -0.3992 0.8971 -0.2174 -0.3583 0.9079 -0.1438 -0.3492 0.9260 -0.0261 -0.3546 0.9347 0.0272 -0.3733 0.9273 0.0263 -0.4067 0.9132 0.0501 -0.4318 0.9006 0.0843 -0.4286 0.8995 0.1102 -0.3993 0.9102 0.1990 -0.3549 0.9135 0.3440 -0.3000 0.8898 0.5043 -0.2821 0.8161 0.3724 -0.1862 0.9092 -0.5528 -0.1384 0.8217 -0.3169 -0.3450 0.8835 -0.1710 -0.4807 0.8601 -0.2049 -0.4695 0.8588 -0.1691 -0.4371 0.8833 -0.1332 -0.4326 0.8917 -0.0729 -0.4460 0.8920 -0.0290 -0.4557 0.8896 -0.0521 -0.4299 0.9014 -0.1322 -0.3729 0.9184 -0.1859 -0.3205 0.9288 -0.1398 -0.2993 0.9439 -0.0541 -0.3149 0.9476 -0.0246 -0.3687 0.9292 -0.0063 -0.4169 0.9089 0.0630 -0.4112 0.9093 0.1331 -0.3576 0.9243 0.1693 -0.2901 0.9419 0.2556 -0.2288 0.9393 0.3893 -0.1780 0.9037 0.5634 -0.1240 0.8168 0.6031 -0.0571 0.7956 -0.1932 -0.1932 0.9619 -0.4807 -0.1993 0.8539 -0.4781 -0.1696 0.8618 -0.2891 -0.2991 0.9094 -0.2185 -0.3830 0.8976 -0.1746 -0.4303 0.8856 -0.1281 -0.4423 0.8877 -0.0806 -0.4399 0.8944 -0.0203 -0.4354 0.9000 -0.0003 -0.4102 0.9120 -0.0632 -0.3542 0.9330 -0.1396 -0.2934 0.9457 -0.1366 -0.2697 0.9532 -0.1044 -0.2993 0.9484 -0.1006 -0.3639 0.9260 -0.0374 -0.4148 0.9091 0.1069 -0.4077 0.9068 0.2202 -0.3411 0.9138 0.2603 -0.2412 0.9349 0.3172 -0.1416 0.9377 0.4178 -0.0839 0.9047 0.5561 -0.1131 0.8234 0.5220 -0.1533 0.8390 0.0000 0.0000 1.0000 -0.4085 -0.0422 0.9118 -0.3848 -0.1903 0.9032 -0.4884 -0.1834 0.8532 -0.3774 -0.2225 0.8989 -0.3099 -0.3129 0.8978 -0.2225 -0.3852 0.8956 -0.1300 -0.4123 0.9017 -0.0694 -0.3987 0.9144 -0.0085 -0.3874 0.9219 0.0400 -0.3792 0.9244 0.0068 -0.3442 0.9389 -0.0909 -0.2902 0.9527 -0.1486 -0.2723 0.9507 -0.1559 -0.3041 0.9398 -0.1546 -0.3337 0.9299 -0.0649 -0.3493 0.9348 0.1311 -0.3538 0.9261 0.2922 -0.3241 0.8997 0.3616 -0.2472 0.8990 0.3987 -0.1403 0.9063 0.4546 -0.0582 0.8888 0.4951 -0.0152 0.8687 0.4751 -0.1104 0.8730 0.2567 -0.1284 0.9579 -0.5272 -0.0694 0.8469 -0.4873 -0.1567 0.8591 -0.4879 -0.2160 0.8458 -0.4247 -0.2651 0.8656 -0.3661 -0.3001 0.8809 -0.2606 -0.3291 0.9076 -0.1178 -0.3273 0.9376 -0.0439 -0.2948 0.9546 -0.0186 -0.2969 0.9547 0.0300 -0.3398 0.9400 0.0414 -0.3611 0.9316 -0.0474 -0.3351 0.9410 -0.1534 -0.3038 0.9403 -0.1716 -0.2972 0.9393 -0.1413 -0.2662 0.9535 -0.0574 -0.2202 0.9738 0.1252 -0.2150 0.9686 0.3180 -0.2221 0.9217 0.4303 -0.1893 0.8826 0.4735 -0.1189 0.8727 0.5019 -0.0519 0.8634 0.5210 -0.0100 0.8535 0.4360 0.0135 0.8999 0.3487 0.0140 0.9371 -0.6477 -0.0499 0.7602 -0.5708 -0.1527 0.8068 -0.5217 -0.2310 0.8213 -0.4424 -0.2764 0.8532 -0.3640 -0.2814 0.8879 -0.2464 -0.2620 0.9331 -0.0817 -0.2352 0.9685 -0.0251 -0.2167 0.9759 -0.0693 -0.2446 0.9672 -0.0498 -0.3240 0.9448 0.0120 -0.3974 0.9176 -0.0159 -0.4135 0.9104 -0.1104 -0.3763 0.9199 -0.1232 -0.3171 0.9404 -0.0641 -0.2354 0.9698 -0.0037 -0.1478 0.9890 0.1226 -0.1031 0.9871 0.3167 -0.0942 0.9438 0.4634 -0.0792 0.8826 0.5188 -0.0455 0.8537 0.5281 -0.0177 0.8490 0.5362 -0.0091 0.8440 0.4418 -0.0002 0.8971 0.3363 0.0000 0.9417 -0.7107 -0.0191 0.7032 -0.6360 -0.0793 0.7676 -0.5618 -0.1262 0.8176 -0.4716 -0.1729 0.8647 -0.3535 -0.2036 0.9130 -0.2248 -0.2075 0.9520 -0.0825 -0.2303 0.9696 -0.0443 -0.2736 0.9608 -0.1182 -0.3002 0.9465 -0.1360 -0.3332 0.9330 -0.0626 -0.3983 0.9151 -0.0215 -0.4494 0.8930 -0.0467 -0.4422 0.8957 -0.0290 -0.3762 0.9261 0.0434 -0.2768 0.9599 0.0899 -0.1644 0.9823 0.1714 -0.0629 0.9832 0.3339 -0.0031 0.9426 0.4780 0.0167 0.8782 0.5354 0.0254 0.8442 0.5276 0.0293 0.8490 0.5308 0.0083 0.8474 0.4453 -0.0021 0.8954 0.3363 0.0000 0.9417 -0.7295 -0.0010 0.6840 -0.6600 -0.0196 0.7510 -0.5796 -0.0282 0.8144 -0.5137 -0.0671 0.8553 -0.3883 -0.1401 0.9108 -0.2615 -0.2126 0.9415 -0.1588 -0.3019 0.9400 -0.1010 -0.3939 0.9136 -0.1144 -0.4191 0.9007 -0.1424 -0.3923 0.9087 -0.1188 -0.3911 0.9126 -0.0615 -0.4242 0.9035 -0.0107 -0.4281 0.9037 0.0662 -0.3710 0.9263 0.1634 -0.2691 0.9492 0.2189 -0.1395 0.9657 0.2700 -0.0079 0.9628 0.3726 0.0693 0.9254 0.4807 0.0828 0.8730 0.5327 0.0716 0.8432 0.5216 0.0652 0.8507 0.5039 0.0444 0.8626 0.4862 0.0063 0.8738 0.3363 0.0000 0.9417 -0.7293 0.0025 0.6841 -0.6627 0.0044 0.7488 -0.5843 0.0112 0.8115 -0.5558 -0.0121 0.8312 -0.4603 -0.0848 0.8837 -0.3446 -0.1815 0.9210 -0.2656 -0.2781 0.9231 -0.1870 -0.3751 0.9079 -0.1142 -0.4312 0.8950 -0.1030 -0.4275 0.8981 -0.1131 -0.4032 0.9081 -0.0635 -0.3821 0.9219 0.0382 -0.3342 0.9417 0.1668 -0.2460 0.9548 0.2867 -0.1359 0.9483 0.3445 -0.0153 0.9387 0.3562 0.0858 0.9305 0.3965 0.1235 0.9097 0.4725 0.1123 0.8741 0.5208 0.0925 0.8486 0.5157 0.0773 0.8533 0.5097 0.1107 0.8532 0.4767 0.1316 0.8692 -0.6692 -0.1630 0.7250 -0.6546 -0.0393 0.7549 -0.5758 -0.0094 0.8176 -0.5715 0.0153 0.8205 -0.5125 0.0050 0.8587 -0.4193 -0.0466 0.9067 -0.3498 -0.1128 0.9300 -0.2831 -0.1875 0.9406 -0.1768 -0.2716 0.9460 -0.1139 -0.3274 0.9380 -0.0983 -0.3444 0.9337 -0.0075 -0.3243 0.9459 0.1399 -0.2395 0.9608 0.2747 -0.1248 0.9534 0.3804 -0.0296 0.9243 0.4229 0.0458 0.9050 0.3944 0.0916 0.9144 0.3886 0.0823 0.9177 0.4600 0.0501 0.8865 0.5139 0.0392 0.8570 0.5038 0.0313 0.8633 0.5355 -0.0312 0.8439 0.5781 0.0186 0.8158 -0.6001 -0.1781 0.7798 -0.4813 -0.3652 0.7968 -0.5520 -0.2464 0.7966 -0.5292 -0.1406 0.8367 -0.5346 -0.0521 0.8435 -0.5016 0.0295 0.8646 -0.4424 0.0686 0.8942 -0.3975 0.0521 0.9161 -0.3624 -0.0107 0.9320 -0.2694 -0.1116 0.9565 -0.1687 -0.1981 0.9656 -0.1206 -0.2375 0.9639 0.0328 -0.2488 0.9680 0.2354 -0.1904 0.9531 0.3579 -0.1038 0.9280 0.4288 -0.0475 0.9021 0.4500 -0.0298 0.8925 0.3913 -0.0430 0.9192 0.3564 -0.0819 0.9307 0.4451 -0.1064 0.8891 0.5191 -0.0898 0.8500 0.4990 -0.0685 0.8639 0.4682 -0.0586 0.8817 0.4523 -0.0850 0.8878 0.3363 0.0000 0.9417 -0.6214 -0.3338 0.7089 -0.5447 -0.3157 0.7770 -0.4591 -0.3534 0.8151 -0.4479 -0.3055 0.8403 -0.4361 -0.2166 0.8734 -0.4139 -0.0840 0.9065 -0.4016 0.0387 0.9150 -0.4129 0.0872 0.9066 -0.4304 0.0562 0.9009 -0.3819 -0.0518 0.9228 -0.2341 -0.1846 0.9545 -0.1298 -0.2163 0.9677 0.0523 -0.1878 0.9808 0.2878 -0.1433 0.9469 0.4046 -0.1064 0.9083 0.4404 -0.0860 0.8937 0.4303 -0.1044 0.8966 0.3506 -0.1551 0.9236 0.3128 -0.2045 0.9275 0.4310 -0.2191 0.8754 0.5329 -0.1964 0.8231 0.5176 -0.1619 0.8401 0.4898 -0.1281 0.8624 0.4447 -0.0719 0.8928 0.3565 -0.0114 0.9342 -0.5782 -0.4213 0.6987 -0.4976 -0.4465 0.7437 -0.4869 -0.4079 0.7723 -0.4303 -0.3573 0.8290 -0.4020 -0.3428 0.8491 -0.3377 -0.3102 0.8887 -0.2815 -0.2194 0.9341 -0.3117 -0.1042 0.9445 -0.3984 -0.0523 0.9157 -0.4638 -0.0626 0.8837 -0.4625 -0.0900 0.8821 -0.3447 -0.1735 0.9226 -0.0728 -0.2287 0.9708 0.0981 -0.1208 0.9878 0.3149 -0.0986 0.9440 0.4176 -0.0915 0.9040 0.4382 -0.0832 0.8950 0.4022 -0.0942 0.9107 0.3104 -0.1290 0.9418 0.2796 -0.1645 0.9459 0.4140 -0.1919 0.8898 0.5363 -0.2090 0.8178 0.5422 -0.2065 0.8145 0.5159 -0.1688 0.8398 0.5106 -0.1126 0.8524 0.4387 -0.0425 0.8976 -0.6663 -0.1872 0.7218 -0.5285 -0.3881 0.7550 -0.5101 -0.3574 0.7823 -0.4282 -0.3105 0.8487 -0.4195 -0.2644 0.8684 -0.4032 -0.2459 0.8815 -0.3032 -0.2455 0.9208 -0.1975 -0.2156 0.9563 -0.2490 -0.1620 0.9549 -0.3973 -0.1377 0.9073 -0.4752 -0.1416 0.8684 -0.4445 -0.1192 0.8878 -0.3635 -0.0177 0.9314 -0.0399 0.0200 0.9990 0.1745 0.0559 0.9831 0.2927 0.0409 0.9553 0.4144 0.0044 0.9101 0.4487 0.0087 0.8936 0.3990 0.0203 0.9167 0.2927 0.0141 0.9561 0.2495 -0.0155 0.9682 0.3727 -0.0720 0.9252 0.5105 -0.1356 0.8491 0.5480 -0.1728 0.8184 0.5440 -0.1674 0.8222 0.5727 -0.1190 0.8111 0.5426 -0.0465 0.8387 -0.6955 -0.2388 0.6777 -0.6034 -0.2324 0.7628 -0.4631 -0.2531 0.8494 -0.3881 -0.1967 0.9004 -0.3916 -0.1363 0.9100 -0.3986 -0.0879 0.9129 -0.3042 -0.0765 0.9495 -0.1806 -0.0831 0.9800 -0.2306 -0.0826 0.9695 -0.3872 -0.0559 0.9203 -0.4525 0.0093 0.8917 -0.3813 0.0980 0.9192 -0.2277 0.1890 0.9552 -0.0121 0.2844 0.9586 0.1776 0.2932 0.9394 0.2256 0.2828 0.9323 0.3818 0.2289 0.8955 0.4442 0.1977 0.8739 0.3934 0.1946 0.8985 0.2679 0.1884 0.9449 0.1961 0.1508 0.9689 0.3023 0.0788 0.9499 0.4634 0.0016 0.8861 0.5330 -0.0491 0.8447 0.5486 -0.0818 0.8321 0.6153 -0.0839 0.7838 0.6291 -0.0419 0.7762 -0.6464 -0.0665 0.7601 -0.5590 -0.2381 0.7942 -0.5519 -0.2112 0.8067 -0.4210 -0.1233 0.8986 -0.3443 -0.0842 0.9351 -0.3334 -0.0202 0.9426 -0.3608 0.0505 0.9313 -0.3061 0.0768 0.9489 -0.2045 0.0536 0.9774 -0.2325 0.0244 0.9723 -0.3338 0.0498 0.9413 -0.3522 0.1477 0.9242 -0.2893 0.2634 0.9203 -0.1784 0.3182 0.9311 -0.0078 0.3167 0.9485 0.1927 0.2797 0.9405 0.2496 0.3290 0.9107 0.3398 0.3478 0.8738 0.4038 0.3040 0.8629 0.3671 0.2695 0.8903 0.2400 0.2595 0.9354 0.1513 0.2543 0.9552 0.2405 0.2315 0.9426 0.4108 0.1795 0.8939 0.4956 0.1222 0.8599 0.5167 0.0642 0.8538 0.6119 0.0024 0.7909 0.6744 -0.0182 0.7382 -0.6314 -0.0927 0.7699 -0.5961 -0.0413 0.8018 -0.4875 -0.0249 0.8728 -0.3981 0.0086 0.9173 -0.3152 0.0232 0.9488 -0.2731 0.0549 0.9604 -0.3146 0.1025 0.9437 -0.3142 0.1154 0.9423 -0.2448 0.0816 0.9661 -0.2412 0.0485 0.9693 -0.2772 0.0699 0.9583 -0.2592 0.1437 0.9551 -0.2241 0.2179 0.9499 -0.1729 0.2510 0.9524 -0.0385 0.2512 0.9672 0.1828 0.2184 0.9586 0.3210 0.2208 0.9210 0.3608 0.2601 0.8956 0.3722 0.2592 0.8912 0.3393 0.2295 0.9123 0.2477 0.2312 0.9408 0.1805 0.2855 0.9412 0.2373 0.3350 0.9118 0.3599 0.3173 0.8774 0.4347 0.2484 0.8657 0.4686 0.1849 0.8638 0.5510 0.1135 0.8267 0.6612 0.0212 0.7499 -0.3363 0.0000 0.9417 -0.4639 -0.0769 0.8826 -0.5329 -0.0421 0.8451 -0.4530 0.0426 0.8905 -0.3786 0.0811 0.9220 -0.3079 0.0998 0.9462 -0.2537 0.0997 0.9621 -0.2957 0.0998 0.9501 -0.3323 0.0935 0.9385 -0.2862 0.0635 0.9561 -0.2504 0.0351 0.9675 -0.2359 0.0502 0.9705 -0.2001 0.1003 0.9746 -0.1817 0.1451 0.9726 -0.1574 0.1758 0.9718 -0.0443 0.1931 0.9802 0.1626 0.1838 0.9694 0.3410 0.1668 0.9251 0.3958 0.1827 0.9000 0.3672 0.2064 0.9070 0.3228 0.1997 0.9251 0.2899 0.2109 0.9336 0.2723 0.2936 0.9163 0.2813 0.3800 0.8812 0.3138 0.3885 0.8664 0.3587 0.3258 0.8748 0.4568 0.2902 0.8409 0.4708 0.2777 0.8374 0.5871 0.0986 0.8035 -0.3363 0.0000 0.9417 -0.4267 -0.0047 0.9044 -0.4809 -0.0052 0.8768 -0.4183 0.0301 0.9078 -0.3443 0.0802 0.9354 -0.2971 0.1193 0.9474 -0.2658 0.1204 0.9565 -0.2996 0.1036 0.9484 -0.3357 0.1093 0.9356 -0.3046 0.1213 0.9447 -0.2590 0.1179 0.9586 -0.2104 0.1206 0.9701 -0.1581 0.1432 0.9770 -0.1457 0.1723 0.9742 -0.1287 0.2039 0.9705 -0.0334 0.2316 0.9723 0.1499 0.2339 0.9606 0.3388 0.2156 0.9158 0.4180 0.2211 0.8811 0.3731 0.2515 0.8931 0.3053 0.2534 0.9179 0.3234 0.2475 0.9133 0.3667 0.3045 0.8791 0.3448 0.3933 0.8523 0.2927 0.4399 0.8490 0.3187 0.4515 0.8334 0.3866 0.3802 0.8403 0.5732 0.2463 0.7816 -0.2301 0.1150 0.9663 -0.4685 0.1107 0.8765 -0.4701 0.0195 0.8824 -0.3794 0.0565 0.9235 -0.3000 0.1043 0.9482 -0.2752 0.1381 0.9514 -0.2765 0.1418 0.9505 -0.2973 0.1352 0.9452 -0.3008 0.1666 0.9390 -0.2744 0.2214 0.9358 -0.2505 0.2499 0.9353 -0.2069 0.2486 0.9463 -0.1473 0.2363 0.9605 -0.1210 0.2351 0.9644 -0.0912 0.2633 0.9604 -0.0080 0.3022 0.9532 0.1399 0.3101 0.9404 0.3236 0.2743 0.9056 0.4300 0.2465 0.8685 0.3889 0.2681 0.8814 0.2933 0.2970 0.9087 0.3303 0.2999 0.8950 0.4277 0.3158 0.8470 0.4188 0.3792 0.8251 0.3224 0.4533 0.8310 0.3205 0.4717 0.8214 0.2470 0.5771 0.7784 0.3559 0.3559 0.8641 0.0000 0.0000 1.0000 -0.4900 0.1662 0.8557 -0.5149 0.1759 0.8390 -0.3348 0.1813 0.9247 -0.2694 0.2106 0.9397 -0.2678 0.2079 0.9408 -0.2833 0.1895 0.9401 -0.2821 0.1866 0.9411 -0.2451 0.2246 0.9431 -0.2202 0.2803 0.9343 -0.2322 0.3104 0.9218 -0.2200 0.3110 0.9246 -0.1708 0.2913 0.9413 -0.1189 0.2721 0.9549 -0.0544 0.2824 0.9577 0.0247 0.3091 0.9507 0.1247 0.3090 0.9429 0.2771 0.2507 0.9275 0.4152 0.1700 0.8937 0.4260 0.1576 0.8909 0.3431 0.2329 0.9100 0.3536 0.3031 0.8849 0.4566 0.3168 0.8314 0.4727 0.3324 0.8161 0.4024 0.3972 0.8248 0.2935 0.4773 0.8283 -0.3968 0.1984 0.8962 -0.4994 0.3001 0.8128 -0.3063 0.2927 0.9058 -0.2706 0.2865 0.9191 -0.2936 0.2510 0.9224 -0.3019 0.2136 0.9291 -0.2704 0.2068 0.9403 -0.2040 0.2305 0.9514 -0.1814 0.2612 0.9481 -0.2167 0.2834 0.9342 -0.2228 0.3030 0.9266 -0.1849 0.3171 0.9302 -0.1281 0.3180 0.9394 -0.0464 0.3113 0.9492 0.0317 0.3025 0.9526 0.0931 0.2824 0.9548 0.1958 0.2205 0.9555 0.3529 0.1176 0.9283 0.4557 0.0707 0.8873 0.4485 0.1534 0.8805 0.4223 0.2762 0.8634 0.4858 0.3292 0.8097 0.4880 0.3444 0.8020 0.4578 0.3207 0.8292 0.0000 0.0000 1.0000 -0.3496 0.3481 0.8698 -0.4122 0.4110 0.8131 -0.3068 0.2745 0.9113 -0.3370 0.2269 0.9137 -0.3244 0.1976 0.9251 -0.2669 0.1978 0.9432 -0.1950 0.2011 0.9600 -0.1690 0.1940 0.9663 -0.1941 0.2048 0.9594 -0.1910 0.2442 0.9507 -0.1575 0.2908 0.9437 -0.1239 0.3219 0.9386 -0.0620 0.3249 0.9437 0.0131 0.3110 0.9503 0.0624 0.2979 0.9526 0.1245 0.2703 0.9547 0.2726 0.2042 0.9402 0.4553 0.1413 0.8791 0.5293 0.1671 0.8318 0.5042 0.2624 0.8228 0.4975 0.2722 0.8237 0.5726 0.2452 0.7823 0.0000 0.0000 1.0000 -0.3590 0.3538 0.8637 -0.4495 0.3939 0.8018 -0.3650 0.2488 0.8971 -0.3280 0.2413 0.9134 -0.2643 0.2465 0.9324 -0.2163 0.2281 0.9493 -0.1874 0.1872 0.9643 -0.1775 0.1718 0.9690 -0.1562 0.1853 0.9702 -0.1226 0.2015 0.9718 -0.1040 0.2235 0.9691 -0.0615 0.2446 0.9677 0.0131 0.2603 0.9654 0.0676 0.2797 0.9577 0.1109 0.2987 0.9479 0.2236 0.2922 0.9299 0.4219 0.2395 0.8744 0.5508 0.1980 0.8108 0.5697 0.2257 0.7902 0.4767 0.3132 0.8214 0.4862 0.1809 0.8549 0.0000 0.0000 1.0000 -0.3903 0.3727 0.8419 -0.4508 0.4505 0.7706 -0.3149 0.3770 0.8710 -0.2727 0.3655 0.8900 -0.2574 0.3211 0.9114 -0.2247 0.2699 0.9363 -0.1865 0.2431 0.9519 -0.1664 0.2210 0.9610 -0.1363 0.1821 0.9738 -0.0974 0.1557 0.9830 -0.0416 0.1588 0.9864 0.0390 0.1767 0.9835 0.1055 0.2043 0.9732 0.1519 0.2494 0.9564 0.2278 0.2904 0.9294 0.3824 0.2723 0.8830 0.5373 0.2164 0.8152 0.5869 0.1952 0.7858 0.5850 0.2287 0.7781 0.0000 0.0000 1.0000 -0.3611 0.3862 0.8488 -0.3635 0.5033 0.7840 -0.3069 0.4609 0.8327 -0.3099 0.4008 0.8622 -0.2596 0.3574 0.8972 -0.2013 0.3404 0.9185 -0.1953 0.3230 0.9260 -0.1803 0.2890 0.9402 -0.1239 0.2502 0.9602 -0.0512 0.2163 0.9750 0.0375 0.1829 0.9824 0.1340 0.1669 0.9768 0.2158 0.2030 0.9551 0.2762 0.2714 0.9220 0.3657 0.3014 0.8806 0.5301 0.2802 0.8003 0.5739 0.2738 0.7718 0.0000 0.0000 1.0000 -0.2600 0.3110 0.9142 -0.3381 0.4395 0.8322 -0.3651 0.4294 0.8260 -0.2933 0.3989 0.8688 -0.2115 0.3811 0.9000 -0.2042 0.3739 0.9047 -0.2006 0.3700 0.9071 -0.1513 0.3607 0.9203 -0.0935 0.3387 0.9362 -0.0144 0.2954 0.9553 0.1222 0.2523 0.9599 0.2663 0.2572 0.9289 0.3411 0.3090 0.8878 0.4223 0.3953 0.8157 0.4723 0.4000 0.7854 0.6034 0.3295 0.7261 0.0000 0.0000 1.0000 -0.2090 0.2136 0.9543 -0.3544 0.3695 0.8590 -0.3287 0.3993 0.8559 -0.2397 0.3767 0.8948 -0.2093 0.3556 0.9109 -0.1998 0.3576 0.9122 -0.1517 0.3715 0.9159 -0.1021 0.3932 0.9138 -0.0422 0.4096 0.9113 0.0998 0.4077 0.9076 0.2769 0.3950 0.8760 0.3758 0.3970 0.8374 0.4846 0.3378 0.8069 0.5809 0.3412 0.7390 0.0000 0.0000 1.0000 -0.2256 0.2256 0.9477 -0.2652 0.4082 0.8735 -0.3073 0.4341 0.8468 -0.2305 0.3416 0.9111 -0.1924 0.3371 0.9216 -0.1252 0.3616 0.9239 -0.0521 0.4062 0.9123 0.0036 0.4632 0.8863 0.1082 0.4985 0.8601 0.2520 0.4810 0.8397 0.3629 0.4210 0.8313 0.3808 0.4221 0.8227 0.5258 0.2336 0.8179 0.0000 0.3363 0.9417 -0.2734 0.4144 0.8680 -0.2773 0.4891 0.8270 -0.2171 0.4790 0.8506 -0.0892 0.4233 0.9016 0.0050 0.4495 0.8933 0.0559 0.4748 0.8783 0.1551 0.4978 0.8533 0.1799 0.4994 0.8475 0.2906 0.4261 0.8567 0.3678 0.3678 0.8541 0.0000 0.0000 1.0000 -0.1180 0.2359 0.9646 -0.1776 0.4182 0.8908 -0.1632 0.4870 0.8580 0.0116 0.4566 0.8896 0.0498 0.4365 0.8983 0.1454 0.3594 0.9218 0.2095 0.4052 0.8899 0.1299 0.4461 0.8855 0.0000 0.0000 1.0000 0.0000 0.0000 1.0000 -0.1479 0.2958 0.9437 -0.0071 0.4370 0.8995 0.0245 0.4028 0.9150 0.0176 0.3518 0.9359 0.1731 0.1731 0.9696</float_array>
      <technique_common><accessor source="#n-a" count="763" stride="3"><param name="X" type="float"/><param name="Y" type="float"/><param name="Z" type="float"/></accessor></technique_common></source>
    <source id="t"><float_array id="t-a" count="1526">0.1260 -0.7140 0.1680 -0.7140 0.2100 -0.7140 0.2520 -0.7140 0.2940 -0.7140 0.3360 -0.7140 0.0000 -0.6720 0.0420 -0.6720 0.0840 -0.6720 0.1260 -0.6720 0.1680 -0.6720 0.2100 -0.6720 0.2520 -0.6720 0.2940 -0.6720 0.3360 -0.6720 0.3780 -0.6720 0.4200 -0.6720 -0.1680 -0.6300 -0.1260 -0.6300 -0.0840 -0.6300 -0.0420 -0.6300 0.0000 -0.6300 0.0420 -0.6300 0.0840 -0.6300 0.1260 -0.6300 0.1680 -0.6300 0.2100 -0.6300 0.2520 -0.6300 0.2940 -0.6300 0.3360 -0.6300 0.3780 -0.6300 0.4200 -0.6300 0.4620 -0.6300 -0.2940 -0.5880 -0.2520 -0.5880 -0.2100 -0.5880 -0.1680 -0.5880 -0.1260 -0.5880 -0.0840 -0.5880 -0.0420 -0.5880 0.0000 -0.5880 0.0420 -0.5880 0.0840 -0.5880 0.1260 -0.5880 0.1680 -0.5880 0.2100 -0.5880 0.2520 -0.5880 0.2940 -0.5880 0.3360 -0.5880 0.3780 -0.5880 0.4200 -0.5880 0.4620 -0.5880 0.5040 -0.5880 -0.3360 -0.5460 -0.2940 -0.5460 -0.2520 -0.5460 -0.2100 -0.5460 -0.1680 -0.5460 -0.1260 -0.5460 -0.0840 -0.5460 -0.0420 -0.5460 0.0000 -0.5460 0.0420 -0.5460 0.0840 -0.5460 0.1260 -0.5460 0.1680 -0.5460 0.2100 -0.5460 0.2520 -0.5460 0.2940 -0.5460 0.3360 -0.5460 0.3780 -0.5460 0.4200 -0.5460 0.4620 -0.5460 0.5040 -0.5460 -0.3780 -0.5040 -0.3360 -0.5040 -0.2940 -0.5040 -0.2520 -0.5040 -0.2100 -0.5040 -0.1680 -0.5040 -0.1260 -0.5040 -0.0840 -0.5040 -0.0420 -0.5040 0.0000 -0.5040 0.0420 -0.5040 0.0840 -0.5040 0.1260 -0.5040 0.1680 -0.5040 0.2100 -0.5040 0.2520 -0.5040 0.2940 -0.5040 0.3360 -0.5040 0.3780 -0.5040 0.4200 -0.5040 0.4620 -0.5040 0.5040 -0.5040 -0.4200 -0.4620 -0.3780 -0.4620 -0.3360 -0.4620 -0.2940 -0.4620 -0.2520 -0.4620 -0.2100 -0.4620 -0.1680 -0.4620 -0.1260 -0.4620 -0.0840 -0.4620 -0.0420 -0.4620 0.0000 -0.4620 0.0420 -0.4620 0.0840 -0.4620 0.1260 -0.4620 0.1680 -0.4620 0.2100 -0.4620 0.2520 -0.4620 0.2940 -0.4620 0.3360 -0.4620 0.3780 -0.4620 0.4200 -0.4620 0.4620 -0.4620 0.5040 -0.4620 0.5460 -0.4620 -0.4200 -0.4200 -0.3780 -0.4200 -0.3360 -0.4200 -0.2940 -0.4200 -0.2520 -0.4200 -0.2100 -0.4200 -0.1680 -0.4200 -0.1260 -0.4200 -0.0840 -0.4200 -0.0420 -0.4200 0.0000 -0.4200 0.0420 -0.4200 0.0840 -0.4200 0.1260 -0.4200 0.1680 -0.4200 0.2100 -0.4200 0.2520 -0.4200 0.2940 -0.4200 0.3360 -0.4200 0.3780 -0.4200 0.4200 -0.4200 0.4620 -0.4200 0.5040 -0.4200 0.5460 -0.4200 -0.4200 -0.3780 -0.3780 -0.3780 -0.3360 -0.3780 -0.2940 -0.3780 -0.2520 -0.3780 -0.2100 -0.3780 -0.1680 -0.3780 -0.1260 -0.3780 -0.0840 -0.3780 -0.0420 -0.3780 0.0000 -0.3780 0.0420 -0.3780 0.0840 -0.3780 0.1260 -0.3780 0.1680 -0.3780 0.2100 -0.3780 0.2520 -0.3780 0.2940 -0.3780 0.3360 -0.3780 0.3780 -0.3780 0.4200 -0.3780 0.4620 -0.3780 0.5040 -0.3780 0.5460 -0.3780 -0.4200 -0.3360 -0.3780 -0.3360 -0.3360 -0.3360 -0.2940 -0.3360 -0.2520 -0.3360 -0.2100 -0.3360 -0.1680 -0.3360 -0.1260 -0.3360 -0.0840 -0.3360 -0.0420 -0.3360 0.0000 -0.3360 0.0420 -0.3360 0.0840 -0.3360 0.1260 -0.3360 0.1680 -0.3360 0.2100 -0.3360 0.2520 -0.3360 0.2940 -0.3360 0.3360 -0.3360 0.3780 -0.3360 0.4200 -0.3360 0.4620 -0.3360 0.5040 -0.3360 0.5460 -0.3360 -0.4200 -0.2940 -0.3780 -0.2940 -0.3360 -0.2940 -0.2940 -0.2940 -0.2520 -0.2940 -0.2100 -0.2940 -0.1680 -0.2940 -0.1260 -0.2940 -0.0840 -0.2940 -0.0420 -0.2940 0.0000 -0.2940 0.0420 -0.2940 0.0840 -0.2940 0.1260 -0.2940 0.1680 -0.2940 0.2100 -0.2940 0.2520 -0.2940 0.2940 -0.2940 0.3360 -0.2940 0.3780 -0.2940 0.4200 -0.2940 0.4620 -0.2940 0.5040 -0.2940 0.5460 -0.2940 -0.4200 -0.2520 -0.3780 -0.2520 -0.3360 -0.2520 -0.2940 -0.2520 -0.2520 -0.2520 -0.2100 -0.2520 -0.1680 -0.2520 -0.1260 -0.2520 -0.0840 -0.2520 -0.0420 -0.2520 0.0000 -0.2520 0.0420 -0.2520 0.0840 -0.2520 0.1260 -0.2520 0.1680 -0.2520 0.2100 -0.2520 0.2520 -0.2520 0.2940 -0.2520 0.3360 -0.2520 0.3780 -0.2520 0.4200 -0.2520 0.4620 -0.2520 0.5040 -0.2520 0.5460 -0.2520 -0.4200 -0.2100 -0.3780 -0.2100 -0.3360 -0.2100 -0.2940 -0.2100 -0.2520 -0.2100 -0.2100 -0.2100 -0.1680 -0.2100 -0.1260 -0.2100 -0.0840 -0.2100 -0.0420 -0.2100 0.0000 -0.2100 0.0420 -0.2100 0.0840 -0.2100 0.1260 -0.2100 0.1680 -0.2100 0.2100 -0.2100 0.2520 -0.2100 0.2940 -0.2100 0.3360 -0.2100 0.3780 -0.2100 0.4200 -0.2100 0.4620 -0.2100 0.5040 -0.2100 -0.4200 -0.1680 -0.3780 -0.1680 -0.3360 -0.1680 -0.2940 -0.1680 -0.2520 -0.1680 -0.2100 -0.1680 -0.1680 -0.1680 -0.1260 -0.1680 -0.0840 -0.1680 -0.0420 -0.1680 0.0000 -0.1680 0.0420 -0.1680 0.0840 -0.1680 0.1260 -0.1680 0.1680 -0.1680 0.2100 -0.1680 0.2520 -0.1680 0.2940 -0.1680 0.3360 -0.1680 0.3780 -0.1680 0.4200 -0.1680 0.4620 -0.1680 0.5040 -0.1680 -0.4620 -0.1260 -0.4200 -0.1260 -0.3780 -0.1260 -0.3360 -0.1260 -0.2940 -0.1260 -0.2520 -0.1260 -0.2100 -0.1260 -0.1680 -0.1260 -0.1260 -0.1260 -0.0840 -0.1260 -0.0420 -0.1260 0.0000 -0.1260 0.0420 -0.1260 0.0840 -0.1260 0.1260 -0.1260 0.1680 -0.1260 0.2100 -0.1260 0.2520 -0.1260 0.2940 -0.1260 0.3360 -0.1260 0.3780 -0.1260 0.4200 -0.1260 0.4620 -0.1260 0.5040 -0.1260 0.5460 -0.1260 -0.4620 -0.0840 -0.4200 -0.0840 -0.3780 -0.0840 -0.3360 -0.0840 -0.2940 -0.0840 -0.2520 -0.0840 -0.2100 -0.0840 -0.1680 -0.0840 -0.1260 -0.0840 -0.0840 -0.0840 -0.0420 -0.0840 0.0000 -0.0840 0.0420 -0.0840 0.0840 -0.0840 0.1260 -0.0840 0.1680 -0.0840 0.2100 -0.0840 0.2520 -0.0840 0.2940 -0.0840 0.3360 -0.0840 0.3780 -0.0840 0.4200 -0.0840 0.4620 -0.0840 0.5040 -0.0840 0.5460 -0.0840 -0.5040 -0.0420 -0.4620 -0.0420 -0.4200 -0.0420 -0.3780 -0.0420 -0.3360 -0.0420 -0.2940 -0.0420 -0.2520 -0.0420 -0.2100 -0.0420 -0.1680 -0.0420 -0.1260 -0.0420 -0.0840 -0.0420 -0.0420 -0.0420 0.0000 -0.0420 0.0420 -0.0420 0.0840 -0.0420 0.1260 -0.0420 0.1680 -0.0420 0.2100 -0.0420 0.2520 -0.0420 0.2940 -0.0420 0.3360 -0.0420 0.3780 -0.0420 0.4200 -0.0420 0.4620 -0.0420 0.5040 -0.0420 0.5460 -0.0420 -0.5460 0.0000 -0.5040 0.0000 -0.4620 0.0000 -0.4200 0.0000 -0.3780 0.0000 -0.3360 0.0000 -0.2940 0.0000 -0.2520 0.0000 -0.2100 0.0000 -0.1680 0.0000 -0.1260 0.0000 -0.0840 0.0000 -0.0420 0.0000 0.0000 0.0000 0.0420 0.0000 0.0840 0.0000 0.1260 0.0000 0.1680 0.0000 0.2100 0.0000 0.2520 0.0000 0.2940 0.0000 0.3360 0.0000 0.3780 0.0000 0.4200 0.0000 0.4620 0.0000 0.5040 0.0000 0.5460 0.0000 -0.5460 0.0420 -0.5040 0.0420 -0.4620 0.0420 -0.4200 0.0420 -0.3780 0.0420 -0.3360 0.0420 -0.2940 0.0420 -0.2520 0.0420 -0.2100 0.0420 -0.1680 0.0420 -0.1260 0.0420 -0.0840 0.0420 -0.0420 0.0420 0.0000 0.0420 0.0420 0.0420 0.0840 0.0420 0.1260 0.0420 0.1680 0.0420 0.2100 0.0420 0.2520 0.0420 0.2940 0.0420 0.3360 0.0420 0.3780 0.0420 0.4200 0.0420 0.4620 0.0420 0.5040 0.0420 0.5460 0.0420 -0.5880 0.0840 -0.5460 0.0840 -0.5040 0.0840 -0.4620 0.0840 -0.4200 0.0840 -0.3780 0.0840 -0.3360 0.0840 -0.2940 0.0840 -0.2520 0.0840 -0.2100 0.0840 -0.1680 0.0840 -0.1260 0.0840 -0.0840 0.0840 -0.0420 0.0840 0.0000 0.0840 0.0420 0.0840 0.0840 0.0840 0.1260 0.0840 0.1680 0.0840 0.2100 0.0840 0.2520 0.0840 0.2940 0.0840 0.3360 0.0840 0.3780 0.0840 0.4200 0.0840 0.4620 0.0840 0.5040 0.0840 0.5460 0.0840 -0.5880 0.1260 -0.5460 0.1260 -0.5040 0.1260 -0.4620 0.1260 -0.4200 0.1260 -0.3780 0.1260 -0.3360 0.1260 -0.2940 0.1260 -0.2520 0.1260 -0.2100 0.1260 -0.1680 0.1260 -0.1260 0.1260 -0.0840 0.1260 -0.0420 0.1260 0.0000 0.1260 0.0420 0.1260 0.0840 0.1260 0.1260 0.1260 0.1680 0.1260 0.2100 0.1260 0.2520 0.1260 0.2940 0.1260 0.3360 0.1260 0.3780 0.1260 0.4200 0.1260 0.4620 0.1260 0.5040 0.1260 0.5460 0.1260 -0.6300 0.1680 -0.5880 0.1680 -0.5460 0.1680 -0.5040 0.1680 -0.4620 0.1680 -0.4200 0.1680 -0.3780 0.1680 -0.3360 0.1680 -0.2940 0.1680 -0.2520 0.1680 -0.2100 0.1680 -0.1680 0.1680 -0.1260 0.1680 -0.0840 0.1680 -0.0420 0.1680 0.0000 0.1680 0.0420 0.1680 0.0840 0.1680 0.1260 0.1680 0.1680 0.1680 0.2100 0.1680 0.2520 0.1680 0.2940 0.1680 0.3360 0.1680 0.3780 0.1680 0.4200 0.1680 0.4620 0.1680 0.5040 0.1680 0.5460 0.1680 -0.6300 0.2100 -0.5880 0.2100 -0.5460 0.2100 -0.5040 0.2100 -0.4620 0.2100 -0.4200 0.2100 -0.3780 0.2100 -0.3360 0.2100 -0.2940 0.2100 -0.2520 0.2100 -0.2100 0.2100 -0.1680 0.2100 -0.1260 0.2100 -0.0840 0.2100 -0.0420 0.2100 0.0000 0.2100 0.0420 0.2100 0.0840 0.2100 0.1260 0.2100 0.1680 0.2100 0.2100 0.2100 0.2520 0.2100 0.2940 0.2100 0.3360 0.2100 0.3780 0.2100 0.4200 0.2100 0.4620 0.2100 0.5040 0.2100 -0.6300 0.2520 -0.5880 0.2520 -0.5460 0.2520 -0.5040 0.2520 -0.4620 0.2520 -0.4200 0.2520 -0.3780 0.2520 -0.3360 0.2520 -0.2940 0.2520 -0.2520 0.2520 -0.2100 0.2520 -0.1680 0.2520 -0.1260 0.2520 -0.0840 0.2520 -0.0420 0.2520 0.0000 0.2520 0.0420 0.2520 0.0840 0.2520 0.1260 0.2520 0.1680 0.2520 0.2100 0.2520 0.2520 0.2520 0.2940 0.2520 0.3360 0.2520 0.3780 0.2520 0.4200 0.2520 0.4620 0.2520 0.5040 0.2520 -0.6300 0.2940 -0.5880 0.2940 -0.5460 0.2940 -0.5040 0.2940 -0.4620 0.2940 -0.4200 0.2940 -0.3780 0.2940 -0.3360 0.2940 -0.2940 0.2940 -0.2520 0.2940 -0.2100 0.2940 -0.1680 0.2940 -0.1260 0.2940 -0.0840 0.2940 -0.0420 0.2940 0.0000 0.2940 0.0420 0.2940 0.0840 0.2940 0.1260 0.2940 0.1680 0.2940 0.2100 0.2940 0.2520 0.2940 0.2940 0.2940 0.3360 0.2940 0.3780 0.2940 0.4200 0.2940 -0.5880 0.3360 -0.5460 0.3360 -0.5040 0.3360 -0.4620 0.3360 -0.4200 0.3360 -0.3780 0.3360 -0.3360 0.3360 -0.2940 0.3360 -0.2520 0.3360 -0.2100 0.3360 -0.1680 0.3360 -0.1260 0.3360 -0.0840 0.3360 -0.0420 0.3360 0.0000 0.3360 0.0420 0.3360 0.0840 0.3360 0.1260 0.3360 0.1680 0.3360 0.2100 0.3360 0.2520 0.3360 0.2940 0.3360 0.3360 0.3360 0.3780 0.3360 -0.5880 0.3780 -0.5460 0.3780 -0.5040 0.3780 -0.4620 0.3780 -0.4200 0.3780 -0.3780 0.3780 -0.3360 0.3780 -0.2940 0.3780 -0.2520 0.3780 -0.2100 0.3780 -0.1680 0.3780 -0.1260 0.3780 -0.0840 0.3780 -0.0420 0.3780 0.0000 0.3780 0.0420 0.3780 0.0840 0.3780 0.1260 0.3780 0.1680 0.3780 0.2100 0.3780 0.2520 0.3780 0.2940 0.3780 0.3360 0.3780 -0.5460 0.4200 -0.5040 0.4200 -0.4620 0.4200 -0.4200 0.4200 -0.3780 0.4200 -0.3360 0.4200 -0.2940 0.4200 -0.2520 0.4200 -0.2100 0.4200 -0.1680 0.4200 -0.1260 0.4200 -0.0840 0.4200 -0.0420 0.4200 0.0000 0.4200 0.0420 0.4200 0.0840 0.4200 0.1260 0.4200 0.1680 0.4200 0.2100 0.4200 0.2520 0.4200 0.2940 0.4200 0.3360 0.4200 -0.5040 0.4620 -0.4620 0.4620 -0.4200 0.4620 -0.3780 0.4620 -0.3360 0.4620 -0.2940 0.4620 -0.2520 0.4620 -0.2100 0.4620 -0.1680 0.4620 -0.1260 0.4620 -0.0840 0.4620 -0.0420 0.4620 0.0000 0.4620 0.0420 0.4620 0.0840 0.4620 0.1260 0.4620 0.1680 0.4620 0.2100 0.4620 0.2520 0.4620 0.2940 0.4620 -0.4620 0.5040 -0.4200 0.5040 -0.3780 0.5040 -0.3360 0.5040 -0.2940 0.5040 -0.2520 0.5040 -0.2100 0.5040 -0.1680 0.5040 -0.1260 0.5040 -0.0840 0.5040 -0.0420 0.5040 0.0000 0.5040 0.0420 0.5040 0.0840 0.5040 0.1260 0.5040 0.1680 0.5040 0.2100 0.5040 0.2520 0.5040 -0.4200 0.5460 -0.3780 0.5460 -0.3360 0.5460 -0.2940 0.5460 -0.2520 0.5460 -0.2100 0.5460 -0.1680 0.5460 -0.1260 0.5460 -0.0840 0.5460 -0.0420 0.5460 0.0000 0.5460 0.0420 0.5460 0.0840 0.5460 0.1260 0.5460 0.1680 0.5460 0.2100 0.5460 0.2520 0.5460 -0.3780 0.5880 -0.3360 0.5880 -0.2940 0.5880 -0.2520 0.5880 -0.2100 0.5880 -0.1680 0.5880 -0.1260 0.5880 -0.0840 0.5880 -0.0420 0.5880 0.0000 0.5880 0.0420 0.5880 0.0840 0.5880 0.1260 0.5880 0.1680 0.5880 0.2100 0.5880 -0.3360 0.6300 -0.2940 0.6300 -0.2520 0.6300 -0.2100 0.6300 -0.1680 0.6300 -0.1260 0.6300 -0.0840 0.6300 -0.0420 0.6300 0.0000 0.6300 0.0420 0.6300 0.0840 0.6300 0.1260 0.6300 0.1680 0.6300 0.2100 0.6300 -0.2520 0.6720 -0.2100 0.6720 -0.1680 0.6720 -0.1260 0.6720 -0.0840 0.6720 -0.0420 0.6720 0.0000 0.6720 0.0420 0.6720 0.0840 0.6720 0.1260 0.6720 0.1680 0.6720 -0.2100 0.7140 -0.1680 0.7140 -0.1260 0.7140 -0.0840 0.7140 -0.0420 0.7140 0.0000 0.7140 0.0420 0.7140 0.0840 0.7140 0.1260 0.7140 -0.1680 0.7560 -0.1260 0.7560 -0.0840 0.7560 -0.0420 0.7560 0.0000 0.7560 0.0420 0.7560 0.0840 0.7560</float_array>
      <technique_common><accessor source="#t-a" count="763" stride="2"><param name="S" type="float"/><param name="T" type="float"/></accessor></technique_common></source>
    <vertices id="v"><input semantic="POSITION" source="#p"/></vertices>
    <triangles material="m" count="1396">
      <input semantic="VERTEX" source="#v" offset="0"/>
      <input semantic="NORMAL" source="#n" offset="1"/>
      <input semantic="TEXCOORD" source="#t" offset="2" set="0"/>
      <p>0 0 0 1 1 1 10 10 10 0 0 0 10 10 10 9 9 9 1 1 1 2 2 2 11 11 11 1 1 1 11 11 11 10 10 10 2 2 2 3 3 3 12 12 12 2 2 2 12 12 12 11 11 11 3 3 3 4 4 4 13 13 13 3 3 3 13 13 13 12 12 12 4 4 4 5 5 5 14 14 14 4 4 4 14 14 14 13 13 13 6 6 6 7 7 7 22 22 22 6 6 6 22 22 22 21 21 21 7 7 7 8 8 8 23 23 23 7 7 7 23 23 23 22 22 22 8 8 8 9 9 9 24 24 24 8 8 8 24 24 24 23 23 23 9 9 9 10 10 10 25 25 25 9 9 9 25 25 25 24 24 24 10 10 10 11 11 11 26 26 26 10 10 10 26 26 26 25 25 25 11 11 11 12 12 12 27 27 27 11 11 11 27 27 27 26 26 26 12 12 12 13 13 13 28 28 28 12 12 12 28 28 28 27 27 27 13 13 13 14 14 14 29 29 29 13 13 13 29 29 29 28 28 28 14 14 14 15 15 15 30 30 30 14 14 14 30 30 30 29 29 29 15 15 15 16 16 16 31 31 31 15 15 15 31 31 31 30 30 30 17 17 17 18 18 18 37 37 37 17 17 17 37 37 37 36 36 36 18 18 18 19 19 19 38 38 38 18 18 18 38 38 38 37 37 37 19 19 19 20 20 20 39 39 39 19 19 19 39 39 39 38 38 38 20 20 20 21 21 21 40 40 40 20 20 20 40 40 40 39 39 39 21 21 21 22 22 22 41 41 41 21 21 21 41 41 41 40 40 40 22 22 22 23 23 23 42 42 42 22 22 22 42 42 42 41 41 41 23 23 23 24 24 24 43 43 43 23 23 23 43 43 43 42 42 42 24 24 24 25 25 25 44 44 44 24 24 24 44 44 44 43 43 43 25 25 25 26 26 26 45 45 45 25 25 25 45 45 45 44 44 44 26 26 26 27 27 27 46 46 46 26 26 26 46 46 46 45 45 45 27 27 27 28 28 28 47 47 47 27 27 27 47 47 47 46 46 46 28 28 28 29 29 29 48 48 48 28 28 28 48 48 48 47 47 47 29 29 29 30 30 30 49 49 49 29 29 29 49 49 49 48 48 48 30 30 30 31 31 31 50 50 50 30 30 30 50 50 50 49 49 49 31 31 31 32 32 32 51 51 51 31 31 31 51 51 51 50 50 50 33 33 33 34 34 34 55 55 55 33 33 33 55 55 55 54 54 54 34 34 34 35 35 35 56 56 56 34 34 34 56 56 56 55 55 55 35 35 35 36 36 36 57 57 57 35 35 35 57 57 57 56 56 56 36 36 36 37 37 37 58 58 58 36 36 36 58 58 58 57 57 57 37 37 37 38 38 38 59 59 59 37 37 37 59 59 59 58 58 58 38 38 38 39 39 39 60 60 60 38 38 38 60 60 60 59 59 59 39 39 39 40 40 40 61 61 61 39 39 39 61 61 61 60 60 60 40 40 40 41 41 41 62 62 62 40 40 40 62 62 62 61 61 61 41 41 41 42 42 42 63 63 63 41 41 41 63 63 63 62 62 62 42 42 42 43 43 43 64 64 64 42 42 42 64 64 64 63 63 63 43 43 43 44 44 44 65 65 65 43 43 43 65 65 65 64 64 64 44 44 44 45 45 45 66 66 66 44 44 44 66 66 66 65 65 65 45 45 45 46 46 46 67 67 67 45 45 45 67 67 67 66 66 66 46 46 46 47 47 47 68 68 68 46 46 46 68 68 68 67 67 67 47 47 47 48 48 48 69 69 69 47 47 47 69 69 69 68 68 68 48 48 48 49 49 49 70 70 70 48 48 48 70 70 70 69 69 69 49 49 49 50 50 50 71 71 71 49 49 49 71 71 71 70 70 70 50 50 50 51 51 51 72 72 72 50 50 50 72 72 72 71 71 71 51 51 51 52 52 52 73 73 73 51 51 51 73 73 73 72 72 72 53 53 53 54 54 54 76 76 76 53 53 53 76 76 76 75 75 75 54 54 54 55 55 55 77 77 77 54 54 54 77 77 77 76 76 76 55 55 55 56 56 56 78 78 78 55 55 55 78 78 78 77 77 77 56 56 56 57 57 57 79 79 79 56 56 56 79 79 79 78 78 78 57 57 57 58 58 58 80 80 80 57 57 57 80 80 80 79 79 79 58 58 58 59 59 59 81 81 81 58 58 58 81 81 81 80 80 80 59 59 59 60 60 60 82 82 82 59 59 59 82 82 82 81 81 81 60 60 60 61 61 61 83 83 83 60 60 60 83 83 83 82 82 82 61 61 61 62 62 62 84 84 84 61 61 61 84 84 84 83 83 83 62 62 62 63 63 63 85 85 85 62 62 62 85 85 85 84 84 84 63 63 63 64 64 64 86 86 86 63 63 63 86 86 86 85 85 85 64 64 64 65 65 65 87 87 87 64 64 64 87 87 87 86 86 86 65 65 65 66 66 66 88 88 88 65 65 65 88 88 88 87 87 87 66 66 66 67 67 67 89 89 89 66 66 66 89 89 89 88 88 88 67 67 67 68 68 68 90 90 90 67 67 67 90 90 90 89 89 89 68 68 68 69 69 69 91 91 91 68 68 68 91 91 91 90 90 90 69 69 69 70 70 70 92 92 92 69 69 69 92 92 92 91 91 91 70 70 70 71 71 71 93 93 93 70 70 70 93 93 93 92 92 92 71 71 71 72 72 72 94 94 94 71 71 71 94 94 94 93 93 93 72 72 72 73 73 73 95 95 95 72 72 72 95 95 95 94 94 94 74 74 74 75 75 75 98 98 98 74 74 74 98 98 98 97 97 97 75 75 75 76 76 76 99 99 99 75 75 75 99 99 99 98 98 98 76 76 76 77 77 77 100 100 100 76 76 76 100 100 100 99 99 99 77 77 77 78 78 78 101 101 101 77 77 77 101 101 101 100 100 100 78 78 78 79 79 79 102 102 102 78 78 78 102 102 102 101 101 101 79 79 79 80 80 80 103 103 103 79 79 79 103 103 103 102 102 102 80 80 80 81 81 81 104 104 104 80 80 80 104 104 104 103 103 103 81 81 81 82 82 82 105 105 105 81 81 81 105 105 105 104 104 104 82 82 82 83 83 83 106 106 106 82 82 82 106 106 106 105 105 105 83 83 83 84 84 84 107 107 107 83 83 83 107 107 107 106 106 106 84 84 84 85 85 85 108 108 108 84 84 84 108 108 108 107 107 107 85 85 85 86 86 86 109 109 109 85 85 85 109 109 109 108 108 108 86 86 86 87 87 87 110 110 110 86 86 86 110 110 110 109 109 109 87 87 87 88 88 88 111 111 111 87 87 87 111 111 111 110 110 110 88 88 88 89 89 89 112 112 112 88 88 88 112 112 112 111 111 111 89 89 89 90 90 90 113 113 113 89 89 89 113 113 113 112 112 112 90 90 90 91 91 91 114 114 114 90 90 90 114 114 114 113 113 113 91 91 91 92 92 92 115 115 115 91 91 91 115 115 115 114 114 114 92 92 92 93 93 93 116 116 116 92 92 92 116 116 116 115 115 115 93 93 93 94 94 94 117 117 117 93 93 93 117 117 117 116 116 116 94 94 94 95 95 95 118 118 118 94 94 94 118 118 118 117 117 117 96 96 96 97 97 97 121 121 121 96 96 96 121 121 121 120 120 120 97 97 97 98 98 98 122 122 122 97 97 97 122 122 122 121 121 121 98 98 98 99 99 99 123 123 123 98 98 98 123 123 123 122 122 122 99 99 99 100 100 100 124 124 124 99 99 99 124 124 124 123 123 123 100 100 100 101 101 101 125 125 125 100 100 100 125 125 125 124 124 124 101 101 101 102 102 102 126 126 126 101 101 101 126 126 126 125 125 125 102 102 102 103 103 103 127 127 127 102 102 102 127 127 127 126 126 126 103 103 103 104 104 104 128 128 128 103 103 103 128 128 128 127 127 127 104 104 104 105 105 105 129 129 129 104 104 104 129 129 129 128 128 128 105 105 105 106 106 106 130 130 130 105 105 105 130 130 130 129 129 129 106 106 106 107 107 107 131 131 131 106 106 106 131 131 131 130 130 130 107 107 107 108 108 108 132 132 132 107 107 107 132 132 132 131 131 131 108 108 108 109 109 109 133 133 133 108 108 108 133 133 133 132 132 132 109 109 109 110 110 110 134 134 134 109 109 109 134 134 134 133 133 133 110 110 110 111 111 111 135 135 135 110 110 110 135 135 135 134 134 134 111 111 111 112 112 112 136 136 136 111 111 111 136 136 136 135 135 135 112 112 112 113 113 113 137 137 137 112 112 112 137 137 137 136 136 136 113 113 113 114 114 114 138 138 138 113 113 113 138 138 138 137 137 137 114 114 114 115 115 115 139 139 139 114 114 114 139 139 139 138 138 138 115 115 115 116 116 116 140 140 140 115 115 115 140 140 140 139 139 139 116 116 116 117 117 117 141 141 141 116 116 116 141 141 141 140 140 140 117 117 117 118 118 118 142 142 142 117 117 117 142 142 142 141 141 141 118 118 118 119 119 119 143 143 143 118 118 118 143 143 143 142 142 142 120 120 120 121 121 121 145 145 145 120 120 120 145 145 145 144 144 144 121 121 121 122 122 122 146 146 146 121 121 121 146 146 146 145 145 145 122 122 122 123 123 123 147 147 147 122 122 122 147 147 147 146 146 146 123 123 123 124 124 124 148 148 148 123 123 123 148 148 148 147 147 147 124 124 124 125 125 125 149 149 149 124 124 124 149 149 149 148 148 148 125 125 125 126 126 126 150 150 150 125 125 125 150 150 150 149 149 149 126 126 126 127 127 127 151 151 151 126 126 126 151 151 151 150 150 150 127 127 127 128 128 128 152 152 152 127 127 127 152 152 152 151 151 151 128 128 128 129 129 129 153 153 153 128 128 128 153 153 153 152 152 152 129 129 129 130 130 130 154 154 154 129 129 129 154 154 154 153 153 153 130 130 130 131 131 131 155 155 155 130 130 130 155 155 155 154 154 154 131 131 131 132 132 132 156 156 156 131 131 131 156 156 156 155 155 155 132 132 132 133 133 133 157 157 157 132 132 132 157 157 157 156 156 156 133 133 133 134 134 134 158 158 158 133 133 133 158 158 158 157 157 157 134 134 134 135 135 135 159 159 159 134 134 134 159 159 159 158 158 158 135 135 135 136 136 136 160 160 160 135 135 135 160 160 160 159 159 159 136 136 136 137 137 137 161 161 161 136 136 136 161 161 161 160 160 160 137 137 137 138 138 138 162 162 162 137 137 137 162 162 162 161 161 161 138 138 138 139 139 139 163 163 163 138 138 138 163 163 163 162 162 162 139 139 139 140 140 140 164 164 164 139 139 139 164 164 164 163 163 163 140 140 140 141 141 141 165 165 165 140 140 140 165 165 165 164 164 164 141 141 141 142 142 142 166 166 166 141 141 141 166 166 166 165 165 165 142 142 142 143 143 143 167 167 167 142 142 142 167 167 167 166 166 166 144 144 144 145 145 145 169 169 169 144 144 144 169 169 169 168 168 168 145 145 145 146 146 146 170 170 170 145 145 145 170 170 170 169 169 169 146 146 146 147 147 147 171 171 171 146 146 146 171 171 171 170 170 170 147 147 147 148 148 148 172 172 172 147 147 147 172 172 172 171 171 171 148 148 148 149 149 149 173 173 173 148 148 148 173 173 173 172 172 172 149 149 149 150 150 150 174 174 174 149 149 149 174 174 174 173 173 173 150 150 150 151 151 151 175 175 175 150 150 150 175 175 175 174 174 174 151 151 151 152 152 152 176 176 176 151 151 151 176 176 176 175 175 175 152 152 152 153 153 153 177 177 177 152 152 152 177 177 177 176 176 176 153 153 153 154 154 154 178 178 178 153 153 153 178 178 178 177 177 177 154 154 154 155 155 155 179 179 179 154 154 154 179 179 179 178 178 178 155 155 155 156 156 156 180 180 180 155 155 155 180 180 180 179 179 179 156 156 156 157 157 157 181 181 181 156 156 156 181 181 181 180 180 180 157 157 157 158 158 158 182 182 182 157 157 157 182 182 182 181 181 181 158 158 158 159 159 159 183 183 183 158 158 158 183 183 183 182 182 182 159 159 159 160 160 160 184 184 184 159 159 159 184 184 184 183 183 183 160 160 160 161 161 161 185 185 185 160 160 160 185 185 185 184 184 184 161 161 161 162 162 162 186 186 186 161 161 161 186 186 186 185 185 185 162 162 162 163 163 163 187 187 187 162 162 162 187 187 187 186 186 186 163 163 163 164 164 164 188 188 188 163 163 163 188 188 188 187 187 187 164 164 164 165 165 165 189 189 189 164 164 164 189 189 189 188 188 188 165 165 165 166 166 166 190 190 190 165 165 165 190 190 190 189 189 189 166 166 166 167 167 167 191 191 191 166 166 166 191 191 191 190 190 190 168 168 168 169 169 169 193 193 193 168 168 168 193 193 193 192 192 192 169 169 169 170 170 170 194 194 194 169 169 169 194 194 194 193 193 193 170 170 170 171 171 171 195 195 195 170 170 170 195 195 195 194 194 194 171 171 171 172 172 172 196 196 196 171 171 171 196 196 196 195 195 195 172 172 172 173 173 173 197 197 197 172 172 172 197 197 197 196 196 196 173 173 173 174 174 174 198 198 198 173 173 173 198 198 198 197 197 197 174 174 174 175 175 175 199 199 199 174 174 174 199 199 199 198 198 198 175 175 175 176 176 176 200 200 200 175 175 175 200 200 200 199 199 199 176 176 176 177 177 177 201 201 201 176 176 176 201 201 201 200 200 200 177 177 177 178 178 178 202 202 202 177 177 177 202 202 202 201 201 201 178 178 178 179 179 179 203 203 203 178 178 178 203 203 203 202 202 202 179 179 179 180 180 180 204 204 204 179 179 179 204 204 204 203 203 203 180 180 180 181 181 181 205 205 205 180 180 180 205 205 205 204 204 204 181 181 181 182 182 182 206 206 206 181 181 181 206 206 206 205 205 205 182 182 182 183 183 183 207 207 207 182 182 182 207 207 207 206 206 206 183 183 183 184 184 184 208 208 208 183 183 183 208 208 208 207 207 207 184 184 184 185 185 185 209 209 209 184 184 184 209 209 209 208 208 208 185 185 185 186 186 186 210 210 210 185 185 185 210 210 210 209 209 209 186 186 186 187 187 187 211 211 211 186 186 186 211 211 211 210 210 210 187 187 187 188 188 188 212 212 212 187 187 187 212 212 212 211 211 211 188 188 188 189 189 189 213 213 213 188 188 188 213 213 213 212 212 212 189 189 189 190 190 190 214 214 214 189 189 189 214 214 214 213 213 213 190 190 190 191 191 191 215 215 215 190 190 190 215 215 215 214 214 214 192 192 192 193 193 193 217 217 217 192 192 192 217 217 217 216 216 216 193 193 193 194 194 194 218 218 218 193 193 193 218 218 218 217 217 217 194 194 194 195 195 195 219 219 219 194 194 194 219 219 219 218 218 218 195 195 195 196 196 196 220 220 220 195 195 195 220 220 220 219 219 219 196 196 196 197 197 197 221 221 221 196 196 196 221 221 221 220 220 220 197 197 197 198 198 198 222 222 222 197 197 197 222 222 222 221 221 221 198 198 198 199 199 199 223 223 223 198 198 198 223 223 223 222 222 222 199 199 199 200 200 200 224 224 224 199 199 199 224 224 224 223 223 223 200 200 200 201 201 201 225 225 225 200 200 200 225 225 225 224 224 224 201 201 201 202 202 202 226 226 226 201 201 201 226 226 226 225 225 225 202 202 202 203 203 203 227 227 227 202 202 202 227 227 227 226 226 226 203 203 203 204 204 204 228 228 228 203 203 203 228 228 228 227 227 227 204 204 204 205 205 205 229 229 229 204 204 204 229 229 229 228 228 228 205 205 205 206 206 206 230 230 230 205 205 205 230 230 230 229 229 229 206 206 206 207 207 207 231 231 231 206 206 206 231 231 231 230 230 230 207 207 207 208 208 208 232 232 232 207 207 207 232 232 232 231 231 231 208 208 208 209 209 209 233 233 233 208 208 208 233 233 233 232 232 232 209 209 209 210 210 210 234 234 234 209 209 209 234 234 234 233 233 233 210 210 210 211 211 211 235 235 235 210 210 210 235 235 235 234 234 234 211 211 211 212 212 212 236 236 236 211 211 211 236 236 236 235 235 235 212 212 212 213 213 213 237 237 237 212 212 212 237 237 237 236 236 236 213 213 213 214 214 214 238 238 238 213 213 213 238 238 238 237 237 237 214 214 214 215 215 215 239 239 239 214 214 214 239 239 239 238 238 238 216 216 216 217 217 217 241 241 241 216 216 216 241 241 241 240 240 240 217 217 217 218 218 218 242 242 242 217 217 217 242 242 242 241 241 241 218 218 218 219 219 219 243 243 243 218 218 218 243 243 243 242 242 242 219 219 219 220 220 220 244 244 244 219 219 219 244 244 244 243 243 243 220 220 220 221 221 221 245 245 245 220 220 220 245 245 245 244 244 244 221 221 221 222 222 222 246 246 246 221 221 221 246 246 246 245 245 245 222 222 222 223 223 223 247 247 247 222 222 222 247 247 247 246 246 246 223 223 223 224 224 224 248 248 248 223 223 223 248 248 248 247 247 247 224 224 224 225 225 225 249 249 249 224 224 224 249 249 249 248 248 248 225 225 225 226 226 226 250 250 250 225 225 225 250 250 250 249 249 249 226 226 226 227 227 227 251 251 251 226 226 226 251 251 251 250 250 250 227 227 227 228 228 228 252 252 252 227 227 227 252 252 252 251 251 251 228 228 228 229 229 229 253 253 253 228 228 228 253 253 253 252 252 252 229 229 229 230 230 230 254 254 254 229 229 229 254 254 254 253 253 253 230 230 230 231 231 231 255 255 255 230 230 230 255 255 255 254 254 254 231 231 231 232 232 232 256 256 256 231 231 231 256 256 256 255 255 255 232 232 232 233 233 233 257 257 257 232 232 232 257 257 257 256 256 256 233 233 233 234 234 234 258 258 258 233 233 233 258 258 258 257 257 257 234 234 234 235 235 235 259 259 259 234 234 234 259 259 259 258 258 258 235 235 235 236 236 236 260 260 260 235 235 235 260 260 260 259 259 259 236 236 236 237 237 237 261 261 261 236 236 236 261 261 261 260 260 260 237 237 237 238 238 238 262 262 262 237 237 237 262 262 262 261 261 261 240 240 240 241 241 241 264 264 264 240 240 240 264 264 264 263 263 263 241 241 241 242 242 242 265 265 265 241 241 241 265 265 265 264 264 264 242 242 242 243 243 243 266 266 266 242 242 242 266 266 266 265 265 265 243 243 243 244 244 244 267 267 267 243 243 243 267 267 267 266 266 266 244 244 244 245 245 245 268 268 268 244 244 244 268 268 268 267 267 267 245 245 245 246 246 246 269 269 269 245 245 245 269 269 269 268 268 268 246 246 246 247 247 247 270 270 270 246 246 246 270 270 270 269 269 269 247 247 247 248 248 248 271 271 271 247 247 247 271 271 271 270 270 270 248 248 248 249 249 249 272 272 272 248 248 248 272 272 272 271 271 271 249 249 249 250 250 250 273 273 273 249 249 249 273 273 273 272 272 272 250 250 250 251 251 251 274 274 274 250 250 250 274 274 274 273 273 273 251 251 251 252 252 252 275 275 275 251 251 251 275 275 275 274 274 274 252 252 252 253 253 253 276 276 276 252 252 252 276 276 276 275 275 275 253 253 253 254 254 254 277 277 277 253 253 253 277 277 277 276 276 276 254 254 254 255 255 255 278 278 278 254 254 254 278 278 278 277 277 277 255 255 255 256 256 256 279 279 279 255 255 255 279 279 279 278 278 278 256 256 256 257 257 257 280 280 280 256 256 256 280 280 280 279 279 279 257 257 257 258 258 258 281 281 281 257 257 257 281 281 281 280 280 280 258 258 258 259 259 259 282 282 282 258 258 258 282 282 282 281 281 281 259 259 259 260 260 260 283 283 283 259 259 259 283 283 283 282 282 282 260 260 260 261 261 261 284 284 284 260 260 260 284 284 284 283 283 283 261 261 261 262 262 262 285 285 285 261 261 261 285 285 285 284 284 284 263 263 263 264 264 264 288 288 288 263 263 263 288 288 288 287 287 287 264 264 264 265 265 265 289 289 289 264 264 264 289 289 289 288 288 288 265 265 265 266 266 266 290 290 290 265 265 265 290 290 290 289 289 289 266 266 266 267 267 267 291 291 291 266 266 266 291 291 291 290 290 290 267 267 267 268 268 268 292 292 292 267 267 267 292 292 292 291 291 291 268 268 268 269 269 269 293 293 293 268 268 268 293 293 293 292 292 292 269 269 269 270 270 270 294 294 294 269 269 269 294 294 294 293 293 293 270 270 270 271 271 271 295 295 295 270 270 270 295 295 295 294 294 294 271 271 271 272 272 272 296 296 296 271 271 271 296 296 296 295 295 295 272 272 272 273 273 273 297 297 297 272 272 272 297 297 297 296 296 296 273 273 273 274 274 274 298 298 298 273 273 273 298 298 298 297 297 297 274 274 274 275 275 275 299 299 299 274 274 274 299 299 299 298 298 298 275 275 275 276 276 276 300 300 300 275 275 275 300 300 300 299 299 299 276 276 276 277 277 277 301 301 301 276 276 276 301 301 301 300 300 300 277 277 277 278 278 278 302 302 302 277 277 277 302 302 302 301 301 301 278 278 278 279 279 279 303 303 303 278 278 278 303 303 303 302 302 302 279 279 279 280 280 280 304 304 304 279 279 279 304 304 304 303 303 303 280 280 280 281 281 281 305 305 305 280 280 280 305 305 305 304 304 304 281 281 281 282 282 282 306 306 306 281 281 281 306 306 306 305 305 305 282 282 282 283 283 283 307 307 307 282 282 282 307 307 307 306 306 306 283 283 283 284 284 284 308 308 308 283 283 283 308 308 308 307 307 307 284 284 284 285 285 285 309 309 309 284 284 284 309 309 309 308 308 308 286 286 286 287 287 287 312 312 312 286 286 286 312 312 312 311 311 311 287 287 287 288 288 288 313 313 313 287 287 287 313 313 313 312 312 312 288 288 288 289 289 289 314 314 314 288 288 288 314 314 314 313 313 313 289 289 289 290 290 290 315 315 315 289 289 289 315 315 315 314 314 314 290 290 290 291 291 291 316 316 316 290 290 290 316 316 316 315 315 315 291 291 291 292 292 292 317 317 317 291 291 291 317 317 317 316 316 316 292 292 292 293 293 293 318 318 318 292 292 292 318 318 318 317 317 317 293 293 293 294 294 294 319 319 319 293 293 293 319 319 319 318 318 318 294 294 294 295 295 295 320 320 320 294 294 294 320 320 320 319 319 319 295 295 295 296 296 296 321 321 321 295 295 295 321 321 321 320 320 320 296 296 296 297 297 297 322 322 322 296 296 296 322 322 322 321 321 321 297 297 297 298 298 298 323 323 323 297 297 297 323 323 323 322 322 322 298 298 298 299 299 299 324 324 324 298 298 298 324 324 324 323 323 323 299 299 299 300 300 300 325 325 325 299 299 299 325 325 325 324 324 324 300 300 300 301 301 301 326 326 326 300 300 300 326 326 326 325 325 325 301 301 301 302 302 302 327 327 327 301 301 301 327 327 327 326 326 326 302 302 302 303 303 303 328 328 328 302 302 302 328 328 328 327 327 327 303 303 303 304 304 304 329 329 329 303 303 303 329 329 329 328 328 328 304 304 304 305 305 305 330 330 330 304 304 304 330 330 330 329 329 329 305 305 305 306 306 306 331 331 331 305 305 305 331 331 331 330 330 330 306 306 306 307 307 307 332 332 332 306 306 306 332 332 332 331 331 331 307 307 307 308 308 308 333 333 333 307 307 307 333 333 333 332 332 332 308 308 308 309 309 309 334 334 334 308 308 308 334 334 334 333 333 333 309 309 309 310 310 310 335 335 335 309 309 309 335 335 335 334 334 334 311 311 311 312 312 312 338 338 338 311 311 311 338 338 338 337 337 337 312 312 312 313 313 313 339 339 339 312 312 312 339 339 339 338 338 338 313 313 313 314 314 314 340 340 340 313 313 313 340 340 340 339 339 339 314 314 314 315 315 315 341 341 341 314 314 314 341 341 341 340 340 340 315 315 315 316 316 316 342 342 342 315 315 315 342 342 342 341 341 341 316 316 316 317 317 317 343 343 343 316 316 316 343 343 343 342 342 342 317 317 317 318 318 318 344 344 344 317 317 317 344 344 344 343 343 343 318 318 318 319 319 319 345 345 345 318 318 318 345 345 345 344 344 344 319 319 319 320 320 320 346 346 346 319 319 319 346 346 346 345 345 345 320 320 320 321 321 321 347 347 347 320 320 320 347 347 347 346 346 346 321 321 321 322 322 322 348 348 348 321 321 321 348 348 348 347 347 347 322 322 322 323 323 323 349 349 349 322 322 322 349 349 349 348 348 348 323 323 323 324 324 324 350 350 350 323 323 323 350 350 350 349 349 349 324 324 324 325 325 325 351 351 351 324 324 324 351 351 351 350 350 350 325 325 325 326 326 326 352 352 352 325 325 325 352 352 352 351 351 351 326 326 326 327 327 327 353 353 353 326 326 326 353 353 353 352 352 352 327 327 327 328 328 328 354 354 354 327 327 327 354 354 354 353 353 353 328 328 328 329 329 329 355 355 355 328 328 328 355 355 355 354 354 354 329 329 329 330 330 330 356 356 356 329 329 329 356 356 356 355 355 355 330 330 330 331 331 331 357 357 357 330 330 330 357 357 357 356 356 356 331 331 331 332 332 332 358 358 358 331 331 331 358 358 358 357 357 357 332 332 332 333 333 333 359 359 359 332 332 332 359 359 359 358 358 358 333 333 333 334 334 334 360 360 360 333 333 333 360 360 360 359 359 359 334 334 334 335 335 335 361 361 361 334 334 334 361 361 361 360 360 360 336 336 336 337 337 337 364 364 364 336 336 336 364 364 364 363 363 363 337 337 337 338 338 338 365 365 365 337 337 337 365 365 365 364 364 364 338 338 338 339 339 339 366 366 366 338 338 338 366 366 366 365 365 365 339 339 339 340 340 340 367 367 367 339 339 339 367 367 367 366 366 366 340 340 340 341 341 341 368 368 368 340 340 340 368 368 368 367 367 367 341 341 341 342 342 342 369 369 369 341 341 341 369 369 369 368 368 368 342 342 342 343 343 343 370 370 370 342 342 342 370 370 370 369 369 369 343 343 343 344 344 344 371 371 371 343 343 343 371 371 371 370 370 370 344 344 344 345 345 345 372 372 372 344 344 344 372 372 372 371 371 371 345 345 345 346 346 346 373 373 373 345 345 345 373 373 373 372 372 372 346 346 346 347 347 347 374 374 374 346 346 346 374 374 374 373 373 373 347 347 347 348 348 348 375 375 375 347 347 347 375 375 375 374 374 374 348 348 348 349 349 349 376 376 376 348 348 348 376 376 376 375 375 375 349 349 349 350 350 350 377 377 377 349 349 349 377 377 377 376 376 376 350 350 350 351 351 351 378 378 378 350 350 350 378 378 378 377 377 377 351 351 351 352 352 352 379 379 379 351 351 351 379 379 379 378 378 378 352 352 352 353 353 353 380 380 380 352 352 352 380 380 380 379 379 379 353 353 353 354 354 354 381 381 381 353 353 353 381 381 381 380 380 380 354 354 354 355 355 355 382 382 382 354 354 354 382 382 382 381 381 381 355 355 355 356 356 356 383 383 383 355 355 355 383 383 383 382 382 382 356 356 356 357 357 357 384 384 384 356 356 356 384 384 384 383 383 383 357 357 357 358 358 358 385 385 385 357 357 357 385 385 385 384 384 384 358 358 358 359 359 359 386 386 386 358 358 358 386 386 386 385 385 385 359 359 359 360 360 360 387 387 387 359 359 359 387 387 387 386 386 386 360 360 360 361 361 361 388 388 388 360 360 360 388 388 388 387 387 387 362 362 362 363 363 363 390 390 390 362 362 362 390 390 390 389 389 389 363 363 363 364 364 364 391 391 391 363 363 363 391 391 391 390 390 390 364 364 364 365 365 365 392 392 392 364 364 364 392 392 392 391 391 391 365 365 365 366 366 366 393 393 393 365 365 365 393 393 393 392 392 392 366 366 366 367 367 367 394 394 394 366 366 366 394 394 394 393 393 393 367 367 367 368 368 368 395 395 395 367 367 367 395 395 395 394 394 394 368 368 368 369 369 369 396 396 396 368 368 368 396 396 396 395 395 395 369 369 369 370 370 370 397 397 397 369 369 369 397 397 397 396 396 396 370 370 370 371 371 371 398 398 398 370 370 370 398 398 398 397 397 397 371 371 371 372 372 372 399 399 399 371 371 371 399 399 399 398 398 398 372 372 372 373 373 373 400 400 400 372 372 372 400 400 400 399 399 399 373 373 373 374 374 374 401 401 401 373 373 373 401 401 401 400 400 400 374 374 374 375 375 375 402 402 402 374 374 374 402 402 402 401 401 401 375 375 375 376 376 376 403 403 403 375 375 375 403 403 403 402 402 402 376 376 376 377 377 377 404 404 404 376 376 376 404 404 404 403 403 403 377 377 377 378 378 378 405 405 405 377 377 377 405 405 405 404 404 404 378 378 378 379 379 379 406 406 406 378 378 378 406 406 406 405 405 405 379 379 379 380 380 380 407 407 407 379 379 379 407 407 407 406 406 406 380 380 380 381 381 381 408 408 408 380 380 380 408 408 408 407 407 407 381 381 381 382 382 382 409 409 409 381 381 381 409 409 409 408 408 408 382 382 382 383 383 383 410 410 410 382 382 382 410 410 410 409 409 409 383 383 383 384 384 384 411 411 411 383 383 383 411 411 411 410 410 410 384 384 384 385 385 385 412 412 412 384 384 384 412 412 412 411 411 411 385 385 385 386 386 386 413 413 413 385 385 385 413 413 413 412 412 412 386 386 386 387 387 387 414 414 414 386 386 386 414 414 414 413 413 413 387 387 387 388 388 388 415 415 415 387 387 387 415 415 415 414 414 414 389 389 389 390 390 390 418 418 418 389 389 389 418 418 418 417 417 417 390 390 390 391 391 391 419 419 419 390 390 390 419 419 419 418 418 418 391 391 391 392 392 392 420 420 420 391 391 391 420 420 420 419 419 419 392 392 392 393 393 393 421 421 421 392 392 392 421 421 421 420 420 420 393 393 393 394 394 394 422 422 422 393 393 393 422 422 422 421 421 421 394 394 394 395 395 395 423 423 423 394 394 394 423 423 423 422 422 422 395 395 395 396 396 396 424 424 424 395 395 395 424 424 424 423 423 423 396 396 396 397 397 397 425 425 425 396 396 396 425 425 425 424 424 424 397 397 397 398 398 398 426 426 426 397 397 397 426 426 426 425 425 425 398 398 398 399 399 399 427 427 427 398 398 398 427 427 427 426 426 426 399 399 399 400 400 400 428 428 428 399 399 399 428 428 428 427 427 427 400 400 400 401 401 401 429 429 429 400 400 400 429 429 429 428 428 428 401 401 401 402 402 402 430 430 430 401 401 401 430 430 430 429 429 429 402 402 402 403 403 403 431 431 431 402 402 402 431 431 431 430 430 430 403 403 403 404 404 404 432 432 432 403 403 403 432 432 432 431 431 431 404 404 404 405 405 405 433 433 433 404 404 404 433 433 433 432 432 432 405 405 405 406 406 406 434 434 434 405 405 405 434 434 434 433 433 433 406 406 406 407 407 407 435 435 435 406 406 406 435 435 435 434 434 434 407 407 407 408 408 408 436 436 436 407 407 407 436 436 436 435 435 435 408 408 408 409 409 409 437 437 437 408 408 408 437 437 437 436 436 436 409 409 409 410 410 410 438 438 438 409 409 409 438 438 438 437 437 437 410 410 410 411 411 411 439 439 439 410 410 410 439 439 439 438 438 438 411 411 411 412 412 412 440 440 440 411 411 411 440 440 440 439 439 439 412 412 412 413 413 413 441 441 441 412 412 412 441 441 441 440 440 440 413 413 413 414 414 414 442 442 442 413 413 413 442 442 442 441 441 441 414 414 414 415 415 415 443 443 443 414 414 414 443 443 443 442 442 442 416 416 416 417 417 417 445 445 445 416 416 416 445 445 445 444 444 444 417 417 417 418 418 418 446 446 446 417 417 417 446 446 446 445 445 445 418 418 418 419 419 419 447 447 447 418 418 418 447 447 447 446 446 446 419 419 419 420 420 420 448 448 448 419 419 419 448 448 448 447 447 447 420 420 420 421 421 421 449 449 449 420 420 420 449 449 449 448 448 448 421 421 421 422 422 422 450 450 450 421 421 421 450 450 450 449 449 449 422 422 422 423 423 423 451 451 451 422 422 422 451 451 451 450 450 450 423 423 423 424 424 424 452 452 452 423 423 423 452 452 452 451 451 451 424 424 424 425 425 425 453 453 453 424 424 424 453 453 453 452 452 452 425 425 425 426 426 426 454 454 454 425 425 425 454 454 454 453 453 453 426 426 426 427 427 427 455 455 455 426 426 426 455 455 455 454 454 454 427 427 427 428 428 428 456 456 456 427 427 427 456 456 456 455 455 455 428 428 428 429 429 429 457 457 457 428 428 428 457 457 457 456 456 456 429 429 429 430 430 430 458 458 458 429 429 429 458 458 458 457 457 457 430 430 430 431 431 431 459 459 459 430 430 430 459 459 459 458 458 458 431 431 431 432 432 432 460 460 460 431 431 431 460 460 460 459 459 459 432 432 432 433 433 433 461 461 461 432 432 432 461 461 461 460 460 460 433 433 433 434 434 434 462 462 462 433 433 433 462 462 462 461 461 461 434 434 434 435 435 435 463 463 463 434 434 434 463 463 463 462 462 462 435 435 435 436 436 436 464 464 464 435 435 435 464 464 464 463 463 463 436 436 436 437 437 437 465 465 465 436 436 436 465 465 465 464 464 464 437 437 437 438 438 438 466 466 466 437 437 437 466 466 466 465 465 465 438 438 438 439 439 439 467 467 467 438 438 438 467 467 467 466 466 466 439 439 439 440 440 440 468 468 468 439 439 439 468 468 468 467 467 467 440 440 440 441 441 441 469 469 469 440 440 440 469 469 469 468 468 468 441 441 441 442 442 442 470 470 470 441 441 441 470 470 470 469 469 469 442 442 442 443 443 443 471 471 471 442 442 442 471 471 471 470 470 470 444 444 444 445 445 445 474 474 474 444 444 444 474 474 474 473 473 473 445 445 445 446 446 446 475 475 475 445 445 445 475 475 475 474 474 474 446 446 446 447 447 447 476 476 476 446 446 446 476 476 476 475 475 475 447 447 447 448 448 448 477 477 477 447 447 447 477 477 477 476 476 476 448 448 448 449 449 449 478 478 478 448 448 448 478 478 478 477 477 477 449 449 449 450 450 450 479 479 479 449 449 449 479 479 479 478 478 478 450 450 450 451 451 451 480 480 480 450 450 450 480 480 480 479 479 479 451 451 451 452 452 452 481 481 481 451 451 451 481 481 481 480 480 480 452 452 452 453 453 453 482 482 482 452 452 452 482 482 482 481 481 481 453 453 453 454 454 454 483 483 483 453 453 453 483 483 483 482 482 482 454 454 454 455 455 455 484 484 484 454 454 454 484 484 484 483 483 483 455 455 455 456 456 456 485 485 485 455 455 455 485 485 485 484 484 484 456 456 456 457 457 457 486 486 486 456 456 456 486 486 486 485 485 485 457 457 457 458 458 458 487 487 487 457 457 457 487 487 487 486 486 486 458 458 458 459 459 459 488 488 488 458 458 458 488 488 488 487 487 487 459 459 459 460 460 460 489 489 489 459 459 459 489 489 489 488 488 488 460 460 460 461 461 461 490 490 490 460 460 460 490 490 490 489 489 489 461 461 461 462 462 462 491 491 491 461 461 461 491 491 491 490 490 490 462 462 462 463 463 463 492 492 492 462 462 462 492 492 492 491 491 491 463 463 463 464 464 464 493 493 493 463 463 463 493 493 493 492 492 492 464 464 464 465 465 465 494 494 494 464 464 464 494 494 494 493 493 493 465 465 465 466 466 466 495 495 495 465 465 465 495 495 495 494 494 494 466 466 466 467 467 467 496 496 496 466 466 466 496 496 496 495 495 495 467 467 467 468 468 468 497 497 497 467 467 467 497 497 497 496 496 496 468 468 468 469 469 469 498 498 498 468 468 468 498 498 498 497 497 497 469 469 469 470 470 470 499 499 499 469 469 469 499 499 499 498 498 498 470 470 470 471 471 471 500 500 500 470 470 470 500 500 500 499 499 499 472 472 472 473 473 473 502 502 502 472 472 472 502 502 502 501 501 501 473 473 473 474 474 474 503 503 503 473 473 473 503 503 503 502 502 502 474 474 474 475 475 475 504 504 504 474 474 474 504 504 504 503 503 503 475 475 475 476 476 476 505 505 505 475 475 475 505 505 505 504 504 504 476 476 476 477 477 477 506 506 506 476 476 476 506 506 506 505 505 505 477 477 477 478 478 478 507 507 507 477 477 477 507 507 507 506 506 506 478 478 478 479 479 479 508 508 508 478 478 478 508 508 508 507 507 507 479 479 479 480 480 480 509 509 509 479 479 479 509 509 509 508 508 508 480 480 480 481 481 481 510 510 510 480 480 480 510 510 510 509 509 509 481 481 481 482 482 482 511 511 511 481 481 481 511 511 511 510 510 510 482 482 482 483 483 483 512 512 512 482 482 482 512 512 512 511 511 511 483 483 483 484 484 484 513 513 513 483 483 483 513 513 513 512 512 512 484 484 484 485 485 485 514 514 514 484 484 484 514 514 514 513 513 513 485 485 485 486 486 486 515 515 515 485 485 485 515 515 515 514 514 514 486 486 486 487 487 487 516 516 516 486 486 486 516 516 516 515 515 515 487 487 487 488 488 488 517 517 517 487 487 487 517 517 517 516 516 516 488 488 488 489 489 489 518 518 518 488 488 488 518 518 518 517 517 517 489 489 489 490 490 490 519 519 519 489 489 489 519 519 519 518 518 518 490 490 490 491 491 491 520 520 520 490 490 490 520 520 520 519 519 519 491 491 491 492 492 492 521 521 521 491 491 491 521 521 521 520 520 520 492 492 492 493 493 493 522 522 522 492 492 492 522 522 522 521 521 521 493 493 493 494 494 494 523 523 523 493 493 493 523 523 523 522 522 522 494 494 494 495 495 495 524 524 524 494 494 494 524 524 524 523 523 523 495 495 495 496 496 496 525 525 525 495 495 495 525 525 525 524 524 524 496 496 496 497 497 497 526 526 526 496 496 496 526 526 526 525 525 525 497 497 497 498 498 498 527 527 527 497 497 497 527 527 527 526 526 526 498 498 498 499 499 499 528 528 528 498 498 498 528 528 528 527 527 527 501 501 501 502 502 502 530 530 530 501 501 501 530 530 530 529 529 529 502 502 502 503 503 503 531 531 531 502 502 502 531 531 531 530 530 530 503 503 503 504 504 504 532 532 532 503 503 503 532 532 532 531 531 531 504 504 504 505 505 505 533 533 533 504 504 504 533 533 533 532 532 532 505 505 505 506 506 506 534 534 534 505 505 505 534 534 534 533 533 533 506 506 506 507 507 507 535 535 535 506 506 506 535 535 535 534 534 534 507 507 507 508 508 508 536 536 536 507 507 507 536 536 536 535 535 535 508 508 508 509 509 509 537 537 537 508 508 508 537 537 537 536 536 536 509 509 509 510 510 510 538 538 538 509 509 509 538 538 538 537 537 537 510 510 510 511 511 511 539 539 539 510 510 510 539 539 539 538 538 538 511 511 511 512 512 512 540 540 540 511 511 511 540 540 540 539 539 539 512 512 512 513 513 513 541 541 541 512 512 512 541 541 541 540 540 540 513 513 513 514 514 514 542 542 542 513 513 513 542 542 542 541 541 541 514 514 514 515 515 515 543 543 543 514 514 514 543 543 543 542 542 542 515 515 515 516 516 516 544 544 544 515 515 515 544 544 544 543 543 543 516 516 516 517 517 517 545 545 545 516 516 516 545 545 545 544 544 544 517 517 517 518 518 518 546 546 546 517 517 517 546 546 546 545 545 545 518 518 518 519 519 519 547 547 547 518 518 518 547 547 547 546 546 546 519 519 519 520 520 520 548 548 548 519 519 519 548 548 548 547 547 547 520 520 520 521 521 521 549 549 549 520 520 520 549 549 549 548 548 548 521 521 521 522 522 522 550 550 550 521 521 521 550 550 550 549 549 549 522 522 522 523 523 523 551 551 551 522 522 522 551 551 551 550 550 550 523 523 523 524 524 524 552 552 552 523 523 523 552 552 552 551 551 551 524 524 524 525 525 525 553 553 553 524 524 524 553 553 553 552 552 552 525 525 525 526 526 526 554 554 554 525 525 525 554 554 554 553 553 553 526 526 526 527 527 527 555 555 555 526 526 526 555 555 555 554 554 554 527 527 527 528 528 528 556 556 556 527 527 527 556 556 556 555 555 555 529 529 529 530 530 530 558 558 558 529 529 529 558 558 558 557 557 557 530 530 530 531 531 531 559 559 559 530 530 530 559 559 559 558 558 558 531 531 531 532 532 532 560 560 560 531 531 531 560 560 560 559 559 559 532 532 532 533 533 533 561 561 561 532 532 532 561 561 561 560 560 560 533 533 533 534 534 534 562 562 562 533 533 533 562 562 562 561 561 561 534 534 534 535 535 535 563 563 563 534 534 534 563 563 563 562 562 562 535 535 535 536 536 536 564 564 564 535 535 535 564 564 564 563 563 563 536 536 536 537 537 537 565 565 565 536 536 536 565 565 565 564 564 564 537 537 537 538 538 538 566 566 566 537 537 537 566 566 566 565 565 565 538 538 538 539 539 539 567 567 567 538 538 538 567 567 567 566 566 566 539 539 539 540 540 540 568 568 568 539 539 539 568 568 568 567 567 567 540 540 540 541 541 541 569 569 569 540 540 540 569 569 569 568 568 568 541 541 541 542 542 542 570 570 570 541 541 541 570 570 570 569 569 569 542 542 542 543 543 543 571 571 571 542 542 542 571 571 571 570 570 570 543 543 543 544 544 544 572 572 572 543 543 543 572 572 572 571 571 571 544 544 544 545 545 545 573 573 573 544 544 544 573 573 573 572 572 572 545 545 545 546 546 546 574 574 574 545 545 545 574 574 574 573 573 573 546 546 546 547 547 547 575 575 575 546 546 546 575 575 575 574 574 574 547 547 547 548 548 548 576 576 576 547 547 547 576 576 576 575 575 575 548 548 548 549 549 549 577 577 577 548 548 548 577 577 577 576 576 576 549 549 549 550 550 550 578 578 578 549 549 549 578 578 578 577 577 577 550 550 550 551 551 551 579 579 579 550 550 550 579 579 579 578 578 578 551 551 551 552 552 552 580 580 580 551 551 551 580 580 580 579 579 579 552 552 552 553 553 553 581 581 581 552 552 552 581 581 581 580 580 580 553 553 553 554 554 554 582 582 582 553 553 553 582 582 582 581 581 581 558 558 558 559 559 559 584 584 584 558 558 558 584 584 584 583 583 583 559 559 559 560 560 560 585 585 585 559 559 559 585 585 585 584 584 584 560 560 560 561 561 561 586 586 586 560 560 560 586 586 586 585 585 585 561 561 561 562 562 562 587 587 587 561 561 561 587 587 587 586 586 586 562 562 562 563 563 563 588 588 588 562 562 562 588 588 588 587 587 587 563 563 563 564 564 564 589 589 589 563 563 563 589 589 589 588 588 588 564 564 564 565 565 565 590 590 590 564 564 564 590 590 590 589 589 589 565 565 565 566 566 566 591 591 591 565 565 565 591 591 591 590 590 590 566 566 566 567 567 567 592 592 592 566 566 566 592 592 592 591 591 591 567 567 567 568 568 568 593 593 593 567 567 567 593 593 593 592 592 592 568 568 568 569 569 569 594 594 594 568 568 568 594 594 594 593 593 593 569 569 569 570 570 570 595 595 595 569 569 569 595 595 595 594 594 594 570 570 570 571 571 571 596 596 596 570 570 570 596 596 596 595 595 595 571 571 571 572 572 572 597 597 597 571 571 571 597 597 597 596 596 596 572 572 572 573 573 573 598 598 598 572 572 572 598 598 598 597 597 597 573 573 573 574 574 574 599 599 599 573 573 573 599 599 599 598 598 598 574 574 574 575 575 575 600 600 600 574 574 574 600 600 600 599 599 599 575 575 575 576 576 576 601 601 601 575 575 575 601 601 601 600 600 600 576 576 576 577 577 577 602 602 602 576 576 576 602 602 602 601 601 601 577 577 577 578 578 578 603 603 603 577 577 577 603 603 603 602 602 602 578 578 578 579 579 579 604 604 604 578 578 578 604 604 604 603 603 603 579 579 579 580 580 580 605 605 605 579 579 579 605 605 605 604 604 604 580 580 580 581 581 581 606 606 606 580 580 580 606 606 606 605 605 605 583 583 583 584 584 584 608 608 608 583 583 583 608 608 608 607 607 607 584 584 584 585 585 585 609 609 609 584 584 584 609 609 609 608 608 608 585 585 585 586 586 586 610 610 610 585 585 585 610 610 610 609 609 609 586 586 586 587 587 587 611 611 611 586 586 586 611 611 611 610 610 610 587 587 587 588 588 588 612 612 612 587 587 587 612 612 612 611 611 611 588 588 588 589 589 589 613 613 613 588 588 588 613 613 613 612 612 612 589 589 589 590 590 590 614 614 614 589 589 589 614 614 614 613 613 613 590 590 590 591 591 591 615 615 615 590 590 590 615 615 615 614 614 614 591 591 591 592 592 592 616 616 616 591 591 591 616 616 616 615 615 615 592 592 592 593 593 593 617 617 617 592 592 592 617 617 617 616 616 616 593 593 593 594 594 594 618 618 618 593 593 593 618 618 618 617 617 617 594 594 594 595 595 595 619 619 619 594 594 594 619 619 619 618 618 618 595 595 595 596 596 596 620 620 620 595 595 595 620 620 620 619 619 619 596 596 596 597 597 597 621 621 621 596 596 596 621 621 621 620 620 620 597 597 597 598 598 598 622 622 622 597 597 597 622 622 622 621 621 621 598 598 598 599 599 599 623 623 623 598 598 598 623 623 623 622 622 622 599 599 599 600 600 600 624 624 624 599 599 599 624 624 624 623 623 623 600 600 600 601 601 601 625 625 625 600 600 600 625 625 625 624 624 624 601 601 601 602 602 602 626 626 626 601 601 601 626 626 626 625 625 625 602 602 602 603 603 603 627 627 627 602 602 602 627 627 627 626 626 626 603 603 603 604 604 604 628 628 628 603 603 603 628 628 628 627 627 627 604 604 604 605 605 605 629 629 629 604 604 604 629 629 629 628 628 628 608 608 608 609 609 609 631 631 631 608 608 608 631 631 631 630 630 630 609 609 609 610 610 610 632 632 632 609 609 609 632 632 632 631 631 631 610 610 610 611 611 611 633 633 633 610 610 610 633 633 633 632 632 632 611 611 611 612 612 612 634 634 634 611 611 611 634 634 634 633 633 633 612 612 612 613 613 613 635 635 635 612 612 612 635 635 635 634 634 634 613 613 613 614 614 614 636 636 636 613 613 613 636 636 636 635 635 635 614 614 614 615 615 615 637 637 637 614 614 614 637 637 637 636 636 636 615 615 615 616 616 616 638 638 638 615 615 615 638 638 638 637 637 637 616 616 616 617 617 617 639 639 639 616 616 616 639 639 639 638 638 638 617 617 617 618 618 618 640 640 640 617 617 617 640 640 640 639 639 639 618 618 618 619 619 619 641 641 641 618 618 618 641 641 641 640 640 640 619 619 619 620 620 620 642 642 642 619 619 619 642 642 642 641 641 641 620 620 620 621 621 621 643 643 643 620 620 620 643 643 643 642 642 642 621 621 621 622 622 622 644 644 644 621 621 621 644 644 644 643 643 643 622 622 622 623 623 623 645 645 645 622 622 622 645 645 645 644 644 644 623 623 623 624 624 624 646 646 646 623 623 623 646 646 646 645 645 645 624 624 624 625 625 625 647 647 647 624 624 624 647 647 647 646 646 646 625 625 625 626 626 626 648 648 648 625 625 625 648 648 648 647 647 647 626 626 626 627 627 627 649 649 649 626 626 626 649 649 649 648 648 648 627 627 627 628 628 628 650 650 650 627 627 627 650 650 650 649 649 649 628 628 628 629 629 629 651 651 651 628 628 628 651 651 651 650 650 650 631 631 631 632 632 632 653 653 653 631 631 631 653 653 653 652 652 652 632 632 632 633 633 633 654 654 654 632 632 632 654 654 654 653 653 653 633 633 633 634 634 634 655 655 655 633 633 633 655 655 655 654 654 654 634 634 634 635 635 635 656 656 656 634 634 634 656 656 656 655 655 655 635 635 635 636 636 636 657 657 657 635 635 635 657 657 657 656 656 656 636 636 636 637 637 637 658 658 658 636 636 636 658 658 658 657 657 657 637 637 637 638 638 638 659 659 659 637 637 637 659 659 659 658 658 658 638 638 638 639 639 639 660 660 660 638 638 638 660 660 660 659 659 659 639 639 639 640 640 640 661 661 661 639 639 639 661 661 661 660 660 660 640 640 640 641 641 641 662 662 662 640 640 640 662 662 662 661 661 661 641 641 641 642 642 642 663 663 663 641 641 641 663 663 663 662 662 662 642 642 642 643 643 643 664 664 664 642 642 642 664 664 664 663 663 663 643 643 643 644 644 644 665 665 665 643 643 643 665 665 665 664 664 664 644 644 644 645 645 645 666 666 666 644 644 644 666 666 666 665 665 665 645 645 645 646 646 646 667 667 667 645 645 645 667 667 667 666 666 666 646 646 646 647 647 647 668 668 668 646 646 646 668 668 668 667 667 667 647 647 647 648 648 648 669 669 669 647 647 647 669 669 669 668 668 668 648 648 648 649 649 649 670 670 670 648 648 648 670 670 670 669 669 669 649 649 649 650 650 650 671 671 671 649 649 649 671 671 671 670 670 670 653 653 653 654 654 654 673 673 673 653 653 653 673 673 673 672 672 672 654 654 654 655 655 655 674 674 674 654 654 654 674 674 674 673 673 673 655 655 655 656 656 656 675 675 675 655 655 655 675 675 675 674 674 674 656 656 656 657 657 657 676 676 676 656 656 656 676 676 676 675 675 675 657 657 657 658 658 658 677 677 677 657 657 657 677 677 677 676 676 676 658 658 658 659 659 659 678 678 678 658 658 658 678 678 678 677 677 677 659 659 659 660 660 660 679 679 679 659 659 659 679 679 679 678 678 678 660 660 660 661 661 661 680 680 680 660 660 660 680 680 680 679 679 679 661 661 661 662 662 662 681 681 681 661 661 661 681 681 681 680 680 680 662 662 662 663 663 663 682 682 682 662 662 662 682 682 682 681 681 681 663 663 663 664 664 664 683 683 683 663 663 663 683 683 683 682 682 682 664 664 664 665 665 665 684 684 684 664 664 664 684 684 684 683 683 683 665 665 665 666 666 666 685 685 685 665 665 665 685 685 685 684 684 684 666 666 666 667 667 667 686 686 686 666 666 666 686 686 686 685 685 685 667 667 667 668 668 668 687 687 687 667 667 667 687 687 687 686 686 686 668 668 668 669 669 669 688 688 688 668 668 668 688 688 688 687 687 687 669 669 669 670 670 670 689 689 689 669 669 669 689 689 689 688 688 688 673 673 673 674 674 674 691 691 691 673 673 673 691 691 691 690 690 690 674 674 674 675 675 675 692 692 692 674 674 674 692 692 692 691 691 691 675 675 675 676 676 676 693 693 693 675 675 675 693 693 693 692 692 692 676 676 676 677 677 677 694 694 694 676 676 676 694 694 694 693 693 693 677 677 677 678 678 678 695 695 695 677 677 677 695 695 695 694 694 694 678 678 678 679 679 679 696 696 696 678 678 678 696 696 696 695 695 695 679 679 679 680 680 680 697 697 697 679 679 679 697 697 697 696 696 696 680 680 680 681 681 681 698 698 698 680 680 680 698 698 698 697 697 697 681 681 681 682 682 682 699 699 699 681 681 681 699 699 699 698 698 698 682 682 682 683 683 683 700 700 700 682 682 682 700 700 700 699 699 699 683 683 683 684 684 684 701 701 701 683 683 683 701 701 701 700 700 700 684 684 684 685 685 685 702 702 702 684 684 684 702 702 702 701 701 701 685 685 685 686 686 686 703 703 703 685 685 685 703 703 703 702 702 702 686 686 686 687 687 687 704 704 704 686 686 686 704 704 704 703 703 703 687 687 687 688 688 688 705 705 705 687 687 687 705 705 705 704 704 704 688 688 688 689 689 689 706 706 706 688 688 688 706 706 706 705 705 705 691 691 691 692 692 692 708 708 708 691 691 691 708 708 708 707 707 707 692 692 692 693 693 693 709 709 709 692 692 692 709 709 709 708 708 708 693 693 693 694 694 694 710 710 710 693 693 693 710 710 710 709 709 709 694 694 694 695 695 695 711 711 711 694 694 694 711 711 711 710 710 710 695 695 695 696 696 696 712 712 712 695 695 695 712 712 712 711 711 711 696 696 696 697 697 697 713 713 713 696 696 696 713 713 713 712 712 712 697 697 697 698 698 698 714 714 714 697 697 697 714 714 714 713 713 713 698 698 698 699 699 699 715 715 715 698 698 698 715 715 715 714 714 714 699 699 699 700 700 700 716 716 716 699 699 699 716 716 716 715 715 715 700 700 700 701 701 701 717 717 717 700 700 700 717 717 717 716 716 716 701 701 701 702 702 702 718 718 718 701 701 701 718 718 718 717 717 717 702 702 702 703 703 703 719 719 719 702 702 702 719 719 719 718 718 718 703 703 703 704 704 704 720 720 720 703 703 703 720 720 720 719 719 719 704 704 704 705 705 705 721 721 721 704 704 704 721 721 721 720 720 720 708 708 708 709 709 709 723 723 723 708 708 708 723 723 723 722 722 722 709 709 709 710 710 710 724 724 724 709 709 709 724 724 724 723 723 723 710 710 710 711 711 711 725 725 725 710 710 710 725 725 725 724 724 724 711 711 711 712 712 712 726 726 726 711 711 711 726 726 726 725 725 725 712 712 712 713 713 713 727 727 727 712 712 712 727 727 727 726 726 726 713 713 713 714 714 714 728 728 728 713 713 713 728 728 728 727 727 727 714 714 714 715 715 715 729 729 729 714 714 714 729 729 729 728 728 728 715 715 715 716 716 716 730 730 730 715 715 715 730 730 730 729 729 729 716 716 716 717 717 717 731 731 731 716 716 716 731 731 731 730 730 730 717 717 717 718 718 718 732 732 732 717 717 717 732 732 732 731 731 731 718 718 718 719 719 719 733 733 733 718 718 718 733 733 733 732 732 732 719 719 719 720 720 720 734 734 734 719 719 719 734 734 734 733 733 733 720 720 720 721 721 721 735 735 735 720 720 720 735 735 735 734 734 734 724 724 724 725 725 725 737 737 737 724 724 724 737 737 737 736 736 736 725 725 725 726 726 726 738 738 738 725 725 725 738 738 738 737 737 737 726 726 726 727 727 727 739 739 739 726 726 726 739 739 739 738 738 738 727 727 727 728 728 728 740 740 740 727 727 727 740 740 740 739 739 739 728 728 728 729 729 729 741 741 741 728 728 728 741 741 741 740 740 740 729 729 729 730 730 730 742 742 742 729 729 729 742 742 742 741 741 741 730 730 730 731 731 731 743 743 743 730 730 730 743 743 743 742 742 742 731 731 731 732 732 732 744 744 744 731 731 731 744 744 744 743 743 743 732 732 732 733 733 733 745 745 745 732 732 732 745 745 745 744 744 744 733 733 733 734 734 734 746 746 746 733 733 733 746 746 746 745 745 745 737 737 737 738 738 738 748 748 748 737 737 737 748 748 748 747 747 747 738 738 738 739 739 739 749 749 749 738 738 738 749 749 749 748 748 748 739 739 739 740 740 740 750 750 750 739 739 739 750 750 750 749 749 749 740 740 740 741 741 741 751 751 751 740 740 740 751 751 751 750 750 750 741 741 741 742 742 742 752 752 752 741 741 741 752 752 752 751 751 751 742 742 742 743 743 743 753 753 753 742 742 742 753 753 753 752 752 752 743 743 743 744 744 744 754 754 754 743 743 743 754 754 754 753 753 753 744 744 744 745 745 745 755 755 755 744 744 744 755 755 755 754 754 754 748 748 748 749 749 749 757 757 757 748 748 748 757 757 757 756 756 756 749 749 749 750 750 750 758 758 758 749 749 749 758 758 758 757 757 757 750 750 750 751 751 751 759 759 759 750 750 750 759 759 759 758 758 758 751 751 751 752 752 752 760 760 760 751 751 751 760 760 760 759 759 759 752 752 752 753 753 753 761 761 761 752 752 752 761 761 761 760 760 760 753 753 753 754 754 754 762 762 762 753 753 753 762 762 762 761 761 761</p>
    </triangles>
  </mesh></geometry></library_geometries>
  <library_visual_scenes><visual_scene id="s"><node id="q"><instance_geometry url="#g"><bind_material><technique_common>
    <instance_material symbol="m" target="#mat"><bind_vertex_input semantic="UV" input_semantic="TEXCOORD" input_set="0"/></instance_material>
  </technique_common></bind_material></instance_geometry></node></visual_scene></library_visual_scenes>
  <scene><instance_visual_scene url="#s"/></scene>
</COLLADA>
