<?xml version="1.0" encoding="utf-8"?>
<COLLADA xmlns="http://www.collada.org/2005/11/COLLADASchema" version="1.4.1">
  <asset><unit name="meter" meter="1"/><up_axis>Z_UP</up_axis></asset>
  <library_images><image id="img"><init_from>../materials/textures/rubble.jpg</init_from></image></library_images>
  <library_effects><effect id="fx"><profile_COMMON>
    <newparam sid="surf"><surface type="2D"><init_from>img</init_from></surface></newparam>
    <newparam sid="samp"><sampler2D><source>surf</source></sampler2D></newparam>
    <technique sid="common"><lambert><diffuse><texture texture="samp" texcoord="UV"/></diffuse></lambert></technique>
  </profile_COMMON></effect></library_effects>
  <library_materials><material id="mat"><instance_effect url="#fx"/></material></library_materials>
  <library_geometries><geometry id="g"><mesh>
    <source id="p"><float_array id="p-a" count="2295">-0.3500 -0.9100 -0.0200 -0.2800 -0.9100 -0.0200 -0.2100 -0.9100 -0.0200 -0.1400 -0.9100 -0.0200 0.3500 -0.9100 -0.0200 0.4200 -0.9100 -0.0200 0.4900 -0.9100 -0.0200 0.5600 -0.9100 -0.0200 0.6300 -0.9100 -0.0200 0.7000 -0.9100 -0.0200 0.7700 -0.9100 -0.0200 0.8400 -0.9100 -0.0200 -0.4200 -0.8400 -0.0200 -0.3500 -0.8400 -0.0200 -0.2800 -0.8400 0.0335 -0.2100 -0.8400 0.0343 -0.1400 -0.8400 0.0121 -0.0700 -0.8400 -0.0200 0.0000 -0.8400 -0.0200 0.0700 -0.8400 -0.0200 0.1400 -0.8400 -0.0200 0.2100 -0.8400 -0.0200 0.2800 -0.8400 -0.0200 0.3500 -0.8400 0.0278 0.4200 -0.8400 0.0465 0.4900 -0.8400 0.0533 0.5600 -0.8400 0.0511 0.6300 -0.8400 0.0472 0.7000 -0.8400 0.0376 0.7700 -0.8400 0.0117 0.8400 -0.8400 -0.0200 0.9100 -0.8400 -0.0200 -0.4900 -0.7700 -0.0200 -0.4200 -0.7700 0.0153 -0.3500 -0.7700 0.0440 -0.2800 -0.7700 0.0637 -0.2100 -0.7700 0.0644 -0.1400 -0.7700 0.0515 -0.0700 -0.7700 0.0360 0.0000 -0.7700 0.0177 0.0700 -0.7700 0.0050 0.1400 -0.7700 0.0069 0.2100 -0.7700 0.0281 0.2800 -0.7700 0.0556 0.3500 -0.7700 0.0799 0.4200 -0.7700 0.0952 0.4900 -0.7700 0.0989 0.5600 -0.7700 0.0931 0.6300 -0.7700 0.0874 0.7000 -0.7700 0.0751 0.7700 -0.7700 0.0445 0.8400 -0.7700 0.0050 0.9100 -0.7700 -0.0200 -0.5600 -0.7000 -0.0200 -0.4900 -0.7000 0.0228 -0.4200 -0.7000 0.0546 -0.3500 -0.7000 0.0775 -0.2800 -0.7000 0.0918 -0.2100 -0.7000 0.0930 -0.1400 -0.7000 0.0860 -0.0700 -0.7000 0.0770 0.0000 -0.7000 0.0665 0.0700 -0.7000 0.0592 0.1400 -0.7000 0.0639 0.2100 -0.7000 0.0811 0.2800 -0.7000 0.1033 0.3500 -0.7000 0.1220 0.4200 -0.7000 0.1334 0.4900 -0.7000 0.1352 0.5600 -0.7000 0.1270 0.6300 -0.7000 0.1159 0.7000 -0.7000 0.0988 0.7700 -0.7000 0.0678 0.8400 -0.7000 0.0276 0.9100 -0.7000 -0.0200 0.9800 -0.7000 -0.0200 -0.6300 -0.6300 -0.0200 -0.5600 -0.6300 0.0112 -0.4900 -0.6300 0.0592 -0.4200 -0.6300 0.0906 -0.3500 -0.6300 0.1137 -0.2800 -0.6300 0.1285 -0.2100 -0.6300 0.1326 -0.1400 -0.6300 0.1266 -0.0700 -0.6300 0.1159 0.0000 -0.6300 0.1062 0.0700 -0.6300 0.1023 0.1400 -0.6300 0.1093 0.2100 -0.6300 0.1271 0.2800 -0.6300 0.1460 0.3500 -0.6300 0.1563 0.4200 -0.6300 0.1593 0.4900 -0.6300 0.1586 0.5600 -0.6300 0.1505 0.6300 -0.6300 0.1360 0.7000 -0.6300 0.1166 0.7700 -0.6300 0.0888 0.8400 -0.6300 0.0522 0.9100 -0.6300 0.0098 0.9800 -0.6300 -0.0200 -0.7700 -0.5600 -0.0200 -0.7000 -0.5600 -0.0200 -0.6300 -0.5600 0.0101 -0.5600 -0.5600 0.0491 -0.4900 -0.5600 0.0889 -0.4200 -0.5600 0.1201 -0.3500 -0.5600 0.1452 -0.2800 -0.5600 0.1655 -0.2100 -0.5600 0.1753 -0.1400 -0.5600 0.1694 -0.0700 -0.5600 0.1544 0.0000 -0.5600 0.1422 0.0700 -0.5600 0.1396 0.1400 -0.5600 0.1488 0.2100 -0.5600 0.1647 0.2800 -0.5600 0.1769 0.3500 -0.5600 0.1789 0.4200 -0.5600 0.1770 0.4900 -0.5600 0.1775 0.5600 -0.5600 0.1723 0.6300 -0.5600 0.1566 0.7000 -0.5600 0.1345 0.7700 -0.5600 0.1063 0.8400 -0.5600 0.0715 0.9100 -0.5600 0.0353 0.9800 -0.5600 -0.0200 1.0500 -0.5600 -0.0200 -0.9100 -0.4900 -0.0200 -0.8400 -0.4900 -0.0200 -0.7700 -0.4900 0.0259 -0.7000 -0.4900 0.0465 -0.6300 -0.4900 0.0622 -0.5600 -0.4900 0.0871 -0.4900 -0.4900 0.1168 -0.4200 -0.4900 0.1421 -0.3500 -0.4900 0.1674 -0.2800 -0.4900 0.1943 -0.2100 -0.4900 0.2124 -0.1400 -0.4900 0.2103 -0.0700 -0.4900 0.1934 0.0000 -0.4900 0.1782 0.0700 -0.4900 0.1757 0.1400 -0.4900 0.1850 0.2100 -0.4900 0.1942 0.2800 -0.4900 0.1963 0.3500 -0.4900 0.1935 0.4200 -0.4900 0.1922 0.4900 -0.4900 0.1947 0.5600 -0.4900 0.1916 0.6300 -0.4900 0.1744 0.7000 -0.4900 0.1469 0.7700 -0.4900 0.1143 0.8400 -0.4900 0.0814 0.9100 -0.4900 0.0530 0.9800 -0.4900 0.0188 1.0500 -0.4900 -0.0200 -1.0500 -0.4200 -0.0200 -0.9800 -0.4200 -0.0200 -0.9100 -0.4200 0.0177 -0.8400 -0.4200 0.0464 -0.7700 -0.4200 0.0739 -0.7000 -0.4200 0.0939 -0.6300 -0.4200 0.1073 -0.5600 -0.4200 0.1232 -0.4900 -0.4200 0.1405 -0.4200 -0.4200 0.1573 -0.3500 -0.4200 0.1822 -0.2800 -0.4200 0.2159 -0.2100 -0.4200 0.2414 -0.1400 -0.4200 0.2423 -0.0700 -0.4200 0.2249 0.0000 -0.4200 0.2098 0.0700 -0.4200 0.2105 0.1400 -0.4200 0.2217 0.2100 -0.4200 0.2247 0.2800 -0.4200 0.2178 0.3500 -0.4200 0.2107 0.4200 -0.4200 0.2063 0.4900 -0.4200 0.2029 0.5600 -0.4200 0.1956 0.6300 -0.4200 0.1773 0.7000 -0.4200 0.1476 0.7700 -0.4200 0.1135 0.8400 -0.4200 0.0838 0.9100 -0.4200 0.0609 0.9800 -0.4200 0.0336 1.0500 -0.4200 -0.0200 -1.1900 -0.3500 -0.0200 -1.1200 -0.3500 -0.0200 -1.0500 -0.3500 0.0050 -0.9800 -0.3500 0.0319 -0.9100 -0.3500 0.0598 -0.8400 -0.3500 0.0842 -0.7700 -0.3500 0.1079 -0.7000 -0.3500 0.1283 -0.6300 -0.3500 0.1414 -0.5600 -0.3500 0.1510 -0.4900 -0.3500 0.1603 -0.4200 -0.3500 0.1731 -0.3500 -0.3500 0.1986 -0.2800 -0.3500 0.2350 -0.2100 -0.3500 0.2618 -0.1400 -0.3500 0.2626 -0.0700 -0.3500 0.2464 0.0000 -0.3500 0.2358 0.0700 -0.3500 0.2456 0.1400 -0.3500 0.2636 0.2100 -0.3500 0.2648 0.2800 -0.3500 0.2506 0.3500 -0.3500 0.2345 0.4200 -0.3500 0.2202 0.4900 -0.3500 0.2049 0.5600 -0.3500 0.1894 0.6300 -0.3500 0.1718 0.7000 -0.3500 0.1462 0.7700 -0.3500 0.1135 0.8400 -0.3500 0.0833 0.9100 -0.3500 0.0600 0.9800 -0.3500 0.0361 1.0500 -0.3500 -0.0200 1.1200 -0.3500 -0.0200 -1.1900 -0.2800 -0.0200 -1.1200 -0.2800 0.0050 -1.0500 -0.2800 0.0344 -0.9800 -0.2800 0.0640 -0.9100 -0.2800 0.0900 -0.8400 -0.2800 0.1105 -0.7700 -0.2800 0.1324 -0.7000 -0.2800 0.1548 -0.6300 -0.2800 0.1701 -0.5600 -0.2800 0.1785 -0.4900 -0.2800 0.1865 -0.4200 -0.2800 0.2006 -0.3500 -0.2800 0.2249 -0.2800 -0.2800 0.2551 -0.2100 -0.2800 0.2776 -0.1400 -0.2800 0.2806 -0.0700 -0.2800 0.2693 0.0000 -0.2800 0.2630 0.0700 -0.2800 0.2803 0.1400 -0.2800 0.3043 0.2100 -0.2800 0.3050 0.2800 -0.2800 0.2841 0.3500 -0.2800 0.2558 0.4200 -0.2800 0.2315 0.4900 -0.2800 0.2102 0.5600 -0.2800 0.1914 0.6300 -0.2800 0.1751 0.7000 -0.2800 0.1534 0.7700 -0.2800 0.1210 0.8400 -0.2800 0.0866 0.9100 -0.2800 0.0607 0.9800 -0.2800 0.0400 1.0500 -0.2800 0.0132 1.1200 -0.2800 -0.0200 -1.2600 -0.2100 -0.0200 -1.1900 -0.2100 -0.0200 -1.1200 -0.2100 0.0260 -1.0500 -0.2100 0.0579 -0.9800 -0.2100 0.0842 -0.9100 -0.2100 0.1064 -0.8400 -0.2100 0.1270 -0.7700 -0.2100 0.1509 -0.7000 -0.2100 0.1764 -0.6300 -0.2100 0.1967 -0.5600 -0.2100 0.2096 -0.4900 -0.2100 0.2201 -0.4200 -0.2100 0.2356 -0.3500 -0.2100 0.2573 -0.2800 -0.2100 0.2798 -0.2100 -0.2100 0.2966 -0.1400 -0.2100 0.3040 -0.0700 -0.2100 0.3019 0.0000 -0.2100 0.2962 0.0700 -0.2100 0.3135 0.1400 -0.2100 0.3342 0.2100 -0.2100 0.3321 0.2800 -0.2100 0.3077 0.3500 -0.2100 0.2705 0.4200 -0.2100 0.2395 0.4900 -0.2100 0.2187 0.5600 -0.2100 0.2016 0.6300 -0.2100 0.1848 0.7000 -0.2100 0.1634 0.7700 -0.2100 0.1332 0.8400 -0.2100 0.1000 0.9100 -0.2100 0.0750 0.9800 -0.2100 0.0554 1.0500 -0.2100 0.0298 1.1200 -0.2100 -0.0200 1.1900 -0.2100 -0.0200 -1.2600 -0.1400 -0.0200 -1.1900 -0.1400 0.0050 -1.1200 -0.1400 0.0394 -1.0500 -0.1400 0.0720 -0.9800 -0.1400 0.0949 -0.9100 -0.1400 0.1153 -0.8400 -0.1400 0.1386 -0.7700 -0.1400 0.1655 -0.7000 -0.1400 0.1932 -0.6300 -0.1400 0.2171 -0.5600 -0.1400 0.2349 -0.4900 -0.1400 0.2485 -0.4200 -0.1400 0.2641 -0.3500 -0.1400 0.2847 -0.2800 -0.1400 0.3072 -0.2100 -0.1400 0.3224 -0.1400 -0.1400 0.3258 -0.0700 -0.1400 0.3312 0.0000 -0.1400 0.3285 0.0700 -0.1400 0.3436 0.1400 -0.1400 0.3512 0.2100 -0.1400 0.3422 0.2800 -0.1400 0.3185 0.3500 -0.1400 0.2813 0.4200 -0.1400 0.2487 0.4900 -0.1400 0.2288 0.5600 -0.1400 0.2132 0.6300 -0.1400 0.1948 0.7000 -0.1400 0.1712 0.7700 -0.1400 0.1438 0.8400 -0.1400 0.1188 0.9100 -0.1400 0.1006 0.9800 -0.1400 0.0800 1.0500 -0.1400 0.0487 1.1200 -0.1400 0.0128 1.1900 -0.1400 -0.0200 -1.2600 -0.0700 -0.0200 -1.1900 -0.0700 0.0050 -1.1200 -0.0700 0.0408 -1.0500 -0.0700 0.0744 -0.9800 -0.0700 0.0983 -0.9100 -0.0700 0.1191 -0.8400 -0.0700 0.1448 -0.7700 -0.0700 0.1747 -0.7000 -0.0700 0.2024 -0.6300 -0.0700 0.2251 -0.5600 -0.0700 0.2434 -0.4900 -0.0700 0.2597 -0.4200 -0.0700 0.2774 -0.3500 -0.0700 0.2992 -0.2800 -0.0700 0.3243 -0.2100 -0.0700 0.3435 -0.1400 -0.0700 0.3478 -0.0700 -0.0700 0.3459 0.0000 -0.0700 0.3514 0.0700 -0.0700 0.3602 0.1400 -0.0700 0.3528 0.2100 -0.0700 0.3416 0.2800 -0.0700 0.3232 0.3500 -0.0700 0.2947 0.4200 -0.0700 0.2670 0.4900 -0.0700 0.2458 0.5600 -0.0700 0.2259 0.6300 -0.0700 0.2024 0.7000 -0.0700 0.1748 0.7700 -0.0700 0.1483 0.8400 -0.0700 0.1323 0.9100 -0.0700 0.1236 0.9800 -0.0700 0.1036 1.0500 -0.0700 0.0670 1.1200 -0.0700 0.0285 1.1900 -0.0700 -0.0200 1.2600 -0.0700 -0.0200 -1.2600 0.0000 -0.0200 -1.1900 0.0000 0.0050 -1.1200 0.0000 0.0339 -1.0500 0.0000 0.0687 -0.9800 0.0000 0.0956 -0.9100 0.0000 0.1166 -0.8400 0.0000 0.1432 -0.7700 0.0000 0.1767 -0.7000 0.0000 0.2050 -0.6300 0.0000 0.2228 -0.5600 0.0000 0.2357 -0.4900 0.0000 0.2517 -0.4200 0.0000 0.2727 -0.3500 0.0000 0.2965 -0.2800 0.0000 0.3216 -0.2100 0.0000 0.3434 -0.1400 0.0000 0.3563 -0.0700 0.0000 0.3631 0.0000 0.0000 0.3747 0.0700 0.0000 0.3599 0.1400 0.0000 0.3503 0.2100 0.0000 0.3399 0.2800 0.0000 0.3270 0.3500 0.0000 0.3093 0.4200 0.0000 0.2879 0.4900 0.0000 0.2636 0.5600 0.0000 0.2357 0.6300 0.0000 0.2060 0.7000 0.0000 0.1773 0.7700 0.0000 0.1528 0.8400 0.0000 0.1406 0.9100 0.0000 0.1348 0.9800 0.0000 0.1152 1.0500 0.0000 0.0790 1.1200 0.0000 0.0412 1.1900 0.0000 0.0050 1.2600 0.0000 -0.0200 -1.2600 0.0700 -0.0200 -1.1900 0.0700 -0.0200 -1.1200 0.0700 0.0256 -1.0500 0.0700 0.0620 -0.9800 0.0700 0.0915 -0.9100 0.0700 0.1124 -0.8400 0.0700 0.1356 -0.7700 0.0700 0.1677 -0.7000 0.0700 0.1977 -0.6300 0.0700 0.2149 -0.5600 0.0700 0.2230 -0.4900 0.0700 0.2355 -0.4200 0.0700 0.2583 -0.3500 0.0700 0.2854 -0.2800 0.0700 0.3108 -0.2100 0.0700 0.3333 -0.1400 0.0700 0.3522 -0.0700 0.0700 0.3645 0.0000 0.0700 0.3562 0.0700 0.0700 0.3436 0.1400 0.0700 0.3333 0.2100 0.0700 0.3246 0.2800 0.0700 0.3177 0.3500 0.0700 0.3085 0.4200 0.0700 0.2923 0.4900 0.0700 0.2702 0.5600 0.0700 0.2429 0.6300 0.0700 0.2137 0.7000 0.0700 0.1870 0.7700 0.0700 0.1641 0.8400 0.0700 0.1480 0.9100 0.0700 0.1341 0.9800 0.0700 0.1113 1.0500 0.0700 0.0786 1.1200 0.0700 0.0439 1.1900 0.0700 0.0083 1.2600 0.0700 -0.0200 -1.1900 0.1400 -0.0200 -1.1200 0.1400 0.0162 -1.0500 0.1400 0.0556 -0.9800 0.1400 0.0873 -0.9100 0.1400 0.1091 -0.8400 0.1400 0.1260 -0.7700 0.1400 0.1484 -0.7000 0.1400 0.1767 -0.6300 0.1400 0.1995 -0.5600 0.1400 0.2109 -0.4900 0.1400 0.2235 -0.4200 0.1400 0.2485 -0.3500 0.1400 0.2795 -0.2800 0.1400 0.3071 -0.2100 0.1400 0.3309 -0.1400 0.1400 0.3502 -0.0700 0.1400 0.3535 0.0000 0.1400 0.3437 0.0700 0.1400 0.3383 0.1400 0.1400 0.3111 0.2100 0.1400 0.2933 0.2800 0.1400 0.2875 0.3500 0.1400 0.2828 0.4200 0.1400 0.2730 0.4900 0.1400 0.2611 0.5600 0.1400 0.2455 0.6300 0.1400 0.2233 0.7000 0.1400 0.1985 0.7700 0.1400 0.1752 0.8400 0.1400 0.1537 0.9100 0.1400 0.1295 0.9800 0.1400 0.1007 1.0500 0.1400 0.0690 1.1200 0.1400 0.0356 1.1900 0.1400 0.0050 1.2600 0.1400 -0.0200 -1.1900 0.2100 -0.0200 -1.1200 0.2100 -0.0200 -1.0500 0.2100 0.0458 -0.9800 0.2100 0.0781 -0.9100 0.2100 0.1003 -0.8400 0.2100 0.1133 -0.7700 0.2100 0.1274 -0.7000 0.2100 0.1519 -0.6300 0.2100 0.1807 -0.5600 0.2100 0.2020 -0.4900 0.2100 0.2218 -0.4200 0.2100 0.2500 -0.3500 0.2100 0.2795 -0.2800 0.2100 0.3029 -0.2100 0.2100 0.3215 -0.1400 0.2100 0.3316 -0.0700 0.2100 0.3253 0.0000 0.2100 0.3217 0.0700 0.2100 0.3244 0.1400 0.2100 0.2989 0.2100 0.2100 0.2655 0.2800 0.2100 0.2489 0.3500 0.2100 0.2425 0.4200 0.2100 0.2362 0.4900 0.2100 0.2320 0.5600 0.2100 0.2276 0.6300 0.2100 0.2147 0.7000 0.2100 0.1943 0.7700 0.2100 0.1733 0.8400 0.2100 0.1510 0.9100 0.2100 0.1209 0.9800 0.2100 0.0855 1.0500 0.2100 0.0506 1.1200 0.2100 0.0166 1.1900 0.2100 -0.0200 1.2600 0.2100 -0.0200 -1.1200 0.2800 -0.0200 -1.0500 0.2800 0.0276 -0.9800 0.2800 0.0615 -0.9100 0.2800 0.0848 -0.8400 0.2800 0.0986 -0.7700 0.2800 0.1121 -0.7000 0.2800 0.1355 -0.6300 0.2800 0.1675 -0.5600 0.2800 0.1975 -0.4900 0.2800 0.2249 -0.4200 0.2800 0.2529 -0.3500 0.2800 0.2752 -0.2800 0.2800 0.2887 -0.2100 0.2800 0.2971 -0.1400 0.2800 0.2972 -0.0700 0.2800 0.2877 0.0000 0.2800 0.2903 0.0700 0.2800 0.3000 0.1400 0.2800 0.2852 0.2100 0.2800 0.2519 0.2800 0.2800 0.2257 0.3500 0.2800 0.2116 0.4200 0.2800 0.1992 0.4900 0.2800 0.1897 0.5600 0.2800 0.1869 0.6300 0.2800 0.1819 0.7000 0.2800 0.1694 0.7700 0.2800 0.1543 0.8400 0.2800 0.1338 0.9100 0.2800 0.1003 0.9800 0.2800 0.0596 1.0500 0.2800 0.0219 1.1200 0.2800 0.0050 1.1900 0.2800 -0.0200 -1.1200 0.3500 -0.0200 -1.0500 0.3500 -0.0200 -0.9800 0.3500 0.0422 -0.9100 0.3500 0.0703 -0.8400 0.3500 0.0876 -0.7700 0.3500 0.1047 -0.7000 0.3500 0.1304 -0.6300 0.3500 0.1636 -0.5600 0.3500 0.1958 -0.4900 0.3500 0.2224 -0.4200 0.3500 0.2440 -0.3500 0.3500 0.2589 -0.2800 0.3500 0.2648 -0.2100 0.3500 0.2641 -0.1400 0.3500 0.2575 -0.0700 0.3500 0.2498 0.0000 0.3500 0.2566 0.0700 0.3500 0.2695 0.1400 0.3500 0.2647 0.2100 0.3500 0.2417 0.2800 0.3500 0.2172 0.3500 0.3500 0.1981 0.4200 0.3500 0.1757 0.4900 0.3500 0.1537 0.5600 0.3500 0.1438 0.6300 0.3500 0.1385 0.7000 0.3500 0.1294 0.7700 0.3500 0.1194 0.8400 0.3500 0.1024 0.9100 0.3500 0.0702 0.9800 0.3500 0.0298 1.0500 0.3500 0.0050 1.1200 0.3500 -0.0200 1.1900 0.3500 -0.0200 -1.0500 0.4200 -0.0200 -0.9800 0.4200 0.0265 -0.9100 0.4200 0.0610 -0.8400 0.4200 0.0825 -0.7700 0.4200 0.1029 -0.7000 0.4200 0.1294 -0.6300 0.4200 0.1609 -0.5600 0.4200 0.1908 -0.4900 0.4200 0.2111 -0.4200 0.4200 0.2238 -0.3500 0.4200 0.2325 -0.2800 0.4200 0.2353 -0.2100 0.4200 0.2309 -0.1400 0.4200 0.2212 -0.0700 0.4200 0.2149 0.0000 0.4200 0.2232 0.0700 0.4200 0.2357 0.1400 0.4200 0.2364 0.2100 0.4200 0.2237 0.2800 0.4200 0.2045 0.3500 0.4200 0.1834 0.4200 0.4200 0.1552 0.4900 0.4200 0.1252 0.5600 0.4200 0.1071 0.6300 0.4200 0.0950 0.7000 0.4200 0.0817 0.7700 0.4200 0.0713 0.8400 0.4200 0.0564 0.9100 0.4200 0.0283 0.9800 0.4200 -0.0200 1.0500 0.4200 -0.0200 -1.0500 0.4900 -0.0200 -0.9800 0.4900 0.0145 -0.9100 0.4900 0.0569 -0.8400 0.4900 0.0824 -0.7700 0.4900 0.1016 -0.7000 0.4900 0.1232 -0.6300 0.4900 0.1499 -0.5600 0.4900 0.1755 -0.4900 0.4900 0.1894 -0.4200 0.4900 0.1953 -0.3500 0.4900 0.2007 -0.2800 0.4900 0.2044 -0.2100 0.4900 0.2011 -0.1400 0.4900 0.1890 -0.0700 0.4900 0.1805 0.0000 0.4900 0.1883 0.0700 0.4900 0.2012 0.1400 0.4900 0.2062 0.2100 0.4900 0.1998 0.2800 0.4900 0.1818 0.3500 0.4900 0.1564 0.4200 0.4900 0.1247 0.4900 0.4900 0.0929 0.5600 0.4900 0.0711 0.6300 0.4900 0.0540 0.7000 0.4900 0.0359 0.7700 0.4900 0.0192 0.8400 0.4900 -0.0200 0.9100 0.4900 -0.0200 -1.0500 0.5600 -0.0200 -0.9800 0.5600 -0.0200 -0.9100 0.5600 0.0515 -0.8400 0.5600 0.0784 -0.7700 0.5600 0.0925 -0.7000 0.5600 0.1077 -0.6300 0.5600 0.1303 -0.5600 0.5600 0.1523 -0.4900 0.5600 0.1629 -0.4200 0.5600 0.1672 -0.3500 0.5600 0.1710 -0.2800 0.5600 0.1731 -0.2100 0.5600 0.1695 -0.1400 0.5600 0.1560 -0.0700 0.5600 0.1462 0.0000 0.5600 0.1530 0.0700 0.5600 0.1653 0.1400 0.5600 0.1716 0.2100 0.5600 0.1678 0.2800 0.5600 0.1505 0.3500 0.5600 0.1225 0.4200 0.5600 0.0893 0.4900 0.5600 0.0583 0.5600 0.5600 0.0342 0.6300 0.5600 0.0099 0.7000 0.5600 -0.0200 0.7700 0.5600 -0.0200 -0.9800 0.6300 -0.0200 -0.9100 0.6300 0.0392 -0.8400 0.6300 0.0667 -0.7700 0.6300 0.0780 -0.7000 0.6300 0.0896 -0.6300 0.6300 0.1088 -0.5600 0.6300 0.1281 -0.4900 0.6300 0.1383 -0.4200 0.6300 0.1437 -0.3500 0.6300 0.1454 -0.2800 0.6300 0.1420 -0.2100 0.6300 0.1340 -0.1400 0.6300 0.1197 -0.0700 0.6300 0.1103 0.0000 0.6300 0.1145 0.0700 0.6300 0.1230 0.1400 0.6300 0.1279 0.2100 0.6300 0.1257 0.2800 0.6300 0.1127 0.3500 0.6300 0.0886 0.4200 0.6300 0.0576 0.4900 0.6300 0.0265 0.5600 0.6300 0.0050 0.6300 0.6300 -0.0200 -0.9800 0.7000 -0.0200 -0.9100 0.7000 -0.0200 -0.8400 0.7000 0.0509 -0.7700 0.7000 0.0662 -0.7000 0.7000 0.0772 -0.6300 0.7000 0.0908 -0.5600 0.7000 0.1047 -0.4900 0.7000 0.1136 -0.4200 0.7000 0.1195 -0.3500 0.7000 0.1197 -0.2800 0.7000 0.1115 -0.2100 0.7000 0.0977 -0.1400 0.7000 0.0807 -0.0700 0.7000 0.0687 0.0000 0.7000 0.0674 0.0700 0.7000 0.0720 0.1400 0.7000 0.0790 0.2100 0.7000 0.0836 0.2800 0.7000 0.0786 0.3500 0.7000 0.0606 0.4200 0.7000 0.0322 0.4900 0.7000 0.0050 0.5600 0.7000 -0.0200 -0.9100 0.7700 -0.0200 -0.8400 0.7700 0.0274 -0.7700 0.7700 0.0508 -0.7000 0.7700 0.0634 -0.6300 0.7700 0.0720 -0.5600 0.7700 0.0808 -0.4900 0.7700 0.0865 -0.4200 0.7700 0.0898 -0.3500 0.7700 0.0869 -0.2800 0.7700 0.0734 -0.2100 0.7700 0.0526 -0.1400 0.7700 0.0305 -0.0700 0.7700 0.0163 0.0000 0.7700 0.0137 0.0700 0.7700 0.0178 0.1400 0.7700 0.0288 0.2100 0.7700 0.0421 0.2800 0.7700 0.0448 0.3500 0.7700 0.0302 0.4200 0.7700 0.0050 0.4900 0.7700 -0.0200 -0.9100 0.8400 -0.0200 -0.8400 0.8400 -0.0200 -0.7700 0.8400 0.0198 -0.7000 0.8400 0.0366 -0.6300 0.8400 0.0452 -0.5600 0.8400 0.0529 -0.4900 0.8400 0.0543 -0.4200 0.8400 0.0487 -0.3500 0.8400 0.0347 -0.2800 0.8400 -0.0200 -0.2100 0.8400 -0.0200 -0.1400 0.8400 -0.0200 -0.0700 0.8400 -0.0200 0.0000 0.8400 -0.0200 0.0700 0.8400 -0.0200 0.1400 0.8400 0.0050 0.2100 0.8400 0.0050 0.2800 0.8400 0.0050 0.3500 0.8400 -0.0200 0.4200 0.8400 -0.0200 -0.8400 0.9100 -0.0200 -0.7700 0.9100 -0.0200 -0.7000 0.9100 -0.0200 -0.6300 0.9100 -0.0200 -0.5600 0.9100 -0.0200 -0.4900 0.9100 -0.0200 -0.4200 0.9100 -0.0200 -0.3500 0.9100 -0.0200 0.1400 0.9100 -0.0200 0.2100 0.9100 -0.0200 0.2800 0.9100 -0.0200 0.3500 0.9100 -0.0200</float_array>
      <technique_common><accessor source="#p-a" count="765" stride="3"><param name="X" type="float"/><param name="Y" type="float"/><param name="Z" type="float"/></accessor></technique_common></source>
    <source id="n"><float_array id="n-a" count="2295">-0.3363 -0.3363 0.8796 -0.0028 -0.6092 0.7930 0.0874 -0.5544 0.8277 0.0000 -0.4169 0.9089 -0.1029 -0.6293 0.7703 -0.0228 -0.7006 0.7131 0.0071 -0.7196 0.6944 0.0131 -0.7061 0.7080 0.0338 -0.6744 0.7376 0.1007 -0.5702 0.8153 0.1429 -0.2857 0.9476 0.0000 0.0000 1.0000 -0.1648 -0.5708 0.8044 -0.3667 -0.4578 0.8099 -0.2291 -0.4145 0.8807 0.1120 -0.5256 0.8433 0.2167 -0.5215 0.8253 0.1920 -0.5696 0.7992 0.0543 -0.4304 0.9010 -0.0086 -0.3439 0.9390 -0.0902 -0.4348 0.8960 -0.1011 -0.6298 0.7701 -0.2395 -0.6754 0.6975 -0.2801 -0.5592 0.7803 -0.1022 -0.6074 0.7878 -0.0062 -0.6361 0.7716 0.0328 -0.6285 0.7771 0.0740 -0.6086 0.7901 0.1955 -0.5575 0.8068 0.3124 -0.4273 0.8484 0.2386 -0.2206 0.9457 0.0000 0.0000 1.0000 -0.3823 -0.4671 0.7973 -0.3433 -0.4372 0.8313 -0.2199 -0.5111 0.8309 -0.1995 -0.4367 0.8772 0.0670 -0.3969 0.9154 0.1827 -0.4545 0.8718 0.2129 -0.5450 0.8110 0.1357 -0.5539 0.8215 0.0342 -0.5155 0.8562 -0.1291 -0.5008 0.8559 -0.2314 -0.5352 0.8124 -0.2219 -0.6099 0.7608 -0.2583 -0.5643 0.7841 -0.1170 -0.5259 0.8424 0.0116 -0.5060 0.8624 0.0754 -0.4724 0.8782 0.1213 -0.4321 0.8936 0.2657 -0.3903 0.8815 0.4139 -0.3456 0.8422 0.4283 -0.2633 0.8644 0.2301 -0.1150 0.9663 -0.5042 -0.3758 0.7775 -0.3970 -0.4373 0.8070 -0.3309 -0.4526 0.8280 -0.2424 -0.4425 0.8634 -0.1166 -0.4314 0.8946 0.0362 -0.4381 0.8982 0.1166 -0.4567 0.8819 0.1321 -0.4824 0.8659 0.1165 -0.5247 0.8433 0.0214 -0.5665 0.8238 -0.1216 -0.5832 0.8032 -0.2250 -0.5636 0.7948 -0.2338 -0.5232 0.8195 -0.1805 -0.4666 0.8658 -0.0881 -0.4172 0.9045 0.0377 -0.3960 0.9175 0.1285 -0.3744 0.9183 0.1800 -0.3286 0.9272 0.2959 -0.2872 0.9110 0.4288 -0.2800 0.8589 0.5006 -0.2869 0.8168 0.3849 -0.2110 0.8985 0.0000 0.0000 1.0000 -0.4115 -0.3981 0.8199 -0.4723 -0.3866 0.7921 -0.4500 -0.3727 0.8116 -0.3360 -0.4034 0.8511 -0.2459 -0.4310 0.8682 -0.1286 -0.4705 0.8730 0.0177 -0.5027 0.8643 0.1132 -0.5005 0.8583 0.1278 -0.4782 0.8689 0.0841 -0.4746 0.8762 -0.0165 -0.4962 0.8680 -0.1422 -0.5072 0.8500 -0.2072 -0.4907 0.8463 -0.1725 -0.4501 0.8762 -0.0950 -0.3813 0.9196 -0.0373 -0.3166 0.9478 0.0475 -0.3003 0.9527 0.1548 -0.3017 0.9407 0.2250 -0.2735 0.9352 0.3066 -0.2393 0.9212 0.4082 -0.2396 0.8809 0.4694 -0.2690 0.8410 0.4888 -0.2672 0.8305 0.2706 -0.1353 0.9531 -0.1137 -0.6221 0.7747 -0.1616 -0.6526 0.7403 -0.3750 -0.4860 0.7894 -0.4219 -0.4051 0.8111 -0.4278 -0.3477 0.8343 -0.3539 -0.3234 0.8776 -0.2976 -0.3504 0.8881 -0.1963 -0.4220 0.8851 -0.0203 -0.4922 0.8702 0.1316 -0.5059 0.8525 0.1647 -0.4799 0.8617 0.0878 -0.4599 0.8836 -0.0393 -0.4620 0.8860 -0.1391 -0.4566 0.8787 -0.1622 -0.4122 0.8965 -0.0991 -0.3400 0.9352 -0.0211 -0.2754 0.9611 -0.0065 -0.2437 0.9698 0.0302 -0.2514 0.9674 0.1520 -0.2688 0.9511 0.2614 -0.2464 0.9333 0.3348 -0.1957 0.9218 0.4004 -0.1691 0.9006 0.4337 -0.1962 0.8794 0.5046 -0.2809 0.8164 0.4407 -0.2536 0.8611 0.0000 0.0000 1.0000 -0.1619 -0.5889 0.7918 -0.2563 -0.6304 0.7327 -0.3020 -0.5339 0.7898 -0.1610 -0.5968 0.7861 -0.2400 -0.5606 0.7926 -0.3284 -0.4445 0.8334 -0.3482 -0.3272 0.8785 -0.3396 -0.2524 0.9061 -0.3504 -0.2525 0.9019 -0.2909 -0.3254 0.8997 -0.0919 -0.4155 0.9049 0.1289 -0.4507 0.8833 0.1963 -0.4444 0.8741 0.0993 -0.4433 0.8908 -0.0470 -0.4544 0.8895 -0.1041 -0.4489 0.8875 -0.0689 -0.3889 0.9187 -0.0080 -0.2928 0.9561 0.0244 -0.2250 0.9740 0.0066 -0.1902 0.9817 0.0188 -0.1642 0.9863 0.1494 -0.1547 0.9766 0.3026 -0.1375 0.9431 0.3852 -0.0942 0.9180 0.4094 -0.0631 0.9102 0.3930 -0.0879 0.9153 0.4043 -0.1627 0.9001 0.5028 -0.2466 0.8285 0.3417 -0.1708 0.9242 -0.1663 -0.4749 0.8642 -0.2486 -0.5528 0.7954 -0.3474 -0.4647 0.8145 -0.2600 -0.5360 0.8032 -0.3092 -0.5071 0.8045 -0.2023 -0.4945 0.8453 -0.1719 -0.4788 0.8609 -0.2125 -0.4074 0.8882 -0.2427 -0.3046 0.9210 -0.2965 -0.2257 0.9280 -0.3834 -0.2073 0.9000 -0.3671 -0.2490 0.8962 -0.1595 -0.3137 0.9360 0.1134 -0.3441 0.9321 0.2009 -0.3566 0.9124 0.0747 -0.3962 0.9151 -0.0833 -0.4511 0.8886 -0.0808 -0.4821 0.8724 0.0270 -0.4480 0.8936 0.0933 -0.3603 0.9282 0.0918 -0.2681 0.9590 0.0751 -0.1755 0.9816 0.0814 -0.0667 0.9944 0.1691 0.0038 0.9856 0.3137 0.0057 0.9495 0.4079 -0.0033 0.9130 0.4130 0.0030 0.9107 0.3589 -0.0046 0.9334 0.3412 -0.0420 0.9391 0.5126 -0.0861 0.8543 0.5701 -0.0578 0.8196 -0.1731 -0.1731 0.9696 -0.2356 -0.3438 0.9090 -0.3370 -0.3603 0.8699 -0.2741 -0.4513 0.8492 -0.3242 -0.4431 0.8358 -0.3021 -0.4012 0.8647 -0.2889 -0.3796 0.8789 -0.2177 -0.3924 0.8937 -0.1446 -0.4033 0.9036 -0.1344 -0.3737 0.9178 -0.1677 -0.3261 0.9304 -0.2583 -0.2911 0.9212 -0.3787 -0.2569 0.8891 -0.3875 -0.2348 0.8915 -0.1890 -0.2479 0.9502 0.0938 -0.2733 0.9573 0.1720 -0.3037 0.9371 -0.0011 -0.3611 0.9325 -0.1691 -0.4347 0.8845 -0.1034 -0.4944 0.8631 0.0908 -0.4880 0.8681 0.2027 -0.4106 0.8890 0.2053 -0.2983 0.9321 0.1946 -0.1824 0.9638 0.1951 -0.0710 0.9782 0.2090 0.0074 0.9779 0.2882 0.0078 0.9575 0.3911 -0.0297 0.9199 0.4197 -0.0365 0.9069 0.3612 -0.0141 0.9324 0.3122 -0.0071 0.9500 0.4520 -0.0950 0.8870 0.4870 -0.1684 0.8570 0.0000 0.0000 1.0000 -0.4142 -0.0907 0.9057 -0.3074 -0.2524 0.9175 -0.3548 -0.3161 0.8799 -0.3380 -0.3170 0.8861 -0.3042 -0.3044 0.9027 -0.2892 -0.2912 0.9119 -0.2983 -0.2897 0.9094 -0.2522 -0.3202 0.9132 -0.1605 -0.3665 0.9165 -0.1149 -0.3903 0.9135 -0.1489 -0.3935 0.9072 -0.2361 -0.3893 0.8903 -0.3276 -0.3536 0.8762 -0.3382 -0.2877 0.8960 -0.1920 -0.2551 0.9477 0.0408 -0.2979 0.9537 0.1255 -0.3573 0.9255 -0.0630 -0.3872 0.9198 -0.2378 -0.4053 0.8827 -0.1388 -0.4308 0.8917 0.1356 -0.4241 0.8954 0.3141 -0.3547 0.8806 0.3309 -0.2463 0.9110 0.2845 -0.1542 0.9462 0.2573 -0.1124 0.9598 0.2363 -0.0909 0.9674 0.2631 -0.0870 0.9608 0.3613 -0.1101 0.9259 0.4254 -0.1280 0.8959 0.3833 -0.1205 0.9157 0.3064 -0.1100 0.9455 0.3229 -0.1254 0.9381 0.4628 -0.2124 0.8606 0.2980 -0.1490 0.9429 -0.1731 -0.1731 0.9696 -0.4031 -0.2019 0.8926 -0.4461 -0.1733 0.8780 -0.3624 -0.2299 0.9032 -0.3232 -0.2068 0.9235 -0.3006 -0.1837 0.9359 -0.3032 -0.1937 0.9330 -0.3253 -0.2179 0.9202 -0.3017 -0.2533 0.9191 -0.2188 -0.3105 0.9251 -0.1507 -0.3664 0.9182 -0.1630 -0.3951 0.9041 -0.2309 -0.3977 0.8880 -0.2830 -0.3817 0.8799 -0.2653 -0.3478 0.8992 -0.1660 -0.3040 0.9381 -0.0426 -0.3136 0.9486 0.0643 -0.3921 0.9177 -0.0692 -0.4179 0.9058 -0.2160 -0.3790 0.8998 -0.1172 -0.3079 0.9442 0.1716 -0.2599 0.9503 0.3860 -0.2269 0.8942 0.4188 -0.1775 0.8906 0.3290 -0.1318 0.9351 0.2568 -0.1297 0.9577 0.2401 -0.1423 0.9603 0.2646 -0.1309 0.9554 0.3381 -0.1242 0.9329 0.3963 -0.1602 0.9040 0.3643 -0.2203 0.9048 0.2968 -0.2577 0.9195 0.3111 -0.2474 0.9176 0.4393 -0.2455 0.8641 0.4186 -0.2080 0.8841 0.0000 0.0000 1.0000 -0.3363 0.0000 0.9417 -0.3431 -0.1142 0.9323 -0.4501 -0.1199 0.8849 -0.3668 -0.1094 0.9239 -0.3016 -0.1041 0.9477 -0.3055 -0.0955 0.9474 -0.3358 -0.1197 0.9343 -0.3534 -0.1508 0.9232 -0.3345 -0.1650 0.9278 -0.2737 -0.1847 0.9439 -0.2085 -0.2251 0.9518 -0.1950 -0.2651 0.9443 -0.2429 -0.2795 0.9289 -0.2897 -0.2814 0.9148 -0.2558 -0.3009 0.9187 -0.1302 -0.3200 0.9384 -0.0525 -0.2914 0.9551 -0.0197 -0.3014 0.9533 -0.0625 -0.3477 0.9355 -0.1252 -0.2875 0.9496 -0.0151 -0.1572 0.9875 0.1994 -0.0943 0.9754 0.3811 -0.1186 0.9169 0.4321 -0.1636 0.8869 0.3444 -0.1816 0.9211 0.2530 -0.1727 0.9519 0.2474 -0.1512 0.9570 0.2905 -0.1143 0.9500 0.3352 -0.0836 0.9384 0.3358 -0.1145 0.9350 0.2853 -0.2183 0.9332 0.2671 -0.3038 0.9145 0.3396 -0.2976 0.8923 0.4148 -0.2395 0.8778 0.4760 -0.2339 0.8478 0.2952 -0.1476 0.9440 -0.3363 0.0000 0.9417 -0.3856 0.0152 0.9225 -0.4433 0.0354 0.8957 -0.3836 0.0173 0.9233 -0.3024 -0.0031 0.9532 -0.3164 -0.0097 0.9486 -0.3714 -0.0327 0.9279 -0.3752 -0.0683 0.9244 -0.3282 -0.0684 0.9421 -0.2716 -0.0297 0.9619 -0.2382 -0.0035 0.9712 -0.2376 -0.0235 0.9711 -0.2705 -0.0589 0.9609 -0.3141 -0.0767 0.9463 -0.3005 -0.0970 0.9488 -0.1738 -0.1565 0.9723 -0.0348 -0.2299 0.9726 -0.0554 -0.2509 0.9664 -0.0255 -0.2465 0.9688 -0.0199 -0.1249 0.9920 0.0948 -0.0308 0.9950 0.1900 -0.0022 0.9818 0.3054 -0.0701 0.9497 0.3712 -0.1772 0.9115 0.3356 -0.2380 0.9115 0.2884 -0.2167 0.9326 0.2969 -0.1470 0.9435 0.3336 -0.0835 0.9390 0.3483 -0.0541 0.9358 0.2837 -0.0685 0.9565 0.1857 -0.1376 0.9729 0.2166 -0.2127 0.9528 0.3654 -0.2268 0.9028 0.4533 -0.2002 0.8686 0.4952 -0.2013 0.8451 0.3987 -0.1691 0.9013 0.0000 0.0000 1.0000 -0.2301 0.1150 0.9663 -0.3878 0.1267 0.9130 -0.4278 0.0796 0.9004 -0.4045 0.0778 0.9112 -0.3170 0.0530 0.9470 -0.3140 0.0535 0.9479 -0.3893 0.0655 0.9188 -0.4000 0.0503 0.9151 -0.3106 0.0351 0.9499 -0.2136 0.0707 0.9744 -0.2042 0.1366 0.9694 -0.2570 0.1599 0.9531 -0.3021 0.1290 0.9445 -0.3247 0.0965 0.9409 -0.3180 0.0891 0.9439 -0.2477 0.0623 0.9668 -0.1320 -0.0241 0.9910 -0.0627 -0.0647 0.9959 0.0318 -0.0249 0.9992 0.1187 0.0630 0.9909 0.1313 0.1275 0.9831 0.1516 0.1069 0.9827 0.2067 0.0310 0.9779 0.2797 -0.0818 0.9566 0.3148 -0.1602 0.9355 0.3371 -0.1693 0.9261 0.3614 -0.1306 0.9232 0.3678 -0.0926 0.9253 0.3483 -0.0871 0.9333 0.2647 -0.0947 0.9597 0.1544 -0.0826 0.9846 0.1921 -0.0594 0.9796 0.3639 -0.0584 0.9296 0.4614 -0.0793 0.8836 0.4655 -0.0966 0.8798 0.4238 -0.1473 0.8937 0.2301 -0.1150 0.9663 0.0000 0.0000 1.0000 -0.3947 0.1537 0.9059 -0.4792 0.1377 0.8668 -0.4253 0.0830 0.9012 -0.3346 0.0596 0.9405 -0.2870 0.0656 0.9557 -0.3524 0.1277 0.9271 -0.3981 0.1820 0.8991 -0.3223 0.1792 0.9295 -0.1846 0.1527 0.9709 -0.1545 0.1614 0.9747 -0.2530 0.1787 0.9508 -0.3355 0.1558 0.9291 -0.3466 0.1153 0.9309 -0.3246 0.0951 0.9411 -0.2820 0.0859 0.9555 -0.1833 0.0776 0.9800 -0.0114 0.0847 0.9963 0.0834 0.1543 0.9845 0.2004 0.1922 0.9607 0.1476 0.2842 0.9473 0.1064 0.3152 0.9430 0.1132 0.2728 0.9554 0.1800 0.1876 0.9656 0.2523 0.0910 0.9633 0.3138 -0.0047 0.9495 0.3609 -0.0793 0.9292 0.3655 -0.1171 0.9234 0.3352 -0.1358 0.9323 0.2803 -0.1361 0.9502 0.2230 -0.0759 0.9719 0.2490 0.0320 0.9680 0.3591 0.0871 0.9292 0.4366 0.0689 0.8970 0.4455 0.0318 0.8947 0.4105 -0.0059 0.9118 0.3618 -0.0144 0.9322 -0.3220 0.1610 0.9329 -0.5194 0.1998 0.8308 -0.4460 0.1077 0.8885 -0.3517 0.0928 0.9315 -0.2549 0.0940 0.9624 -0.2631 0.1563 0.9520 -0.3413 0.2482 0.9066 -0.3439 0.2767 0.8973 -0.2405 0.2211 0.9451 -0.1759 0.1371 0.9748 -0.2650 0.0870 0.9603 -0.3637 0.0636 0.9293 -0.3703 0.0568 0.9272 -0.3294 0.0695 0.9416 -0.2706 0.1046 0.9570 -0.1343 0.1672 0.9767 0.0102 0.2371 0.9714 0.0835 0.2175 0.9725 0.2362 0.1445 0.9609 0.2955 0.2255 0.9283 0.1567 0.3874 0.9085 0.0729 0.4448 0.8927 0.0952 0.4264 0.8995 0.1399 0.3658 0.9201 0.1843 0.2565 0.9488 0.2641 0.1101 0.9582 0.3239 -0.0012 0.9461 0.3235 -0.0498 0.9449 0.3047 -0.0610 0.9505 0.3113 -0.0188 0.9501 0.3457 0.0805 0.9349 0.3862 0.1616 0.9082 0.4176 0.1813 0.8904 0.4212 0.1884 0.8872 0.3265 0.1443 0.9341 0.3491 0.0145 0.9370 0.0000 0.0000 1.0000 -0.5119 0.2155 0.8316 -0.5277 0.2131 0.8223 -0.3585 0.1680 0.9183 -0.2411 0.1646 0.9564 -0.1942 0.1808 0.9642 -0.2740 0.2266 0.9347 -0.3577 0.2500 0.8997 -0.3349 0.2043 0.9198 -0.2755 0.0967 0.9564 -0.3092 0.0069 0.9510 -0.3613 -0.0064 0.9324 -0.3367 0.0476 0.9404 -0.2722 0.1388 0.9522 -0.1843 0.2411 0.9529 -0.0387 0.3421 0.9389 0.0306 0.3967 0.9174 0.0042 0.3549 0.9349 0.1495 0.2553 0.9552 0.3850 0.1710 0.9069 0.3133 0.2572 0.9141 0.1427 0.3942 0.9079 0.0893 0.4591 0.8839 0.0837 0.4791 0.8737 0.0673 0.4635 0.8835 0.1201 0.3895 0.9131 0.2252 0.2792 0.9335 0.2754 0.1920 0.9420 0.2934 0.1421 0.9454 0.3521 0.1374 0.9258 0.4157 0.1842 0.8907 0.4283 0.2473 0.8691 0.3920 0.2549 0.8840 0.4234 0.1685 0.8901 0.3389 0.2249 0.9136 0.1731 0.1731 0.9696 -0.4043 0.2022 0.8920 -0.5461 0.2833 0.7883 -0.3746 0.2243 0.8997 -0.2563 0.1975 0.9462 -0.1948 0.1706 0.9659 -0.2580 0.1479 0.9548 -0.3690 0.1363 0.9194 -0.4006 0.1134 0.9092 -0.3604 0.0622 0.9307 -0.3408 0.0274 0.9397 -0.3229 0.0567 0.9447 -0.2447 0.1423 0.9591 -0.1511 0.2579 0.9543 -0.0637 0.3720 0.9261 0.0350 0.4480 0.8934 0.0280 0.4623 0.8863 -0.0726 0.4256 0.9020 0.0270 0.3593 0.9328 0.3172 0.2259 0.9211 0.3839 0.1511 0.9109 0.2615 0.2031 0.9436 0.1825 0.3017 0.9358 0.1545 0.4035 0.9018 0.0801 0.4894 0.8684 0.0517 0.5157 0.8552 0.1176 0.4819 0.8683 0.1812 0.4184 0.8900 0.2355 0.3534 0.9053 0.3431 0.3090 0.8870 0.4409 0.2991 0.8463 0.4379 0.3003 0.8474 0.3563 0.2995 0.8851 0.2631 0.2277 0.9375 0.3809 0.0512 0.9232 0.0000 0.0000 1.0000 -0.5114 0.2594 0.8193 -0.4934 0.2514 0.8327 -0.3036 0.1612 0.9391 -0.2370 0.1117 0.9651 -0.2856 0.0692 0.9558 -0.3798 0.0490 0.9238 -0.4166 0.0503 0.9077 -0.3704 0.0630 0.9267 -0.3070 0.1116 0.9451 -0.2477 0.1971 0.9486 -0.1507 0.2797 0.9482 -0.0439 0.3487 0.9362 0.0346 0.4165 0.9085 0.0734 0.4624 0.8836 0.0061 0.4617 0.8870 -0.1156 0.4370 0.8920 -0.0575 0.4123 0.9092 0.1835 0.3229 0.9285 0.3246 0.1974 0.9250 0.3015 0.1506 0.9415 0.2810 0.1908 0.9405 0.2858 0.2834 0.9154 0.1946 0.4028 0.8943 0.0934 0.4925 0.8653 0.0944 0.5305 0.8424 0.1217 0.5322 0.8378 0.1691 0.5070 0.8452 0.2933 0.4614 0.8373 0.4300 0.4267 0.7957 0.3411 0.4274 0.8372 0.3570 0.2822 0.8905 0.1869 0.2983 0.9360 0.1731 0.1731 0.9696 -0.5186 0.0490 0.8536 -0.5319 0.1187 0.8385 -0.3651 0.0940 0.9262 -0.2754 0.0482 0.9601 -0.3004 0.0397 0.9530 -0.3716 0.0601 0.9264 -0.3952 0.0949 0.9137 -0.3259 0.1444 0.9343 -0.2220 0.2245 0.9489 -0.1558 0.3133 0.9368 -0.0916 0.3687 0.9250 0.0009 0.3885 0.9215 0.0888 0.4065 0.9093 0.1002 0.4358 0.8944 -0.0088 0.4468 0.8946 -0.1298 0.4368 0.8901 -0.0947 0.4285 0.8986 0.0769 0.3829 0.9206 0.2313 0.2972 0.9264 0.2869 0.2549 0.9234 0.3226 0.2733 0.9062 0.3578 0.3122 0.8801 0.2931 0.3735 0.8801 0.1821 0.4480 0.8753 0.1497 0.5078 0.8483 0.1429 0.5525 0.8212 0.1848 0.6009 0.7777 0.1871 0.6194 0.7625 0.3811 0.4961 0.7802 0.3308 0.5272 0.7827 0.1542 0.4655 0.8715 -0.3083 0.1542 0.9387 -0.5330 0.1931 0.8238 -0.4235 0.0752 0.9028 -0.2853 0.0489 0.9572 -0.2679 0.0833 0.9598 -0.3243 0.1432 0.9351 -0.3457 0.1981 0.9172 -0.2647 0.2537 0.9304 -0.1431 0.3126 0.9390 -0.0863 0.3635 0.9276 -0.0634 0.3981 0.9152 0.0000 0.4080 0.9130 0.1053 0.4040 0.9087 0.1301 0.4167 0.8997 0.0018 0.4385 0.8987 -0.1305 0.4445 0.8862 -0.1153 0.4448 0.8882 0.0123 0.4234 0.9059 0.1709 0.3761 0.9107 0.2847 0.3521 0.8916 0.3459 0.3695 0.8625 0.3738 0.3876 0.8426 0.3274 0.4080 0.8523 0.2450 0.4535 0.8569 0.2211 0.5164 0.8273 0.1613 0.5523 0.8179 0.2387 0.5437 0.8046 0.1814 0.6869 0.7038 0.1484 0.6579 0.7383 0.0000 0.0000 1.0000 -0.5500 0.1889 0.8135 -0.5289 0.1618 0.8331 -0.2705 0.1166 0.9556 -0.2056 0.1591 0.9656 -0.2604 0.2188 0.9404 -0.2954 0.2665 0.9175 -0.2227 0.3069 0.9253 -0.1093 0.3324 0.9368 -0.0529 0.3462 0.9367 -0.0308 0.3748 0.9266 0.0159 0.4122 0.9109 0.1105 0.4305 0.8958 0.1442 0.4360 0.8883 0.0217 0.4507 0.8924 -0.1137 0.4680 0.8764 -0.1132 0.4856 0.8668 -0.0162 0.4875 0.8730 0.1286 0.4612 0.8780 0.2735 0.4204 0.8651 0.3589 0.3992 0.8437 0.3800 0.3976 0.8352 0.3327 0.4008 0.8536 0.2960 0.4049 0.8651 0.2860 0.4644 0.8382 0.1804 0.5867 0.7895 0.0982 0.5595 0.8230 -0.4768 0.2384 0.8460 -0.5752 0.2892 0.7652 -0.2699 0.1782 0.9462 -0.1642 0.1774 0.9703 -0.2055 0.2124 0.9553 -0.2513 0.2665 0.9305 -0.1985 0.3126 0.9289 -0.1068 0.3289 0.9383 -0.0422 0.3275 0.9439 0.0173 0.3491 0.9369 0.0750 0.4020 0.9126 0.1372 0.4492 0.8828 0.1509 0.4713 0.8690 0.0446 0.4931 0.8688 -0.0746 0.5223 0.8495 -0.0915 0.5442 0.8339 -0.0328 0.5398 0.8411 0.0802 0.5041 0.8599 0.2264 0.4420 0.8680 0.3408 0.3822 0.8589 0.3771 0.3470 0.8587 0.3367 0.3414 0.8775 0.2914 0.3638 0.8847 0.3087 0.3697 0.8764 0.0000 0.0000 1.0000 -0.5495 0.3139 0.7743 -0.4468 0.3064 0.8406 -0.1759 0.1931 0.9653 -0.1602 0.1917 0.9683 -0.1878 0.2488 0.9502 -0.1572 0.3114 0.9372 -0.0955 0.3474 0.9329 -0.0327 0.3660 0.9300 0.0604 0.3921 0.9179 0.1438 0.4391 0.8869 0.1861 0.4926 0.8501 0.1714 0.5286 0.8314 0.0761 0.5539 0.8291 -0.0289 0.5775 0.8159 -0.0818 0.5889 0.8040 -0.0809 0.5672 0.8196 0.0007 0.5112 0.8594 0.1552 0.4390 0.8850 0.2972 0.3728 0.8790 0.3491 0.3301 0.8770 0.3506 0.2964 0.8884 0.3009 0.3009 0.9050 -0.4029 0.2015 0.8928 -0.4857 0.3327 0.8083 -0.2282 0.3138 0.9217 -0.1401 0.2791 0.9500 -0.1263 0.2996 0.9457 -0.0990 0.3441 0.9337 -0.0464 0.3999 0.9154 0.0155 0.4650 0.8852 0.1681 0.5640 0.8085 0.1359 0.6534 0.7447 0.1848 0.6004 0.7781 0.1745 0.5499 0.8168 0.0916 0.5260 0.8456 -0.0034 0.5335 0.8458 -0.1200 0.5247 0.8428 -0.1143 0.4918 0.8632 -0.0749 0.5059 0.8594 0.1109 0.4913 0.8639 0.2015 0.4544 0.8677 0.3261 0.3454 0.8800 0.3300 0.3300 0.8844 0.0000 0.0000 1.0000 -0.3208 0.3400 0.8840 -0.2704 0.4860 0.8311 -0.1267 0.5263 0.8408 -0.0809 0.5577 0.8261 -0.0524 0.5839 0.8101 0.0049 0.5935 0.8048 0.0688 0.5882 0.8058 0.2416 0.5642 0.7895 0.2095 0.7346 0.6454 0.0653 0.7492 0.6591 0.0811 0.6350 0.7682 0.0580 0.5049 0.8612 0.0111 0.4430 0.8965 -0.1218 0.4582 0.8805 -0.0956 0.3592 0.9283 -0.0292 0.3808 0.9242 0.1041 0.3669 0.9244 0.2021 0.4384 0.8758 0.1566 0.4673 0.8701 0.0000 0.0000 1.0000 -0.1746 0.3491 0.9207 -0.0645 0.5877 0.8065 -0.0305 0.6646 0.7466 -0.0259 0.7084 0.7053 -0.0048 0.7258 0.6879 0.0187 0.7100 0.7039 0.0748 0.6596 0.7479 0.0000 0.3363 0.9417 0.0000 0.3363 0.9417 0.0000 0.3363 0.9417 0.1731 0.1731 0.9696</float_array>
      <technique_common><accessor source="#n-a" count="765" stride="3"><param name="X" type="float"/><param name="Y" type="float"/><param name="Z" type="float"/></accessor></technique_common></source>
    <source id="t"><float_array id="t-a" count="1530">-0.2100 -0.5460 -0.1680 -0.5460 -0.1260 -0.5460 -0.0840 -0.5460 0.2100 -0.5460 0.2520 -0.5460 0.2940 -0.5460 0.3360 -0.5460 0.3780 -0.5460 0.4200 -0.5460 0.4620 -0.5460 0.5040 -0.5460 -0.2520 -0.5040 -0.2100 -0.5040 -0.1680 -0.5040 -0.1260 -0.5040 -0.0840 -0.5040 -0.0420 -0.5040 0.0000 -0.5040 0.0420 -0.5040 0.0840 -0.5040 0.1260 -0.5040 0.1680 -0.5040 0.2100 -0.5040 0.2520 -0.5040 0.2940 -0.5040 0.3360 -0.5040 0.3780 -0.5040 0.4200 -0.5040 0.4620 -0.5040 0.5040 -0.5040 0.5460 -0.5040 -0.2940 -0.4620 -0.2520 -0.4620 -0.2100 -0.4620 -0.1680 -0.4620 -0.1260 -0.4620 -0.0840 -0.4620 -0.0420 -0.4620 0.0000 -0.4620 0.0420 -0.4620 0.0840 -0.4620 0.1260 -0.4620 0.1680 -0.4620 0.2100 -0.4620 0.2520 -0.4620 0.2940 -0.4620 0.3360 -0.4620 0.3780 -0.4620 0.4200 -0.4620 0.4620 -0.4620 0.5040 -0.4620 0.5460 -0.4620 -0.3360 -0.4200 -0.2940 -0.4200 -0.2520 -0.4200 -0.2100 -0.4200 -0.1680 -0.4200 -0.1260 -0.4200 -0.0840 -0.4200 -0.0420 -0.4200 0.0000 -0.4200 0.0420 -0.4200 0.0840 -0.4200 0.1260 -0.4200 0.1680 -0.4200 0.2100 -0.4200 0.2520 -0.4200 0.2940 -0.4200 0.3360 -0.4200 0.3780 -0.4200 0.4200 -0.4200 0.4620 -0.4200 0.5040 -0.4200 0.5460 -0.4200 0.5880 -0.4200 -0.3780 -0.3780 -0.3360 -0.3780 -0.2940 -0.3780 -0.2520 -0.3780 -0.2100 -0.3780 -0.1680 -0.3780 -0.1260 -0.3780 -0.0840 -0.3780 -0.0420 -0.3780 0.0000 -0.3780 0.0420 -0.3780 0.0840 -0.3780 0.1260 -0.3780 0.1680 -0.3780 0.2100 -0.3780 0.2520 -0.3780 0.2940 -0.3780 0.3360 -0.3780 0.3780 -0.3780 0.4200 -0.3780 0.4620 -0.3780 0.5040 -0.3780 0.5460 -0.3780 0.5880 -0.3780 -0.4620 -0.3360 -0.4200 -0.3360 -0.3780 -0.3360 -0.3360 -0.3360 -0.2940 -0.3360 -0.2520 -0.3360 -0.2100 -0.3360 -0.1680 -0.3360 -0.1260 -0.3360 -0.0840 -0.3360 -0.0420 -0.3360 0.0000 -0.3360 0.0420 -0.3360 0.0840 -0.3360 0.1260 -0.3360 0.1680 -0.3360 0.2100 -0.3360 0.2520 -0.3360 0.2940 -0.3360 0.3360 -0.3360 0.3780 -0.3360 0.4200 -0.3360 0.4620 -0.3360 0.5040 -0.3360 0.5460 -0.3360 0.5880 -0.3360 0.6300 -0.3360 -0.5460 -0.2940 -0.5040 -0.2940 -0.4620 -0.2940 -0.4200 -0.2940 -0.3780 -0.2940 -0.3360 -0.2940 -0.2940 -0.2940 -0.2520 -0.2940 -0.2100 -0.2940 -0.1680 -0.2940 -0.1260 -0.2940 -0.0840 -0.2940 -0.0420 -0.2940 0.0000 -0.2940 0.0420 -0.2940 0.0840 -0.2940 0.1260 -0.2940 0.1680 -0.2940 0.2100 -0.2940 0.2520 -0.2940 0.2940 -0.2940 0.3360 -0.2940 0.3780 -0.2940 0.4200 -0.2940 0.4620 -0.2940 0.5040 -0.2940 0.5460 -0.2940 0.5880 -0.2940 0.6300 -0.2940 -0.6300 -0.2520 -0.5880 -0.2520 -0.5460 -0.2520 -0.5040 -0.2520 -0.4620 -0.2520 -0.4200 -0.2520 -0.3780 -0.2520 -0.3360 -0.2520 -0.2940 -0.2520 -0.2520 -0.2520 -0.2100 -0.2520 -0.1680 -0.2520 -0.1260 -0.2520 -0.0840 -0.2520 -0.0420 -0.2520 0.0000 -0.2520 0.0420 -0.2520 0.0840 -0.2520 0.1260 -0.2520 0.1680 -0.2520 0.2100 -0.2520 0.2520 -0.2520 0.2940 -0.2520 0.3360 -0.2520 0.3780 -0.2520 0.4200 -0.2520 0.4620 -0.2520 0.5040 -0.2520 0.5460 -0.2520 0.5880 -0.2520 0.6300 -0.2520 -0.7140 -0.2100 -0.6720 -0.2100 -0.6300 -0.2100 -0.5880 -0.2100 -0.5460 -0.2100 -0.5040 -0.2100 -0.4620 -0.2100 -0.4200 -0.2100 -0.3780 -0.2100 -0.3360 -0.2100 -0.2940 -0.2100 -0.2520 -0.2100 -0.2100 -0.2100 -0.1680 -0.2100 -0.1260 -0.2100 -0.0840 -0.2100 -0.0420 -0.2100 0.0000 -0.2100 0.0420 -0.2100 0.0840 -0.2100 0.1260 -0.2100 0.1680 -0.2100 0.2100 -0.2100 0.2520 -0.2100 0.2940 -0.2100 0.3360 -0.2100 0.3780 -0.2100 0.4200 -0.2100 0.4620 -0.2100 0.5040 -0.2100 0.5460 -0.2100 0.5880 -0.2100 0.6300 -0.2100 0.6720 -0.2100 -0.7140 -0.1680 -0.6720 -0.1680 -0.6300 -0.1680 -0.5880 -0.1680 -0.5460 -0.1680 -0.5040 -0.1680 -0.4620 -0.1680 -0.4200 -0.1680 -0.3780 -0.1680 -0.3360 -0.1680 -0.2940 -0.1680 -0.2520 -0.1680 -0.2100 -0.1680 -0.1680 -0.1680 -0.1260 -0.1680 -0.0840 -0.1680 -0.0420 -0.1680 0.0000 -0.1680 0.0420 -0.1680 0.0840 -0.1680 0.1260 -0.1680 0.1680 -0.1680 0.2100 -0.1680 0.2520 -0.1680 0.2940 -0.1680 0.3360 -0.1680 0.3780 -0.1680 0.4200 -0.1680 0.4620 -0.1680 0.5040 -0.1680 0.5460 -0.1680 0.5880 -0.1680 0.6300 -0.1680 0.6720 -0.1680 -0.7560 -0.1260 -0.7140 -0.1260 -0.6720 -0.1260 -0.6300 -0.1260 -0.5880 -0.1260 -0.5460 -0.1260 -0.5040 -0.1260 -0.4620 -0.1260 -0.4200 -0.1260 -0.3780 -0.1260 -0.3360 -0.1260 -0.2940 -0.1260 -0.2520 -0.1260 -0.2100 -0.1260 -0.1680 -0.1260 -0.1260 -0.1260 -0.0840 -0.1260 -0.0420 -0.1260 0.0000 -0.1260 0.0420 -0.1260 0.0840 -0.1260 0.1260 -0.1260 0.1680 -0.1260 0.2100 -0.1260 0.2520 -0.1260 0.2940 -0.1260 0.3360 -0.1260 0.3780 -0.1260 0.4200 -0.1260 0.4620 -0.1260 0.5040 -0.1260 0.5460 -0.1260 0.5880 -0.1260 0.6300 -0.1260 0.6720 -0.1260 0.7140 -0.1260 -0.7560 -0.0840 -0.7140 -0.0840 -0.6720 -0.0840 -0.6300 -0.0840 -0.5880 -0.0840 -0.5460 -0.0840 -0.5040 -0.0840 -0.4620 -0.0840 -0.4200 -0.0840 -0.3780 -0.0840 -0.3360 -0.0840 -0.2940 -0.0840 -0.2520 -0.0840 -0.2100 -0.0840 -0.1680 -0.0840 -0.1260 -0.0840 -0.0840 -0.0840 -0.0420 -0.0840 0.0000 -0.0840 0.0420 -0.0840 0.0840 -0.0840 0.1260 -0.0840 0.1680 -0.0840 0.2100 -0.0840 0.2520 -0.0840 0.2940 -0.0840 0.3360 -0.0840 0.3780 -0.0840 0.4200 -0.0840 0.4620 -0.0840 0.5040 -0.0840 0.5460 -0.0840 0.5880 -0.0840 0.6300 -0.0840 0.6720 -0.0840 0.7140 -0.0840 -0.7560 -0.0420 -0.7140 -0.0420 -0.6720 -0.0420 -0.6300 -0.0420 -0.5880 -0.0420 -0.5460 -0.0420 -0.5040 -0.0420 -0.4620 -0.0420 -0.4200 -0.0420 -0.3780 -0.0420 -0.3360 -0.0420 -0.2940 -0.0420 -0.2520 -0.0420 -0.2100 -0.0420 -0.1680 -0.0420 -0.1260 -0.0420 -0.0840 -0.0420 -0.0420 -0.0420 0.0000 -0.0420 0.0420 -0.0420 0.0840 -0.0420 0.1260 -0.0420 0.1680 -0.0420 0.2100 -0.0420 0.2520 -0.0420 0.2940 -0.0420 0.3360 -0.0420 0.3780 -0.0420 0.4200 -0.0420 0.4620 -0.0420 0.5040 -0.0420 0.5460 -0.0420 0.5880 -0.0420 0.6300 -0.0420 0.6720 -0.0420 0.7140 -0.0420 0.7560 -0.0420 -0.7560 0.0000 -0.7140 0.0000 -0.6720 0.0000 -0.6300 0.0000 -0.5880 0.0000 -0.5460 0.0000 -0.5040 0.0000 -0.4620 0.0000 -0.4200 0.0000 -0.3780 0.0000 -0.3360 0.0000 -0.2940 0.0000 -0.2520 0.0000 -0.2100 0.0000 -0.1680 0.0000 -0.1260 0.0000 -0.0840 0.0000 -0.0420 0.0000 0.0000 0.0000 0.0420 0.0000 0.0840 0.0000 0.1260 0.0000 0.1680 0.0000 0.2100 0.0000 0.2520 0.0000 0.2940 0.0000 0.3360 0.0000 0.3780 0.0000 0.4200 0.0000 0.4620 0.0000 0.5040 0.0000 0.5460 0.0000 0.5880 0.0000 0.6300 0.0000 0.6720 0.0000 0.7140 0.0000 0.7560 0.0000 -0.7560 0.0420 -0.7140 0.0420 -0.6720 0.0420 -0.6300 0.0420 -0.5880 0.0420 -0.5460 0.0420 -0.5040 0.0420 -0.4620 0.0420 -0.4200 0.0420 -0.3780 0.0420 -0.3360 0.0420 -0.2940 0.0420 -0.2520 0.0420 -0.2100 0.0420 -0.1680 0.0420 -0.1260 0.0420 -0.0840 0.0420 -0.0420 0.0420 0.0000 0.0420 0.0420 0.0420 0.0840 0.0420 0.1260 0.0420 0.1680 0.0420 0.2100 0.0420 0.2520 0.0420 0.2940 0.0420 0.3360 0.0420 0.3780 0.0420 0.4200 0.0420 0.4620 0.0420 0.5040 0.0420 0.5460 0.0420 0.5880 0.0420 0.6300 0.0420 0.6720 0.0420 0.7140 0.0420 0.7560 0.0420 -0.7140 0.0840 -0.6720 0.0840 -0.6300 0.0840 -0.5880 0.0840 -0.5460 0.0840 -0.5040 0.0840 -0.4620 0.0840 -0.4200 0.0840 -0.3780 0.0840 -0.3360 0.0840 -0.2940 0.0840 -0.2520 0.0840 -0.2100 0.0840 -0.1680 0.0840 -0.1260 0.0840 -0.0840 0.0840 -0.0420 0.0840 0.0000 0.0840 0.0420 0.0840 0.0840 0.0840 0.1260 0.0840 0.1680 0.0840 0.2100 0.0840 0.2520 0.0840 0.2940 0.0840 0.3360 0.0840 0.3780 0.0840 0.4200 0.0840 0.4620 0.0840 0.5040 0.0840 0.5460 0.0840 0.5880 0.0840 0.6300 0.0840 0.6720 0.0840 0.7140 0.0840 0.7560 0.0840 -0.7140 0.1260 -0.6720 0.1260 -0.6300 0.1260 -0.5880 0.1260 -0.5460 0.1260 -0.5040 0.1260 -0.4620 0.1260 -0.4200 0.1260 -0.3780 0.1260 -0.3360 0.1260 -0.2940 0.1260 -0.2520 0.1260 -0.2100 0.1260 -0.1680 0.1260 -0.1260 0.1260 -0.0840 0.1260 -0.0420 0.1260 0.0000 0.1260 0.0420 0.1260 0.0840 0.1260 0.1260 0.1260 0.1680 0.1260 0.2100 0.1260 0.2520 0.1260 0.2940 0.1260 0.3360 0.1260 0.3780 0.1260 0.4200 0.1260 0.4620 0.1260 0.5040 0.1260 0.5460 0.1260 0.5880 0.1260 0.6300 0.1260 0.6720 0.1260 0.7140 0.1260 0.7560 0.1260 -0.6720 0.1680 -0.6300 0.1680 -0.5880 0.1680 -0.5460 0.1680 -0.5040 0.1680 -0.4620 0.1680 -0.4200 0.1680 -0.3780 0.1680 -0.3360 0.1680 -0.2940 0.1680 -0.2520 0.1680 -0.2100 0.1680 -0.1680 0.1680 -0.1260 0.1680 -0.0840 0.1680 -0.0420 0.1680 0.0000 0.1680 0.0420 0.1680 0.0840 0.1680 0.1260 0.1680 0.1680 0.1680 0.2100 0.1680 0.2520 0.1680 0.2940 0.1680 0.3360 0.1680 0.3780 0.1680 0.4200 0.1680 0.4620 0.1680 0.5040 0.1680 0.5460 0.1680 0.5880 0.1680 0.6300 0.1680 0.6720 0.1680 0.7140 0.1680 -0.6720 0.2100 -0.6300 0.2100 -0.5880 0.2100 -0.5460 0.2100 -0.5040 0.2100 -0.4620 0.2100 -0.4200 0.2100 -0.3780 0.2100 -0.3360 0.2100 -0.2940 0.2100 -0.2520 0.2100 -0.2100 0.2100 -0.1680 0.2100 -0.1260 0.2100 -0.0840 0.2100 -0.0420 0.2100 0.0000 0.2100 0.0420 0.2100 0.0840 0.2100 0.1260 0.2100 0.1680 0.2100 0.2100 0.2100 0.2520 0.2100 0.2940 0.2100 0.3360 0.2100 0.3780 0.2100 0.4200 0.2100 0.4620 0.2100 0.5040 0.2100 0.5460 0.2100 0.5880 0.2100 0.6300 0.2100 0.6720 0.2100 0.7140 0.2100 -0.6300 0.2520 -0.5880 0.2520 -0.5460 0.2520 -0.5040 0.2520 -0.4620 0.2520 -0.4200 0.2520 -0.3780 0.2520 -0.3360 0.2520 -0.2940 0.2520 -0.2520 0.2520 -0.2100 0.2520 -0.1680 0.2520 -0.1260 0.2520 -0.0840 0.2520 -0.0420 0.2520 0.0000 0.2520 0.0420 0.2520 0.0840 0.2520 0.1260 0.2520 0.1680 0.2520 0.2100 0.2520 0.2520 0.2520 0.2940 0.2520 0.3360 0.2520 0.3780 0.2520 0.4200 0.2520 0.4620 0.2520 0.5040 0.2520 0.5460 0.2520 0.5880 0.2520 0.6300 0.2520 -0.6300 0.2940 -0.5880 0.2940 -0.5460 0.2940 -0.5040 0.2940 -0.4620 0.2940 -0.4200 0.2940 -0.3780 0.2940 -0.3360 0.2940 -0.2940 0.2940 -0.2520 0.2940 -0.2100 0.2940 -0.1680 0.2940 -0.1260 0.2940 -0.0840 0.2940 -0.0420 0.2940 0.0000 0.2940 0.0420 0.2940 0.0840 0.2940 0.1260 0.2940 0.1680 0.2940 0.2100 0.2940 0.2520 0.2940 0.2940 0.2940 0.3360 0.2940 0.3780 0.2940 0.4200 0.2940 0.4620 0.2940 0.5040 0.2940 0.5460 0.2940 -0.6300 0.3360 -0.5880 0.3360 -0.5460 0.3360 -0.5040 0.3360 -0.4620 0.3360 -0.4200 0.3360 -0.3780 0.3360 -0.3360 0.3360 -0.2940 0.3360 -0.2520 0.3360 -0.2100 0.3360 -0.1680 0.3360 -0.1260 0.3360 -0.0840 0.3360 -0.0420 0.3360 0.0000 0.3360 0.0420 0.3360 0.0840 0.3360 0.1260 0.3360 0.1680 0.3360 0.2100 0.3360 0.2520 0.3360 0.2940 0.3360 0.3360 0.3360 0.3780 0.3360 0.4200 0.3360 0.4620 0.3360 -0.5880 0.3780 -0.5460 0.3780 -0.5040 0.3780 -0.4620 0.3780 -0.4200 0.3780 -0.3780 0.3780 -0.3360 0.3780 -0.2940 0.3780 -0.2520 0.3780 -0.2100 0.3780 -0.1680 0.3780 -0.1260 0.3780 -0.0840 0.3780 -0.0420 0.3780 0.0000 0.3780 0.0420 0.3780 0.0840 0.3780 0.1260 0.3780 0.1680 0.3780 0.2100 0.3780 0.2520 0.3780 0.2940 0.3780 0.3360 0.3780 0.3780 0.3780 -0.5880 0.4200 -0.5460 0.4200 -0.5040 0.4200 -0.4620 0.4200 -0.4200 0.4200 -0.3780 0.4200 -0.3360 0.4200 -0.2940 0.4200 -0.2520 0.4200 -0.2100 0.4200 -0.1680 0.4200 -0.1260 0.4200 -0.0840 0.4200 -0.0420 0.4200 0.0000 0.4200 0.0420 0.4200 0.0840 0.4200 0.1260 0.4200 0.1680 0.4200 0.2100 0.4200 0.2520 0.4200 0.2940 0.4200 0.3360 0.4200 -0.5460 0.4620 -0.5040 0.4620 -0.4620 0.4620 -0.4200 0.4620 -0.3780 0.4620 -0.3360 0.4620 -0.2940 0.4620 -0.2520 0.4620 -0.2100 0.4620 -0.1680 0.4620 -0.1260 0.4620 -0.0840 0.4620 -0.0420 0.4620 0.0000 0.4620 0.0420 0.4620 0.0840 0.4620 0.1260 0.4620 0.1680 0.4620 0.2100 0.4620 0.2520 0.4620 0.2940 0.4620 -0.5460 0.5040 -0.5040 0.5040 -0.4620 0.5040 -0.4200 0.5040 -0.3780 0.5040 -0.3360 0.5040 -0.2940 0.5040 -0.2520 0.5040 -0.2100 0.5040 -0.1680 0.5040 -0.1260 0.5040 -0.0840 0.5040 -0.0420 0.5040 0.0000 0.5040 0.0420 0.5040 0.0840 0.5040 0.1260 0.5040 0.1680 0.5040 0.2100 0.5040 0.2520 0.5040 -0.5040 0.5460 -0.4620 0.5460 -0.4200 0.5460 -0.3780 0.5460 -0.3360 0.5460 -0.2940 0.5460 -0.2520 0.5460 -0.2100 0.5460 0.0840 0.5460 0.1260 0.5460 0.1680 0.5460 0.2100 0.5460</float_array>
      <technique_common><accessor source="#t-a" count="765" stride="2"><param name="S" type="float"/><param name="T" type="float"/></accessor></technique_common></source>
    <vertices id="v"><input semantic="POSITION" source="#p"/></vertices>
    <triangles material="m" count="1400">
      <input semantic="VERTEX" source="#v" offset="0"/>
      <input semantic="NORMAL" source="#n" offset="1"/>
      <input semantic="TEXCOORD" source="#t" offset="2" set="0"/>
      <p>0 0 0 1 1 1 14 14 14 0 0 0 14 14 14 13 13 13 1 1 1 2 2 2 15 15 15 1 1 1 15 15 15 14 14 14 2 2 2 3 3 3 16 16 16 2 2 2 16 16 16 15 15 15 4 4 4 5 5 5 24 24 24 4 4 4 24 24 24 23 23 23 5 5 5 6 6 6 25 25 25 5 5 5 25 25 25 24 24 24 6 6 6 7 7 7 26 26 26 6 6 6 26 26 26 25 25 25 7 7 7 8 8 8 27 27 27 7 7 7 27 27 27 26 26 26 8 8 8 9 9 9 28 28 28 8 8 8 28 28 28 27 27 27 9 9 9 10 10 10 29 29 29 9 9 9 29 29 29 28 28 28 10 10 10 11 11 11 30 30 30 10 10 10 30 30 30 29 29 29 12 12 12 13 13 13 34 34 34 12 12 12 34 34 34 33 33 33 13 13 13 14 14 14 35 35 35 13 13 13 35 35 35 34 34 34 14 14 14 15 15 15 36 36 36 14 14 14 36 36 36 35 35 35 15 15 15 16 16 16 37 37 37 15 15 15 37 37 37 36 36 36 16 16 16 17 17 17 38 38 38 16 16 16 38 38 38 37 37 37 17 17 17 18 18 18 39 39 39 17 17 17 39 39 39 38 38 38 18 18 18 19 19 19 40 40 40 18 18 18 40 40 40 39 39 39 19 19 19 20 20 20 41 41 41 19 19 19 41 41 41 40 40 40 20 20 20 21 21 21 42 42 42 20 20 20 42 42 42 41 41 41 21 21 21 22 22 22 43 43 43 21 21 21 43 43 43 42 42 42 22 22 22 23 23 23 44 44 44 22 22 22 44 44 44 43 43 43 23 23 23 24 24 24 45 45 45 23 23 23 45 45 45 44 44 44 24 24 24 25 25 25 46 46 46 24 24 24 46 46 46 45 45 45 25 25 25 26 26 26 47 47 47 25 25 25 47 47 47 46 46 46 26 26 26 27 27 27 48 48 48 26 26 26 48 48 48 47 47 47 27 27 27 28 28 28 49 49 49 27 27 27 49 49 49 48 48 48 28 28 28 29 29 29 50 50 50 28 28 28 50 50 50 49 49 49 29 29 29 30 30 30 51 51 51 29 29 29 51 51 51 50 50 50 30 30 30 31 31 31 52 52 52 30 30 30 52 52 52 51 51 51 32 32 32 33 33 33 55 55 55 32 32 32 55 55 55 54 54 54 33 33 33 34 34 34 56 56 56 33 33 33 56 56 56 55 55 55 34 34 34 35 35 35 57 57 57 34 34 34 57 57 57 56 56 56 35 35 35 36 36 36 58 58 58 35 35 35 58 58 58 57 57 57 36 36 36 37 37 37 59 59 59 36 36 36 59 59 59 58 58 58 37 37 37 38 38 38 60 60 60 37 37 37 60 60 60 59 59 59 38 38 38 39 39 39 61 61 61 38 38 38 61 61 61 60 60 60 39 39 39 40 40 40 62 62 62 39 39 39 62 62 62 61 61 61 40 40 40 41 41 41 63 63 63 40 40 40 63 63 63 62 62 62 41 41 41 42 42 42 64 64 64 41 41 41 64 64 64 63 63 63 42 42 42 43 43 43 65 65 65 42 42 42 65 65 65 64 64 64 43 43 43 44 44 44 66 66 66 43 43 43 66 66 66 65 65 65 44 44 44 45 45 45 67 67 67 44 44 44 67 67 67 66 66 66 45 45 45 46 46 46 68 68 68 45 45 45 68 68 68 67 67 67 46 46 46 47 47 47 69 69 69 46 46 46 69 69 69 68 68 68 47 47 47 48 48 48 70 70 70 47 47 47 70 70 70 69 69 69 48 48 48 49 49 49 71 71 71 48 48 48 71 71 71 70 70 70 49 49 49 50 50 50 72 72 72 49 49 49 72 72 72 71 71 71 50 50 50 51 51 51 73 73 73 50 50 50 73 73 73 72 72 72 51 51 51 52 52 52 74 74 74 51 51 51 74 74 74 73 73 73 53 53 53 54 54 54 78 78 78 53 53 53 78 78 78 77 77 77 54 54 54 55 55 55 79 79 79 54 54 54 79 79 79 78 78 78 55 55 55 56 56 56 80 80 80 55 55 55 80 80 80 79 79 79 56 56 56 57 57 57 81 81 81 56 56 56 81 81 81 80 80 80 57 57 57 58 58 58 82 82 82 57 57 57 82 82 82 81 81 81 58 58 58 59 59 59 83 83 83 58 58 58 83 83 83 82 82 82 59 59 59 60 60 60 84 84 84 59 59 59 84 84 84 83 83 83 60 60 60 61 61 61 85 85 85 60 60 60 85 85 85 84 84 84 61 61 61 62 62 62 86 86 86 61 61 61 86 86 86 85 85 85 62 62 62 63 63 63 87 87 87 62 62 62 87 87 87 86 86 86 63 63 63 64 64 64 88 88 88 63 63 63 88 88 88 87 87 87 64 64 64 65 65 65 89 89 89 64 64 64 89 89 89 88 88 88 65 65 65 66 66 66 90 90 90 65 65 65 90 90 90 89 89 89 66 66 66 67 67 67 91 91 91 66 66 66 91 91 91 90 90 90 67 67 67 68 68 68 92 92 92 67 67 67 92 92 92 91 91 91 68 68 68 69 69 69 93 93 93 68 68 68 93 93 93 92 92 92 69 69 69 70 70 70 94 94 94 69 69 69 94 94 94 93 93 93 70 70 70 71 71 71 95 95 95 70 70 70 95 95 95 94 94 94 71 71 71 72 72 72 96 96 96 71 71 71 96 96 96 95 95 95 72 72 72 73 73 73 97 97 97 72 72 72 97 97 97 96 96 96 73 73 73 74 74 74 98 98 98 73 73 73 98 98 98 97 97 97 74 74 74 75 75 75 99 99 99 74 74 74 99 99 99 98 98 98 76 76 76 77 77 77 103 103 103 76 76 76 103 103 103 102 102 102 77 77 77 78 78 78 104 104 104 77 77 77 104 104 104 103 103 103 78 78 78 79 79 79 105 105 105 78 78 78 105 105 105 104 104 104 79 79 79 80 80 80 106 106 106 79 79 79 106 106 106 105 105 105 80 80 80 81 81 81 107 107 107 80 80 80 107 107 107 106 106 106 81 81 81 82 82 82 108 108 108 81 81 81 108 108 108 107 107 107 82 82 82 83 83 83 109 109 109 82 82 82 109 109 109 108 108 108 83 83 83 84 84 84 110 110 110 83 83 83 110 110 110 109 109 109 84 84 84 85 85 85 111 111 111 84 84 84 111 111 111 110 110 110 85 85 85 86 86 86 112 112 112 85 85 85 112 112 112 111 111 111 86 86 86 87 87 87 113 113 113 86 86 86 113 113 113 112 112 112 87 87 87 88 88 88 114 114 114 87 87 87 114 114 114 113 113 113 88 88 88 89 89 89 115 115 115 88 88 88 115 115 115 114 114 114 89 89 89 90 90 90 116 116 116 89 89 89 116 116 116 115 115 115 90 90 90 91 91 91 117 117 117 90 90 90 117 117 117 116 116 116 91 91 91 92 92 92 118 118 118 91 91 91 118 118 118 117 117 117 92 92 92 93 93 93 119 119 119 92 92 92 119 119 119 118 118 118 93 93 93 94 94 94 120 120 120 93 93 93 120 120 120 119 119 119 94 94 94 95 95 95 121 121 121 94 94 94 121 121 121 120 120 120 95 95 95 96 96 96 122 122 122 95 95 95 122 122 122 121 121 121 96 96 96 97 97 97 123 123 123 96 96 96 123 123 123 122 122 122 97 97 97 98 98 98 124 124 124 97 97 97 124 124 124 123 123 123 98 98 98 99 99 99 125 125 125 98 98 98 125 125 125 124 124 124 100 100 100 101 101 101 130 130 130 100 100 100 130 130 130 129 129 129 101 101 101 102 102 102 131 131 131 101 101 101 131 131 131 130 130 130 102 102 102 103 103 103 132 132 132 102 102 102 132 132 132 131 131 131 103 103 103 104 104 104 133 133 133 103 103 103 133 133 133 132 132 132 104 104 104 105 105 105 134 134 134 104 104 104 134 134 134 133 133 133 105 105 105 106 106 106 135 135 135 105 105 105 135 135 135 134 134 134 106 106 106 107 107 107 136 136 136 106 106 106 136 136 136 135 135 135 107 107 107 108 108 108 137 137 137 107 107 107 137 137 137 136 136 136 108 108 108 109 109 109 138 138 138 108 108 108 138 138 138 137 137 137 109 109 109 110 110 110 139 139 139 109 109 109 139 139 139 138 138 138 110 110 110 111 111 111 140 140 140 110 110 110 140 140 140 139 139 139 111 111 111 112 112 112 141 141 141 111 111 111 141 141 141 140 140 140 112 112 112 113 113 113 142 142 142 112 112 112 142 142 142 141 141 141 113 113 113 114 114 114 143 143 143 113 113 113 143 143 143 142 142 142 114 114 114 115 115 115 144 144 144 114 114 114 144 144 144 143 143 143 115 115 115 116 116 116 145 145 145 115 115 115 145 145 145 144 144 144 116 116 116 117 117 117 146 146 146 116 116 116 146 146 146 145 145 145 117 117 117 118 118 118 147 147 147 117 117 117 147 147 147 146 146 146 118 118 118 119 119 119 148 148 148 118 118 118 148 148 148 147 147 147 119 119 119 120 120 120 149 149 149 119 119 119 149 149 149 148 148 148 120 120 120 121 121 121 150 150 150 120 120 120 150 150 150 149 149 149 121 121 121 122 122 122 151 151 151 121 121 121 151 151 151 150 150 150 122 122 122 123 123 123 152 152 152 122 122 122 152 152 152 151 151 151 123 123 123 124 124 124 153 153 153 123 123 123 153 153 153 152 152 152 124 124 124 125 125 125 154 154 154 124 124 124 154 154 154 153 153 153 125 125 125 126 126 126 155 155 155 125 125 125 155 155 155 154 154 154 127 127 127 128 128 128 159 159 159 127 127 127 159 159 159 158 158 158 128 128 128 129 129 129 160 160 160 128 128 128 160 160 160 159 159 159 129 129 129 130 130 130 161 161 161 129 129 129 161 161 161 160 160 160 130 130 130 131 131 131 162 162 162 130 130 130 162 162 162 161 161 161 131 131 131 132 132 132 163 163 163 131 131 131 163 163 163 162 162 162 132 132 132 133 133 133 164 164 164 132 132 132 164 164 164 163 163 163 133 133 133 134 134 134 165 165 165 133 133 133 165 165 165 164 164 164 134 134 134 135 135 135 166 166 166 134 134 134 166 166 166 165 165 165 135 135 135 136 136 136 167 167 167 135 135 135 167 167 167 166 166 166 136 136 136 137 137 137 168 168 168 136 136 136 168 168 168 167 167 167 137 137 137 138 138 138 169 169 169 137 137 137 169 169 169 168 168 168 138 138 138 139 139 139 170 170 170 138 138 138 170 170 170 169 169 169 139 139 139 140 140 140 171 171 171 139 139 139 171 171 171 170 170 170 140 140 140 141 141 141 172 172 172 140 140 140 172 172 172 171 171 171 141 141 141 142 142 142 173 173 173 141 141 141 173 173 173 172 172 172 142 142 142 143 143 143 174 174 174 142 142 142 174 174 174 173 173 173 143 143 143 144 144 144 175 175 175 143 143 143 175 175 175 174 174 174 144 144 144 145 145 145 176 176 176 144 144 144 176 176 176 175 175 175 145 145 145 146 146 146 177 177 177 145 145 145 177 177 177 176 176 176 146 146 146 147 147 147 178 178 178 146 146 146 178 178 178 177 177 177 147 147 147 148 148 148 179 179 179 147 147 147 179 179 179 178 178 178 148 148 148 149 149 149 180 180 180 148 148 148 180 180 180 179 179 179 149 149 149 150 150 150 181 181 181 149 149 149 181 181 181 180 180 180 150 150 150 151 151 151 182 182 182 150 150 150 182 182 182 181 181 181 151 151 151 152 152 152 183 183 183 151 151 151 183 183 183 182 182 182 152 152 152 153 153 153 184 184 184 152 152 152 184 184 184 183 183 183 153 153 153 154 154 154 185 185 185 153 153 153 185 185 185 184 184 184 154 154 154 155 155 155 186 186 186 154 154 154 186 186 186 185 185 185 156 156 156 157 157 157 190 190 190 156 156 156 190 190 190 189 189 189 157 157 157 158 158 158 191 191 191 157 157 157 191 191 191 190 190 190 158 158 158 159 159 159 192 192 192 158 158 158 192 192 192 191 191 191 159 159 159 160 160 160 193 193 193 159 159 159 193 193 193 192 192 192 160 160 160 161 161 161 194 194 194 160 160 160 194 194 194 193 193 193 161 161 161 162 162 162 195 195 195 161 161 161 195 195 195 194 194 194 162 162 162 163 163 163 196 196 196 162 162 162 196 196 196 195 195 195 163 163 163 164 164 164 197 197 197 163 163 163 197 197 197 196 196 196 164 164 164 165 165 165 198 198 198 164 164 164 198 198 198 197 197 197 165 165 165 166 166 166 199 199 199 165 165 165 199 199 199 198 198 198 166 166 166 167 167 167 200 200 200 166 166 166 200 200 200 199 199 199 167 167 167 168 168 168 201 201 201 167 167 167 201 201 201 200 200 200 168 168 168 169 169 169 202 202 202 168 168 168 202 202 202 201 201 201 169 169 169 170 170 170 203 203 203 169 169 169 203 203 203 202 202 202 170 170 170 171 171 171 204 204 204 170 170 170 204 204 204 203 203 203 171 171 171 172 172 172 205 205 205 171 171 171 205 205 205 204 204 204 172 172 172 173 173 173 206 206 206 172 172 172 206 206 206 205 205 205 173 173 173 174 174 174 207 207 207 173 173 173 207 207 207 206 206 206 174 174 174 175 175 175 208 208 208 174 174 174 208 208 208 207 207 207 175 175 175 176 176 176 209 209 209 175 175 175 209 209 209 208 208 208 176 176 176 177 177 177 210 210 210 176 176 176 210 210 210 209 209 209 177 177 177 178 178 178 211 211 211 177 177 177 211 211 211 210 210 210 178 178 178 179 179 179 212 212 212 178 178 178 212 212 212 211 211 211 179 179 179 180 180 180 213 213 213 179 179 179 213 213 213 212 212 212 180 180 180 181 181 181 214 214 214 180 180 180 214 214 214 213 213 213 181 181 181 182 182 182 215 215 215 181 181 181 215 215 215 214 214 214 182 182 182 183 183 183 216 216 216 182 182 182 216 216 216 215 215 215 183 183 183 184 184 184 217 217 217 183 183 183 217 217 217 216 216 216 184 184 184 185 185 185 218 218 218 184 184 184 218 218 218 217 217 217 185 185 185 186 186 186 219 219 219 185 185 185 219 219 219 218 218 218 187 187 187 188 188 188 222 222 222 187 187 187 222 222 222 221 221 221 188 188 188 189 189 189 223 223 223 188 188 188 223 223 223 222 222 222 189 189 189 190 190 190 224 224 224 189 189 189 224 224 224 223 223 223 190 190 190 191 191 191 225 225 225 190 190 190 225 225 225 224 224 224 191 191 191 192 192 192 226 226 226 191 191 191 226 226 226 225 225 225 192 192 192 193 193 193 227 227 227 192 192 192 227 227 227 226 226 226 193 193 193 194 194 194 228 228 228 193 193 193 228 228 228 227 227 227 194 194 194 195 195 195 229 229 229 194 194 194 229 229 229 228 228 228 195 195 195 196 196 196 230 230 230 195 195 195 230 230 230 229 229 229 196 196 196 197 197 197 231 231 231 196 196 196 231 231 231 230 230 230 197 197 197 198 198 198 232 232 232 197 197 197 232 232 232 231 231 231 198 198 198 199 199 199 233 233 233 198 198 198 233 233 233 232 232 232 199 199 199 200 200 200 234 234 234 199 199 199 234 234 234 233 233 233 200 200 200 201 201 201 235 235 235 200 200 200 235 235 235 234 234 234 201 201 201 202 202 202 236 236 236 201 201 201 236 236 236 235 235 235 202 202 202 203 203 203 237 237 237 202 202 202 237 237 237 236 236 236 203 203 203 204 204 204 238 238 238 203 203 203 238 238 238 237 237 237 204 204 204 205 205 205 239 239 239 204 204 204 239 239 239 238 238 238 205 205 205 206 206 206 240 240 240 205 205 205 240 240 240 239 239 239 206 206 206 207 207 207 241 241 241 206 206 206 241 241 241 240 240 240 207 207 207 208 208 208 242 242 242 207 207 207 242 242 242 241 241 241 208 208 208 209 209 209 243 243 243 208 208 208 243 243 243 242 242 242 209 209 209 210 210 210 244 244 244 209 209 209 244 244 244 243 243 243 210 210 210 211 211 211 245 245 245 210 210 210 245 245 245 244 244 244 211 211 211 212 212 212 246 246 246 211 211 211 246 246 246 245 245 245 212 212 212 213 213 213 247 247 247 212 212 212 247 247 247 246 246 246 213 213 213 214 214 214 248 248 248 213 213 213 248 248 248 247 247 247 214 214 214 215 215 215 249 249 249 214 214 214 249 249 249 248 248 248 215 215 215 216 216 216 250 250 250 215 215 215 250 250 250 249 249 249 216 216 216 217 217 217 251 251 251 216 216 216 251 251 251 250 250 250 217 217 217 218 218 218 252 252 252 217 217 217 252 252 252 251 251 251 218 218 218 219 219 219 253 253 253 218 218 218 253 253 253 252 252 252 219 219 219 220 220 220 254 254 254 219 219 219 254 254 254 253 253 253 221 221 221 222 222 222 257 257 257 221 221 221 257 257 257 256 256 256 222 222 222 223 223 223 258 258 258 222 222 222 258 258 258 257 257 257 223 223 223 224 224 224 259 259 259 223 223 223 259 259 259 258 258 258 224 224 224 225 225 225 260 260 260 224 224 224 260 260 260 259 259 259 225 225 225 226 226 226 261 261 261 225 225 225 261 261 261 260 260 260 226 226 226 227 227 227 262 262 262 226 226 226 262 262 262 261 261 261 227 227 227 228 228 228 263 263 263 227 227 227 263 263 263 262 262 262 228 228 228 229 229 229 264 264 264 228 228 228 264 264 264 263 263 263 229 229 229 230 230 230 265 265 265 229 229 229 265 265 265 264 264 264 230 230 230 231 231 231 266 266 266 230 230 230 266 266 266 265 265 265 231 231 231 232 232 232 267 267 267 231 231 231 267 267 267 266 266 266 232 232 232 233 233 233 268 268 268 232 232 232 268 268 268 267 267 267 233 233 233 234 234 234 269 269 269 233 233 233 269 269 269 268 268 268 234 234 234 235 235 235 270 270 270 234 234 234 270 270 270 269 269 269 235 235 235 236 236 236 271 271 271 235 235 235 271 271 271 270 270 270 236 236 236 237 237 237 272 272 272 236 236 236 272 272 272 271 271 271 237 237 237 238 238 238 273 273 273 237 237 237 273 273 273 272 272 272 238 238 238 239 239 239 274 274 274 238 238 238 274 274 274 273 273 273 239 239 239 240 240 240 275 275 275 239 239 239 275 275 275 274 274 274 240 240 240 241 241 241 276 276 276 240 240 240 276 276 276 275 275 275 241 241 241 242 242 242 277 277 277 241 241 241 277 277 277 276 276 276 242 242 242 243 243 243 278 278 278 242 242 242 278 278 278 277 277 277 243 243 243 244 244 244 279 279 279 243 243 243 279 279 279 278 278 278 244 244 244 245 245 245 280 280 280 244 244 244 280 280 280 279 279 279 245 245 245 246 246 246 281 281 281 245 245 245 281 281 281 280 280 280 246 246 246 247 247 247 282 282 282 246 246 246 282 282 282 281 281 281 247 247 247 248 248 248 283 283 283 247 247 247 283 283 283 282 282 282 248 248 248 249 249 249 284 284 284 248 248 248 284 284 284 283 283 283 249 249 249 250 250 250 285 285 285 249 249 249 285 285 285 284 284 284 250 250 250 251 251 251 286 286 286 250 250 250 286 286 286 285 285 285 251 251 251 252 252 252 287 287 287 251 251 251 287 287 287 286 286 286 252 252 252 253 253 253 288 288 288 252 252 252 288 288 288 287 287 287 253 253 253 254 254 254 289 289 289 253 253 253 289 289 289 288 288 288 255 255 255 256 256 256 292 292 292 255 255 255 292 292 292 291 291 291 256 256 256 257 257 257 293 293 293 256 256 256 293 293 293 292 292 292 257 257 257 258 258 258 294 294 294 257 257 257 294 294 294 293 293 293 258 258 258 259 259 259 295 295 295 258 258 258 295 295 295 294 294 294 259 259 259 260 260 260 296 296 296 259 259 259 296 296 296 295 295 295 260 260 260 261 261 261 297 297 297 260 260 260 297 297 297 296 296 296 261 261 261 262 262 262 298 298 298 261 261 261 298 298 298 297 297 297 262 262 262 263 263 263 299 299 299 262 262 262 299 299 299 298 298 298 263 263 263 264 264 264 300 300 300 263 263 263 300 300 300 299 299 299 264 264 264 265 265 265 301 301 301 264 264 264 301 301 301 300 300 300 265 265 265 266 266 266 302 302 302 265 265 265 302 302 302 301 301 301 266 266 266 267 267 267 303 303 303 266 266 266 303 303 303 302 302 302 267 267 267 268 268 268 304 304 304 267 267 267 304 304 304 303 303 303 268 268 268 269 269 269 305 305 305 268 268 268 305 305 305 304 304 304 269 269 269 270 270 270 306 306 306 269 269 269 306 306 306 305 305 305 270 270 270 271 271 271 307 307 307 270 270 270 307 307 307 306 306 306 271 271 271 272 272 272 308 308 308 271 271 271 308 308 308 307 307 307 272 272 272 273 273 273 309 309 309 272 272 272 309 309 309 308 308 308 273 273 273 274 274 274 310 310 310 273 273 273 310 310 310 309 309 309 274 274 274 275 275 275 311 311 311 274 274 274 311 311 311 310 310 310 275 275 275 276 276 276 312 312 312 275 275 275 312 312 312 311 311 311 276 276 276 277 277 277 313 313 313 276 276 276 313 313 313 312 312 312 277 277 277 278 278 278 314 314 314 277 277 277 314 314 314 313 313 313 278 278 278 279 279 279 315 315 315 278 278 278 315 315 315 314 314 314 279 279 279 280 280 280 316 316 316 279 279 279 316 316 316 315 315 315 280 280 280 281 281 281 317 317 317 280 280 280 317 317 317 316 316 316 281 281 281 282 282 282 318 318 318 281 281 281 318 318 318 317 317 317 282 282 282 283 283 283 319 319 319 282 282 282 319 319 319 318 318 318 283 283 283 284 284 284 320 320 320 283 283 283 320 320 320 319 319 319 284 284 284 285 285 285 321 321 321 284 284 284 321 321 321 320 320 320 285 285 285 286 286 286 322 322 322 285 285 285 322 322 322 321 321 321 286 286 286 287 287 287 323 323 323 286 286 286 323 323 323 322 322 322 287 287 287 288 288 288 324 324 324 287 287 287 324 324 324 323 323 323 288 288 288 289 289 289 325 325 325 288 288 288 325 325 325 324 324 324 289 289 289 290 290 290 326 326 326 289 289 289 326 326 326 325 325 325 291 291 291 292 292 292 328 328 328 291 291 291 328 328 328 327 327 327 292 292 292 293 293 293 329 329 329 292 292 292 329 329 329 328 328 328 293 293 293 294 294 294 330 330 330 293 293 293 330 330 330 329 329 329 294 294 294 295 295 295 331 331 331 294 294 294 331 331 331 330 330 330 295 295 295 296 296 296 332 332 332 295 295 295 332 332 332 331 331 331 296 296 296 297 297 297 333 333 333 296 296 296 333 333 333 332 332 332 297 297 297 298 298 298 334 334 334 297 297 297 334 334 334 333 333 333 298 298 298 299 299 299 335 335 335 298 298 298 335 335 335 334 334 334 299 299 299 300 300 300 336 336 336 299 299 299 336 336 336 335 335 335 300 300 300 301 301 301 337 337 337 300 300 300 337 337 337 336 336 336 301 301 301 302 302 302 338 338 338 301 301 301 338 338 338 337 337 337 302 302 302 303 303 303 339 339 339 302 302 302 339 339 339 338 338 338 303 303 303 304 304 304 340 340 340 303 303 303 340 340 340 339 339 339 304 304 304 305 305 305 341 341 341 304 304 304 341 341 341 340 340 340 305 305 305 306 306 306 342 342 342 305 305 305 342 342 342 341 341 341 306 306 306 307 307 307 343 343 343 306 306 306 343 343 343 342 342 342 307 307 307 308 308 308 344 344 344 307 307 307 344 344 344 343 343 343 308 308 308 309 309 309 345 345 345 308 308 308 345 345 345 344 344 344 309 309 309 310 310 310 346 346 346 309 309 309 346 346 346 345 345 345 310 310 310 311 311 311 347 347 347 310 310 310 347 347 347 346 346 346 311 311 311 312 312 312 348 348 348 311 311 311 348 348 348 347 347 347 312 312 312 313 313 313 349 349 349 312 312 312 349 349 349 348 348 348 313 313 313 314 314 314 350 350 350 313 313 313 350 350 350 349 349 349 314 314 314 315 315 315 351 351 351 314 314 314 351 351 351 350 350 350 315 315 315 316 316 316 352 352 352 315 315 315 352 352 352 351 351 351 316 316 316 317 317 317 353 353 353 316 316 316 353 353 353 352 352 352 317 317 317 318 318 318 354 354 354 317 317 317 354 354 354 353 353 353 318 318 318 319 319 319 355 355 355 318 318 318 355 355 355 354 354 354 319 319 319 320 320 320 356 356 356 319 319 319 356 356 356 355 355 355 320 320 320 321 321 321 357 357 357 320 320 320 357 357 357 356 356 356 321 321 321 322 322 322 358 358 358 321 321 321 358 358 358 357 357 357 322 322 322 323 323 323 359 359 359 322 322 322 359 359 359 358 358 358 323 323 323 324 324 324 360 360 360 323 323 323 360 360 360 359 359 359 324 324 324 325 325 325 361 361 361 324 324 324 361 361 361 360 360 360 325 325 325 326 326 326 362 362 362 325 325 325 362 362 362 361 361 361 327 327 327 328 328 328 365 365 365 327 327 327 365 365 365 364 364 364 328 328 328 329 329 329 366 366 366 328 328 328 366 366 366 365 365 365 329 329 329 330 330 330 367 367 367 329 329 329 367 367 367 366 366 366 330 330 330 331 331 331 368 368 368 330 330 330 368 368 368 367 367 367 331 331 331 332 332 332 369 369 369 331 331 331 369 369 369 368 368 368 332 332 332 333 333 333 370 370 370 332 332 332 370 370 370 369 369 369 333 333 333 334 334 334 371 371 371 333 333 333 371 371 371 370 370 370 334 334 334 335 335 335 372 372 372 334 334 334 372 372 372 371 371 371 335 335 335 336 336 336 373 373 373 335 335 335 373 373 373 372 372 372 336 336 336 337 337 337 374 374 374 336 336 336 374 374 374 373 373 373 337 337 337 338 338 338 375 375 375 337 337 337 375 375 375 374 374 374 338 338 338 339 339 339 376 376 376 338 338 338 376 376 376 375 375 375 339 339 339 340 340 340 377 377 377 339 339 339 377 377 377 376 376 376 340 340 340 341 341 341 378 378 378 340 340 340 378 378 378 377 377 377 341 341 341 342 342 342 379 379 379 341 341 341 379 379 379 378 378 378 342 342 342 343 343 343 380 380 380 342 342 342 380 380 380 379 379 379 343 343 343 344 344 344 381 381 381 343 343 343 381 381 381 380 380 380 344 344 344 345 345 345 382 382 382 344 344 344 382 382 382 381 381 381 345 345 345 346 346 346 383 383 383 345 345 345 383 383 383 382 382 382 346 346 346 347 347 347 384 384 384 346 346 346 384 384 384 383 383 383 347 347 347 348 348 348 385 385 385 347 347 347 385 385 385 384 384 384 348 348 348 349 349 349 386 386 386 348 348 348 386 386 386 385 385 385 349 349 349 350 350 350 387 387 387 349 349 349 387 387 387 386 386 386 350 350 350 351 351 351 388 388 388 350 350 350 388 388 388 387 387 387 351 351 351 352 352 352 389 389 389 351 351 351 389 389 389 388 388 388 352 352 352 353 353 353 390 390 390 352 352 352 390 390 390 389 389 389 353 353 353 354 354 354 391 391 391 353 353 353 391 391 391 390 390 390 354 354 354 355 355 355 392 392 392 354 354 354 392 392 392 391 391 391 355 355 355 356 356 356 393 393 393 355 355 355 393 393 393 392 392 392 356 356 356 357 357 357 394 394 394 356 356 356 394 394 394 393 393 393 357 357 357 358 358 358 395 395 395 357 357 357 395 395 395 394 394 394 358 358 358 359 359 359 396 396 396 358 358 358 396 396 396 395 395 395 359 359 359 360 360 360 397 397 397 359 359 359 397 397 397 396 396 396 360 360 360 361 361 361 398 398 398 360 360 360 398 398 398 397 397 397 361 361 361 362 362 362 399 399 399 361 361 361 399 399 399 398 398 398 362 362 362 363 363 363 400 400 400 362 362 362 400 400 400 399 399 399 364 364 364 365 365 365 402 402 402 364 364 364 402 402 402 401 401 401 365 365 365 366 366 366 403 403 403 365 365 365 403 403 403 402 402 402 366 366 366 367 367 367 404 404 404 366 366 366 404 404 404 403 403 403 367 367 367 368 368 368 405 405 405 367 367 367 405 405 405 404 404 404 368 368 368 369 369 369 406 406 406 368 368 368 406 406 406 405 405 405 369 369 369 370 370 370 407 407 407 369 369 369 407 407 407 406 406 406 370 370 370 371 371 371 408 408 408 370 370 370 408 408 408 407 407 407 371 371 371 372 372 372 409 409 409 371 371 371 409 409 409 408 408 408 372 372 372 373 373 373 410 410 410 372 372 372 410 410 410 409 409 409 373 373 373 374 374 374 411 411 411 373 373 373 411 411 411 410 410 410 374 374 374 375 375 375 412 412 412 374 374 374 412 412 412 411 411 411 375 375 375 376 376 376 413 413 413 375 375 375 413 413 413 412 412 412 376 376 376 377 377 377 414 414 414 376 376 376 414 414 414 413 413 413 377 377 377 378 378 378 415 415 415 377 377 377 415 415 415 414 414 414 378 378 378 379 379 379 416 416 416 378 378 378 416 416 416 415 415 415 379 379 379 380 380 380 417 417 417 379 379 379 417 417 417 416 416 416 380 380 380 381 381 381 418 418 418 380 380 380 418 418 418 417 417 417 381 381 381 382 382 382 419 419 419 381 381 381 419 419 419 418 418 418 382 382 382 383 383 383 420 420 420 382 382 382 420 420 420 419 419 419 383 383 383 384 384 384 421 421 421 383 383 383 421 421 421 420 420 420 384 384 384 385 385 385 422 422 422 384 384 384 422 422 422 421 421 421 385 385 385 386 386 386 423 423 423 385 385 385 423 423 423 422 422 422 386 386 386 387 387 387 424 424 424 386 386 386 424 424 424 423 423 423 387 387 387 388 388 388 425 425 425 387 387 387 425 425 425 424 424 424 388 388 388 389 389 389 426 426 426 388 388 388 426 426 426 425 425 425 389 389 389 390 390 390 427 427 427 389 389 389 427 427 427 426 426 426 390 390 390 391 391 391 428 428 428 390 390 390 428 428 428 427 427 427 391 391 391 392 392 392 429 429 429 391 391 391 429 429 429 428 428 428 392 392 392 393 393 393 430 430 430 392 392 392 430 430 430 429 429 429 393 393 393 394 394 394 431 431 431 393 393 393 431 431 431 430 430 430 394 394 394 395 395 395 432 432 432 394 394 394 432 432 432 431 431 431 395 395 395 396 396 396 433 433 433 395 395 395 433 433 433 432 432 432 396 396 396 397 397 397 434 434 434 396 396 396 434 434 434 433 433 433 397 397 397 398 398 398 435 435 435 397 397 397 435 435 435 434 434 434 398 398 398 399 399 399 436 436 436 398 398 398 436 436 436 435 435 435 399 399 399 400 400 400 437 437 437 399 399 399 437 437 437 436 436 436 402 402 402 403 403 403 439 439 439 402 402 402 439 439 439 438 438 438 403 403 403 404 404 404 440 440 440 403 403 403 440 440 440 439 439 439 404 404 404 405 405 405 441 441 441 404 404 404 441 441 441 440 440 440 405 405 405 406 406 406 442 442 442 405 405 405 442 442 442 441 441 441 406 406 406 407 407 407 443 443 443 406 406 406 443 443 443 442 442 442 407 407 407 408 408 408 444 444 444 407 407 407 444 444 444 443 443 443 408 408 408 409 409 409 445 445 445 408 408 408 445 445 445 444 444 444 409 409 409 410 410 410 446 446 446 409 409 409 446 446 446 445 445 445 410 410 410 411 411 411 447 447 447 410 410 410 447 447 447 446 446 446 411 411 411 412 412 412 448 448 448 411 411 411 448 448 448 447 447 447 412 412 412 413 413 413 449 449 449 412 412 412 449 449 449 448 448 448 413 413 413 414 414 414 450 450 450 413 413 413 450 450 450 449 449 449 414 414 414 415 415 415 451 451 451 414 414 414 451 451 451 450 450 450 415 415 415 416 416 416 452 452 452 415 415 415 452 452 452 451 451 451 416 416 416 417 417 417 453 453 453 416 416 416 453 453 453 452 452 452 417 417 417 418 418 418 454 454 454 417 417 417 454 454 454 453 453 453 418 418 418 419 419 419 455 455 455 418 418 418 455 455 455 454 454 454 419 419 419 420 420 420 456 456 456 419 419 419 456 456 456 455 455 455 420 420 420 421 421 421 457 457 457 420 420 420 457 457 457 456 456 456 421 421 421 422 422 422 458 458 458 421 421 421 458 458 458 457 457 457 422 422 422 423 423 423 459 459 459 422 422 422 459 459 459 458 458 458 423 423 423 424 424 424 460 460 460 423 423 423 460 460 460 459 459 459 424 424 424 425 425 425 461 461 461 424 424 424 461 461 461 460 460 460 425 425 425 426 426 426 462 462 462 425 425 425 462 462 462 461 461 461 426 426 426 427 427 427 463 463 463 426 426 426 463 463 463 462 462 462 427 427 427 428 428 428 464 464 464 427 427 427 464 464 464 463 463 463 428 428 428 429 429 429 465 465 465 428 428 428 465 465 465 464 464 464 429 429 429 430 430 430 466 466 466 429 429 429 466 466 466 465 465 465 430 430 430 431 431 431 467 467 467 430 430 430 467 467 467 466 466 466 431 431 431 432 432 432 468 468 468 431 431 431 468 468 468 467 467 467 432 432 432 433 433 433 469 469 469 432 432 432 469 469 469 468 468 468 433 433 433 434 434 434 470 470 470 433 433 433 470 470 470 469 469 469 434 434 434 435 435 435 471 471 471 434 434 434 471 471 471 470 470 470 435 435 435 436 436 436 472 472 472 435 435 435 472 472 472 471 471 471 436 436 436 437 437 437 473 473 473 436 436 436 473 473 473 472 472 472 438 438 438 439 439 439 475 475 475 438 438 438 475 475 475 474 474 474 439 439 439 440 440 440 476 476 476 439 439 439 476 476 476 475 475 475 440 440 440 441 441 441 477 477 477 440 440 440 477 477 477 476 476 476 441 441 441 442 442 442 478 478 478 441 441 441 478 478 478 477 477 477 442 442 442 443 443 443 479 479 479 442 442 442 479 479 479 478 478 478 443 443 443 444 444 444 480 480 480 443 443 443 480 480 480 479 479 479 444 444 444 445 445 445 481 481 481 444 444 444 481 481 481 480 480 480 445 445 445 446 446 446 482 482 482 445 445 445 482 482 482 481 481 481 446 446 446 447 447 447 483 483 483 446 446 446 483 483 483 482 482 482 447 447 447 448 448 448 484 484 484 447 447 447 484 484 484 483 483 483 448 448 448 449 449 449 485 485 485 448 448 448 485 485 485 484 484 484 449 449 449 450 450 450 486 486 486 449 449 449 486 486 486 485 485 485 450 450 450 451 451 451 487 487 487 450 450 450 487 487 487 486 486 486 451 451 451 452 452 452 488 488 488 451 451 451 488 488 488 487 487 487 452 452 452 453 453 453 489 489 489 452 452 452 489 489 489 488 488 488 453 453 453 454 454 454 490 490 490 453 453 453 490 490 490 489 489 489 454 454 454 455 455 455 491 491 491 454 454 454 491 491 491 490 490 490 455 455 455 456 456 456 492 492 492 455 455 455 492 492 492 491 491 491 456 456 456 457 457 457 493 493 493 456 456 456 493 493 493 492 492 492 457 457 457 458 458 458 494 494 494 457 457 457 494 494 494 493 493 493 458 458 458 459 459 459 495 495 495 458 458 458 495 495 495 494 494 494 459 459 459 460 460 460 496 496 496 459 459 459 496 496 496 495 495 495 460 460 460 461 461 461 497 497 497 460 460 460 497 497 497 496 496 496 461 461 461 462 462 462 498 498 498 461 461 461 498 498 498 497 497 497 462 462 462 463 463 463 499 499 499 462 462 462 499 499 499 498 498 498 463 463 463 464 464 464 500 500 500 463 463 463 500 500 500 499 499 499 464 464 464 465 465 465 501 501 501 464 464 464 501 501 501 500 500 500 465 465 465 466 466 466 502 502 502 465 465 465 502 502 502 501 501 501 466 466 466 467 467 467 503 503 503 466 466 466 503 503 503 502 502 502 467 467 467 468 468 468 504 504 504 467 467 467 504 504 504 503 503 503 468 468 468 469 469 469 505 505 505 468 468 468 505 505 505 504 504 504 469 469 469 470 470 470 506 506 506 469 469 469 506 506 506 505 505 505 470 470 470 471 471 471 507 507 507 470 470 470 507 507 507 506 506 506 471 471 471 472 472 472 508 508 508 471 471 471 508 508 508 507 507 507 472 472 472 473 473 473 509 509 509 472 472 472 509 509 509 508 508 508 475 475 475 476 476 476 511 511 511 475 475 475 511 511 511 510 510 510 476 476 476 477 477 477 512 512 512 476 476 476 512 512 512 511 511 511 477 477 477 478 478 478 513 513 513 477 477 477 513 513 513 512 512 512 478 478 478 479 479 479 514 514 514 478 478 478 514 514 514 513 513 513 479 479 479 480 480 480 515 515 515 479 479 479 515 515 515 514 514 514 480 480 480 481 481 481 516 516 516 480 480 480 516 516 516 515 515 515 481 481 481 482 482 482 517 517 517 481 481 481 517 517 517 516 516 516 482 482 482 483 483 483 518 518 518 482 482 482 518 518 518 517 517 517 483 483 483 484 484 484 519 519 519 483 483 483 519 519 519 518 518 518 484 484 484 485 485 485 520 520 520 484 484 484 520 520 520 519 519 519 485 485 485 486 486 486 521 521 521 485 485 485 521 521 521 520 520 520 486 486 486 487 487 487 522 522 522 486 486 486 522 522 522 521 521 521 487 487 487 488 488 488 523 523 523 487 487 487 523 523 523 522 522 522 488 488 488 489 489 489 524 524 524 488 488 488 524 524 524 523 523 523 489 489 489 490 490 490 525 525 525 489 489 489 525 525 525 524 524 524 490 490 490 491 491 491 526 526 526 490 490 490 526 526 526 525 525 525 491 491 491 492 492 492 527 527 527 491 491 491 527 527 527 526 526 526 492 492 492 493 493 493 528 528 528 492 492 492 528 528 528 527 527 527 493 493 493 494 494 494 529 529 529 493 493 493 529 529 529 528 528 528 494 494 494 495 495 495 530 530 530 494 494 494 530 530 530 529 529 529 495 495 495 496 496 496 531 531 531 495 495 495 531 531 531 530 530 530 496 496 496 497 497 497 532 532 532 496 496 496 532 532 532 531 531 531 497 497 497 498 498 498 533 533 533 497 497 497 533 533 533 532 532 532 498 498 498 499 499 499 534 534 534 498 498 498 534 534 534 533 533 533 499 499 499 500 500 500 535 535 535 499 499 499 535 535 535 534 534 534 500 500 500 501 501 501 536 536 536 500 500 500 536 536 536 535 535 535 501 501 501 502 502 502 537 537 537 501 501 501 537 537 537 536 536 536 502 502 502 503 503 503 538 538 538 502 502 502 538 538 538 537 537 537 503 503 503 504 504 504 539 539 539 503 503 503 539 539 539 538 538 538 504 504 504 505 505 505 540 540 540 504 504 504 540 540 540 539 539 539 505 505 505 506 506 506 541 541 541 505 505 505 541 541 541 540 540 540 506 506 506 507 507 507 542 542 542 506 506 506 542 542 542 541 541 541 507 507 507 508 508 508 543 543 543 507 507 507 543 543 543 542 542 542 510 510 510 511 511 511 545 545 545 510 510 510 545 545 545 544 544 544 511 511 511 512 512 512 546 546 546 511 511 511 546 546 546 545 545 545 512 512 512 513 513 513 547 547 547 512 512 512 547 547 547 546 546 546 513 513 513 514 514 514 548 548 548 513 513 513 548 548 548 547 547 547 514 514 514 515 515 515 549 549 549 514 514 514 549 549 549 548 548 548 515 515 515 516 516 516 550 550 550 515 515 515 550 550 550 549 549 549 516 516 516 517 517 517 551 551 551 516 516 516 551 551 551 550 550 550 517 517 517 518 518 518 552 552 552 517 517 517 552 552 552 551 551 551 518 518 518 519 519 519 553 553 553 518 518 518 553 553 553 552 552 552 519 519 519 520 520 520 554 554 554 519 519 519 554 554 554 553 553 553 520 520 520 521 521 521 555 555 555 520 520 520 555 555 555 554 554 554 521 521 521 522 522 522 556 556 556 521 521 521 556 556 556 555 555 555 522 522 522 523 523 523 557 557 557 522 522 522 557 557 557 556 556 556 523 523 523 524 524 524 558 558 558 523 523 523 558 558 558 557 557 557 524 524 524 525 525 525 559 559 559 524 524 524 559 559 559 558 558 558 525 525 525 526 526 526 560 560 560 525 525 525 560 560 560 559 559 559 526 526 526 527 527 527 561 561 561 526 526 526 561 561 561 560 560 560 527 527 527 528 528 528 562 562 562 527 527 527 562 562 562 561 561 561 528 528 528 529 529 529 563 563 563 528 528 528 563 563 563 562 562 562 529 529 529 530 530 530 564 564 564 529 529 529 564 564 564 563 563 563 530 530 530 531 531 531 565 565 565 530 530 530 565 565 565 564 564 564 531 531 531 532 532 532 566 566 566 531 531 531 566 566 566 565 565 565 532 532 532 533 533 533 567 567 567 532 532 532 567 567 567 566 566 566 533 533 533 534 534 534 568 568 568 533 533 533 568 568 568 567 567 567 534 534 534 535 535 535 569 569 569 534 534 534 569 569 569 568 568 568 535 535 535 536 536 536 570 570 570 535 535 535 570 570 570 569 569 569 536 536 536 537 537 537 571 571 571 536 536 536 571 571 571 570 570 570 537 537 537 538 538 538 572 572 572 537 537 537 572 572 572 571 571 571 538 538 538 539 539 539 573 573 573 538 538 538 573 573 573 572 572 572 539 539 539 540 540 540 574 574 574 539 539 539 574 574 574 573 573 573 540 540 540 541 541 541 575 575 575 540 540 540 575 575 575 574 574 574 541 541 541 542 542 542 576 576 576 541 541 541 576 576 576 575 575 575 542 542 542 543 543 543 577 577 577 542 542 542 577 577 577 576 576 576 545 545 545 546 546 546 579 579 579 545 545 545 579 579 579 578 578 578 546 546 546 547 547 547 580 580 580 546 546 546 580 580 580 579 579 579 547 547 547 548 548 548 581 581 581 547 547 547 581 581 581 580 580 580 548 548 548 549 549 549 582 582 582 548 548 548 582 582 582 581 581 581 549 549 549 550 550 550 583 583 583 549 549 549 583 583 583 582 582 582 550 550 550 551 551 551 584 584 584 550 550 550 584 584 584 583 583 583 551 551 551 552 552 552 585 585 585 551 551 551 585 585 585 584 584 584 552 552 552 553 553 553 586 586 586 552 552 552 586 586 586 585 585 585 553 553 553 554 554 554 587 587 587 553 553 553 587 587 587 586 586 586 554 554 554 555 555 555 588 588 588 554 554 554 588 588 588 587 587 587 555 555 555 556 556 556 589 589 589 555 555 555 589 589 589 588 588 588 556 556 556 557 557 557 590 590 590 556 556 556 590 590 590 589 589 589 557 557 557 558 558 558 591 591 591 557 557 557 591 591 591 590 590 590 558 558 558 559 559 559 592 592 592 558 558 558 592 592 592 591 591 591 559 559 559 560 560 560 593 593 593 559 559 559 593 593 593 592 592 592 560 560 560 561 561 561 594 594 594 560 560 560 594 594 594 593 593 593 561 561 561 562 562 562 595 595 595 561 561 561 595 595 595 594 594 594 562 562 562 563 563 563 596 596 596 562 562 562 596 596 596 595 595 595 563 563 563 564 564 564 597 597 597 563 563 563 597 597 597 596 596 596 564 564 564 565 565 565 598 598 598 564 564 564 598 598 598 597 597 597 565 565 565 566 566 566 599 599 599 565 565 565 599 599 599 598 598 598 566 566 566 567 567 567 600 600 600 566 566 566 600 600 600 599 599 599 567 567 567 568 568 568 601 601 601 567 567 567 601 601 601 600 600 600 568 568 568 569 569 569 602 602 602 568 568 568 602 602 602 601 601 601 569 569 569 570 570 570 603 603 603 569 569 569 603 603 603 602 602 602 570 570 570 571 571 571 604 604 604 570 570 570 604 604 604 603 603 603 571 571 571 572 572 572 605 605 605 571 571 571 605 605 605 604 604 604 572 572 572 573 573 573 606 606 606 572 572 572 606 606 606 605 605 605 573 573 573 574 574 574 607 607 607 573 573 573 607 607 607 606 606 606 574 574 574 575 575 575 608 608 608 574 574 574 608 608 608 607 607 607 578 578 578 579 579 579 610 610 610 578 578 578 610 610 610 609 609 609 579 579 579 580 580 580 611 611 611 579 579 579 611 611 611 610 610 610 580 580 580 581 581 581 612 612 612 580 580 580 612 612 612 611 611 611 581 581 581 582 582 582 613 613 613 581 581 581 613 613 613 612 612 612 582 582 582 583 583 583 614 614 614 582 582 582 614 614 614 613 613 613 583 583 583 584 584 584 615 615 615 583 583 583 615 615 615 614 614 614 584 584 584 585 585 585 616 616 616 584 584 584 616 616 616 615 615 615 585 585 585 586 586 586 617 617 617 585 585 585 617 617 617 616 616 616 586 586 586 587 587 587 618 618 618 586 586 586 618 618 618 617 617 617 587 587 587 588 588 588 619 619 619 587 587 587 619 619 619 618 618 618 588 588 588 589 589 589 620 620 620 588 588 588 620 620 620 619 619 619 589 589 589 590 590 590 621 621 621 589 589 589 621 621 621 620 620 620 590 590 590 591 591 591 622 622 622 590 590 590 622 622 622 621 621 621 591 591 591 592 592 592 623 623 623 591 591 591 623 623 623 622 622 622 592 592 592 593 593 593 624 624 624 592 592 592 624 624 624 623 623 623 593 593 593 594 594 594 625 625 625 593 593 593 625 625 625 624 624 624 594 594 594 595 595 595 626 626 626 594 594 594 626 626 626 625 625 625 595 595 595 596 596 596 627 627 627 595 595 595 627 627 627 626 626 626 596 596 596 597 597 597 628 628 628 596 596 596 628 628 628 627 627 627 597 597 597 598 598 598 629 629 629 597 597 597 629 629 629 628 628 628 598 598 598 599 599 599 630 630 630 598 598 598 630 630 630 629 629 629 599 599 599 600 600 600 631 631 631 599 599 599 631 631 631 630 630 630 600 600 600 601 601 601 632 632 632 600 600 600 632 632 632 631 631 631 601 601 601 602 602 602 633 633 633 601 601 601 633 633 633 632 632 632 602 602 602 603 603 603 634 634 634 602 602 602 634 634 634 633 633 633 603 603 603 604 604 604 635 635 635 603 603 603 635 635 635 634 634 634 604 604 604 605 605 605 636 636 636 604 604 604 636 636 636 635 635 635 605 605 605 606 606 606 637 637 637 605 605 605 637 637 637 636 636 636 609 609 609 610 610 610 639 639 639 609 609 609 639 639 639 638 638 638 610 610 610 611 611 611 640 640 640 610 610 610 640 640 640 639 639 639 611 611 611 612 612 612 641 641 641 611 611 611 641 641 641 640 640 640 612 612 612 613 613 613 642 642 642 612 612 612 642 642 642 641 641 641 613 613 613 614 614 614 643 643 643 613 613 613 643 643 643 642 642 642 614 614 614 615 615 615 644 644 644 614 614 614 644 644 644 643 643 643 615 615 615 616 616 616 645 645 645 615 615 615 645 645 645 644 644 644 616 616 616 617 617 617 646 646 646 616 616 616 646 646 646 645 645 645 617 617 617 618 618 618 647 647 647 617 617 617 647 647 647 646 646 646 618 618 618 619 619 619 648 648 648 618 618 618 648 648 648 647 647 647 619 619 619 620 620 620 649 649 649 619 619 619 649 649 649 648 648 648 620 620 620 621 621 621 650 650 650 620 620 620 650 650 650 649 649 649 621 621 621 622 622 622 651 651 651 621 621 621 651 651 651 650 650 650 622 622 622 623 623 623 652 652 652 622 622 622 652 652 652 651 651 651 623 623 623 624 624 624 653 653 653 623 623 623 653 653 653 652 652 652 624 624 624 625 625 625 654 654 654 624 624 624 654 654 654 653 653 653 625 625 625 626 626 626 655 655 655 625 625 625 655 655 655 654 654 654 626 626 626 627 627 627 656 656 656 626 626 626 656 656 656 655 655 655 627 627 627 628 628 628 657 657 657 627 627 627 657 657 657 656 656 656 628 628 628 629 629 629 658 658 658 628 628 628 658 658 658 657 657 657 629 629 629 630 630 630 659 659 659 629 629 629 659 659 659 658 658 658 630 630 630 631 631 631 660 660 660 630 630 630 660 660 660 659 659 659 631 631 631 632 632 632 661 661 661 631 631 631 661 661 661 660 660 660 632 632 632 633 633 633 662 662 662 632 632 632 662 662 662 661 661 661 633 633 633 634 634 634 663 663 663 633 633 633 663 663 663 662 662 662 634 634 634 635 635 635 664 664 664 634 634 634 664 664 664 663 663 663 639 639 639 640 640 640 666 666 666 639 639 639 666 666 666 665 665 665 640 640 640 641 641 641 667 667 667 640 640 640 667 667 667 666 666 666 641 641 641 642 642 642 668 668 668 641 641 641 668 668 668 667 667 667 642 642 642 643 643 643 669 669 669 642 642 642 669 669 669 668 668 668 643 643 643 644 644 644 670 670 670 643 643 643 670 670 670 669 669 669 644 644 644 645 645 645 671 671 671 644 644 644 671 671 671 670 670 670 645 645 645 646 646 646 672 672 672 645 645 645 672 672 672 671 671 671 646 646 646 647 647 647 673 673 673 646 646 646 673 673 673 672 672 672 647 647 647 648 648 648 674 674 674 647 647 647 674 674 674 673 673 673 648 648 648 649 649 649 675 675 675 648 648 648 675 675 675 674 674 674 649 649 649 650 650 650 676 676 676 649 649 649 676 676 676 675 675 675 650 650 650 651 651 651 677 677 677 650 650 650 677 677 677 676 676 676 651 651 651 652 652 652 678 678 678 651 651 651 678 678 678 677 677 677 652 652 652 653 653 653 679 679 679 652 652 652 679 679 679 678 678 678 653 653 653 654 654 654 680 680 680 653 653 653 680 680 680 679 679 679 654 654 654 655 655 655 681 681 681 654 654 654 681 681 681 680 680 680 655 655 655 656 656 656 682 682 682 655 655 655 682 682 682 681 681 681 656 656 656 657 657 657 683 683 683 656 656 656 683 683 683 682 682 682 657 657 657 658 658 658 684 684 684 657 657 657 684 684 684 683 683 683 658 658 658 659 659 659 685 685 685 658 658 658 685 685 685 684 684 684 659 659 659 660 660 660 686 686 686 659 659 659 686 686 686 685 685 685 660 660 660 661 661 661 687 687 687 660 660 660 687 687 687 686 686 686 661 661 661 662 662 662 688 688 688 661 661 661 688 688 688 687 687 687 665 665 665 666 666 666 690 690 690 665 665 665 690 690 690 689 689 689 666 666 666 667 667 667 691 691 691 666 666 666 691 691 691 690 690 690 667 667 667 668 668 668 692 692 692 667 667 667 692 692 692 691 691 691 668 668 668 669 669 669 693 693 693 668 668 668 693 693 693 692 692 692 669 669 669 670 670 670 694 694 694 669 669 669 694 694 694 693 693 693 670 670 670 671 671 671 695 695 695 670 670 670 695 695 695 694 694 694 671 671 671 672 672 672 696 696 696 671 671 671 696 696 696 695 695 695 672 672 672 673 673 673 697 697 697 672 672 672 697 697 697 696 696 696 673 673 673 674 674 674 698 698 698 673 673 673 698 698 698 697 697 697 674 674 674 675 675 675 699 699 699 674 674 674 699 699 699 698 698 698 675 675 675 676 676 676 700 700 700 675 675 675 700 700 700 699 699 699 676 676 676 677 677 677 701 701 701 676 676 676 701 701 701 700 700 700 677 677 677 678 678 678 702 702 702 677 677 677 702 702 702 701 701 701 678 678 678 679 679 679 703 703 703 678 678 678 703 703 703 702 702 702 679 679 679 680 680 680 704 704 704 679 679 679 704 704 704 703 703 703 680 680 680 681 681 681 705 705 705 680 680 680 705 705 705 704 704 704 681 681 681 682 682 682 706 706 706 681 681 681 706 706 706 705 705 705 682 682 682 683 683 683 707 707 707 682 682 682 707 707 707 706 706 706 683 683 683 684 684 684 708 708 708 683 683 683 708 708 708 707 707 707 684 684 684 685 685 685 709 709 709 684 684 684 709 709 709 708 708 708 685 685 685 686 686 686 710 710 710 685 685 685 710 710 710 709 709 709 686 686 686 687 687 687 711 711 711 686 686 686 711 711 711 710 710 710 690 690 690 691 691 691 713 713 713 690 690 690 713 713 713 712 712 712 691 691 691 692 692 692 714 714 714 691 691 691 714 714 714 713 713 713 692 692 692 693 693 693 715 715 715 692 692 692 715 715 715 714 714 714 693 693 693 694 694 694 716 716 716 693 693 693 716 716 716 715 715 715 694 694 694 695 695 695 717 717 717 694 694 694 717 717 717 716 716 716 695 695 695 696 696 696 718 718 718 695 695 695 718 718 718 717 717 717 696 696 696 697 697 697 719 719 719 696 696 696 719 719 719 718 718 718 697 697 697 698 698 698 720 720 720 697 697 697 720 720 720 719 719 719 698 698 698 699 699 699 721 721 721 698 698 698 721 721 721 720 720 720 699 699 699 700 700 700 722 722 722 699 699 699 722 722 722 721 721 721 700 700 700 701 701 701 723 723 723 700 700 700 723 723 723 722 722 722 701 701 701 702 702 702 724 724 724 701 701 701 724 724 724 723 723 723 702 702 702 703 703 703 725 725 725 702 702 702 725 725 725 724 724 724 703 703 703 704 704 704 726 726 726 703 703 703 726 726 726 725 725 725 704 704 704 705 705 705 727 727 727 704 704 704 727 727 727 726 726 726 705 705 705 706 706 706 728 728 728 705 705 705 728 728 728 727 727 727 706 706 706 707 707 707 729 729 729 706 706 706 729 729 729 728 728 728 707 707 707 708 708 708 730 730 730 707 707 707 730 730 730 729 729 729 708 708 708 709 709 709 731 731 731 708 708 708 731 731 731 730 730 730 709 709 709 710 710 710 732 732 732 709 709 709 732 732 732 731 731 731 712 712 712 713 713 713 734 734 734 712 712 712 734 734 734 733 733 733 713 713 713 714 714 714 735 735 735 713 713 713 735 735 735 734 734 734 714 714 714 715 715 715 736 736 736 714 714 714 736 736 736 735 735 735 715 715 715 716 716 716 737 737 737 715 715 715 737 737 737 736 736 736 716 716 716 717 717 717 738 738 738 716 716 716 738 738 738 737 737 737 717 717 717 718 718 718 739 739 739 717 717 717 739 739 739 738 738 738 718 718 718 719 719 719 740 740 740 718 718 718 740 740 740 739 739 739 719 719 719 720 720 720 741 741 741 719 719 719 741 741 741 740 740 740 720 720 720 721 721 721 742 742 742 720 720 720 742 742 742 741 741 741 721 721 721 722 722 722 743 743 743 721 721 721 743 743 743 742 742 742 722 722 722 723 723 723 744 744 744 722 722 722 744 744 744 743 743 743 723 723 723 724 724 724 745 745 745 723 723 723 745 745 745 744 744 744 724 724 724 725 725 725 746 746 746 724 724 724 746 746 746 745 745 745 725 725 725 726 726 726 747 747 747 725 725 725 747 747 747 746 746 746 726 726 726 727 727 727 748 748 748 726 726 726 748 748 748 747 747 747 727 727 727 728 728 728 749 749 749 727 727 727 749 749 749 748 748 748 728 728 728 729 729 729 750 750 750 728 728 728 750 750 750 749 749 749 729 729 729 730 730 730 751 751 751 729 729 729 751 751 751 750 750 750 730 730 730 731 731 731 752 752 752 730 730 730 752 752 752 751 751 751 734 734 734 735 735 735 754 754 754 734 734 734 754 754 754 753 753 753 735 735 735 736 736 736 755 755 755 735 735 735 755 755 755 754 754 754 736 736 736 737 737 737 756 756 756 736 736 736 756 756 756 755 755 755 737 737 737 738 738 738 757 757 757 737 737 737 757 757 757 756 756 756 738 738 738 739 739 739 758 758 758 738 738 738 758 758 758 757 757 757 739 739 739 740 740 740 759 759 759 739 739 739 759 759 759 758 758 758 740 740 740 741 741 741 760 760 760 740 740 740 760 760 760 759 759 759 748 748 748 749 749 749 762 762 762 748 748 748 762 762 762 761 761 761 749 749 749 750 750 750 763 763 763 749 749 749 763 763 763 762 762 762 750 750 750 751 751 751 764 764 764 750 750 750 764 764 764 763 763 763</p>
    </triangles>
  </mesh></geometry></library_geometries>
  <library_visual_scenes><visual_scene id="s"><node id="q"><instance_geometry url="#g"><bind_material><technique_common>
    <instance_material symbol="m" target="#mat"><bind_vertex_input semantic="UV" input_semantic="TEXCOORD" input_set="0"/></instance_material>
  </technique_common></bind_material></instance_geometry></node></visual_scene></library_visual_scenes>
  <scene><instance_visual_scene url="#s"/></scene>
</COLLADA>
