<?xml version="1.0" encoding="utf-8"?>
<COLLADA xmlns="http://www.collada.org/2005/11/COLLADASchema" version="1.4.1">
  <asset><unit name="meter" meter="1"/><up_axis>Z_UP</up_axis></asset>
  <library_images><image id="img"><init_from>../materials/textures/rubble.jpg</init_from></image></library_images>
  <library_effects><effect id="fx"><profile_COMMON>
    <newparam sid="surf"><surface type="2D"><init_from>img</init_from></surface></newparam>
    <newparam sid="samp"><sampler2D><source>surf</source></sampler2D></newparam>
    <technique sid="common"><lambert><diffuse><texture texture="samp" texcoord="UV"/></diffuse></lambert></technique>
  </profile_COMMON></effect></library_effects>
  <library_materials><material id="mat"><instance_effect url="#fx"/></material></library_materials>
  <library_geometries><geometry id="g"><mesh>
    <source id="p"><float_array id="p-a" count="2283">0.2100 -1.1900 -0.0200 0.2800 -1.1900 -0.0200 0.3500 -1.1900 -0.0200 0.4200 -1.1900 -0.0200 0.4900 -1.1900 -0.0200 0.0700 -1.1200 -0.0200 0.1400 -1.1200 -0.0200 0.2100 -1.1200 0.0050 0.2800 -1.1200 0.0098 0.3500 -1.1200 0.0197 0.4200 -1.1200 0.0142 0.4900 -1.1200 -0.0200 0.5600 -1.1200 -0.0200 0.0000 -1.0500 -0.0200 0.0700 -1.0500 0.0050 0.1400 -1.0500 0.0304 0.2100 -1.0500 0.0465 0.2800 -1.0500 0.0528 0.3500 -1.0500 0.0493 0.4200 -1.0500 0.0404 0.4900 -1.0500 0.0299 0.5600 -1.0500 -0.0200 0.6300 -1.0500 -0.0200 -0.0700 -0.9800 -0.0200 0.0000 -0.9800 0.0227 0.0700 -0.9800 0.0543 0.1400 -0.9800 0.0792 0.2100 -0.9800 0.0929 0.2800 -0.9800 0.0889 0.3500 -0.9800 0.0742 0.4200 -0.9800 0.0592 0.4900 -0.9800 0.0451 0.5600 -0.9800 0.0294 0.6300 -0.9800 -0.0200 0.7000 -0.9800 -0.0200 -0.1400 -0.9100 -0.0200 -0.0700 -0.9100 0.0275 0.0000 -0.9100 0.0607 0.0700 -0.9100 0.0867 0.1400 -0.9100 0.1124 0.2100 -0.9100 0.1262 0.2800 -0.9100 0.1182 0.3500 -0.9100 0.0983 0.4200 -0.9100 0.0766 0.4900 -0.9100 0.0546 0.5600 -0.9100 0.0372 0.6300 -0.9100 0.0258 0.7000 -0.9100 -0.0200 0.7700 -0.9100 -0.0200 -0.2800 -0.8400 -0.0200 -0.2100 -0.8400 -0.0200 -0.1400 -0.8400 0.0287 -0.0700 -0.8400 0.0616 0.0000 -0.8400 0.0877 0.0700 -0.8400 0.1104 0.1400 -0.8400 0.1346 0.2100 -0.8400 0.1487 0.2800 -0.8400 0.1414 0.3500 -0.8400 0.1224 0.4200 -0.8400 0.0993 0.4900 -0.8400 0.0744 0.5600 -0.8400 0.0576 0.6300 -0.8400 0.0504 0.7000 -0.8400 0.0342 0.7700 -0.8400 -0.0200 0.8400 -0.8400 -0.0200 -0.5600 -0.7700 -0.0200 -0.4900 -0.7700 -0.0200 -0.4200 -0.7700 -0.0200 -0.3500 -0.7700 -0.0200 -0.2800 -0.7700 0.0128 -0.2100 -0.7700 0.0409 -0.1400 -0.7700 0.0697 -0.0700 -0.7700 0.0961 0.0000 -0.7700 0.1174 0.0700 -0.7700 0.1350 0.1400 -0.7700 0.1541 0.2100 -0.7700 0.1660 0.2800 -0.7700 0.1610 0.3500 -0.7700 0.1481 0.4200 -0.7700 0.1318 0.4900 -0.7700 0.1116 0.5600 -0.7700 0.0945 0.6300 -0.7700 0.0818 0.7000 -0.7700 0.0592 0.7700 -0.7700 0.0180 0.8400 -0.7700 -0.0200 -0.6300 -0.7000 -0.0200 -0.5600 -0.7000 0.0050 -0.4900 -0.7000 0.0281 -0.4200 -0.7000 0.0373 -0.3500 -0.7000 0.0445 -0.2800 -0.7000 0.0592 -0.2100 -0.7000 0.0816 -0.1400 -0.7000 0.1087 -0.0700 -0.7000 0.1343 0.0000 -0.7000 0.1529 0.0700 -0.7000 0.1656 0.1400 -0.7000 0.1775 0.2100 -0.7000 0.1834 0.2800 -0.7000 0.1783 0.3500 -0.7000 0.1693 0.4200 -0.7000 0.1586 0.4900 -0.7000 0.1442 0.5600 -0.7000 0.1255 0.6300 -0.7000 0.1036 0.7000 -0.7000 0.0734 0.7700 -0.7000 0.0336 0.8400 -0.7000 0.0050 0.9100 -0.7000 -0.0200 -0.7000 -0.6300 -0.0200 -0.6300 -0.6300 0.0050 -0.5600 -0.6300 0.0414 -0.4900 -0.6300 0.0721 -0.4200 -0.6300 0.0870 -0.3500 -0.6300 0.0912 -0.2800 -0.6300 0.0979 -0.2100 -0.6300 0.1145 -0.1400 -0.6300 0.1405 -0.0700 -0.6300 0.1673 0.0000 -0.6300 0.1866 0.0700 -0.6300 0.1994 0.1400 -0.6300 0.2060 0.2100 -0.6300 0.2039 0.2800 -0.6300 0.1960 0.3500 -0.6300 0.1863 0.4200 -0.6300 0.1740 0.4900 -0.6300 0.1600 0.5600 -0.6300 0.1418 0.6300 -0.6300 0.1175 0.7000 -0.6300 0.0858 0.7700 -0.6300 0.0513 0.8400 -0.6300 0.0248 0.9100 -0.6300 0.0050 0.9800 -0.6300 -0.0200 -0.7000 -0.5600 -0.0200 -0.6300 -0.5600 0.0227 -0.5600 -0.5600 0.0673 -0.4900 -0.5600 0.1050 -0.4200 -0.5600 0.1259 -0.3500 -0.5600 0.1324 -0.2800 -0.5600 0.1361 -0.2100 -0.5600 0.1463 -0.1400 -0.5600 0.1662 -0.0700 -0.5600 0.1899 0.0000 -0.5600 0.2111 0.0700 -0.5600 0.2273 0.1400 -0.5600 0.2323 0.2100 -0.5600 0.2260 0.2800 -0.5600 0.2167 0.3500 -0.5600 0.2058 0.4200 -0.5600 0.1903 0.4900 -0.5600 0.1740 0.5600 -0.5600 0.1561 0.6300 -0.5600 0.1320 0.7000 -0.5600 0.1025 0.7700 -0.5600 0.0749 0.8400 -0.5600 0.0580 0.9100 -0.5600 0.0429 0.9800 -0.5600 0.0083 1.0500 -0.5600 -0.0200 -0.7000 -0.4900 -0.0200 -0.6300 -0.4900 0.0387 -0.5600 -0.4900 0.0867 -0.4900 -0.4900 0.1279 -0.4200 -0.4900 0.1519 -0.3500 -0.4900 0.1640 -0.2800 -0.4900 0.1725 -0.2100 -0.4900 0.1795 -0.1400 -0.4900 0.1894 -0.0700 -0.4900 0.2063 0.0000 -0.4900 0.2290 0.0700 -0.4900 0.2485 0.1400 -0.4900 0.2548 0.2100 -0.4900 0.2497 0.2800 -0.4900 0.2406 0.3500 -0.4900 0.2270 0.4200 -0.4900 0.2082 0.4900 -0.4900 0.1905 0.5600 -0.4900 0.1713 0.6300 -0.4900 0.1463 0.7000 -0.4900 0.1206 0.7700 -0.4900 0.1001 0.8400 -0.4900 0.0859 0.9100 -0.4900 0.0688 0.9800 -0.4900 0.0356 1.0500 -0.4900 -0.0200 1.1200 -0.4900 -0.0200 -0.7700 -0.4200 -0.0200 -0.7000 -0.4200 0.0058 -0.6300 -0.4200 0.0518 -0.5600 -0.4200 0.0967 -0.4900 -0.4200 0.1399 -0.4200 -0.4200 0.1682 -0.3500 -0.4200 0.1864 -0.2800 -0.4200 0.2008 -0.2100 -0.4200 0.2081 -0.1400 -0.4200 0.2124 -0.0700 -0.4200 0.2254 0.0000 -0.4200 0.2498 0.0700 -0.4200 0.2712 0.1400 -0.4200 0.2771 0.2100 -0.4200 0.2707 0.2800 -0.4200 0.2609 0.3500 -0.4200 0.2462 0.4200 -0.4200 0.2261 0.4900 -0.4200 0.2078 0.5600 -0.4200 0.1879 0.6300 -0.4200 0.1636 0.7000 -0.4200 0.1420 0.7700 -0.4200 0.1232 0.8400 -0.4200 0.1043 0.9100 -0.4200 0.0826 0.9800 -0.4200 0.0530 1.0500 -0.4200 0.0150 1.1200 -0.4200 -0.0200 -0.7700 -0.3500 -0.0200 -0.7000 -0.3500 0.0268 -0.6300 -0.3500 0.0623 -0.5600 -0.3500 0.1003 -0.4900 -0.3500 0.1455 -0.4200 -0.3500 0.1828 -0.3500 -0.3500 0.2096 -0.2800 -0.3500 0.2281 -0.2100 -0.3500 0.2354 -0.1400 -0.3500 0.2371 -0.0700 -0.3500 0.2494 0.0000 -0.3500 0.2775 0.0700 -0.3500 0.2999 0.1400 -0.3500 0.3007 0.2100 -0.3500 0.2863 0.2800 -0.3500 0.2736 0.3500 -0.3500 0.2633 0.4200 -0.3500 0.2485 0.4900 -0.3500 0.2313 0.5600 -0.3500 0.2114 0.6300 -0.3500 0.1887 0.7000 -0.3500 0.1653 0.7700 -0.3500 0.1379 0.8400 -0.3500 0.1094 0.9100 -0.3500 0.0862 0.9800 -0.3500 0.0655 1.0500 -0.3500 0.0373 1.1200 -0.3500 -0.0200 1.1900 -0.3500 -0.0200 -0.7700 -0.2800 -0.0200 -0.7000 -0.2800 0.0429 -0.6300 -0.2800 0.0731 -0.5600 -0.2800 0.1073 -0.4900 -0.2800 0.1533 -0.4200 -0.2800 0.1980 -0.3500 -0.2800 0.2341 -0.2800 -0.2800 0.2581 -0.2100 -0.2800 0.2668 -0.1400 -0.2800 0.2660 -0.0700 -0.2800 0.2753 0.0000 -0.2800 0.3061 0.0700 -0.2800 0.3280 0.1400 -0.2800 0.3219 0.2100 -0.2800 0.2994 0.2800 -0.2800 0.2834 0.3500 -0.2800 0.2776 0.4200 -0.2800 0.2706 0.4900 -0.2800 0.2570 0.5600 -0.2800 0.2373 0.6300 -0.2800 0.2132 0.7000 -0.2800 0.1826 0.7700 -0.2800 0.1444 0.8400 -0.2800 0.1103 0.9100 -0.2800 0.0880 0.9800 -0.2800 0.0719 1.0500 -0.2800 0.0484 1.1200 -0.2800 -0.0200 1.1900 -0.2800 -0.0200 -0.8400 -0.2100 -0.0200 -0.7700 -0.2100 0.0220 -0.7000 -0.2100 0.0653 -0.6300 -0.2100 0.0925 -0.5600 -0.2100 0.1226 -0.4900 -0.2100 0.1638 -0.4200 -0.2100 0.2074 -0.3500 -0.2100 0.2468 -0.2800 -0.2100 0.2782 -0.2100 -0.2100 0.2959 -0.1400 -0.2100 0.2999 -0.0700 -0.2100 0.3041 0.0000 -0.2100 0.3303 0.0700 -0.2100 0.3473 0.1400 -0.2100 0.3360 0.2100 -0.2100 0.3127 0.2800 -0.2100 0.2952 0.3500 -0.2100 0.2875 0.4200 -0.2100 0.2826 0.4900 -0.2100 0.2720 0.5600 -0.2100 0.2524 0.6300 -0.2100 0.2245 0.7000 -0.2100 0.1894 0.7700 -0.2100 0.1503 0.8400 -0.2100 0.1179 0.9100 -0.2100 0.0949 0.9800 -0.2100 0.0731 1.0500 -0.2100 0.0444 1.1200 -0.2100 -0.0200 1.1900 -0.2100 -0.0200 -0.9100 -0.1400 -0.0200 -0.8400 -0.1400 0.0095 -0.7700 -0.1400 0.0629 -0.7000 -0.1400 0.0989 -0.6300 -0.1400 0.1205 -0.5600 -0.1400 0.1431 -0.4900 -0.1400 0.1768 -0.4200 -0.1400 0.2160 -0.3500 -0.1400 0.2534 -0.2800 -0.1400 0.2866 -0.2100 -0.1400 0.3121 -0.1400 -0.1400 0.3279 -0.0700 -0.1400 0.3349 0.0000 -0.1400 0.3519 0.0700 -0.1400 0.3603 0.1400 -0.1400 0.3472 0.2100 -0.1400 0.3296 0.2800 -0.1400 0.3103 0.3500 -0.1400 0.2953 0.4200 -0.1400 0.2840 0.4900 -0.1400 0.2701 0.5600 -0.1400 0.2486 0.6300 -0.1400 0.2185 0.7000 -0.1400 0.1858 0.7700 -0.1400 0.1537 0.8400 -0.1400 0.1256 0.9100 -0.1400 0.1001 0.9800 -0.1400 0.0699 1.0500 -0.1400 0.0326 1.1200 -0.1400 -0.0200 -0.9800 -0.0700 -0.0200 -0.9100 -0.0700 0.0058 -0.8400 -0.0700 0.0542 -0.7700 -0.0700 0.0990 -0.7000 -0.0700 0.1292 -0.6300 -0.0700 0.1479 -0.5600 -0.0700 0.1683 -0.4900 -0.0700 0.1989 -0.4200 -0.0700 0.2357 -0.3500 -0.0700 0.2707 -0.2800 -0.0700 0.3006 -0.2100 -0.0700 0.3213 -0.1400 -0.0700 0.3373 -0.0700 -0.0700 0.3595 0.0000 -0.0700 0.3746 0.0700 -0.0700 0.3722 0.1400 -0.0700 0.3605 0.2100 -0.0700 0.3425 0.2800 -0.0700 0.3198 0.3500 -0.0700 0.3003 0.4200 -0.0700 0.2807 0.4900 -0.0700 0.2562 0.5600 -0.0700 0.2292 0.6300 -0.0700 0.2015 0.7000 -0.0700 0.1756 0.7700 -0.0700 0.1493 0.8400 -0.0700 0.1212 0.9100 -0.0700 0.0914 0.9800 -0.0700 0.0553 1.0500 -0.0700 0.0090 1.1200 -0.0700 -0.0200 -1.0500 0.0000 -0.0200 -0.9800 0.0000 0.0123 -0.9100 0.0000 0.0493 -0.8400 0.0000 0.0855 -0.7700 0.0000 0.1216 -0.7000 0.0000 0.1490 -0.6300 0.0000 0.1709 -0.5600 0.0000 0.1967 -0.4900 0.0000 0.2280 -0.4200 0.0000 0.2605 -0.3500 0.0000 0.2921 -0.2800 0.0000 0.3220 -0.2100 0.0000 0.3429 -0.1400 0.0000 0.3551 -0.0700 0.0000 0.3730 0.0000 0.0000 0.3992 0.0700 0.0000 0.3801 0.1400 0.0000 0.3580 0.2100 0.0000 0.3349 0.2800 0.0000 0.3128 0.3500 0.0000 0.2948 0.4200 0.0000 0.2710 0.4900 0.0000 0.2356 0.5600 0.0000 0.2025 0.6300 0.0000 0.1807 0.7000 0.0000 0.1627 0.7700 0.0000 0.1374 0.8400 0.0000 0.1050 0.9100 0.0000 0.0679 0.9800 0.0000 0.0224 1.0500 0.0000 -0.0200 -1.1200 0.0700 -0.0200 -1.0500 0.0700 0.0050 -0.9800 0.0700 0.0479 -0.9100 0.0700 0.0781 -0.8400 0.0700 0.1071 -0.7700 0.0700 0.1372 -0.7000 0.0700 0.1638 -0.6300 0.0700 0.1888 -0.5600 0.0700 0.2189 -0.4900 0.0700 0.2504 -0.4200 0.0700 0.2762 -0.3500 0.0700 0.2985 -0.2800 0.0700 0.3228 -0.2100 0.0700 0.3438 -0.1400 0.0700 0.3558 -0.0700 0.0700 0.3679 0.0000 0.0700 0.3774 0.0700 0.0700 0.3669 0.1400 0.0700 0.3401 0.2100 0.0700 0.3151 0.2800 0.0700 0.2940 0.3500 0.0700 0.2758 0.4200 0.0700 0.2500 0.4900 0.0700 0.2114 0.5600 0.0700 0.1777 0.6300 0.0700 0.1597 0.7000 0.0700 0.1429 0.7700 0.0700 0.1146 0.8400 0.0700 0.0779 0.9100 0.0700 0.0319 0.9800 0.0700 -0.0200 -1.1200 0.1400 -0.0200 -1.0500 0.1400 0.0320 -0.9800 0.1400 0.0665 -0.9100 0.1400 0.0961 -0.8400 0.1400 0.1241 -0.7700 0.1400 0.1503 -0.7000 0.1400 0.1738 -0.6300 0.1400 0.1956 -0.5600 0.1400 0.2221 -0.4900 0.1400 0.2504 -0.4200 0.1400 0.2706 -0.3500 0.1400 0.2843 -0.2800 0.1400 0.3016 -0.2100 0.1400 0.3219 -0.1400 0.1400 0.3376 -0.0700 0.1400 0.3505 0.0000 0.1400 0.3471 0.0700 0.1400 0.3353 0.1400 0.1400 0.3290 0.2100 0.1400 0.3096 0.2800 0.1400 0.2830 0.3500 0.1400 0.2563 0.4200 0.1400 0.2260 0.4900 0.1400 0.1892 0.5600 0.1400 0.1585 0.6300 0.1400 0.1380 0.7000 0.1400 0.1140 0.7700 0.1400 0.0793 0.8400 0.1400 0.0363 0.9100 0.1400 -0.0200 -1.1900 0.2100 -0.0200 -1.1200 0.2100 -0.0200 -1.0500 0.2100 0.0446 -0.9800 0.2100 0.0758 -0.9100 0.2100 0.1068 -0.8400 0.2100 0.1354 -0.7700 0.2100 0.1577 -0.7000 0.2100 0.1758 -0.6300 0.2100 0.1910 -0.5600 0.2100 0.2086 -0.4900 0.2100 0.2294 -0.4200 0.2100 0.2459 -0.3500 0.2100 0.2591 -0.2800 0.2100 0.2769 -0.2100 0.2100 0.2997 -0.1400 0.2100 0.3186 -0.0700 0.2100 0.3240 0.0000 0.2100 0.3115 0.0700 0.2100 0.2961 0.1400 0.2100 0.2994 0.2100 0.2100 0.2949 0.2800 0.2100 0.2739 0.3500 0.2100 0.2440 0.4200 0.2100 0.2088 0.4900 0.2100 0.1718 0.5600 0.2100 0.1415 0.6300 0.2100 0.1143 0.7000 0.2100 0.0797 0.7700 0.2100 0.0357 0.8400 0.2100 -0.0200 -1.1900 0.2800 -0.0200 -1.1200 0.2800 -0.0200 -1.0500 0.2800 0.0519 -0.9800 0.2800 0.0802 -0.9100 0.2800 0.1077 -0.8400 0.2800 0.1337 -0.7700 0.2800 0.1534 -0.7000 0.2800 0.1697 -0.6300 0.2800 0.1834 -0.5600 0.2800 0.1949 -0.4900 0.2800 0.2070 -0.4200 0.2800 0.2208 -0.3500 0.2800 0.2388 -0.2800 0.2800 0.2611 -0.2100 0.2800 0.2841 -0.1400 0.2800 0.2996 -0.0700 0.2800 0.2998 0.0000 0.2800 0.2846 0.0700 0.2800 0.2666 0.1400 0.2800 0.2656 0.2100 0.2800 0.2669 0.2800 0.2800 0.2552 0.3500 0.2800 0.2304 0.4200 0.2800 0.1968 0.4900 0.2800 0.1619 0.5600 0.2800 0.1316 0.6300 0.2800 0.0965 0.7000 0.2800 0.0498 0.7700 0.2800 -0.0200 -1.1900 0.3500 -0.0200 -1.1200 0.3500 -0.0200 -1.0500 0.3500 0.0496 -0.9800 0.3500 0.0749 -0.9100 0.3500 0.0960 -0.8400 0.3500 0.1169 -0.7700 0.3500 0.1356 -0.7000 0.3500 0.1553 -0.6300 0.3500 0.1746 -0.5600 0.3500 0.1866 -0.4900 0.3500 0.1939 -0.4200 0.3500 0.2061 -0.3500 0.3500 0.2268 -0.2800 0.3500 0.2504 -0.2100 0.3500 0.2705 -0.1400 0.3500 0.2829 -0.0700 0.3500 0.2836 0.0000 0.3500 0.2691 0.0700 0.3500 0.2464 0.1400 0.3500 0.2354 0.2100 0.3500 0.2364 0.2800 0.3500 0.2326 0.3500 0.3500 0.2144 0.4200 0.3500 0.1863 0.4900 0.3500 0.1585 0.5600 0.3500 0.1321 0.6300 0.3500 0.0940 0.7000 0.3500 0.0375 0.7700 0.3500 -0.0200 -1.1200 0.4200 -0.0200 -1.0500 0.4200 0.0314 -0.9800 0.4200 0.0588 -0.9100 0.4200 0.0789 -0.8400 0.4200 0.0968 -0.7700 0.4200 0.1148 -0.7000 0.4200 0.1383 -0.6300 0.4200 0.1635 -0.5600 0.4200 0.1793 -0.4900 0.4200 0.1875 -0.4200 0.4200 0.1994 -0.3500 0.4200 0.2188 -0.2800 0.4200 0.2391 -0.2100 0.4200 0.2553 -0.1400 0.4200 0.2665 -0.0700 0.4200 0.2681 0.0000 0.4200 0.2525 0.0700 0.4200 0.2249 0.1400 0.4200 0.2070 0.2100 0.4200 0.2085 0.2800 0.4200 0.2122 0.3500 0.4200 0.1994 0.4200 0.4200 0.1739 0.4900 0.4200 0.1503 0.5600 0.4200 0.1292 0.6300 0.4200 0.0949 0.7000 0.4200 0.0357 0.7700 0.4200 -0.0200 -1.1200 0.4900 -0.0200 -1.0500 0.4900 -0.0200 -0.9800 0.4900 0.0365 -0.9100 0.4900 0.0610 -0.8400 0.4900 0.0793 -0.7700 0.4900 0.0969 -0.7000 0.4900 0.1212 -0.6300 0.4900 0.1485 -0.5600 0.4900 0.1678 -0.4900 0.4900 0.1793 -0.4200 0.4900 0.1925 -0.3500 0.4900 0.2095 -0.2800 0.4900 0.2240 -0.2100 0.4900 0.2367 -0.1400 0.4900 0.2489 -0.0700 0.4900 0.2513 0.0000 0.4900 0.2338 0.0700 0.4900 0.2029 0.1400 0.4900 0.1803 0.2100 0.4900 0.1795 0.2800 0.4900 0.1865 0.3500 0.4900 0.1785 0.4200 0.4900 0.1536 0.4900 0.4900 0.1294 0.5600 0.4900 0.1105 0.6300 0.4900 0.0810 0.7000 0.4900 -0.0200 -1.0500 0.5600 -0.0200 -0.9800 0.5600 0.0050 -0.9100 0.5600 0.0332 -0.8400 0.5600 0.0566 -0.7700 0.5600 0.0779 -0.7000 0.5600 0.1028 -0.6300 0.5600 0.1309 -0.5600 0.5600 0.1526 -0.4900 0.5600 0.1664 -0.4200 0.5600 0.1816 -0.3500 0.5600 0.1973 -0.2800 0.5600 0.2064 -0.2100 0.5600 0.2165 -0.1400 0.5600 0.2303 -0.0700 0.5600 0.2342 0.0000 0.5600 0.2169 0.0700 0.5600 0.1839 0.1400 0.5600 0.1552 0.2100 0.5600 0.1464 0.2800 0.5600 0.1496 0.3500 0.5600 0.1431 0.4200 0.5600 0.1207 0.4900 0.5600 0.0971 0.5600 0.5600 0.0781 0.6300 0.5600 0.0501 0.7000 0.5600 -0.0200 -0.9800 0.6300 -0.0200 -0.9100 0.6300 0.0050 -0.8400 0.6300 0.0294 -0.7700 0.6300 0.0573 -0.7000 0.6300 0.0853 -0.6300 0.6300 0.1147 -0.5600 0.6300 0.1362 -0.4900 0.6300 0.1495 -0.4200 0.6300 0.1671 -0.3500 0.6300 0.1858 -0.2800 0.6300 0.1951 -0.2100 0.6300 0.2019 -0.1400 0.6300 0.2095 -0.0700 0.6300 0.2085 0.0000 0.6300 0.1910 0.0700 0.6300 0.1579 0.1400 0.6300 0.1240 0.2100 0.6300 0.1059 0.2800 0.6300 0.1003 0.3500 0.6300 0.0918 0.4200 0.6300 0.0744 0.4900 0.6300 0.0547 0.5600 0.6300 0.0365 0.6300 0.6300 0.0077 0.7000 0.6300 -0.0200 -0.9100 0.7000 -0.0200 -0.8400 0.7000 0.0050 -0.7700 0.7000 0.0377 -0.7000 0.7000 0.0707 -0.6300 0.7000 0.1009 -0.5600 0.7000 0.1172 -0.4900 0.7000 0.1266 -0.4200 0.7000 0.1467 -0.3500 0.7000 0.1727 -0.2800 0.7000 0.1875 -0.2100 0.7000 0.1908 -0.1400 0.7000 0.1863 -0.0700 0.7000 0.1734 0.0000 0.7000 0.1517 0.0700 0.7000 0.1192 0.1400 0.7000 0.0832 0.2100 0.7000 0.0571 0.2800 0.7000 0.0419 0.3500 0.7000 0.0314 0.4200 0.7000 0.0203 0.4900 0.7000 0.0060 0.5600 0.7000 0.0050 0.6300 0.7000 -0.0200 -0.8400 0.7700 -0.0200 -0.7700 0.7700 0.0153 -0.7000 0.7700 0.0554 -0.6300 0.7700 0.0861 -0.5600 0.7700 0.0986 -0.4900 0.7700 0.1066 -0.4200 0.7700 0.1292 -0.3500 0.7700 0.1584 -0.2800 0.7700 0.1744 -0.2100 0.7700 0.1744 -0.1400 0.7700 0.1624 -0.0700 0.7700 0.1414 0.0000 0.7700 0.1150 0.0700 0.7700 0.0810 0.1400 0.7700 0.0419 0.2100 0.7700 0.0079 0.2800 0.7700 0.0050 0.3500 0.7700 -0.0200 0.4200 0.7700 -0.0200 0.4900 0.7700 -0.0200 0.5600 0.7700 -0.0200 -0.8400 0.8400 -0.0200 -0.7700 0.8400 -0.0200 -0.7000 0.8400 0.0349 -0.6300 0.8400 0.0676 -0.5600 0.8400 0.0841 -0.4900 0.8400 0.0986 -0.4200 0.8400 0.1223 -0.3500 0.8400 0.1458 -0.2800 0.8400 0.1545 -0.2100 0.8400 0.1495 -0.1400 0.8400 0.1349 -0.0700 0.8400 0.1134 0.0000 0.8400 0.0875 0.0700 0.8400 0.0522 0.1400 0.8400 0.0071 0.2100 0.8400 -0.0200 0.2800 0.8400 -0.0200 -0.7700 0.9100 -0.0200 -0.7000 0.9100 -0.0200 -0.6300 0.9100 0.0437 -0.5600 0.9100 0.0679 -0.4900 0.9100 0.0901 -0.4200 0.9100 0.1121 -0.3500 0.9100 0.1258 -0.2800 0.9100 0.1258 -0.2100 0.9100 0.1164 -0.1400 0.9100 0.1007 -0.0700 0.9100 0.0805 0.0000 0.9100 0.0564 0.0700 0.9100 0.0201 0.1400 0.9100 -0.0200 -0.7000 0.9800 -0.0200 -0.6300 0.9800 -0.0200 -0.5600 0.9800 0.0443 -0.4900 0.9800 0.0705 -0.4200 0.9800 0.0885 -0.3500 0.9800 0.0935 -0.2800 0.9800 0.0885 -0.2100 0.9800 0.0779 -0.1400 0.9800 0.0618 -0.0700 0.9800 0.0408 0.0000 0.9800 0.0125 0.0700 0.9800 -0.0200 -0.6300 1.0500 -0.0200 -0.5600 1.0500 -0.0200 -0.4900 1.0500 0.0414 -0.4200 1.0500 0.0582 -0.3500 1.0500 0.0579 -0.2800 1.0500 0.0499 -0.2100 1.0500 0.0388 -0.1400 1.0500 0.0207 -0.0700 1.0500 0.0050 0.0000 1.0500 -0.0200 -0.5600 1.1200 -0.0200 -0.4900 1.1200 -0.0200 -0.4200 1.1200 0.0188 -0.3500 1.1200 0.0207 -0.2800 1.1200 0.0113 -0.2100 1.1200 0.0050 -0.1400 1.1200 -0.0200 -0.0700 1.1200 -0.0200 -0.4900 1.1900 -0.0200 -0.4200 1.1900 -0.0200 -0.3500 1.1900 -0.0200 -0.2800 1.1900 -0.0200 -0.2100 1.1900 -0.0200</float_array>
      <technique_common><accessor source="#p-a" count="761" stride="3"><param name="X" type="float"/><param name="Y" type="float"/><param name="Z" type="float"/></accessor></technique_common></source>
    <source id="n"><float_array id="n-a" count="2283">-0.0318 -0.3642 0.9308 -0.0428 -0.4271 0.9032 0.0234 -0.4757 0.8793 0.1528 -0.3057 0.9398 0.0000 0.0000 1.0000 -0.1579 -0.4684 0.8693 -0.1597 -0.5538 0.8172 -0.1277 -0.4708 0.8730 -0.0556 -0.4297 0.9013 0.0003 -0.4204 0.9074 0.1881 -0.4400 0.8781 0.3009 -0.3410 0.8906 0.0000 0.0000 1.0000 -0.3201 -0.5204 0.7916 -0.2928 -0.5013 0.8142 -0.1901 -0.5305 0.8261 -0.1318 -0.5249 0.8409 0.0090 -0.4714 0.8818 0.0659 -0.3759 0.9243 0.1313 -0.3030 0.9439 0.3426 -0.4134 0.8436 0.3654 -0.3642 0.8566 0.0000 0.0000 1.0000 -0.4198 -0.4729 0.7747 -0.3833 -0.4384 0.8129 -0.3204 -0.4691 0.8230 -0.2323 -0.4923 0.8389 -0.0568 -0.4913 0.8691 0.1085 -0.4294 0.8966 0.1860 -0.3333 0.9243 0.2015 -0.2416 0.9492 0.2007 -0.1741 0.9641 0.3878 -0.3550 0.8507 0.3580 -0.3490 0.8661 0.0000 0.0000 1.0000 -0.4432 -0.4566 0.7714 -0.4064 -0.4151 0.8139 -0.3673 -0.4017 0.8389 -0.3310 -0.3583 0.8730 -0.2524 -0.3555 0.9000 -0.0398 -0.3716 0.9276 0.1723 -0.3557 0.9186 0.2619 -0.3216 0.9099 0.2793 -0.2720 0.9209 0.2470 -0.2167 0.9445 0.1840 -0.2066 0.9610 0.3600 -0.4054 0.8403 0.3562 -0.3767 0.8551 0.0000 0.0000 1.0000 -0.1643 -0.5488 0.8196 -0.2800 -0.5881 0.7588 -0.3979 -0.4659 0.7903 -0.3678 -0.4248 0.8272 -0.3104 -0.3607 0.8795 -0.2991 -0.3075 0.9033 -0.2522 -0.2746 0.9279 -0.0515 -0.2774 0.9594 0.1645 -0.2999 0.9397 0.2598 -0.3352 0.9056 0.2910 -0.3620 0.8856 0.2605 -0.3688 0.8923 0.1705 -0.3618 0.9165 0.1770 -0.3452 0.9217 0.4326 -0.4198 0.7979 0.3650 -0.3246 0.8726 0.0000 0.0000 1.0000 -0.1447 -0.4579 0.8771 -0.0354 -0.5897 0.8068 -0.0262 -0.6487 0.7606 -0.1711 -0.6317 0.7561 -0.3236 -0.4832 0.8135 -0.2698 -0.5276 0.8055 -0.3507 -0.4916 0.7971 -0.2955 -0.4461 0.8448 -0.2439 -0.4091 0.8793 -0.2330 -0.3529 0.9062 -0.2051 -0.2851 0.9363 -0.0530 -0.2444 0.9682 0.1187 -0.2561 0.9593 0.1953 -0.3105 0.9303 0.2361 -0.3773 0.8955 0.2457 -0.4220 0.8727 0.2076 -0.4117 0.8874 0.2341 -0.3416 0.9102 0.3861 -0.2638 0.8839 0.4737 -0.3087 0.8248 0.3275 -0.2715 0.9050 -0.3725 -0.3725 0.8500 -0.3089 -0.4295 0.8486 -0.1590 -0.5180 0.8405 -0.0711 -0.5907 0.8038 -0.0954 -0.6013 0.7933 -0.2410 -0.5212 0.8187 -0.3057 -0.4502 0.8390 -0.3228 -0.4320 0.8421 -0.2734 -0.4387 0.8560 -0.2012 -0.4390 0.8757 -0.1572 -0.4119 0.8976 -0.1167 -0.3438 0.9318 -0.0126 -0.2683 0.9633 0.0984 -0.2398 0.9658 0.1472 -0.2484 0.9574 0.1813 -0.2731 0.9448 0.2302 -0.3078 0.9232 0.2666 -0.3070 0.9136 0.3229 -0.2496 0.9129 0.4167 -0.1960 0.8877 0.4278 -0.2104 0.8791 0.3577 -0.2689 0.8943 0.3188 -0.3188 0.8926 -0.4326 -0.1131 0.8945 -0.4369 -0.2650 0.8596 -0.3950 -0.3661 0.8426 -0.2720 -0.4608 0.8448 -0.1081 -0.5268 0.8431 -0.0659 -0.5303 0.8453 -0.1473 -0.4786 0.8656 -0.2661 -0.4037 0.8754 -0.3263 -0.3555 0.8759 -0.2941 -0.3540 0.8878 -0.2117 -0.3804 0.9003 -0.1222 -0.3974 0.9095 -0.0324 -0.3662 0.9300 0.0533 -0.3042 0.9511 0.1164 -0.2658 0.9570 0.1561 -0.2436 0.9572 0.1817 -0.2155 0.9595 0.2199 -0.2030 0.9542 0.2849 -0.2042 0.9365 0.3557 -0.1955 0.9139 0.4040 -0.2031 0.8919 0.3768 -0.2704 0.8859 0.2898 -0.3435 0.8933 0.3105 -0.3719 0.8748 0.3144 -0.3555 0.8802 -0.5647 -0.0627 0.8229 -0.4999 -0.1754 0.8481 -0.4821 -0.2615 0.8362 -0.3566 -0.3389 0.8706 -0.1739 -0.4136 0.8937 -0.0694 -0.4646 0.8828 -0.0870 -0.4683 0.8793 -0.1848 -0.4075 0.8943 -0.2809 -0.3149 0.9066 -0.3038 -0.2647 0.9152 -0.2503 -0.2833 0.9258 -0.1368 -0.3238 0.9362 0.0026 -0.3349 0.9423 0.0953 -0.3185 0.9431 0.1393 -0.2980 0.9443 0.1829 -0.2698 0.9454 0.2110 -0.2355 0.9487 0.2300 -0.2094 0.9504 0.2843 -0.1949 0.9387 0.3437 -0.1968 0.9182 0.3582 -0.2354 0.9035 0.2964 -0.3064 0.9046 0.2308 -0.3684 0.9005 0.3144 -0.3881 0.8663 0.4334 -0.2941 0.8518 0.3745 0.0000 0.9272 -0.6077 -0.1446 0.7809 -0.5775 -0.1308 0.8058 -0.5273 -0.1720 0.8321 -0.4130 -0.2219 0.8833 -0.2455 -0.2863 0.9261 -0.1365 -0.3571 0.9240 -0.0909 -0.4099 0.9076 -0.1047 -0.3975 0.9116 -0.1911 -0.3197 0.9281 -0.2810 -0.2534 0.9257 -0.2797 -0.2566 0.9251 -0.1655 -0.2875 0.9434 -0.0022 -0.2997 0.9540 0.1007 -0.2990 0.9489 0.1560 -0.2949 0.9427 0.2140 -0.2738 0.9377 0.2385 -0.2464 0.9394 0.2465 -0.2289 0.9417 0.2903 -0.2163 0.9322 0.3221 -0.2186 0.9211 0.3072 -0.2543 0.9170 0.2544 -0.2925 0.9218 0.2241 -0.2914 0.9300 0.3148 -0.2702 0.9099 0.4892 -0.2940 0.8211 0.4330 -0.2415 0.8684 0.0000 0.0000 1.0000 -0.4561 -0.1319 0.8801 -0.4665 -0.2380 0.8519 -0.5464 -0.1501 0.8240 -0.5376 -0.0914 0.8382 -0.4628 -0.1248 0.8776 -0.3166 -0.2135 0.9242 -0.2121 -0.2990 0.9304 -0.1307 -0.3547 0.9258 -0.0706 -0.3645 0.9285 -0.1262 -0.3300 0.9355 -0.2620 -0.2990 0.9176 -0.2942 -0.3113 0.9036 -0.1658 -0.3260 0.9307 0.0205 -0.2954 0.9551 0.1154 -0.2477 0.9619 0.1562 -0.2376 0.9587 0.2196 -0.2584 0.9407 0.2491 -0.2729 0.9292 0.2521 -0.2721 0.9287 0.2858 -0.2686 0.9199 0.3046 -0.2713 0.9130 0.2926 -0.2654 0.9187 0.2766 -0.2269 0.9338 0.2682 -0.1667 0.9488 0.3137 -0.1468 0.9381 0.4151 -0.2024 0.8870 0.5070 -0.2584 0.8223 0.3122 -0.1561 0.9371 -0.5962 -0.0614 0.8005 -0.4577 -0.1763 0.8715 -0.4707 -0.1461 0.8701 -0.5208 -0.0798 0.8500 -0.5137 -0.0928 0.8529 -0.4093 -0.1906 0.8923 -0.2875 -0.3026 0.9087 -0.1626 -0.3687 0.9152 -0.0540 -0.3813 0.9229 -0.0918 -0.3552 0.9303 -0.2684 -0.3299 0.9050 -0.3106 -0.3470 0.8850 -0.1353 -0.3577 0.9240 0.0989 -0.2970 0.9497 0.1756 -0.2080 0.9622 0.1427 -0.1737 0.9744 0.1645 -0.2235 0.9607 0.2165 -0.2922 0.9315 0.2444 -0.3195 0.9155 0.2792 -0.3170 0.9064 0.3152 -0.3001 0.9003 0.3479 -0.2430 0.9055 0.3612 -0.1458 0.9210 0.3246 -0.0637 0.9437 0.2864 -0.0511 0.9567 0.3359 -0.1168 0.9346 0.5444 -0.1555 0.8243 0.3923 -0.0585 0.9180 0.0000 0.0000 1.0000 -0.6099 -0.2327 0.7576 -0.5167 -0.1919 0.8344 -0.4119 -0.1948 0.8902 -0.4911 -0.1350 0.8606 -0.5382 -0.1055 0.8362 -0.4883 -0.1429 0.8609 -0.3802 -0.2336 0.8949 -0.2214 -0.3352 0.9157 -0.0590 -0.4020 0.9137 -0.0499 -0.4040 0.9134 -0.2547 -0.3490 0.9018 -0.3199 -0.3199 0.8918 -0.0963 -0.3096 0.9460 0.1804 -0.2538 0.9503 0.2462 -0.1942 0.9496 0.1489 -0.1541 0.9768 0.0954 -0.1641 0.9818 0.1529 -0.2235 0.9626 0.2303 -0.2642 0.9366 0.2962 -0.2601 0.9190 0.3606 -0.2248 0.9052 0.4240 -0.1663 0.8902 0.4352 -0.1057 0.8941 0.3632 -0.0671 0.9293 0.2783 -0.0443 0.9595 0.2929 -0.0294 0.9557 0.5493 -0.0408 0.8347 0.4192 -0.0239 0.9076 0.0000 0.0000 1.0000 -0.5202 -0.3837 0.7630 -0.4561 -0.4361 0.7758 -0.4419 -0.3568 0.8230 -0.3539 -0.2918 0.8886 -0.4372 -0.2164 0.8729 -0.5135 -0.1427 0.8461 -0.5056 -0.1081 0.8560 -0.4456 -0.1191 0.8873 -0.3258 -0.1895 0.9263 -0.1516 -0.3100 0.9386 -0.0495 -0.4000 0.9152 -0.1880 -0.3772 0.9069 -0.2738 -0.2913 0.9166 -0.0470 -0.2310 0.9718 0.2116 -0.1974 0.9572 0.2762 -0.2002 0.9400 0.1876 -0.1722 0.9670 0.0995 -0.1140 0.9885 0.1222 -0.0817 0.9891 0.2211 -0.0796 0.9720 0.3251 -0.0709 0.9430 0.3988 -0.0481 0.9158 0.4486 -0.0448 0.8926 0.4449 -0.0703 0.8928 0.3743 -0.0915 0.9228 0.3198 -0.0644 0.9453 0.3453 0.0199 0.9383 0.5286 0.0613 0.8467 0.5756 0.0116 0.8176 0.0000 0.0000 1.0000 -0.4452 -0.4023 0.8000 -0.4927 -0.4212 0.7615 -0.4701 -0.4003 0.7866 -0.3571 -0.3951 0.8464 -0.2876 -0.3584 0.8882 -0.3639 -0.2975 0.8826 -0.4581 -0.2263 0.8596 -0.4754 -0.1785 0.8615 -0.4431 -0.1484 0.8841 -0.3711 -0.1326 0.9191 -0.2634 -0.1559 0.9520 -0.1624 -0.2621 0.9513 -0.1481 -0.3545 0.9232 -0.1673 -0.2941 0.9410 0.0099 -0.1981 0.9801 0.2080 -0.1716 0.9630 0.2698 -0.1805 0.9458 0.2405 -0.1618 0.9571 0.1862 -0.0873 0.9786 0.1867 0.0229 0.9822 0.2483 0.1137 0.9620 0.3336 0.1451 0.9315 0.3895 0.1301 0.9118 0.4128 0.0819 0.9072 0.4076 0.0218 0.9129 0.3740 -0.0031 0.9274 0.3758 0.0306 0.9262 0.4327 0.1147 0.8942 0.4865 0.1514 0.8604 0.6275 0.0438 0.7774 -0.3668 -0.4431 0.8180 -0.4500 -0.4088 0.7939 -0.4764 -0.3785 0.7936 -0.4505 -0.3546 0.8193 -0.3275 -0.3349 0.8835 -0.2692 -0.3419 0.9003 -0.3270 -0.3431 0.8806 -0.4104 -0.3110 0.8572 -0.4376 -0.2706 0.8575 -0.4115 -0.2475 0.8771 -0.3369 -0.2381 0.9109 -0.2502 -0.2103 0.9451 -0.2492 -0.1753 0.9525 -0.2406 -0.2468 0.9387 -0.0533 -0.2893 0.9557 0.0983 -0.1402 0.9852 0.2219 -0.0602 0.9732 0.2768 -0.0389 0.9601 0.2780 -0.0286 0.9602 0.2680 0.0025 0.9634 0.3045 0.0934 0.9479 0.3287 0.2162 0.9194 0.3288 0.2728 0.9041 0.3369 0.2343 0.9119 0.3559 0.1642 0.9200 0.3783 0.1285 0.9167 0.3912 0.1492 0.9081 0.4249 0.2129 0.8799 0.4745 0.2653 0.8393 0.4752 0.2712 0.8371 0.4981 0.1439 0.8551 -0.4420 -0.3563 0.8232 -0.4034 -0.3908 0.8274 -0.3974 -0.3923 0.8296 -0.4431 -0.3281 0.8343 -0.4130 -0.2551 0.8743 -0.3341 -0.2379 0.9120 -0.3130 -0.2683 0.9110 -0.3496 -0.3089 0.8845 -0.3822 -0.3053 0.8722 -0.3947 -0.2454 0.8854 -0.3921 -0.1746 0.9032 -0.3376 -0.1476 0.9297 -0.2266 -0.1532 0.9619 -0.2041 -0.1232 0.9712 -0.2745 -0.0292 0.9612 -0.0444 -0.0144 0.9989 0.2569 0.0092 0.9664 0.2875 0.1193 0.9503 0.2903 0.1703 0.9417 0.2726 0.1760 0.9459 0.2887 0.1727 0.9417 0.3800 0.1961 0.9039 0.4073 0.2587 0.8759 0.3292 0.3072 0.8929 0.2716 0.2845 0.9194 0.3086 0.2388 0.9207 0.3803 0.2331 0.8950 0.4349 0.2747 0.8576 0.4763 0.3424 0.8099 0.4806 0.3733 0.7935 0.5013 0.3500 0.7914 -0.4753 -0.1667 0.8639 -0.4398 -0.2957 0.8480 -0.4224 -0.3073 0.8527 -0.3816 -0.3037 0.8730 -0.3823 -0.2521 0.8890 -0.3734 -0.1924 0.9075 -0.3366 -0.1591 0.9281 -0.3497 -0.1484 0.9250 -0.3846 -0.1491 0.9110 -0.3641 -0.1347 0.9216 -0.3206 -0.0636 0.9451 -0.3203 0.0477 0.9461 -0.3152 0.1260 0.9406 -0.2347 0.1361 0.9625 -0.1707 0.1202 0.9780 -0.1344 0.1736 0.9756 -0.0280 0.3180 0.9477 0.2233 0.2729 0.9358 0.3214 0.1703 0.9315 0.3148 0.1766 0.9326 0.2834 0.2198 0.9335 0.2978 0.2623 0.9179 0.3951 0.2744 0.8767 0.4314 0.2726 0.8600 0.3355 0.2863 0.8975 0.2523 0.3044 0.9185 0.3043 0.3276 0.8945 0.3990 0.3571 0.8446 0.4752 0.3967 0.7854 0.4943 0.4128 0.7650 0.5191 0.4175 0.7458 -0.6255 -0.0467 0.7788 -0.4709 -0.1821 0.8632 -0.4249 -0.1969 0.8836 -0.3761 -0.1886 0.9072 -0.3499 -0.1795 0.9194 -0.3284 -0.1338 0.9350 -0.2997 -0.0740 0.9512 -0.3147 -0.0021 0.9492 -0.3562 0.0775 0.9312 -0.3227 0.1412 0.9359 -0.2414 0.1940 0.9508 -0.2292 0.2450 0.9421 -0.2685 0.2817 0.9212 -0.2467 0.2835 0.9267 -0.1681 0.2764 0.9462 -0.0419 0.3189 0.9469 0.0783 0.4082 0.9096 0.0932 0.4305 0.8978 0.1851 0.2859 0.9402 0.3090 0.1361 0.9413 0.3487 0.1284 0.9284 0.3629 0.1990 0.9103 0.4112 0.2491 0.8768 0.4227 0.2495 0.8712 0.3504 0.2540 0.9015 0.3038 0.3097 0.9010 0.3600 0.3875 0.8487 0.4423 0.4492 0.7762 0.4768 0.4653 0.7458 0.5192 0.4745 0.7108 0.0000 0.0000 1.0000 -0.5833 -0.0211 0.8120 -0.5414 -0.0878 0.8362 -0.4040 -0.0888 0.9105 -0.3833 -0.0679 0.9211 -0.3350 -0.0573 0.9405 -0.2817 -0.0259 0.9591 -0.2398 0.0192 0.9706 -0.2280 0.0830 0.9701 -0.2605 0.1840 0.9478 -0.2576 0.2767 0.9258 -0.2147 0.3104 0.9260 -0.2173 0.2914 0.9316 -0.2676 0.2682 0.9255 -0.2634 0.2638 0.9279 -0.1463 0.2769 0.9497 0.0371 0.3305 0.9431 0.1665 0.3904 0.9055 0.0788 0.4404 0.8943 0.0163 0.4189 0.9079 0.1831 0.2982 0.9368 0.3367 0.1846 0.9233 0.4080 0.1559 0.8996 0.4400 0.1689 0.8819 0.4263 0.1725 0.8880 0.3881 0.1908 0.9017 0.3982 0.2708 0.8764 0.4722 0.3908 0.7901 0.4738 0.4708 0.7442 0.4977 0.5038 0.7060 0.0000 0.0000 1.0000 -0.4530 0.0049 0.8915 -0.5685 -0.0092 0.8226 -0.3637 0.0139 0.9314 -0.3529 0.0753 0.9326 -0.3112 0.1206 0.9427 -0.2594 0.1371 0.9560 -0.2242 0.1248 0.9665 -0.1805 0.1100 0.9774 -0.1670 0.1497 0.9745 -0.1930 0.2259 0.9548 -0.2254 0.2554 0.9402 -0.2625 0.2244 0.9385 -0.2869 0.1937 0.9382 -0.2524 0.2043 0.9458 -0.1174 0.2369 0.9644 0.0892 0.2640 0.9604 0.2257 0.2865 0.9311 0.1420 0.3459 0.9275 -0.0108 0.4088 0.9126 0.0641 0.3806 0.9225 0.2478 0.2794 0.9276 0.3771 0.1907 0.9063 0.4260 0.1322 0.8950 0.4175 0.0821 0.9050 0.4276 0.0671 0.9015 0.5032 0.1281 0.8546 0.6011 0.1889 0.7765 0.6293 0.2932 0.7197 0.0000 0.0000 1.0000 -0.4777 0.0457 0.8774 -0.5635 0.1115 0.8186 -0.3158 0.1391 0.9386 -0.2896 0.1856 0.9390 -0.2735 0.2361 0.9325 -0.2662 0.2463 0.9319 -0.2675 0.2054 0.9414 -0.2122 0.1418 0.9669 -0.1368 0.1088 0.9846 -0.1472 0.1258 0.9811 -0.2266 0.1460 0.9630 -0.2862 0.1486 0.9466 -0.2837 0.1601 0.9454 -0.2253 0.1921 0.9552 -0.0999 0.2196 0.9705 0.0994 0.2231 0.9697 0.2617 0.2277 0.9379 0.2292 0.2823 0.9315 0.0431 0.3660 0.9296 0.0010 0.3705 0.9288 0.1537 0.2952 0.9430 0.3147 0.2134 0.9249 0.3691 0.1526 0.9168 0.3632 0.0809 0.9282 0.4187 0.0159 0.9080 0.5595 0.0090 0.8288 0.6171 0.0577 0.7848 0.6599 0.0442 0.7500 -0.4292 0.2146 0.8774 -0.5332 0.3036 0.7896 -0.3161 0.2464 0.9162 -0.2580 0.2317 0.9379 -0.2460 0.2462 0.9375 -0.2781 0.2532 0.9266 -0.3163 0.2283 0.9208 -0.2713 0.1819 0.9451 -0.1666 0.1329 0.9770 -0.1425 0.1024 0.9845 -0.2125 0.0996 0.9721 -0.2610 0.1282 0.9568 -0.2479 0.1801 0.9519 -0.1980 0.2197 0.9553 -0.0932 0.2308 0.9685 0.1036 0.2297 0.9677 0.2910 0.2383 0.9266 0.2960 0.2829 0.9123 0.0989 0.3554 0.9295 -0.0409 0.3708 0.9278 0.0673 0.3174 0.9459 0.2653 0.2494 0.9313 0.3290 0.2212 0.9181 0.3023 0.1980 0.9324 0.3650 0.1429 0.9200 0.6058 0.1568 0.7800 0.6276 0.1587 0.7622 0.6286 0.0098 0.7777 0.0000 0.0000 1.0000 -0.4509 0.3196 0.8334 -0.4279 0.3670 0.8259 -0.2806 0.2964 0.9129 -0.2466 0.2609 0.9333 -0.2803 0.2426 0.9288 -0.3363 0.2314 0.9129 -0.3088 0.2149 0.9265 -0.2087 0.1857 0.9602 -0.1688 0.1497 0.9742 -0.2036 0.1298 0.9704 -0.2106 0.1554 0.9651 -0.1932 0.2162 0.9570 -0.1804 0.2521 0.9507 -0.1015 0.2483 0.9634 0.1057 0.2358 0.9660 0.3180 0.2342 0.9187 0.3488 0.2688 0.8978 0.1616 0.3487 0.9232 -0.0372 0.4078 0.9123 0.0101 0.4115 0.9113 0.2172 0.3685 0.9039 0.3116 0.3376 0.8882 0.2758 0.3407 0.8988 0.3099 0.3274 0.8926 0.6444 0.1908 0.7405 0.7632 0.2032 0.6134 -0.3363 0.0000 0.9417 -0.4042 0.2883 0.8681 -0.3179 0.3569 0.8784 -0.2912 0.3182 0.9022 -0.3015 0.2606 0.9172 -0.3458 0.2316 0.9093 -0.3244 0.2238 0.9191 -0.2339 0.2202 0.9470 -0.1987 0.2035 0.9587 -0.2143 0.1719 0.9615 -0.1760 0.1610 0.9711 -0.1381 0.1955 0.9709 -0.1547 0.2459 0.9569 -0.1056 0.2830 0.9533 0.0950 0.2945 0.9509 0.3252 0.2770 0.9042 0.3916 0.2873 0.8742 0.2469 0.3674 0.8967 0.0373 0.4663 0.8839 0.0163 0.5218 0.8529 0.1666 0.5143 0.8413 0.2728 0.4719 0.8384 0.2590 0.4546 0.8522 0.2854 0.4491 0.8467 0.4852 0.3429 0.8044 0.7509 0.0961 0.6534 -0.3188 0.3188 0.8926 -0.3218 0.3316 0.8868 -0.3388 0.3183 0.8854 -0.3551 0.2609 0.8977 -0.3663 0.2127 0.9059 -0.3212 0.2121 0.9229 -0.2259 0.2464 0.9425 -0.2147 0.2610 0.9412 -0.2546 0.2234 0.9409 -0.1992 0.1642 0.9661 -0.1050 0.1419 0.9843 -0.0796 0.1995 0.9767 -0.0317 0.3111 0.9499 0.1189 0.3939 0.9114 0.3101 0.3997 0.8626 0.4010 0.3877 0.8300 0.3178 0.4382 0.8408 0.1421 0.5327 0.8343 0.0675 0.6003 0.7970 0.1293 0.6090 0.7826 0.2099 0.5692 0.7949 0.1992 0.5157 0.8333 0.2802 0.4395 0.8534 0.3339 0.4546 0.8257 0.5560 0.2411 0.7954 -0.3188 0.3188 0.8926 -0.3757 0.3033 0.8757 -0.4147 0.2573 0.8728 -0.3947 0.2009 0.8966 -0.2996 0.2008 0.9327 -0.1834 0.2469 0.9515 -0.2121 0.2731 0.9383 -0.3044 0.2474 0.9199 -0.2612 0.1982 0.9447 -0.1066 0.1656 0.9804 0.0176 0.2020 0.9792 0.1085 0.3091 0.9448 0.2042 0.4107 0.8886 0.3182 0.4478 0.8356 0.3991 0.4465 0.8008 0.3651 0.4790 0.7983 0.2024 0.5347 0.8205 0.1588 0.5619 0.8118 0.0970 0.6059 0.7896 0.1344 0.5430 0.8289 0.1046 0.4751 0.8737 0.1437 0.4340 0.8894 0.3335 0.3672 0.8683 -0.3073 0.2626 0.9147 -0.4683 0.3163 0.8250 -0.4305 0.2339 0.8718 -0.2949 0.2136 0.9314 -0.1651 0.2046 0.9648 -0.2152 0.1861 0.9587 -0.3253 0.1800 0.9283 -0.2795 0.2040 0.9382 -0.0960 0.2418 0.9656 0.0804 0.2806 0.9564 0.2026 0.3239 0.9241 0.2822 0.3626 0.8882 0.3597 0.3834 0.8506 0.4317 0.3964 0.8102 0.4046 0.4215 0.8115 0.2062 0.4548 0.8664 0.1441 0.4622 0.8750 0.1393 0.5483 0.8246 0.0446 0.5316 0.8458 0.0621 0.4019 0.9136 0.0069 0.3425 0.9395 0.0000 0.0000 1.0000 -0.3634 0.3143 0.8770 -0.5109 0.3844 0.7689 -0.3309 0.2621 0.9065 -0.2195 0.2008 0.9547 -0.2437 0.1322 0.9608 -0.2940 0.1398 0.9455 -0.2117 0.2281 0.9504 -0.0315 0.3221 0.9462 0.1202 0.3730 0.9200 0.2223 0.3862 0.8952 0.2926 0.3770 0.8788 0.3761 0.3602 0.8537 0.4583 0.3442 0.8194 0.4541 0.3646 0.8129 0.2583 0.3829 0.8869 0.0195 0.3535 0.9352 0.0000 0.0000 1.0000 -0.4230 0.4024 0.8119 -0.4860 0.4519 0.7480 -0.2954 0.2687 0.9168 -0.2704 0.2145 0.9385 -0.2250 0.2434 0.9435 -0.1019 0.3386 0.9354 0.0449 0.4126 0.9098 0.1502 0.4434 0.8837 0.2207 0.4510 0.8648 0.2792 0.4509 0.8478 0.3526 0.4390 0.8264 0.4297 0.3931 0.8129 0.4891 0.3398 0.8033 0.0000 0.0000 1.0000 -0.4341 0.4329 0.7901 -0.4714 0.4752 0.7429 -0.2746 0.3259 0.9047 -0.1490 0.3579 0.9218 -0.0117 0.4262 0.9046 0.0886 0.4676 0.8795 0.1661 0.4793 0.8618 0.2142 0.4759 0.8530 0.2895 0.4480 0.8458 0.3314 0.4683 0.8191 0.3880 0.4745 0.7901 0.0000 0.0000 1.0000 -0.4253 0.4318 0.7954 -0.3999 0.5142 0.7588 -0.1126 0.4374 0.8922 0.0446 0.4545 0.8896 0.1038 0.4675 0.8779 0.1935 0.4634 0.8648 0.1725 0.4694 0.8660 0.2404 0.4285 0.8710 0.3239 0.4149 0.8503 0.0000 0.0000 1.0000 -0.3391 0.3944 0.8541 -0.1951 0.5140 0.8353 0.0317 0.4746 0.8796 0.0842 0.4319 0.8980 0.1557 0.4189 0.8946 0.1772 0.4731 0.8630 0.1008 0.4225 0.9008 0.0000 0.0000 1.0000 -0.1707 0.3414 0.9243 -0.0077 0.4964 0.8681 0.0398 0.4411 0.8966 0.0419 0.3729 0.9269</float_array>
      <technique_common><accessor source="#n-a" count="761" stride="3"><param name="X" type="float"/><param name="Y" type="float"/><param name="Z" type="float"/></accessor></technique_common></source>
    <source id="t"><float_array id="t-a" count="1522">0.1260 -0.7140 0.1680 -0.7140 0.2100 -0.7140 0.2520 -0.7140 0.2940 -0.7140 0.0420 -0.6720 0.0840 -0.6720 0.1260 -0.6720 0.1680 -0.6720 0.2100 -0.6720 0.2520 -0.6720 0.2940 -0.6720 0.3360 -0.6720 0.0000 -0.6300 0.0420 -0.6300 0.0840 -0.6300 0.1260 -0.6300 0.1680 -0.6300 0.2100 -0.6300 0.2520 -0.6300 0.2940 -0.6300 0.3360 -0.6300 0.3780 -0.6300 -0.0420 -0.5880 0.0000 -0.5880 0.0420 -0.5880 0.0840 -0.5880 0.1260 -0.5880 0.1680 -0.5880 0.2100 -0.5880 0.2520 -0.5880 0.2940 -0.5880 0.3360 -0.5880 0.3780 -0.5880 0.4200 -0.5880 -0.0840 -0.5460 -0.0420 -0.5460 0.0000 -0.5460 0.0420 -0.5460 0.0840 -0.5460 0.1260 -0.5460 0.1680 -0.5460 0.2100 -0.5460 0.2520 -0.5460 0.2940 -0.5460 0.3360 -0.5460 0.3780 -0.5460 0.4200 -0.5460 0.4620 -0.5460 -0.1680 -0.5040 -0.1260 -0.5040 -0.0840 -0.5040 -0.0420 -0.5040 0.0000 -0.5040 0.0420 -0.5040 0.0840 -0.5040 0.1260 -0.5040 0.1680 -0.5040 0.2100 -0.5040 0.2520 -0.5040 0.2940 -0.5040 0.3360 -0.5040 0.3780 -0.5040 0.4200 -0.5040 0.4620 -0.5040 0.5040 -0.5040 -0.3360 -0.4620 -0.2940 -0.4620 -0.2520 -0.4620 -0.2100 -0.4620 -0.1680 -0.4620 -0.1260 -0.4620 -0.0840 -0.4620 -0.0420 -0.4620 0.0000 -0.4620 0.0420 -0.4620 0.0840 -0.4620 0.1260 -0.4620 0.1680 -0.4620 0.2100 -0.4620 0.2520 -0.4620 0.2940 -0.4620 0.3360 -0.4620 0.3780 -0.4620 0.4200 -0.4620 0.4620 -0.4620 0.5040 -0.4620 -0.3780 -0.4200 -0.3360 -0.4200 -0.2940 -0.4200 -0.2520 -0.4200 -0.2100 -0.4200 -0.1680 -0.4200 -0.1260 -0.4200 -0.0840 -0.4200 -0.0420 -0.4200 0.0000 -0.4200 0.0420 -0.4200 0.0840 -0.4200 0.1260 -0.4200 0.1680 -0.4200 0.2100 -0.4200 0.2520 -0.4200 0.2940 -0.4200 0.3360 -0.4200 0.3780 -0.4200 0.4200 -0.4200 0.4620 -0.4200 0.5040 -0.4200 0.5460 -0.4200 -0.4200 -0.3780 -0.3780 -0.3780 -0.3360 -0.3780 -0.2940 -0.3780 -0.2520 -0.3780 -0.2100 -0.3780 -0.1680 -0.3780 -0.1260 -0.3780 -0.0840 -0.3780 -0.0420 -0.3780 0.0000 -0.3780 0.0420 -0.3780 0.0840 -0.3780 0.1260 -0.3780 0.1680 -0.3780 0.2100 -0.3780 0.2520 -0.3780 0.2940 -0.3780 0.3360 -0.3780 0.3780 -0.3780 0.4200 -0.3780 0.4620 -0.3780 0.5040 -0.3780 0.5460 -0.3780 0.5880 -0.3780 -0.4200 -0.3360 -0.3780 -0.3360 -0.3360 -0.3360 -0.2940 -0.3360 -0.2520 -0.3360 -0.2100 -0.3360 -0.1680 -0.3360 -0.1260 -0.3360 -0.0840 -0.3360 -0.0420 -0.3360 0.0000 -0.3360 0.0420 -0.3360 0.0840 -0.3360 0.1260 -0.3360 0.1680 -0.3360 0.2100 -0.3360 0.2520 -0.3360 0.2940 -0.3360 0.3360 -0.3360 0.3780 -0.3360 0.4200 -0.3360 0.4620 -0.3360 0.5040 -0.3360 0.5460 -0.3360 0.5880 -0.3360 0.6300 -0.3360 -0.4200 -0.2940 -0.3780 -0.2940 -0.3360 -0.2940 -0.2940 -0.2940 -0.2520 -0.2940 -0.2100 -0.2940 -0.1680 -0.2940 -0.1260 -0.2940 -0.0840 -0.2940 -0.0420 -0.2940 0.0000 -0.2940 0.0420 -0.2940 0.0840 -0.2940 0.1260 -0.2940 0.1680 -0.2940 0.2100 -0.2940 0.2520 -0.2940 0.2940 -0.2940 0.3360 -0.2940 0.3780 -0.2940 0.4200 -0.2940 0.4620 -0.2940 0.5040 -0.2940 0.5460 -0.2940 0.5880 -0.2940 0.6300 -0.2940 0.6720 -0.2940 -0.4620 -0.2520 -0.4200 -0.2520 -0.3780 -0.2520 -0.3360 -0.2520 -0.2940 -0.2520 -0.2520 -0.2520 -0.2100 -0.2520 -0.1680 -0.2520 -0.1260 -0.2520 -0.0840 -0.2520 -0.0420 -0.2520 0.0000 -0.2520 0.0420 -0.2520 0.0840 -0.2520 0.1260 -0.2520 0.1680 -0.2520 0.2100 -0.2520 0.2520 -0.2520 0.2940 -0.2520 0.3360 -0.2520 0.3780 -0.2520 0.4200 -0.2520 0.4620 -0.2520 0.5040 -0.2520 0.5460 -0.2520 0.5880 -0.2520 0.6300 -0.2520 0.6720 -0.2520 -0.4620 -0.2100 -0.4200 -0.2100 -0.3780 -0.2100 -0.3360 -0.2100 -0.2940 -0.2100 -0.2520 -0.2100 -0.2100 -0.2100 -0.1680 -0.2100 -0.1260 -0.2100 -0.0840 -0.2100 -0.0420 -0.2100 0.0000 -0.2100 0.0420 -0.2100 0.0840 -0.2100 0.1260 -0.2100 0.1680 -0.2100 0.2100 -0.2100 0.2520 -0.2100 0.2940 -0.2100 0.3360 -0.2100 0.3780 -0.2100 0.4200 -0.2100 0.4620 -0.2100 0.5040 -0.2100 0.5460 -0.2100 0.5880 -0.2100 0.6300 -0.2100 0.6720 -0.2100 0.7140 -0.2100 -0.4620 -0.1680 -0.4200 -0.1680 -0.3780 -0.1680 -0.3360 -0.1680 -0.2940 -0.1680 -0.2520 -0.1680 -0.2100 -0.1680 -0.1680 -0.1680 -0.1260 -0.1680 -0.0840 -0.1680 -0.0420 -0.1680 0.0000 -0.1680 0.0420 -0.1680 0.0840 -0.1680 0.1260 -0.1680 0.1680 -0.1680 0.2100 -0.1680 0.2520 -0.1680 0.2940 -0.1680 0.3360 -0.1680 0.3780 -0.1680 0.4200 -0.1680 0.4620 -0.1680 0.5040 -0.1680 0.5460 -0.1680 0.5880 -0.1680 0.6300 -0.1680 0.6720 -0.1680 0.7140 -0.1680 -0.5040 -0.1260 -0.4620 -0.1260 -0.4200 -0.1260 -0.3780 -0.1260 -0.3360 -0.1260 -0.2940 -0.1260 -0.2520 -0.1260 -0.2100 -0.1260 -0.1680 -0.1260 -0.1260 -0.1260 -0.0840 -0.1260 -0.0420 -0.1260 0.0000 -0.1260 0.0420 -0.1260 0.0840 -0.1260 0.1260 -0.1260 0.1680 -0.1260 0.2100 -0.1260 0.2520 -0.1260 0.2940 -0.1260 0.3360 -0.1260 0.3780 -0.1260 0.4200 -0.1260 0.4620 -0.1260 0.5040 -0.1260 0.5460 -0.1260 0.5880 -0.1260 0.6300 -0.1260 0.6720 -0.1260 0.7140 -0.1260 -0.5460 -0.0840 -0.5040 -0.0840 -0.4620 -0.0840 -0.4200 -0.0840 -0.3780 -0.0840 -0.3360 -0.0840 -0.2940 -0.0840 -0.2520 -0.0840 -0.2100 -0.0840 -0.1680 -0.0840 -0.1260 -0.0840 -0.0840 -0.0840 -0.0420 -0.0840 0.0000 -0.0840 0.0420 -0.0840 0.0840 -0.0840 0.1260 -0.0840 0.1680 -0.0840 0.2100 -0.0840 0.2520 -0.0840 0.2940 -0.0840 0.3360 -0.0840 0.3780 -0.0840 0.4200 -0.0840 0.4620 -0.0840 0.5040 -0.0840 0.5460 -0.0840 0.5880 -0.0840 0.6300 -0.0840 0.6720 -0.0840 -0.5880 -0.0420 -0.5460 -0.0420 -0.5040 -0.0420 -0.4620 -0.0420 -0.4200 -0.0420 -0.3780 -0.0420 -0.3360 -0.0420 -0.2940 -0.0420 -0.2520 -0.0420 -0.2100 -0.0420 -0.1680 -0.0420 -0.1260 -0.0420 -0.0840 -0.0420 -0.0420 -0.0420 0.0000 -0.0420 0.0420 -0.0420 0.0840 -0.0420 0.1260 -0.0420 0.1680 -0.0420 0.2100 -0.0420 0.2520 -0.0420 0.2940 -0.0420 0.3360 -0.0420 0.3780 -0.0420 0.4200 -0.0420 0.4620 -0.0420 0.5040 -0.0420 0.5460 -0.0420 0.5880 -0.0420 0.6300 -0.0420 0.6720 -0.0420 -0.6300 0.0000 -0.5880 0.0000 -0.5460 0.0000 -0.5040 0.0000 -0.4620 0.0000 -0.4200 0.0000 -0.3780 0.0000 -0.3360 0.0000 -0.2940 0.0000 -0.2520 0.0000 -0.2100 0.0000 -0.1680 0.0000 -0.1260 0.0000 -0.0840 0.0000 -0.0420 0.0000 0.0000 0.0000 0.0420 0.0000 0.0840 0.0000 0.1260 0.0000 0.1680 0.0000 0.2100 0.0000 0.2520 0.0000 0.2940 0.0000 0.3360 0.0000 0.3780 0.0000 0.4200 0.0000 0.4620 0.0000 0.5040 0.0000 0.5460 0.0000 0.5880 0.0000 0.6300 0.0000 -0.6720 0.0420 -0.6300 0.0420 -0.5880 0.0420 -0.5460 0.0420 -0.5040 0.0420 -0.4620 0.0420 -0.4200 0.0420 -0.3780 0.0420 -0.3360 0.0420 -0.2940 0.0420 -0.2520 0.0420 -0.2100 0.0420 -0.1680 0.0420 -0.1260 0.0420 -0.0840 0.0420 -0.0420 0.0420 0.0000 0.0420 0.0420 0.0420 0.0840 0.0420 0.1260 0.0420 0.1680 0.0420 0.2100 0.0420 0.2520 0.0420 0.2940 0.0420 0.3360 0.0420 0.3780 0.0420 0.4200 0.0420 0.4620 0.0420 0.5040 0.0420 0.5460 0.0420 0.5880 0.0420 -0.6720 0.0840 -0.6300 0.0840 -0.5880 0.0840 -0.5460 0.0840 -0.5040 0.0840 -0.4620 0.0840 -0.4200 0.0840 -0.3780 0.0840 -0.3360 0.0840 -0.2940 0.0840 -0.2520 0.0840 -0.2100 0.0840 -0.1680 0.0840 -0.1260 0.0840 -0.0840 0.0840 -0.0420 0.0840 0.0000 0.0840 0.0420 0.0840 0.0840 0.0840 0.1260 0.0840 0.1680 0.0840 0.2100 0.0840 0.2520 0.0840 0.2940 0.0840 0.3360 0.0840 0.3780 0.0840 0.4200 0.0840 0.4620 0.0840 0.5040 0.0840 0.5460 0.0840 -0.7140 0.1260 -0.6720 0.1260 -0.6300 0.1260 -0.5880 0.1260 -0.5460 0.1260 -0.5040 0.1260 -0.4620 0.1260 -0.4200 0.1260 -0.3780 0.1260 -0.3360 0.1260 -0.2940 0.1260 -0.2520 0.1260 -0.2100 0.1260 -0.1680 0.1260 -0.1260 0.1260 -0.0840 0.1260 -0.0420 0.1260 0.0000 0.1260 0.0420 0.1260 0.0840 0.1260 0.1260 0.1260 0.1680 0.1260 0.2100 0.1260 0.2520 0.1260 0.2940 0.1260 0.3360 0.1260 0.3780 0.1260 0.4200 0.1260 0.4620 0.1260 0.5040 0.1260 -0.7140 0.1680 -0.6720 0.1680 -0.6300 0.1680 -0.5880 0.1680 -0.5460 0.1680 -0.5040 0.1680 -0.4620 0.1680 -0.4200 0.1680 -0.3780 0.1680 -0.3360 0.1680 -0.2940 0.1680 -0.2520 0.1680 -0.2100 0.1680 -0.1680 0.1680 -0.1260 0.1680 -0.0840 0.1680 -0.0420 0.1680 0.0000 0.1680 0.0420 0.1680 0.0840 0.1680 0.1260 0.1680 0.1680 0.1680 0.2100 0.1680 0.2520 0.1680 0.2940 0.1680 0.3360 0.1680 0.3780 0.1680 0.4200 0.1680 0.4620 0.1680 -0.7140 0.2100 -0.6720 0.2100 -0.6300 0.2100 -0.5880 0.2100 -0.5460 0.2100 -0.5040 0.2100 -0.4620 0.2100 -0.4200 0.2100 -0.3780 0.2100 -0.3360 0.2100 -0.2940 0.2100 -0.2520 0.2100 -0.2100 0.2100 -0.1680 0.2100 -0.1260 0.2100 -0.0840 0.2100 -0.0420 0.2100 0.0000 0.2100 0.0420 0.2100 0.0840 0.2100 0.1260 0.2100 0.1680 0.2100 0.2100 0.2100 0.2520 0.2100 0.2940 0.2100 0.3360 0.2100 0.3780 0.2100 0.4200 0.2100 0.4620 0.2100 -0.6720 0.2520 -0.6300 0.2520 -0.5880 0.2520 -0.5460 0.2520 -0.5040 0.2520 -0.4620 0.2520 -0.4200 0.2520 -0.3780 0.2520 -0.3360 0.2520 -0.2940 0.2520 -0.2520 0.2520 -0.2100 0.2520 -0.1680 0.2520 -0.1260 0.2520 -0.0840 0.2520 -0.0420 0.2520 0.0000 0.2520 0.0420 0.2520 0.0840 0.2520 0.1260 0.2520 0.1680 0.2520 0.2100 0.2520 0.2520 0.2520 0.2940 0.2520 0.3360 0.2520 0.3780 0.2520 0.4200 0.2520 0.4620 0.2520 -0.6720 0.2940 -0.6300 0.2940 -0.5880 0.2940 -0.5460 0.2940 -0.5040 0.2940 -0.4620 0.2940 -0.4200 0.2940 -0.3780 0.2940 -0.3360 0.2940 -0.2940 0.2940 -0.2520 0.2940 -0.2100 0.2940 -0.1680 0.2940 -0.1260 0.2940 -0.0840 0.2940 -0.0420 0.2940 0.0000 0.2940 0.0420 0.2940 0.0840 0.2940 0.1260 0.2940 0.1680 0.2940 0.2100 0.2940 0.2520 0.2940 0.2940 0.2940 0.3360 0.2940 0.3780 0.2940 0.4200 0.2940 -0.6300 0.3360 -0.5880 0.3360 -0.5460 0.3360 -0.5040 0.3360 -0.4620 0.3360 -0.4200 0.3360 -0.3780 0.3360 -0.3360 0.3360 -0.2940 0.3360 -0.2520 0.3360 -0.2100 0.3360 -0.1680 0.3360 -0.1260 0.3360 -0.0840 0.3360 -0.0420 0.3360 0.0000 0.3360 0.0420 0.3360 0.0840 0.3360 0.1260 0.3360 0.1680 0.3360 0.2100 0.3360 0.2520 0.3360 0.2940 0.3360 0.3360 0.3360 0.3780 0.3360 0.4200 0.3360 -0.5880 0.3780 -0.5460 0.3780 -0.5040 0.3780 -0.4620 0.3780 -0.4200 0.3780 -0.3780 0.3780 -0.3360 0.3780 -0.2940 0.3780 -0.2520 0.3780 -0.2100 0.3780 -0.1680 0.3780 -0.1260 0.3780 -0.0840 0.3780 -0.0420 0.3780 0.0000 0.3780 0.0420 0.3780 0.0840 0.3780 0.1260 0.3780 0.1680 0.3780 0.2100 0.3780 0.2520 0.3780 0.2940 0.3780 0.3360 0.3780 0.3780 0.3780 0.4200 0.3780 -0.5460 0.4200 -0.5040 0.4200 -0.4620 0.4200 -0.4200 0.4200 -0.3780 0.4200 -0.3360 0.4200 -0.2940 0.4200 -0.2520 0.4200 -0.2100 0.4200 -0.1680 0.4200 -0.1260 0.4200 -0.0840 0.4200 -0.0420 0.4200 0.0000 0.4200 0.0420 0.4200 0.0840 0.4200 0.1260 0.4200 0.1680 0.4200 0.2100 0.4200 0.2520 0.4200 0.2940 0.4200 0.3360 0.4200 0.3780 0.4200 -0.5040 0.4620 -0.4620 0.4620 -0.4200 0.4620 -0.3780 0.4620 -0.3360 0.4620 -0.2940 0.4620 -0.2520 0.4620 -0.2100 0.4620 -0.1680 0.4620 -0.1260 0.4620 -0.0840 0.4620 -0.0420 0.4620 0.0000 0.4620 0.0420 0.4620 0.0840 0.4620 0.1260 0.4620 0.1680 0.4620 0.2100 0.4620 0.2520 0.4620 0.2940 0.4620 0.3360 0.4620 -0.5040 0.5040 -0.4620 0.5040 -0.4200 0.5040 -0.3780 0.5040 -0.3360 0.5040 -0.2940 0.5040 -0.2520 0.5040 -0.2100 0.5040 -0.1680 0.5040 -0.1260 0.5040 -0.0840 0.5040 -0.0420 0.5040 0.0000 0.5040 0.0420 0.5040 0.0840 0.5040 0.1260 0.5040 0.1680 0.5040 -0.4620 0.5460 -0.4200 0.5460 -0.3780 0.5460 -0.3360 0.5460 -0.2940 0.5460 -0.2520 0.5460 -0.2100 0.5460 -0.1680 0.5460 -0.1260 0.5460 -0.0840 0.5460 -0.0420 0.5460 0.0000 0.5460 0.0420 0.5460 0.0840 0.5460 -0.4200 0.5880 -0.3780 0.5880 -0.3360 0.5880 -0.2940 0.5880 -0.2520 0.5880 -0.2100 0.5880 -0.1680 0.5880 -0.1260 0.5880 -0.0840 0.5880 -0.0420 0.5880 0.0000 0.5880 0.0420 0.5880 -0.3780 0.6300 -0.3360 0.6300 -0.2940 0.6300 -0.2520 0.6300 -0.2100 0.6300 -0.1680 0.6300 -0.1260 0.6300 -0.0840 0.6300 -0.0420 0.6300 0.0000 0.6300 -0.3360 0.6720 -0.2940 0.6720 -0.2520 0.6720 -0.2100 0.6720 -0.1680 0.6720 -0.1260 0.6720 -0.0840 0.6720 -0.0420 0.6720 -0.2940 0.7140 -0.2520 0.7140 -0.2100 0.7140 -0.1680 0.7140 -0.1260 0.7140</float_array>
      <technique_common><accessor source="#t-a" count="761" stride="2"><param name="S" type="float"/><param name="T" type="float"/></accessor></technique_common></source>
    <vertices id="v"><input semantic="POSITION" source="#p"/></vertices>
    <triangles material="m" count="1384">
      <input semantic="VERTEX" source="#v" offset="0"/>
      <input semantic="NORMAL" source="#n" offset="1"/>
      <input semantic="TEXCOORD" source="#t" offset="2" set="0"/>
      <p>0 0 0 1 1 1 8 8 8 0 0 0 8 8 8 7 7 7 1 1 1 2 2 2 9 9 9 1 1 1 9 9 9 8 8 8 2 2 2 3 3 3 10 10 10 2 2 2 10 10 10 9 9 9 3 3 3 4 4 4 11 11 11 3 3 3 11 11 11 10 10 10 5 5 5 6 6 6 15 15 15 5 5 5 15 15 15 14 14 14 6 6 6 7 7 7 16 16 16 6 6 6 16 16 16 15 15 15 7 7 7 8 8 8 17 17 17 7 7 7 17 17 17 16 16 16 8 8 8 9 9 9 18 18 18 8 8 8 18 18 18 17 17 17 9 9 9 10 10 10 19 19 19 9 9 9 19 19 19 18 18 18 10 10 10 11 11 11 20 20 20 10 10 10 20 20 20 19 19 19 11 11 11 12 12 12 21 21 21 11 11 11 21 21 21 20 20 20 13 13 13 14 14 14 25 25 25 13 13 13 25 25 25 24 24 24 14 14 14 15 15 15 26 26 26 14 14 14 26 26 26 25 25 25 15 15 15 16 16 16 27 27 27 15 15 15 27 27 27 26 26 26 16 16 16 17 17 17 28 28 28 16 16 16 28 28 28 27 27 27 17 17 17 18 18 18 29 29 29 17 17 17 29 29 29 28 28 28 18 18 18 19 19 19 30 30 30 18 18 18 30 30 30 29 29 29 19 19 19 20 20 20 31 31 31 19 19 19 31 31 31 30 30 30 20 20 20 21 21 21 32 32 32 20 20 20 32 32 32 31 31 31 21 21 21 22 22 22 33 33 33 21 21 21 33 33 33 32 32 32 23 23 23 24 24 24 37 37 37 23 23 23 37 37 37 36 36 36 24 24 24 25 25 25 38 38 38 24 24 24 38 38 38 37 37 37 25 25 25 26 26 26 39 39 39 25 25 25 39 39 39 38 38 38 26 26 26 27 27 27 40 40 40 26 26 26 40 40 40 39 39 39 27 27 27 28 28 28 41 41 41 27 27 27 41 41 41 40 40 40 28 28 28 29 29 29 42 42 42 28 28 28 42 42 42 41 41 41 29 29 29 30 30 30 43 43 43 29 29 29 43 43 43 42 42 42 30 30 30 31 31 31 44 44 44 30 30 30 44 44 44 43 43 43 31 31 31 32 32 32 45 45 45 31 31 31 45 45 45 44 44 44 32 32 32 33 33 33 46 46 46 32 32 32 46 46 46 45 45 45 33 33 33 34 34 34 47 47 47 33 33 33 47 47 47 46 46 46 35 35 35 36 36 36 52 52 52 35 35 35 52 52 52 51 51 51 36 36 36 37 37 37 53 53 53 36 36 36 53 53 53 52 52 52 37 37 37 38 38 38 54 54 54 37 37 37 54 54 54 53 53 53 38 38 38 39 39 39 55 55 55 38 38 38 55 55 55 54 54 54 39 39 39 40 40 40 56 56 56 39 39 39 56 56 56 55 55 55 40 40 40 41 41 41 57 57 57 40 40 40 57 57 57 56 56 56 41 41 41 42 42 42 58 58 58 41 41 41 58 58 58 57 57 57 42 42 42 43 43 43 59 59 59 42 42 42 59 59 59 58 58 58 43 43 43 44 44 44 60 60 60 43 43 43 60 60 60 59 59 59 44 44 44 45 45 45 61 61 61 44 44 44 61 61 61 60 60 60 45 45 45 46 46 46 62 62 62 45 45 45 62 62 62 61 61 61 46 46 46 47 47 47 63 63 63 46 46 46 63 63 63 62 62 62 47 47 47 48 48 48 64 64 64 47 47 47 64 64 64 63 63 63 49 49 49 50 50 50 71 71 71 49 49 49 71 71 71 70 70 70 50 50 50 51 51 51 72 72 72 50 50 50 72 72 72 71 71 71 51 51 51 52 52 52 73 73 73 51 51 51 73 73 73 72 72 72 52 52 52 53 53 53 74 74 74 52 52 52 74 74 74 73 73 73 53 53 53 54 54 54 75 75 75 53 53 53 75 75 75 74 74 74 54 54 54 55 55 55 76 76 76 54 54 54 76 76 76 75 75 75 55 55 55 56 56 56 77 77 77 55 55 55 77 77 77 76 76 76 56 56 56 57 57 57 78 78 78 56 56 56 78 78 78 77 77 77 57 57 57 58 58 58 79 79 79 57 57 57 79 79 79 78 78 78 58 58 58 59 59 59 80 80 80 58 58 58 80 80 80 79 79 79 59 59 59 60 60 60 81 81 81 59 59 59 81 81 81 80 80 80 60 60 60 61 61 61 82 82 82 60 60 60 82 82 82 81 81 81 61 61 61 62 62 62 83 83 83 61 61 61 83 83 83 82 82 82 62 62 62 63 63 63 84 84 84 62 62 62 84 84 84 83 83 83 63 63 63 64 64 64 85 85 85 63 63 63 85 85 85 84 84 84 64 64 64 65 65 65 86 86 86 64 64 64 86 86 86 85 85 85 66 66 66 67 67 67 89 89 89 66 66 66 89 89 89 88 88 88 67 67 67 68 68 68 90 90 90 67 67 67 90 90 90 89 89 89 68 68 68 69 69 69 91 91 91 68 68 68 91 91 91 90 90 90 69 69 69 70 70 70 92 92 92 69 69 69 92 92 92 91 91 91 70 70 70 71 71 71 93 93 93 70 70 70 93 93 93 92 92 92 71 71 71 72 72 72 94 94 94 71 71 71 94 94 94 93 93 93 72 72 72 73 73 73 95 95 95 72 72 72 95 95 95 94 94 94 73 73 73 74 74 74 96 96 96 73 73 73 96 96 96 95 95 95 74 74 74 75 75 75 97 97 97 74 74 74 97 97 97 96 96 96 75 75 75 76 76 76 98 98 98 75 75 75 98 98 98 97 97 97 76 76 76 77 77 77 99 99 99 76 76 76 99 99 99 98 98 98 77 77 77 78 78 78 100 100 100 77 77 77 100 100 100 99 99 99 78 78 78 79 79 79 101 101 101 78 78 78 101 101 101 100 100 100 79 79 79 80 80 80 102 102 102 79 79 79 102 102 102 101 101 101 80 80 80 81 81 81 103 103 103 80 80 80 103 103 103 102 102 102 81 81 81 82 82 82 104 104 104 81 81 81 104 104 104 103 103 103 82 82 82 83 83 83 105 105 105 82 82 82 105 105 105 104 104 104 83 83 83 84 84 84 106 106 106 83 83 83 106 106 106 105 105 105 84 84 84 85 85 85 107 107 107 84 84 84 107 107 107 106 106 106 85 85 85 86 86 86 108 108 108 85 85 85 108 108 108 107 107 107 87 87 87 88 88 88 112 112 112 87 87 87 112 112 112 111 111 111 88 88 88 89 89 89 113 113 113 88 88 88 113 113 113 112 112 112 89 89 89 90 90 90 114 114 114 89 89 89 114 114 114 113 113 113 90 90 90 91 91 91 115 115 115 90 90 90 115 115 115 114 114 114 91 91 91 92 92 92 116 116 116 91 91 91 116 116 116 115 115 115 92 92 92 93 93 93 117 117 117 92 92 92 117 117 117 116 116 116 93 93 93 94 94 94 118 118 118 93 93 93 118 118 118 117 117 117 94 94 94 95 95 95 119 119 119 94 94 94 119 119 119 118 118 118 95 95 95 96 96 96 120 120 120 95 95 95 120 120 120 119 119 119 96 96 96 97 97 97 121 121 121 96 96 96 121 121 121 120 120 120 97 97 97 98 98 98 122 122 122 97 97 97 122 122 122 121 121 121 98 98 98 99 99 99 123 123 123 98 98 98 123 123 123 122 122 122 99 99 99 100 100 100 124 124 124 99 99 99 124 124 124 123 123 123 100 100 100 101 101 101 125 125 125 100 100 100 125 125 125 124 124 124 101 101 101 102 102 102 126 126 126 101 101 101 126 126 126 125 125 125 102 102 102 103 103 103 127 127 127 102 102 102 127 127 127 126 126 126 103 103 103 104 104 104 128 128 128 103 103 103 128 128 128 127 127 127 104 104 104 105 105 105 129 129 129 104 104 104 129 129 129 128 128 128 105 105 105 106 106 106 130 130 130 105 105 105 130 130 130 129 129 129 106 106 106 107 107 107 131 131 131 106 106 106 131 131 131 130 130 130 107 107 107 108 108 108 132 132 132 107 107 107 132 132 132 131 131 131 108 108 108 109 109 109 133 133 133 108 108 108 133 133 133 132 132 132 110 110 110 111 111 111 136 136 136 110 110 110 136 136 136 135 135 135 111 111 111 112 112 112 137 137 137 111 111 111 137 137 137 136 136 136 112 112 112 113 113 113 138 138 138 112 112 112 138 138 138 137 137 137 113 113 113 114 114 114 139 139 139 113 113 113 139 139 139 138 138 138 114 114 114 115 115 115 140 140 140 114 114 114 140 140 140 139 139 139 115 115 115 116 116 116 141 141 141 115 115 115 141 141 141 140 140 140 116 116 116 117 117 117 142 142 142 116 116 116 142 142 142 141 141 141 117 117 117 118 118 118 143 143 143 117 117 117 143 143 143 142 142 142 118 118 118 119 119 119 144 144 144 118 118 118 144 144 144 143 143 143 119 119 119 120 120 120 145 145 145 119 119 119 145 145 145 144 144 144 120 120 120 121 121 121 146 146 146 120 120 120 146 146 146 145 145 145 121 121 121 122 122 122 147 147 147 121 121 121 147 147 147 146 146 146 122 122 122 123 123 123 148 148 148 122 122 122 148 148 148 147 147 147 123 123 123 124 124 124 149 149 149 123 123 123 149 149 149 148 148 148 124 124 124 125 125 125 150 150 150 124 124 124 150 150 150 149 149 149 125 125 125 126 126 126 151 151 151 125 125 125 151 151 151 150 150 150 126 126 126 127 127 127 152 152 152 126 126 126 152 152 152 151 151 151 127 127 127 128 128 128 153 153 153 127 127 127 153 153 153 152 152 152 128 128 128 129 129 129 154 154 154 128 128 128 154 154 154 153 153 153 129 129 129 130 130 130 155 155 155 129 129 129 155 155 155 154 154 154 130 130 130 131 131 131 156 156 156 130 130 130 156 156 156 155 155 155 131 131 131 132 132 132 157 157 157 131 131 131 157 157 157 156 156 156 132 132 132 133 133 133 158 158 158 132 132 132 158 158 158 157 157 157 133 133 133 134 134 134 159 159 159 133 133 133 159 159 159 158 158 158 135 135 135 136 136 136 162 162 162 135 135 135 162 162 162 161 161 161 136 136 136 137 137 137 163 163 163 136 136 136 163 163 163 162 162 162 137 137 137 138 138 138 164 164 164 137 137 137 164 164 164 163 163 163 138 138 138 139 139 139 165 165 165 138 138 138 165 165 165 164 164 164 139 139 139 140 140 140 166 166 166 139 139 139 166 166 166 165 165 165 140 140 140 141 141 141 167 167 167 140 140 140 167 167 167 166 166 166 141 141 141 142 142 142 168 168 168 141 141 141 168 168 168 167 167 167 142 142 142 143 143 143 169 169 169 142 142 142 169 169 169 168 168 168 143 143 143 144 144 144 170 170 170 143 143 143 170 170 170 169 169 169 144 144 144 145 145 145 171 171 171 144 144 144 171 171 171 170 170 170 145 145 145 146 146 146 172 172 172 145 145 145 172 172 172 171 171 171 146 146 146 147 147 147 173 173 173 146 146 146 173 173 173 172 172 172 147 147 147 148 148 148 174 174 174 147 147 147 174 174 174 173 173 173 148 148 148 149 149 149 175 175 175 148 148 148 175 175 175 174 174 174 149 149 149 150 150 150 176 176 176 149 149 149 176 176 176 175 175 175 150 150 150 151 151 151 177 177 177 150 150 150 177 177 177 176 176 176 151 151 151 152 152 152 178 178 178 151 151 151 178 178 178 177 177 177 152 152 152 153 153 153 179 179 179 152 152 152 179 179 179 178 178 178 153 153 153 154 154 154 180 180 180 153 153 153 180 180 180 179 179 179 154 154 154 155 155 155 181 181 181 154 154 154 181 181 181 180 180 180 155 155 155 156 156 156 182 182 182 155 155 155 182 182 182 181 181 181 156 156 156 157 157 157 183 183 183 156 156 156 183 183 183 182 182 182 157 157 157 158 158 158 184 184 184 157 157 157 184 184 184 183 183 183 158 158 158 159 159 159 185 185 185 158 158 158 185 185 185 184 184 184 159 159 159 160 160 160 186 186 186 159 159 159 186 186 186 185 185 185 161 161 161 162 162 162 190 190 190 161 161 161 190 190 190 189 189 189 162 162 162 163 163 163 191 191 191 162 162 162 191 191 191 190 190 190 163 163 163 164 164 164 192 192 192 163 163 163 192 192 192 191 191 191 164 164 164 165 165 165 193 193 193 164 164 164 193 193 193 192 192 192 165 165 165 166 166 166 194 194 194 165 165 165 194 194 194 193 193 193 166 166 166 167 167 167 195 195 195 166 166 166 195 195 195 194 194 194 167 167 167 168 168 168 196 196 196 167 167 167 196 196 196 195 195 195 168 168 168 169 169 169 197 197 197 168 168 168 197 197 197 196 196 196 169 169 169 170 170 170 198 198 198 169 169 169 198 198 198 197 197 197 170 170 170 171 171 171 199 199 199 170 170 170 199 199 199 198 198 198 171 171 171 172 172 172 200 200 200 171 171 171 200 200 200 199 199 199 172 172 172 173 173 173 201 201 201 172 172 172 201 201 201 200 200 200 173 173 173 174 174 174 202 202 202 173 173 173 202 202 202 201 201 201 174 174 174 175 175 175 203 203 203 174 174 174 203 203 203 202 202 202 175 175 175 176 176 176 204 204 204 175 175 175 204 204 204 203 203 203 176 176 176 177 177 177 205 205 205 176 176 176 205 205 205 204 204 204 177 177 177 178 178 178 206 206 206 177 177 177 206 206 206 205 205 205 178 178 178 179 179 179 207 207 207 178 178 178 207 207 207 206 206 206 179 179 179 180 180 180 208 208 208 179 179 179 208 208 208 207 207 207 180 180 180 181 181 181 209 209 209 180 180 180 209 209 209 208 208 208 181 181 181 182 182 182 210 210 210 181 181 181 210 210 210 209 209 209 182 182 182 183 183 183 211 211 211 182 182 182 211 211 211 210 210 210 183 183 183 184 184 184 212 212 212 183 183 183 212 212 212 211 211 211 184 184 184 185 185 185 213 213 213 184 184 184 213 213 213 212 212 212 185 185 185 186 186 186 214 214 214 185 185 185 214 214 214 213 213 213 186 186 186 187 187 187 215 215 215 186 186 186 215 215 215 214 214 214 188 188 188 189 189 189 217 217 217 188 188 188 217 217 217 216 216 216 189 189 189 190 190 190 218 218 218 189 189 189 218 218 218 217 217 217 190 190 190 191 191 191 219 219 219 190 190 190 219 219 219 218 218 218 191 191 191 192 192 192 220 220 220 191 191 191 220 220 220 219 219 219 192 192 192 193 193 193 221 221 221 192 192 192 221 221 221 220 220 220 193 193 193 194 194 194 222 222 222 193 193 193 222 222 222 221 221 221 194 194 194 195 195 195 223 223 223 194 194 194 223 223 223 222 222 222 195 195 195 196 196 196 224 224 224 195 195 195 224 224 224 223 223 223 196 196 196 197 197 197 225 225 225 196 196 196 225 225 225 224 224 224 197 197 197 198 198 198 226 226 226 197 197 197 226 226 226 225 225 225 198 198 198 199 199 199 227 227 227 198 198 198 227 227 227 226 226 226 199 199 199 200 200 200 228 228 228 199 199 199 228 228 228 227 227 227 200 200 200 201 201 201 229 229 229 200 200 200 229 229 229 228 228 228 201 201 201 202 202 202 230 230 230 201 201 201 230 230 230 229 229 229 202 202 202 203 203 203 231 231 231 202 202 202 231 231 231 230 230 230 203 203 203 204 204 204 232 232 232 203 203 203 232 232 232 231 231 231 204 204 204 205 205 205 233 233 233 204 204 204 233 233 233 232 232 232 205 205 205 206 206 206 234 234 234 205 205 205 234 234 234 233 233 233 206 206 206 207 207 207 235 235 235 206 206 206 235 235 235 234 234 234 207 207 207 208 208 208 236 236 236 207 207 207 236 236 236 235 235 235 208 208 208 209 209 209 237 237 237 208 208 208 237 237 237 236 236 236 209 209 209 210 210 210 238 238 238 209 209 209 238 238 238 237 237 237 210 210 210 211 211 211 239 239 239 210 210 210 239 239 239 238 238 238 211 211 211 212 212 212 240 240 240 211 211 211 240 240 240 239 239 239 212 212 212 213 213 213 241 241 241 212 212 212 241 241 241 240 240 240 213 213 213 214 214 214 242 242 242 213 213 213 242 242 242 241 241 241 214 214 214 215 215 215 243 243 243 214 214 214 243 243 243 242 242 242 216 216 216 217 217 217 246 246 246 216 216 216 246 246 246 245 245 245 217 217 217 218 218 218 247 247 247 217 217 217 247 247 247 246 246 246 218 218 218 219 219 219 248 248 248 218 218 218 248 248 248 247 247 247 219 219 219 220 220 220 249 249 249 219 219 219 249 249 249 248 248 248 220 220 220 221 221 221 250 250 250 220 220 220 250 250 250 249 249 249 221 221 221 222 222 222 251 251 251 221 221 221 251 251 251 250 250 250 222 222 222 223 223 223 252 252 252 222 222 222 252 252 252 251 251 251 223 223 223 224 224 224 253 253 253 223 223 223 253 253 253 252 252 252 224 224 224 225 225 225 254 254 254 224 224 224 254 254 254 253 253 253 225 225 225 226 226 226 255 255 255 225 225 225 255 255 255 254 254 254 226 226 226 227 227 227 256 256 256 226 226 226 256 256 256 255 255 255 227 227 227 228 228 228 257 257 257 227 227 227 257 257 257 256 256 256 228 228 228 229 229 229 258 258 258 228 228 228 258 258 258 257 257 257 229 229 229 230 230 230 259 259 259 229 229 229 259 259 259 258 258 258 230 230 230 231 231 231 260 260 260 230 230 230 260 260 260 259 259 259 231 231 231 232 232 232 261 261 261 231 231 231 261 261 261 260 260 260 232 232 232 233 233 233 262 262 262 232 232 232 262 262 262 261 261 261 233 233 233 234 234 234 263 263 263 233 233 233 263 263 263 262 262 262 234 234 234 235 235 235 264 264 264 234 234 234 264 264 264 263 263 263 235 235 235 236 236 236 265 265 265 235 235 235 265 265 265 264 264 264 236 236 236 237 237 237 266 266 266 236 236 236 266 266 266 265 265 265 237 237 237 238 238 238 267 267 267 237 237 237 267 267 267 266 266 266 238 238 238 239 239 239 268 268 268 238 238 238 268 268 268 267 267 267 239 239 239 240 240 240 269 269 269 239 239 239 269 269 269 268 268 268 240 240 240 241 241 241 270 270 270 240 240 240 270 270 270 269 269 269 241 241 241 242 242 242 271 271 271 241 241 241 271 271 271 270 270 270 242 242 242 243 243 243 272 272 272 242 242 242 272 272 272 271 271 271 243 243 243 244 244 244 273 273 273 243 243 243 273 273 273 272 272 272 245 245 245 246 246 246 276 276 276 245 245 245 276 276 276 275 275 275 246 246 246 247 247 247 277 277 277 246 246 246 277 277 277 276 276 276 247 247 247 248 248 248 278 278 278 247 247 247 278 278 278 277 277 277 248 248 248 249 249 249 279 279 279 248 248 248 279 279 279 278 278 278 249 249 249 250 250 250 280 280 280 249 249 249 280 280 280 279 279 279 250 250 250 251 251 251 281 281 281 250 250 250 281 281 281 280 280 280 251 251 251 252 252 252 282 282 282 251 251 251 282 282 282 281 281 281 252 252 252 253 253 253 283 283 283 252 252 252 283 283 283 282 282 282 253 253 253 254 254 254 284 284 284 253 253 253 284 284 284 283 283 283 254 254 254 255 255 255 285 285 285 254 254 254 285 285 285 284 284 284 255 255 255 256 256 256 286 286 286 255 255 255 286 286 286 285 285 285 256 256 256 257 257 257 287 287 287 256 256 256 287 287 287 286 286 286 257 257 257 258 258 258 288 288 288 257 257 257 288 288 288 287 287 287 258 258 258 259 259 259 289 289 289 258 258 258 289 289 289 288 288 288 259 259 259 260 260 260 290 290 290 259 259 259 290 290 290 289 289 289 260 260 260 261 261 261 291 291 291 260 260 260 291 291 291 290 290 290 261 261 261 262 262 262 292 292 292 261 261 261 292 292 292 291 291 291 262 262 262 263 263 263 293 293 293 262 262 262 293 293 293 292 292 292 263 263 263 264 264 264 294 294 294 263 263 263 294 294 294 293 293 293 264 264 264 265 265 265 295 295 295 264 264 264 295 295 295 294 294 294 265 265 265 266 266 266 296 296 296 265 265 265 296 296 296 295 295 295 266 266 266 267 267 267 297 297 297 266 266 266 297 297 297 296 296 296 267 267 267 268 268 268 298 298 298 267 267 267 298 298 298 297 297 297 268 268 268 269 269 269 299 299 299 268 268 268 299 299 299 298 298 298 269 269 269 270 270 270 300 300 300 269 269 269 300 300 300 299 299 299 270 270 270 271 271 271 301 301 301 270 270 270 301 301 301 300 300 300 271 271 271 272 272 272 302 302 302 271 271 271 302 302 302 301 301 301 272 272 272 273 273 273 303 303 303 272 272 272 303 303 303 302 302 302 274 274 274 275 275 275 306 306 306 274 274 274 306 306 306 305 305 305 275 275 275 276 276 276 307 307 307 275 275 275 307 307 307 306 306 306 276 276 276 277 277 277 308 308 308 276 276 276 308 308 308 307 307 307 277 277 277 278 278 278 309 309 309 277 277 277 309 309 309 308 308 308 278 278 278 279 279 279 310 310 310 278 278 278 310 310 310 309 309 309 279 279 279 280 280 280 311 311 311 279 279 279 311 311 311 310 310 310 280 280 280 281 281 281 312 312 312 280 280 280 312 312 312 311 311 311 281 281 281 282 282 282 313 313 313 281 281 281 313 313 313 312 312 312 282 282 282 283 283 283 314 314 314 282 282 282 314 314 314 313 313 313 283 283 283 284 284 284 315 315 315 283 283 283 315 315 315 314 314 314 284 284 284 285 285 285 316 316 316 284 284 284 316 316 316 315 315 315 285 285 285 286 286 286 317 317 317 285 285 285 317 317 317 316 316 316 286 286 286 287 287 287 318 318 318 286 286 286 318 318 318 317 317 317 287 287 287 288 288 288 319 319 319 287 287 287 319 319 319 318 318 318 288 288 288 289 289 289 320 320 320 288 288 288 320 320 320 319 319 319 289 289 289 290 290 290 321 321 321 289 289 289 321 321 321 320 320 320 290 290 290 291 291 291 322 322 322 290 290 290 322 322 322 321 321 321 291 291 291 292 292 292 323 323 323 291 291 291 323 323 323 322 322 322 292 292 292 293 293 293 324 324 324 292 292 292 324 324 324 323 323 323 293 293 293 294 294 294 325 325 325 293 293 293 325 325 325 324 324 324 294 294 294 295 295 295 326 326 326 294 294 294 326 326 326 325 325 325 295 295 295 296 296 296 327 327 327 295 295 295 327 327 327 326 326 326 296 296 296 297 297 297 328 328 328 296 296 296 328 328 328 327 327 327 297 297 297 298 298 298 329 329 329 297 297 297 329 329 329 328 328 328 298 298 298 299 299 299 330 330 330 298 298 298 330 330 330 329 329 329 299 299 299 300 300 300 331 331 331 299 299 299 331 331 331 330 330 330 300 300 300 301 301 301 332 332 332 300 300 300 332 332 332 331 331 331 301 301 301 302 302 302 333 333 333 301 301 301 333 333 333 332 332 332 304 304 304 305 305 305 336 336 336 304 304 304 336 336 336 335 335 335 305 305 305 306 306 306 337 337 337 305 305 305 337 337 337 336 336 336 306 306 306 307 307 307 338 338 338 306 306 306 338 338 338 337 337 337 307 307 307 308 308 308 339 339 339 307 307 307 339 339 339 338 338 338 308 308 308 309 309 309 340 340 340 308 308 308 340 340 340 339 339 339 309 309 309 310 310 310 341 341 341 309 309 309 341 341 341 340 340 340 310 310 310 311 311 311 342 342 342 310 310 310 342 342 342 341 341 341 311 311 311 312 312 312 343 343 343 311 311 311 343 343 343 342 342 342 312 312 312 313 313 313 344 344 344 312 312 312 344 344 344 343 343 343 313 313 313 314 314 314 345 345 345 313 313 313 345 345 345 344 344 344 314 314 314 315 315 315 346 346 346 314 314 314 346 346 346 345 345 345 315 315 315 316 316 316 347 347 347 315 315 315 347 347 347 346 346 346 316 316 316 317 317 317 348 348 348 316 316 316 348 348 348 347 347 347 317 317 317 318 318 318 349 349 349 317 317 317 349 349 349 348 348 348 318 318 318 319 319 319 350 350 350 318 318 318 350 350 350 349 349 349 319 319 319 320 320 320 351 351 351 319 319 319 351 351 351 350 350 350 320 320 320 321 321 321 352 352 352 320 320 320 352 352 352 351 351 351 321 321 321 322 322 322 353 353 353 321 321 321 353 353 353 352 352 352 322 322 322 323 323 323 354 354 354 322 322 322 354 354 354 353 353 353 323 323 323 324 324 324 355 355 355 323 323 323 355 355 355 354 354 354 324 324 324 325 325 325 356 356 356 324 324 324 356 356 356 355 355 355 325 325 325 326 326 326 357 357 357 325 325 325 357 357 357 356 356 356 326 326 326 327 327 327 358 358 358 326 326 326 358 358 358 357 357 357 327 327 327 328 328 328 359 359 359 327 327 327 359 359 359 358 358 358 328 328 328 329 329 329 360 360 360 328 328 328 360 360 360 359 359 359 329 329 329 330 330 330 361 361 361 329 329 329 361 361 361 360 360 360 330 330 330 331 331 331 362 362 362 330 330 330 362 362 362 361 361 361 331 331 331 332 332 332 363 363 363 331 331 331 363 363 363 362 362 362 332 332 332 333 333 333 364 364 364 332 332 332 364 364 364 363 363 363 334 334 334 335 335 335 367 367 367 334 334 334 367 367 367 366 366 366 335 335 335 336 336 336 368 368 368 335 335 335 368 368 368 367 367 367 336 336 336 337 337 337 369 369 369 336 336 336 369 369 369 368 368 368 337 337 337 338 338 338 370 370 370 337 337 337 370 370 370 369 369 369 338 338 338 339 339 339 371 371 371 338 338 338 371 371 371 370 370 370 339 339 339 340 340 340 372 372 372 339 339 339 372 372 372 371 371 371 340 340 340 341 341 341 373 373 373 340 340 340 373 373 373 372 372 372 341 341 341 342 342 342 374 374 374 341 341 341 374 374 374 373 373 373 342 342 342 343 343 343 375 375 375 342 342 342 375 375 375 374 374 374 343 343 343 344 344 344 376 376 376 343 343 343 376 376 376 375 375 375 344 344 344 345 345 345 377 377 377 344 344 344 377 377 377 376 376 376 345 345 345 346 346 346 378 378 378 345 345 345 378 378 378 377 377 377 346 346 346 347 347 347 379 379 379 346 346 346 379 379 379 378 378 378 347 347 347 348 348 348 380 380 380 347 347 347 380 380 380 379 379 379 348 348 348 349 349 349 381 381 381 348 348 348 381 381 381 380 380 380 349 349 349 350 350 350 382 382 382 349 349 349 382 382 382 381 381 381 350 350 350 351 351 351 383 383 383 350 350 350 383 383 383 382 382 382 351 351 351 352 352 352 384 384 384 351 351 351 384 384 384 383 383 383 352 352 352 353 353 353 385 385 385 352 352 352 385 385 385 384 384 384 353 353 353 354 354 354 386 386 386 353 353 353 386 386 386 385 385 385 354 354 354 355 355 355 387 387 387 354 354 354 387 387 387 386 386 386 355 355 355 356 356 356 388 388 388 355 355 355 388 388 388 387 387 387 356 356 356 357 357 357 389 389 389 356 356 356 389 389 389 388 388 388 357 357 357 358 358 358 390 390 390 357 357 357 390 390 390 389 389 389 358 358 358 359 359 359 391 391 391 358 358 358 391 391 391 390 390 390 359 359 359 360 360 360 392 392 392 359 359 359 392 392 392 391 391 391 360 360 360 361 361 361 393 393 393 360 360 360 393 393 393 392 392 392 361 361 361 362 362 362 394 394 394 361 361 361 394 394 394 393 393 393 362 362 362 363 363 363 395 395 395 362 362 362 395 395 395 394 394 394 365 365 365 366 366 366 398 398 398 365 365 365 398 398 398 397 397 397 366 366 366 367 367 367 399 399 399 366 366 366 399 399 399 398 398 398 367 367 367 368 368 368 400 400 400 367 367 367 400 400 400 399 399 399 368 368 368 369 369 369 401 401 401 368 368 368 401 401 401 400 400 400 369 369 369 370 370 370 402 402 402 369 369 369 402 402 402 401 401 401 370 370 370 371 371 371 403 403 403 370 370 370 403 403 403 402 402 402 371 371 371 372 372 372 404 404 404 371 371 371 404 404 404 403 403 403 372 372 372 373 373 373 405 405 405 372 372 372 405 405 405 404 404 404 373 373 373 374 374 374 406 406 406 373 373 373 406 406 406 405 405 405 374 374 374 375 375 375 407 407 407 374 374 374 407 407 407 406 406 406 375 375 375 376 376 376 408 408 408 375 375 375 408 408 408 407 407 407 376 376 376 377 377 377 409 409 409 376 376 376 409 409 409 408 408 408 377 377 377 378 378 378 410 410 410 377 377 377 410 410 410 409 409 409 378 378 378 379 379 379 411 411 411 378 378 378 411 411 411 410 410 410 379 379 379 380 380 380 412 412 412 379 379 379 412 412 412 411 411 411 380 380 380 381 381 381 413 413 413 380 380 380 413 413 413 412 412 412 381 381 381 382 382 382 414 414 414 381 381 381 414 414 414 413 413 413 382 382 382 383 383 383 415 415 415 382 382 382 415 415 415 414 414 414 383 383 383 384 384 384 416 416 416 383 383 383 416 416 416 415 415 415 384 384 384 385 385 385 417 417 417 384 384 384 417 417 417 416 416 416 385 385 385 386 386 386 418 418 418 385 385 385 418 418 418 417 417 417 386 386 386 387 387 387 419 419 419 386 386 386 419 419 419 418 418 418 387 387 387 388 388 388 420 420 420 387 387 387 420 420 420 419 419 419 388 388 388 389 389 389 421 421 421 388 388 388 421 421 421 420 420 420 389 389 389 390 390 390 422 422 422 389 389 389 422 422 422 421 421 421 390 390 390 391 391 391 423 423 423 390 390 390 423 423 423 422 422 422 391 391 391 392 392 392 424 424 424 391 391 391 424 424 424 423 423 423 392 392 392 393 393 393 425 425 425 392 392 392 425 425 425 424 424 424 393 393 393 394 394 394 426 426 426 393 393 393 426 426 426 425 425 425 396 396 396 397 397 397 428 428 428 396 396 396 428 428 428 427 427 427 397 397 397 398 398 398 429 429 429 397 397 397 429 429 429 428 428 428 398 398 398 399 399 399 430 430 430 398 398 398 430 430 430 429 429 429 399 399 399 400 400 400 431 431 431 399 399 399 431 431 431 430 430 430 400 400 400 401 401 401 432 432 432 400 400 400 432 432 432 431 431 431 401 401 401 402 402 402 433 433 433 401 401 401 433 433 433 432 432 432 402 402 402 403 403 403 434 434 434 402 402 402 434 434 434 433 433 433 403 403 403 404 404 404 435 435 435 403 403 403 435 435 435 434 434 434 404 404 404 405 405 405 436 436 436 404 404 404 436 436 436 435 435 435 405 405 405 406 406 406 437 437 437 405 405 405 437 437 437 436 436 436 406 406 406 407 407 407 438 438 438 406 406 406 438 438 438 437 437 437 407 407 407 408 408 408 439 439 439 407 407 407 439 439 439 438 438 438 408 408 408 409 409 409 440 440 440 408 408 408 440 440 440 439 439 439 409 409 409 410 410 410 441 441 441 409 409 409 441 441 441 440 440 440 410 410 410 411 411 411 442 442 442 410 410 410 442 442 442 441 441 441 411 411 411 412 412 412 443 443 443 411 411 411 443 443 443 442 442 442 412 412 412 413 413 413 444 444 444 412 412 412 444 444 444 443 443 443 413 413 413 414 414 414 445 445 445 413 413 413 445 445 445 444 444 444 414 414 414 415 415 415 446 446 446 414 414 414 446 446 446 445 445 445 415 415 415 416 416 416 447 447 447 415 415 415 447 447 447 446 446 446 416 416 416 417 417 417 448 448 448 416 416 416 448 448 448 447 447 447 417 417 417 418 418 418 449 449 449 417 417 417 449 449 449 448 448 448 418 418 418 419 419 419 450 450 450 418 418 418 450 450 450 449 449 449 419 419 419 420 420 420 451 451 451 419 419 419 451 451 451 450 450 450 420 420 420 421 421 421 452 452 452 420 420 420 452 452 452 451 451 451 421 421 421 422 422 422 453 453 453 421 421 421 453 453 453 452 452 452 422 422 422 423 423 423 454 454 454 422 422 422 454 454 454 453 453 453 423 423 423 424 424 424 455 455 455 423 423 423 455 455 455 454 454 454 424 424 424 425 425 425 456 456 456 424 424 424 456 456 456 455 455 455 427 427 427 428 428 428 459 459 459 427 427 427 459 459 459 458 458 458 428 428 428 429 429 429 460 460 460 428 428 428 460 460 460 459 459 459 429 429 429 430 430 430 461 461 461 429 429 429 461 461 461 460 460 460 430 430 430 431 431 431 462 462 462 430 430 430 462 462 462 461 461 461 431 431 431 432 432 432 463 463 463 431 431 431 463 463 463 462 462 462 432 432 432 433 433 433 464 464 464 432 432 432 464 464 464 463 463 463 433 433 433 434 434 434 465 465 465 433 433 433 465 465 465 464 464 464 434 434 434 435 435 435 466 466 466 434 434 434 466 466 466 465 465 465 435 435 435 436 436 436 467 467 467 435 435 435 467 467 467 466 466 466 436 436 436 437 437 437 468 468 468 436 436 436 468 468 468 467 467 467 437 437 437 438 438 438 469 469 469 437 437 437 469 469 469 468 468 468 438 438 438 439 439 439 470 470 470 438 438 438 470 470 470 469 469 469 439 439 439 440 440 440 471 471 471 439 439 439 471 471 471 470 470 470 440 440 440 441 441 441 472 472 472 440 440 440 472 472 472 471 471 471 441 441 441 442 442 442 473 473 473 441 441 441 473 473 473 472 472 472 442 442 442 443 443 443 474 474 474 442 442 442 474 474 474 473 473 473 443 443 443 444 444 444 475 475 475 443 443 443 475 475 475 474 474 474 444 444 444 445 445 445 476 476 476 444 444 444 476 476 476 475 475 475 445 445 445 446 446 446 477 477 477 445 445 445 477 477 477 476 476 476 446 446 446 447 447 447 478 478 478 446 446 446 478 478 478 477 477 477 447 447 447 448 448 448 479 479 479 447 447 447 479 479 479 478 478 478 448 448 448 449 449 449 480 480 480 448 448 448 480 480 480 479 479 479 449 449 449 450 450 450 481 481 481 449 449 449 481 481 481 480 480 480 450 450 450 451 451 451 482 482 482 450 450 450 482 482 482 481 481 481 451 451 451 452 452 452 483 483 483 451 451 451 483 483 483 482 482 482 452 452 452 453 453 453 484 484 484 452 452 452 484 484 484 483 483 483 453 453 453 454 454 454 485 485 485 453 453 453 485 485 485 484 484 484 454 454 454 455 455 455 486 486 486 454 454 454 486 486 486 485 485 485 457 457 457 458 458 458 488 488 488 457 457 457 488 488 488 487 487 487 458 458 458 459 459 459 489 489 489 458 458 458 489 489 489 488 488 488 459 459 459 460 460 460 490 490 490 459 459 459 490 490 490 489 489 489 460 460 460 461 461 461 491 491 491 460 460 460 491 491 491 490 490 490 461 461 461 462 462 462 492 492 492 461 461 461 492 492 492 491 491 491 462 462 462 463 463 463 493 493 493 462 462 462 493 493 493 492 492 492 463 463 463 464 464 464 494 494 494 463 463 463 494 494 494 493 493 493 464 464 464 465 465 465 495 495 495 464 464 464 495 495 495 494 494 494 465 465 465 466 466 466 496 496 496 465 465 465 496 496 496 495 495 495 466 466 466 467 467 467 497 497 497 466 466 466 497 497 497 496 496 496 467 467 467 468 468 468 498 498 498 467 467 467 498 498 498 497 497 497 468 468 468 469 469 469 499 499 499 468 468 468 499 499 499 498 498 498 469 469 469 470 470 470 500 500 500 469 469 469 500 500 500 499 499 499 470 470 470 471 471 471 501 501 501 470 470 470 501 501 501 500 500 500 471 471 471 472 472 472 502 502 502 471 471 471 502 502 502 501 501 501 472 472 472 473 473 473 503 503 503 472 472 472 503 503 503 502 502 502 473 473 473 474 474 474 504 504 504 473 473 473 504 504 504 503 503 503 474 474 474 475 475 475 505 505 505 474 474 474 505 505 505 504 504 504 475 475 475 476 476 476 506 506 506 475 475 475 506 506 506 505 505 505 476 476 476 477 477 477 507 507 507 476 476 476 507 507 507 506 506 506 477 477 477 478 478 478 508 508 508 477 477 477 508 508 508 507 507 507 478 478 478 479 479 479 509 509 509 478 478 478 509 509 509 508 508 508 479 479 479 480 480 480 510 510 510 479 479 479 510 510 510 509 509 509 480 480 480 481 481 481 511 511 511 480 480 480 511 511 511 510 510 510 481 481 481 482 482 482 512 512 512 481 481 481 512 512 512 511 511 511 482 482 482 483 483 483 513 513 513 482 482 482 513 513 513 512 512 512 483 483 483 484 484 484 514 514 514 483 483 483 514 514 514 513 513 513 484 484 484 485 485 485 515 515 515 484 484 484 515 515 515 514 514 514 487 487 487 488 488 488 517 517 517 487 487 487 517 517 517 516 516 516 488 488 488 489 489 489 518 518 518 488 488 488 518 518 518 517 517 517 489 489 489 490 490 490 519 519 519 489 489 489 519 519 519 518 518 518 490 490 490 491 491 491 520 520 520 490 490 490 520 520 520 519 519 519 491 491 491 492 492 492 521 521 521 491 491 491 521 521 521 520 520 520 492 492 492 493 493 493 522 522 522 492 492 492 522 522 522 521 521 521 493 493 493 494 494 494 523 523 523 493 493 493 523 523 523 522 522 522 494 494 494 495 495 495 524 524 524 494 494 494 524 524 524 523 523 523 495 495 495 496 496 496 525 525 525 495 495 495 525 525 525 524 524 524 496 496 496 497 497 497 526 526 526 496 496 496 526 526 526 525 525 525 497 497 497 498 498 498 527 527 527 497 497 497 527 527 527 526 526 526 498 498 498 499 499 499 528 528 528 498 498 498 528 528 528 527 527 527 499 499 499 500 500 500 529 529 529 499 499 499 529 529 529 528 528 528 500 500 500 501 501 501 530 530 530 500 500 500 530 530 530 529 529 529 501 501 501 502 502 502 531 531 531 501 501 501 531 531 531 530 530 530 502 502 502 503 503 503 532 532 532 502 502 502 532 532 532 531 531 531 503 503 503 504 504 504 533 533 533 503 503 503 533 533 533 532 532 532 504 504 504 505 505 505 534 534 534 504 504 504 534 534 534 533 533 533 505 505 505 506 506 506 535 535 535 505 505 505 535 535 535 534 534 534 506 506 506 507 507 507 536 536 536 506 506 506 536 536 536 535 535 535 507 507 507 508 508 508 537 537 537 507 507 507 537 537 537 536 536 536 508 508 508 509 509 509 538 538 538 508 508 508 538 538 538 537 537 537 509 509 509 510 510 510 539 539 539 509 509 509 539 539 539 538 538 538 510 510 510 511 511 511 540 540 540 510 510 510 540 540 540 539 539 539 511 511 511 512 512 512 541 541 541 511 511 511 541 541 541 540 540 540 512 512 512 513 513 513 542 542 542 512 512 512 542 542 542 541 541 541 513 513 513 514 514 514 543 543 543 513 513 513 543 543 543 542 542 542 514 514 514 515 515 515 544 544 544 514 514 514 544 544 544 543 543 543 517 517 517 518 518 518 546 546 546 517 517 517 546 546 546 545 545 545 518 518 518 519 519 519 547 547 547 518 518 518 547 547 547 546 546 546 519 519 519 520 520 520 548 548 548 519 519 519 548 548 548 547 547 547 520 520 520 521 521 521 549 549 549 520 520 520 549 549 549 548 548 548 521 521 521 522 522 522 550 550 550 521 521 521 550 550 550 549 549 549 522 522 522 523 523 523 551 551 551 522 522 522 551 551 551 550 550 550 523 523 523 524 524 524 552 552 552 523 523 523 552 552 552 551 551 551 524 524 524 525 525 525 553 553 553 524 524 524 553 553 553 552 552 552 525 525 525 526 526 526 554 554 554 525 525 525 554 554 554 553 553 553 526 526 526 527 527 527 555 555 555 526 526 526 555 555 555 554 554 554 527 527 527 528 528 528 556 556 556 527 527 527 556 556 556 555 555 555 528 528 528 529 529 529 557 557 557 528 528 528 557 557 557 556 556 556 529 529 529 530 530 530 558 558 558 529 529 529 558 558 558 557 557 557 530 530 530 531 531 531 559 559 559 530 530 530 559 559 559 558 558 558 531 531 531 532 532 532 560 560 560 531 531 531 560 560 560 559 559 559 532 532 532 533 533 533 561 561 561 532 532 532 561 561 561 560 560 560 533 533 533 534 534 534 562 562 562 533 533 533 562 562 562 561 561 561 534 534 534 535 535 535 563 563 563 534 534 534 563 563 563 562 562 562 535 535 535 536 536 536 564 564 564 535 535 535 564 564 564 563 563 563 536 536 536 537 537 537 565 565 565 536 536 536 565 565 565 564 564 564 537 537 537 538 538 538 566 566 566 537 537 537 566 566 566 565 565 565 538 538 538 539 539 539 567 567 567 538 538 538 567 567 567 566 566 566 539 539 539 540 540 540 568 568 568 539 539 539 568 568 568 567 567 567 540 540 540 541 541 541 569 569 569 540 540 540 569 569 569 568 568 568 541 541 541 542 542 542 570 570 570 541 541 541 570 570 570 569 569 569 542 542 542 543 543 543 571 571 571 542 542 542 571 571 571 570 570 570 543 543 543 544 544 544 572 572 572 543 543 543 572 572 572 571 571 571 545 545 545 546 546 546 574 574 574 545 545 545 574 574 574 573 573 573 546 546 546 547 547 547 575 575 575 546 546 546 575 575 575 574 574 574 547 547 547 548 548 548 576 576 576 547 547 547 576 576 576 575 575 575 548 548 548 549 549 549 577 577 577 548 548 548 577 577 577 576 576 576 549 549 549 550 550 550 578 578 578 549 549 549 578 578 578 577 577 577 550 550 550 551 551 551 579 579 579 550 550 550 579 579 579 578 578 578 551 551 551 552 552 552 580 580 580 551 551 551 580 580 580 579 579 579 552 552 552 553 553 553 581 581 581 552 552 552 581 581 581 580 580 580 553 553 553 554 554 554 582 582 582 553 553 553 582 582 582 581 581 581 554 554 554 555 555 555 583 583 583 554 554 554 583 583 583 582 582 582 555 555 555 556 556 556 584 584 584 555 555 555 584 584 584 583 583 583 556 556 556 557 557 557 585 585 585 556 556 556 585 585 585 584 584 584 557 557 557 558 558 558 586 586 586 557 557 557 586 586 586 585 585 585 558 558 558 559 559 559 587 587 587 558 558 558 587 587 587 586 586 586 559 559 559 560 560 560 588 588 588 559 559 559 588 588 588 587 587 587 560 560 560 561 561 561 589 589 589 560 560 560 589 589 589 588 588 588 561 561 561 562 562 562 590 590 590 561 561 561 590 590 590 589 589 589 562 562 562 563 563 563 591 591 591 562 562 562 591 591 591 590 590 590 563 563 563 564 564 564 592 592 592 563 563 563 592 592 592 591 591 591 564 564 564 565 565 565 593 593 593 564 564 564 593 593 593 592 592 592 565 565 565 566 566 566 594 594 594 565 565 565 594 594 594 593 593 593 566 566 566 567 567 567 595 595 595 566 566 566 595 595 595 594 594 594 567 567 567 568 568 568 596 596 596 567 567 567 596 596 596 595 595 595 568 568 568 569 569 569 597 597 597 568 568 568 597 597 597 596 596 596 569 569 569 570 570 570 598 598 598 569 569 569 598 598 598 597 597 597 570 570 570 571 571 571 599 599 599 570 570 570 599 599 599 598 598 598 574 574 574 575 575 575 601 601 601 574 574 574 601 601 601 600 600 600 575 575 575 576 576 576 602 602 602 575 575 575 602 602 602 601 601 601 576 576 576 577 577 577 603 603 603 576 576 576 603 603 603 602 602 602 577 577 577 578 578 578 604 604 604 577 577 577 604 604 604 603 603 603 578 578 578 579 579 579 605 605 605 578 578 578 605 605 605 604 604 604 579 579 579 580 580 580 606 606 606 579 579 579 606 606 606 605 605 605 580 580 580 581 581 581 607 607 607 580 580 580 607 607 607 606 606 606 581 581 581 582 582 582 608 608 608 581 581 581 608 608 608 607 607 607 582 582 582 583 583 583 609 609 609 582 582 582 609 609 609 608 608 608 583 583 583 584 584 584 610 610 610 583 583 583 610 610 610 609 609 609 584 584 584 585 585 585 611 611 611 584 584 584 611 611 611 610 610 610 585 585 585 586 586 586 612 612 612 585 585 585 612 612 612 611 611 611 586 586 586 587 587 587 613 613 613 586 586 586 613 613 613 612 612 612 587 587 587 588 588 588 614 614 614 587 587 587 614 614 614 613 613 613 588 588 588 589 589 589 615 615 615 588 588 588 615 615 615 614 614 614 589 589 589 590 590 590 616 616 616 589 589 589 616 616 616 615 615 615 590 590 590 591 591 591 617 617 617 590 590 590 617 617 617 616 616 616 591 591 591 592 592 592 618 618 618 591 591 591 618 618 618 617 617 617 592 592 592 593 593 593 619 619 619 592 592 592 619 619 619 618 618 618 593 593 593 594 594 594 620 620 620 593 593 593 620 620 620 619 619 619 594 594 594 595 595 595 621 621 621 594 594 594 621 621 621 620 620 620 595 595 595 596 596 596 622 622 622 595 595 595 622 622 622 621 621 621 596 596 596 597 597 597 623 623 623 596 596 596 623 623 623 622 622 622 597 597 597 598 598 598 624 624 624 597 597 597 624 624 624 623 623 623 598 598 598 599 599 599 625 625 625 598 598 598 625 625 625 624 624 624 601 601 601 602 602 602 627 627 627 601 601 601 627 627 627 626 626 626 602 602 602 603 603 603 628 628 628 602 602 602 628 628 628 627 627 627 603 603 603 604 604 604 629 629 629 603 603 603 629 629 629 628 628 628 604 604 604 605 605 605 630 630 630 604 604 604 630 630 630 629 629 629 605 605 605 606 606 606 631 631 631 605 605 605 631 631 631 630 630 630 606 606 606 607 607 607 632 632 632 606 606 606 632 632 632 631 631 631 607 607 607 608 608 608 633 633 633 607 607 607 633 633 633 632 632 632 608 608 608 609 609 609 634 634 634 608 608 608 634 634 634 633 633 633 609 609 609 610 610 610 635 635 635 609 609 609 635 635 635 634 634 634 610 610 610 611 611 611 636 636 636 610 610 610 636 636 636 635 635 635 611 611 611 612 612 612 637 637 637 611 611 611 637 637 637 636 636 636 612 612 612 613 613 613 638 638 638 612 612 612 638 638 638 637 637 637 613 613 613 614 614 614 639 639 639 613 613 613 639 639 639 638 638 638 614 614 614 615 615 615 640 640 640 614 614 614 640 640 640 639 639 639 615 615 615 616 616 616 641 641 641 615 615 615 641 641 641 640 640 640 616 616 616 617 617 617 642 642 642 616 616 616 642 642 642 641 641 641 617 617 617 618 618 618 643 643 643 617 617 617 643 643 643 642 642 642 618 618 618 619 619 619 644 644 644 618 618 618 644 644 644 643 643 643 619 619 619 620 620 620 645 645 645 619 619 619 645 645 645 644 644 644 620 620 620 621 621 621 646 646 646 620 620 620 646 646 646 645 645 645 621 621 621 622 622 622 647 647 647 621 621 621 647 647 647 646 646 646 622 622 622 623 623 623 648 648 648 622 622 622 648 648 648 647 647 647 623 623 623 624 624 624 649 649 649 623 623 623 649 649 649 648 648 648 624 624 624 625 625 625 650 650 650 624 624 624 650 650 650 649 649 649 627 627 627 628 628 628 652 652 652 627 627 627 652 652 652 651 651 651 628 628 628 629 629 629 653 653 653 628 628 628 653 653 653 652 652 652 629 629 629 630 630 630 654 654 654 629 629 629 654 654 654 653 653 653 630 630 630 631 631 631 655 655 655 630 630 630 655 655 655 654 654 654 631 631 631 632 632 632 656 656 656 631 631 631 656 656 656 655 655 655 632 632 632 633 633 633 657 657 657 632 632 632 657 657 657 656 656 656 633 633 633 634 634 634 658 658 658 633 633 633 658 658 658 657 657 657 634 634 634 635 635 635 659 659 659 634 634 634 659 659 659 658 658 658 635 635 635 636 636 636 660 660 660 635 635 635 660 660 660 659 659 659 636 636 636 637 637 637 661 661 661 636 636 636 661 661 661 660 660 660 637 637 637 638 638 638 662 662 662 637 637 637 662 662 662 661 661 661 638 638 638 639 639 639 663 663 663 638 638 638 663 663 663 662 662 662 639 639 639 640 640 640 664 664 664 639 639 639 664 664 664 663 663 663 640 640 640 641 641 641 665 665 665 640 640 640 665 665 665 664 664 664 641 641 641 642 642 642 666 666 666 641 641 641 666 666 666 665 665 665 642 642 642 643 643 643 667 667 667 642 642 642 667 667 667 666 666 666 643 643 643 644 644 644 668 668 668 643 643 643 668 668 668 667 667 667 644 644 644 645 645 645 669 669 669 644 644 644 669 669 669 668 668 668 645 645 645 646 646 646 670 670 670 645 645 645 670 670 670 669 669 669 646 646 646 647 647 647 671 671 671 646 646 646 671 671 671 670 670 670 647 647 647 648 648 648 672 672 672 647 647 647 672 672 672 671 671 671 648 648 648 649 649 649 673 673 673 648 648 648 673 673 673 672 672 672 652 652 652 653 653 653 675 675 675 652 652 652 675 675 675 674 674 674 653 653 653 654 654 654 676 676 676 653 653 653 676 676 676 675 675 675 654 654 654 655 655 655 677 677 677 654 654 654 677 677 677 676 676 676 655 655 655 656 656 656 678 678 678 655 655 655 678 678 678 677 677 677 656 656 656 657 657 657 679 679 679 656 656 656 679 679 679 678 678 678 657 657 657 658 658 658 680 680 680 657 657 657 680 680 680 679 679 679 658 658 658 659 659 659 681 681 681 658 658 658 681 681 681 680 680 680 659 659 659 660 660 660 682 682 682 659 659 659 682 682 682 681 681 681 660 660 660 661 661 661 683 683 683 660 660 660 683 683 683 682 682 682 661 661 661 662 662 662 684 684 684 661 661 661 684 684 684 683 683 683 662 662 662 663 663 663 685 685 685 662 662 662 685 685 685 684 684 684 663 663 663 664 664 664 686 686 686 663 663 663 686 686 686 685 685 685 664 664 664 665 665 665 687 687 687 664 664 664 687 687 687 686 686 686 665 665 665 666 666 666 688 688 688 665 665 665 688 688 688 687 687 687 666 666 666 667 667 667 689 689 689 666 666 666 689 689 689 688 688 688 667 667 667 668 668 668 690 690 690 667 667 667 690 690 690 689 689 689 668 668 668 669 669 669 691 691 691 668 668 668 691 691 691 690 690 690 669 669 669 670 670 670 692 692 692 669 669 669 692 692 692 691 691 691 670 670 670 671 671 671 693 693 693 670 670 670 693 693 693 692 692 692 671 671 671 672 672 672 694 694 694 671 671 671 694 694 694 693 693 693 674 674 674 675 675 675 696 696 696 674 674 674 696 696 696 695 695 695 675 675 675 676 676 676 697 697 697 675 675 675 697 697 697 696 696 696 676 676 676 677 677 677 698 698 698 676 676 676 698 698 698 697 697 697 677 677 677 678 678 678 699 699 699 677 677 677 699 699 699 698 698 698 678 678 678 679 679 679 700 700 700 678 678 678 700 700 700 699 699 699 679 679 679 680 680 680 701 701 701 679 679 679 701 701 701 700 700 700 680 680 680 681 681 681 702 702 702 680 680 680 702 702 702 701 701 701 681 681 681 682 682 682 703 703 703 681 681 681 703 703 703 702 702 702 682 682 682 683 683 683 704 704 704 682 682 682 704 704 704 703 703 703 683 683 683 684 684 684 705 705 705 683 683 683 705 705 705 704 704 704 684 684 684 685 685 685 706 706 706 684 684 684 706 706 706 705 705 705 685 685 685 686 686 686 707 707 707 685 685 685 707 707 707 706 706 706 686 686 686 687 687 687 708 708 708 686 686 686 708 708 708 707 707 707 687 687 687 688 688 688 709 709 709 687 687 687 709 709 709 708 708 708 688 688 688 689 689 689 710 710 710 688 688 688 710 710 710 709 709 709 689 689 689 690 690 690 711 711 711 689 689 689 711 711 711 710 710 710 696 696 696 697 697 697 713 713 713 696 696 696 713 713 713 712 712 712 697 697 697 698 698 698 714 714 714 697 697 697 714 714 714 713 713 713 698 698 698 699 699 699 715 715 715 698 698 698 715 715 715 714 714 714 699 699 699 700 700 700 716 716 716 699 699 699 716 716 716 715 715 715 700 700 700 701 701 701 717 717 717 700 700 700 717 717 717 716 716 716 701 701 701 702 702 702 718 718 718 701 701 701 718 718 718 717 717 717 702 702 702 703 703 703 719 719 719 702 702 702 719 719 719 718 718 718 703 703 703 704 704 704 720 720 720 703 703 703 720 720 720 719 719 719 704 704 704 705 705 705 721 721 721 704 704 704 721 721 721 720 720 720 705 705 705 706 706 706 722 722 722 705 705 705 722 722 722 721 721 721 706 706 706 707 707 707 723 723 723 706 706 706 723 723 723 722 722 722 707 707 707 708 708 708 724 724 724 707 707 707 724 724 724 723 723 723 708 708 708 709 709 709 725 725 725 708 708 708 725 725 725 724 724 724 713 713 713 714 714 714 727 727 727 713 713 713 727 727 727 726 726 726 714 714 714 715 715 715 728 728 728 714 714 714 728 728 728 727 727 727 715 715 715 716 716 716 729 729 729 715 715 715 729 729 729 728 728 728 716 716 716 717 717 717 730 730 730 716 716 716 730 730 730 729 729 729 717 717 717 718 718 718 731 731 731 717 717 717 731 731 731 730 730 730 718 718 718 719 719 719 732 732 732 718 718 718 732 732 732 731 731 731 719 719 719 720 720 720 733 733 733 719 719 719 733 733 733 732 732 732 720 720 720 721 721 721 734 734 734 720 720 720 734 734 734 733 733 733 721 721 721 722 722 722 735 735 735 721 721 721 735 735 735 734 734 734 722 722 722 723 723 723 736 736 736 722 722 722 736 736 736 735 735 735 723 723 723 724 724 724 737 737 737 723 723 723 737 737 737 736 736 736 727 727 727 728 728 728 739 739 739 727 727 727 739 739 739 738 738 738 728 728 728 729 729 729 740 740 740 728 728 728 740 740 740 739 739 739 729 729 729 730 730 730 741 741 741 729 729 729 741 741 741 740 740 740 730 730 730 731 731 731 742 742 742 730 730 730 742 742 742 741 741 741 731 731 731 732 732 732 743 743 743 731 731 731 743 743 743 742 742 742 732 732 732 733 733 733 744 744 744 732 732 732 744 744 744 743 743 743 733 733 733 734 734 734 745 745 745 733 733 733 745 745 745 744 744 744 734 734 734 735 735 735 746 746 746 734 734 734 746 746 746 745 745 745 735 735 735 736 736 736 747 747 747 735 735 735 747 747 747 746 746 746 739 739 739 740 740 740 749 749 749 739 739 739 749 749 749 748 748 748 740 740 740 741 741 741 750 750 750 740 740 740 750 750 750 749 749 749 741 741 741 742 742 742 751 751 751 741 741 741 751 751 751 750 750 750 742 742 742 743 743 743 752 752 752 742 742 742 752 752 752 751 751 751 743 743 743 744 744 744 753 753 753 743 743 743 753 753 753 752 752 752 744 744 744 745 745 745 754 754 754 744 744 744 754 754 754 753 753 753 745 745 745 746 746 746 755 755 755 745 745 745 755 755 755 754 754 754 749 749 749 750 750 750 757 757 757 749 749 749 757 757 757 756 756 756 750 750 750 751 751 751 758 758 758 750 750 750 758 758 758 757 757 757 751 751 751 752 752 752 759 759 759 751 751 751 759 759 759 758 758 758 752 752 752 753 753 753 760 760 760 752 752 752 760 760 760 759 759 759</p>
    </triangles>
  </mesh></geometry></library_geometries>
  <library_visual_scenes><visual_scene id="s"><node id="q"><instance_geometry url="#g"><bind_material><technique_common>
    <instance_material symbol="m" target="#mat"><bind_vertex_input semantic="UV" input_semantic="TEXCOORD" input_set="0"/></instance_material>
  </technique_common></bind_material></instance_geometry></node></visual_scene></library_visual_scenes>
  <scene><instance_visual_scene url="#s"/></scene>
</COLLADA>
