<?xml version="1.0" encoding="utf-8"?>
<COLLADA xmlns="http://www.collada.org/2005/11/COLLADASchema" version="1.4.1">
  <asset><unit name="meter" meter="1"/><up_axis>Z_UP</up_axis></asset>
  <library_images><image id="img"><init_from>../materials/textures/rubble.jpg</init_from></image></library_images>
  <library_effects><effect id="fx"><profile_COMMON>
    <newparam sid="surf"><surface type="2D"><init_from>img</init_from></surface></newparam>
    <newparam sid="samp"><sampler2D><source>surf</source></sampler2D></newparam>
    <technique sid="common"><lambert><diffuse><texture texture="samp" texcoord="UV"/></diffuse></lambert></technique>
  </profile_COMMON></effect></library_effects>
  <library_materials><material id="mat"><instance_effect url="#fx"/></material></library_materials>
  <library_geometries><geometry id="g"><mesh>
    <source id="p"><float_array id="p-a" count="2277">0.4200 -0.9800 -0.0200 0.4900 -0.9800 -0.0200 0.5600 -0.9800 -0.0200 0.6300 -0.9800 -0.0200 0.7000 -0.9800 -0.0200 0.7700 -0.9800 -0.0200 -0.3500 -0.9100 -0.0200 -0.2800 -0.9100 -0.0200 -0.2100 -0.9100 -0.0200 -0.1400 -0.9100 -0.0200 -0.0700 -0.9100 -0.0200 0.0000 -0.9100 -0.0200 0.0700 -0.9100 -0.0200 0.1400 -0.9100 -0.0200 0.2100 -0.9100 -0.0200 0.2800 -0.9100 -0.0200 0.3500 -0.9100 -0.0200 0.4200 -0.9100 0.0050 0.4900 -0.9100 0.0050 0.5600 -0.9100 0.0050 0.6300 -0.9100 0.0050 0.7000 -0.9100 0.0050 0.7700 -0.9100 -0.0200 0.8400 -0.9100 -0.0200 0.9100 -0.9100 -0.0200 0.9800 -0.9100 -0.0200 -0.4200 -0.8400 -0.0200 -0.3500 -0.8400 -0.0200 -0.2800 -0.8400 0.0315 -0.2100 -0.8400 0.0376 -0.1400 -0.8400 0.0453 -0.0700 -0.8400 0.0557 0.0000 -0.8400 0.0571 0.0700 -0.8400 0.0454 0.1400 -0.8400 0.0343 0.2100 -0.8400 0.0326 0.2800 -0.8400 0.0360 0.3500 -0.8400 0.0420 0.4200 -0.8400 0.0462 0.4900 -0.8400 0.0456 0.5600 -0.8400 0.0441 0.6300 -0.8400 0.0396 0.7000 -0.8400 0.0306 0.7700 -0.8400 0.0212 0.8400 -0.8400 0.0111 0.9100 -0.8400 0.0050 0.9800 -0.8400 -0.0200 1.0500 -0.8400 -0.0200 -0.4900 -0.7700 -0.0200 -0.4200 -0.7700 0.0113 -0.3500 -0.7700 0.0547 -0.2800 -0.7700 0.0696 -0.2100 -0.7700 0.0732 -0.1400 -0.7700 0.0789 -0.0700 -0.7700 0.0835 0.0000 -0.7700 0.0785 0.0700 -0.7700 0.0656 0.1400 -0.7700 0.0577 0.2100 -0.7700 0.0612 0.2800 -0.7700 0.0715 0.3500 -0.7700 0.0826 0.4200 -0.7700 0.0878 0.4900 -0.7700 0.0864 0.5600 -0.7700 0.0857 0.6300 -0.7700 0.0850 0.7000 -0.7700 0.0782 0.7700 -0.7700 0.0668 0.8400 -0.7700 0.0535 0.9100 -0.7700 0.0384 0.9800 -0.7700 0.0136 1.0500 -0.7700 -0.0200 -0.4900 -0.7000 -0.0200 -0.4200 -0.7000 0.0512 -0.3500 -0.7000 0.0835 -0.2800 -0.7000 0.0946 -0.2100 -0.7000 0.0986 -0.1400 -0.7000 0.1071 -0.0700 -0.7000 0.1128 0.0000 -0.7000 0.1057 0.0700 -0.7000 0.0919 0.1400 -0.7000 0.0854 0.2100 -0.7000 0.0913 0.2800 -0.7000 0.1058 0.3500 -0.7000 0.1193 0.4200 -0.7000 0.1250 0.4900 -0.7000 0.1246 0.5600 -0.7000 0.1248 0.6300 -0.7000 0.1251 0.7000 -0.7000 0.1171 0.7700 -0.7000 0.1008 0.8400 -0.7000 0.0817 0.9100 -0.7000 0.0622 0.9800 -0.7000 0.0381 1.0500 -0.7000 -0.0200 1.1200 -0.7000 -0.0200 -0.5600 -0.6300 -0.0200 -0.4900 -0.6300 0.0354 -0.4200 -0.6300 0.0761 -0.3500 -0.6300 0.1037 -0.2800 -0.6300 0.1165 -0.2100 -0.6300 0.1254 -0.1400 -0.6300 0.1390 -0.0700 -0.6300 0.1472 0.0000 -0.6300 0.1397 0.0700 -0.6300 0.1271 0.1400 -0.6300 0.1233 0.2100 -0.6300 0.1305 0.2800 -0.6300 0.1440 0.3500 -0.6300 0.1560 0.4200 -0.6300 0.1620 0.4900 -0.6300 0.1626 0.5600 -0.6300 0.1611 0.6300 -0.6300 0.1562 0.7000 -0.6300 0.1417 0.7700 -0.6300 0.1201 0.8400 -0.6300 0.0963 0.9100 -0.6300 0.0731 0.9800 -0.6300 0.0508 1.0500 -0.6300 0.0209 1.1200 -0.6300 -0.0200 -0.6300 -0.5600 -0.0200 -0.5600 -0.5600 0.0173 -0.4900 -0.5600 0.0589 -0.4200 -0.5600 0.0917 -0.3500 -0.5600 0.1197 -0.2800 -0.5600 0.1402 -0.2100 -0.5600 0.1577 -0.1400 -0.5600 0.1743 -0.0700 -0.5600 0.1802 0.0000 -0.5600 0.1716 0.0700 -0.5600 0.1627 0.1400 -0.5600 0.1638 0.2100 -0.5600 0.1724 0.2800 -0.5600 0.1823 0.3500 -0.5600 0.1896 0.4200 -0.5600 0.1926 0.4900 -0.5600 0.1916 0.5600 -0.5600 0.1881 0.6300 -0.5600 0.1780 0.7000 -0.5600 0.1574 0.7700 -0.5600 0.1322 0.8400 -0.5600 0.1059 0.9100 -0.5600 0.0792 0.9800 -0.5600 0.0554 1.0500 -0.5600 0.0270 1.1200 -0.5600 -0.0200 -0.7000 -0.4900 -0.0200 -0.6300 -0.4900 -0.0200 -0.5600 -0.4900 0.0401 -0.4900 -0.4900 0.0679 -0.4200 -0.4900 0.0972 -0.3500 -0.4900 0.1288 -0.2800 -0.4900 0.1600 -0.2100 -0.4900 0.1879 -0.1400 -0.4900 0.2056 -0.0700 -0.4900 0.2069 0.0000 -0.4900 0.1989 0.0700 -0.4900 0.1948 0.1400 -0.4900 0.1984 0.2100 -0.4900 0.2055 0.2800 -0.4900 0.2112 0.3500 -0.4900 0.2118 0.4200 -0.4900 0.2071 0.4900 -0.4900 0.2019 0.5600 -0.4900 0.1993 0.6300 -0.4900 0.1925 0.7000 -0.4900 0.1737 0.7700 -0.4900 0.1460 0.8400 -0.4900 0.1150 0.9100 -0.4900 0.0829 0.9800 -0.4900 0.0538 1.0500 -0.4900 0.0224 1.1200 -0.4900 -0.0200 -0.7700 -0.4200 -0.0200 -0.7000 -0.4200 0.0070 -0.6300 -0.4200 0.0368 -0.5600 -0.4200 0.0567 -0.4900 -0.4200 0.0770 -0.4200 -0.4200 0.1039 -0.3500 -0.4200 0.1382 -0.2800 -0.4200 0.1782 -0.2100 -0.4200 0.2157 -0.1400 -0.4200 0.2356 -0.0700 -0.4200 0.2345 0.0000 -0.4200 0.2281 0.0700 -0.4200 0.2278 0.1400 -0.4200 0.2300 0.2100 -0.4200 0.2324 0.2800 -0.4200 0.2335 0.3500 -0.4200 0.2269 0.4200 -0.4200 0.2140 0.4900 -0.4200 0.2045 0.5600 -0.4200 0.2025 0.6300 -0.4200 0.2009 0.7000 -0.4200 0.1880 0.7700 -0.4200 0.1599 0.8400 -0.4200 0.1238 0.9100 -0.4200 0.0879 0.9800 -0.4200 0.0552 1.0500 -0.4200 0.0200 1.1200 -0.4200 -0.0200 -0.9100 -0.3500 -0.0200 -0.8400 -0.3500 -0.0200 -0.7700 -0.3500 0.0345 -0.7000 -0.3500 0.0551 -0.6300 -0.3500 0.0722 -0.5600 -0.3500 0.0868 -0.4900 -0.3500 0.1033 -0.4200 -0.3500 0.1283 -0.3500 -0.3500 0.1627 -0.2800 -0.3500 0.2053 -0.2100 -0.3500 0.2471 -0.1400 -0.3500 0.2708 -0.0700 -0.3500 0.2706 0.0000 -0.3500 0.2649 0.0700 -0.3500 0.2664 0.1400 -0.3500 0.2679 0.2100 -0.3500 0.2659 0.2800 -0.3500 0.2625 0.3500 -0.3500 0.2505 0.4200 -0.3500 0.2308 0.4900 -0.3500 0.2144 0.5600 -0.3500 0.2060 0.6300 -0.3500 0.2016 0.7000 -0.3500 0.1900 0.7700 -0.3500 0.1633 0.8400 -0.3500 0.1266 0.9100 -0.3500 0.0910 0.9800 -0.3500 0.0586 1.0500 -0.3500 0.0215 1.1200 -0.3500 -0.0200 -0.9800 -0.2800 -0.0200 -0.9100 -0.2800 0.0247 -0.8400 -0.2800 0.0573 -0.7700 -0.2800 0.0775 -0.7000 -0.2800 0.0918 -0.6300 -0.2800 0.1082 -0.5600 -0.2800 0.1262 -0.4900 -0.2800 0.1453 -0.4200 -0.2800 0.1706 -0.3500 -0.2800 0.2019 -0.2800 -0.2800 0.2380 -0.2100 -0.2800 0.2764 -0.1400 -0.2800 0.3041 -0.0700 -0.2800 0.3094 0.0000 -0.2800 0.3042 0.0700 -0.2800 0.3061 0.1400 -0.2800 0.3092 0.2100 -0.2800 0.3038 0.2800 -0.2800 0.2945 0.3500 -0.2800 0.2790 0.4200 -0.2800 0.2540 0.4900 -0.2800 0.2275 0.5600 -0.2800 0.2084 0.6300 -0.2800 0.1966 0.7000 -0.2800 0.1820 0.7700 -0.2800 0.1564 0.8400 -0.2800 0.1217 0.9100 -0.2800 0.0865 0.9800 -0.2800 0.0546 1.0500 -0.2800 0.0194 1.1200 -0.2800 -0.0200 -1.1200 -0.2100 -0.0200 -1.0500 -0.2100 -0.0200 -0.9800 -0.2100 0.0284 -0.9100 -0.2100 0.0647 -0.8400 -0.2100 0.0920 -0.7700 -0.2100 0.1093 -0.7000 -0.2100 0.1208 -0.6300 -0.2100 0.1381 -0.5600 -0.2100 0.1619 -0.4900 -0.2100 0.1870 -0.4200 -0.2100 0.2133 -0.3500 -0.2100 0.2384 -0.2800 -0.2100 0.2626 -0.2100 -0.2100 0.2926 -0.1400 -0.2100 0.3238 -0.0700 -0.2100 0.3378 0.0000 -0.2100 0.3342 0.0700 -0.2100 0.3365 0.1400 -0.2100 0.3420 0.2100 -0.2100 0.3326 0.2800 -0.2100 0.3152 0.3500 -0.2100 0.2956 0.4200 -0.2100 0.2680 0.4900 -0.2100 0.2357 0.5600 -0.2100 0.2097 0.6300 -0.2100 0.1911 0.7000 -0.2100 0.1717 0.7700 -0.2100 0.1455 0.8400 -0.2100 0.1117 0.9100 -0.2100 0.0748 0.9800 -0.2100 0.0416 1.0500 -0.2100 0.0081 1.1200 -0.2100 -0.0200 -1.1200 -0.1400 -0.0200 -1.0500 -0.1400 0.0215 -0.9800 -0.1400 0.0612 -0.9100 -0.1400 0.0911 -0.8400 -0.1400 0.1158 -0.7700 -0.1400 0.1340 -0.7000 -0.1400 0.1480 -0.6300 -0.1400 0.1676 -0.5600 -0.1400 0.1934 -0.4900 -0.1400 0.2185 -0.4200 -0.1400 0.2415 -0.3500 -0.1400 0.2626 -0.2800 -0.1400 0.2818 -0.2100 -0.1400 0.3053 -0.1400 -0.1400 0.3342 -0.0700 -0.1400 0.3563 0.0000 -0.1400 0.3553 0.0700 -0.1400 0.3565 0.1400 -0.1400 0.3602 0.2100 -0.1400 0.3466 0.2800 -0.1400 0.3220 0.3500 -0.1400 0.2985 0.4200 -0.1400 0.2718 0.4900 -0.1400 0.2401 0.5600 -0.1400 0.2120 0.6300 -0.1400 0.1884 0.7000 -0.1400 0.1636 0.7700 -0.1400 0.1338 0.8400 -0.1400 0.0986 0.9100 -0.1400 0.0608 0.9800 -0.1400 0.0271 1.0500 -0.1400 -0.0200 1.1200 -0.1400 -0.0200 -1.1900 -0.0700 -0.0200 -1.1200 -0.0700 0.0050 -1.0500 -0.0700 0.0536 -0.9800 -0.0700 0.0865 -0.9100 -0.0700 0.1091 -0.8400 -0.0700 0.1299 -0.7700 -0.0700 0.1523 -0.7000 -0.0700 0.1759 -0.6300 -0.0700 0.2012 -0.5600 -0.0700 0.2252 -0.4900 -0.0700 0.2437 -0.4200 -0.0700 0.2604 -0.3500 -0.0700 0.2799 -0.2800 -0.0700 0.3022 -0.2100 -0.0700 0.3285 -0.1400 -0.0700 0.3546 -0.0700 -0.0700 0.3747 0.0000 -0.0700 0.3816 0.0700 -0.0700 0.3755 0.1400 -0.0700 0.3646 0.2100 -0.0700 0.3452 0.2800 -0.0700 0.3176 0.3500 -0.0700 0.2943 0.4200 -0.0700 0.2728 0.4900 -0.0700 0.2446 0.5600 -0.0700 0.2141 0.6300 -0.0700 0.1873 0.7000 -0.0700 0.1597 0.7700 -0.0700 0.1258 0.8400 -0.0700 0.0886 0.9100 -0.0700 0.0514 0.9800 -0.0700 0.0166 1.0500 -0.0700 -0.0200 -1.1900 0.0000 -0.0200 -1.1200 0.0000 0.0322 -1.0500 0.0000 0.0762 -0.9800 0.0000 0.1035 -0.9100 0.0000 0.1200 -0.8400 0.0000 0.1371 -0.7700 0.0000 0.1635 -0.7000 0.0000 0.1960 -0.6300 0.0000 0.2267 -0.5600 0.0000 0.2489 -0.4900 0.0000 0.2628 -0.4200 0.0000 0.2768 -0.3500 0.0000 0.2945 -0.2800 0.0000 0.3168 -0.2100 0.0000 0.3457 -0.1400 0.0000 0.3758 -0.0700 0.0000 0.3992 0.0000 0.0000 0.4133 0.0700 0.0000 0.3842 0.1400 0.0000 0.3612 0.2100 0.0000 0.3377 0.2800 0.0000 0.3103 0.3500 0.0000 0.2902 0.4200 0.0000 0.2751 0.4900 0.0000 0.2493 0.5600 0.0000 0.2144 0.6300 0.0000 0.1845 0.7000 0.0000 0.1567 0.7700 0.0000 0.1220 0.8400 0.0000 0.0855 0.9100 0.0000 0.0493 0.9800 0.0000 0.0110 1.0500 0.0000 -0.0200 -1.2600 0.0700 -0.0200 -1.1900 0.0700 -0.0200 -1.1200 0.0700 0.0455 -1.0500 0.0700 0.0819 -0.9800 0.0700 0.1065 -0.9100 0.0700 0.1222 -0.8400 0.0700 0.1392 -0.7700 0.0700 0.1670 -0.7000 0.0700 0.2010 -0.6300 0.0700 0.2328 -0.5600 0.0700 0.2551 -0.4900 0.0700 0.2695 -0.4200 0.0700 0.2843 -0.3500 0.0700 0.2989 -0.2800 0.0700 0.3159 -0.2100 0.0700 0.3402 -0.1400 0.0700 0.3652 -0.0700 0.0700 0.3840 0.0000 0.0700 0.3872 0.0700 0.0700 0.3733 0.1400 0.0700 0.3593 0.2100 0.0700 0.3375 0.2800 0.0700 0.3112 0.3500 0.0700 0.2918 0.4200 0.0700 0.2776 0.4900 0.0700 0.2512 0.5600 0.0700 0.2121 0.6300 0.0700 0.1779 0.7000 0.0700 0.1500 0.7700 0.0700 0.1189 0.8400 0.0700 0.0861 0.9100 0.0700 0.0517 0.9800 0.0700 0.0106 1.0500 0.0700 -0.0200 -1.2600 0.1400 -0.0200 -1.1900 0.1400 -0.0200 -1.1200 0.1400 0.0408 -1.0500 0.1400 0.0757 -0.9800 0.1400 0.1044 -0.9100 0.1400 0.1233 -0.8400 0.1400 0.1409 -0.7700 0.1400 0.1654 -0.7000 0.1400 0.1939 -0.6300 0.1400 0.2229 -0.5600 0.1400 0.2463 -0.4900 0.1400 0.2631 -0.4200 0.1400 0.2783 -0.3500 0.1400 0.2879 -0.2800 0.1400 0.2972 -0.2100 0.1400 0.3144 -0.1400 0.1400 0.3350 -0.0700 0.1400 0.3512 0.0000 0.1400 0.3473 0.0700 0.1400 0.3305 0.1400 0.1400 0.3324 0.2100 0.1400 0.3267 0.2800 0.1400 0.3092 0.3500 0.1400 0.2910 0.4200 0.1400 0.2758 0.4900 0.1400 0.2494 0.5600 0.1400 0.2089 0.6300 0.1400 0.1712 0.7000 0.1400 0.1413 0.7700 0.1400 0.1127 0.8400 0.1400 0.0830 0.9100 0.1400 0.0499 0.9800 0.1400 -0.0200 1.0500 0.1400 -0.0200 -1.2600 0.2100 -0.0200 -1.1900 0.2100 -0.0200 -1.1200 0.2100 0.0292 -1.0500 0.2100 0.0682 -0.9800 0.2100 0.1028 -0.9100 0.2100 0.1258 -0.8400 0.2100 0.1438 -0.7700 0.2100 0.1628 -0.7000 0.2100 0.1836 -0.6300 0.2100 0.2082 -0.5600 0.2100 0.2318 -0.4900 0.2100 0.2500 -0.4200 0.2100 0.2632 -0.3500 0.2100 0.2686 -0.2800 0.2100 0.2744 -0.2100 0.2100 0.2881 -0.1400 0.2100 0.3049 -0.0700 0.2100 0.3162 0.0000 0.2100 0.3083 0.0700 0.2100 0.2868 0.1400 0.2100 0.2864 0.2100 0.2100 0.2940 0.2800 0.2100 0.2888 0.3500 0.2100 0.2766 0.4200 0.2100 0.2657 0.4900 0.2100 0.2445 0.5600 0.2100 0.2080 0.6300 0.2100 0.1699 0.7000 0.2100 0.1358 0.7700 0.2100 0.1041 0.8400 0.2100 0.0740 0.9100 0.2100 0.0410 0.9800 0.2100 -0.0200 -1.1900 0.2800 -0.0200 -1.1200 0.2800 0.0177 -1.0500 0.2800 0.0567 -0.9800 0.2800 0.0909 -0.9100 0.2800 0.1175 -0.8400 0.2800 0.1388 -0.7700 0.2800 0.1568 -0.7000 0.2800 0.1749 -0.6300 0.2800 0.1976 -0.5600 0.2800 0.2207 -0.4900 0.2800 0.2380 -0.4200 0.2800 0.2474 -0.3500 0.2800 0.2512 -0.2800 0.2800 0.2593 -0.2100 0.2800 0.2736 -0.1400 0.2800 0.2860 -0.0700 0.2800 0.2917 0.0000 0.2800 0.2813 0.0700 0.2800 0.2564 0.1400 0.2800 0.2450 0.2100 0.2800 0.2499 0.2800 0.2800 0.2499 0.3500 0.2800 0.2457 0.4200 0.2800 0.2442 0.4900 0.2800 0.2335 0.5600 0.2800 0.2062 0.6300 0.2800 0.1708 0.7000 0.2800 0.1321 0.7700 0.2800 0.0933 0.8400 0.2800 0.0589 0.9100 0.2800 0.0249 0.9800 0.2800 -0.0200 -1.1900 0.3500 -0.0200 -1.1200 0.3500 0.0050 -1.0500 0.3500 0.0411 -0.9800 0.3500 0.0715 -0.9100 0.3500 0.1001 -0.8400 0.3500 0.1250 -0.7700 0.3500 0.1445 -0.7000 0.3500 0.1644 -0.6300 0.3500 0.1877 -0.5600 0.3500 0.2103 -0.4900 0.3500 0.2264 -0.4200 0.3500 0.2344 -0.3500 0.3500 0.2387 -0.2800 0.3500 0.2485 -0.2100 0.3500 0.2630 -0.1400 0.3500 0.2716 -0.0700 0.3500 0.2731 0.0000 0.3500 0.2642 0.0700 0.3500 0.2405 0.1400 0.3500 0.2182 0.2100 0.3500 0.2094 0.2800 0.3500 0.2060 0.3500 0.3500 0.2064 0.4200 0.3500 0.2120 0.4900 0.3500 0.2097 0.5600 0.3500 0.1918 0.6300 0.3500 0.1620 0.7000 0.3500 0.1231 0.7700 0.3500 0.0796 0.8400 0.3500 0.0393 0.9100 0.3500 0.0050 0.9800 0.3500 -0.0200 -1.1900 0.4200 -0.0200 -1.1200 0.4200 -0.0200 -1.0500 0.4200 0.0225 -0.9800 0.4200 0.0516 -0.9100 0.4200 0.0811 -0.8400 0.4200 0.1071 -0.7700 0.4200 0.1260 -0.7000 0.4200 0.1452 -0.6300 0.4200 0.1678 -0.5600 0.4200 0.1904 -0.4900 0.4200 0.2081 -0.4200 0.4200 0.2198 -0.3500 0.4200 0.2268 -0.2800 0.4200 0.2345 -0.2100 0.4200 0.2456 -0.1400 0.4200 0.2528 -0.0700 0.4200 0.2555 0.0000 0.4200 0.2519 0.0700 0.4200 0.2324 0.1400 0.4200 0.2036 0.2100 0.4200 0.1814 0.2800 0.4200 0.1697 0.3500 0.4200 0.1680 0.4200 0.4200 0.1736 0.4900 0.4200 0.1731 0.5600 0.4200 0.1604 0.6300 0.4200 0.1392 0.7000 0.4200 0.1076 0.7700 0.4200 0.0665 0.8400 0.4200 0.0224 0.9100 0.4200 -0.0200 0.9800 0.4200 -0.0200 -1.1200 0.4900 -0.0200 -1.0500 0.4900 -0.0200 -0.9800 0.4900 0.0284 -0.9100 0.4900 0.0595 -0.8400 0.4900 0.0860 -0.7700 0.4900 0.1044 -0.7000 0.4900 0.1206 -0.6300 0.4900 0.1405 -0.5600 0.4900 0.1634 -0.4900 0.4900 0.1831 -0.4200 0.4900 0.1990 -0.3500 0.4900 0.2101 -0.2800 0.4900 0.2157 -0.2100 0.4900 0.2224 -0.1400 0.4900 0.2309 -0.0700 0.4900 0.2382 0.0000 0.4900 0.2376 0.0700 0.4900 0.2187 0.1400 0.4900 0.1876 0.2100 0.4900 0.1587 0.2800 0.4900 0.1386 0.3500 0.4900 0.1297 0.4200 0.4900 0.1313 0.4900 0.4900 0.1296 0.5600 0.4900 0.1187 0.6300 0.4900 0.1045 0.7000 0.4900 0.0836 0.7700 0.4900 0.0508 0.8400 0.4900 0.0050 0.9100 0.4900 -0.0200 -1.0500 0.5600 -0.0200 -0.9800 0.5600 -0.0200 -0.9100 0.5600 0.0353 -0.8400 0.5600 0.0633 -0.7700 0.5600 0.0838 -0.7000 0.5600 0.1003 -0.6300 0.5600 0.1186 -0.5600 0.5600 0.1394 -0.4900 0.5600 0.1563 -0.4200 0.5600 0.1724 -0.3500 0.5600 0.1886 -0.2800 0.5600 0.1974 -0.2100 0.5600 0.2023 -0.1400 0.5600 0.2109 -0.0700 0.5600 0.2194 0.0000 0.5600 0.2162 0.0700 0.5600 0.1928 0.1400 0.5600 0.1582 0.2100 0.5600 0.1263 0.2800 0.5600 0.1014 0.3500 0.5600 0.0867 0.4200 0.5600 0.0842 0.4900 0.5600 0.0802 0.5600 0.5600 0.0674 0.6300 0.5600 0.0560 0.7000 0.5600 0.0449 0.7700 0.5600 0.0168 0.8400 0.5600 -0.0200 -0.9800 0.6300 -0.0200 -0.9100 0.6300 -0.0200 -0.8400 0.6300 0.0376 -0.7700 0.6300 0.0625 -0.7000 0.6300 0.0836 -0.6300 0.6300 0.1031 -0.5600 0.6300 0.1204 -0.4900 0.6300 0.1325 -0.4200 0.6300 0.1462 -0.3500 0.6300 0.1658 -0.2800 0.6300 0.1805 -0.2100 0.6300 0.1859 -0.1400 0.6300 0.1895 -0.0700 0.6300 0.1917 0.0000 0.6300 0.1827 0.0700 0.6300 0.1548 0.1400 0.6300 0.1160 0.2100 0.6300 0.0812 0.2800 0.6300 0.0546 0.3500 0.6300 0.0371 0.4200 0.6300 0.0303 0.4900 0.6300 0.0204 0.5600 0.6300 0.0050 0.6300 0.6300 -0.0200 0.7000 0.6300 -0.0200 0.7700 0.6300 -0.0200 -0.9100 0.7000 -0.0200 -0.8400 0.7000 -0.0200 -0.7700 0.7000 0.0402 -0.7000 0.7000 0.0643 -0.6300 0.7000 0.0852 -0.5600 0.7000 0.1026 -0.4900 0.7000 0.1147 -0.4200 0.7000 0.1269 -0.3500 0.7000 0.1455 -0.2800 0.7000 0.1623 -0.2100 0.7000 0.1669 -0.1400 0.7000 0.1622 -0.0700 0.7000 0.1524 0.0000 0.7000 0.1351 0.0700 0.7000 0.1062 0.1400 0.7000 0.0680 0.2100 0.7000 0.0301 0.2800 0.7000 -0.0200 0.3500 0.7000 -0.0200 0.4200 0.7000 -0.0200 0.4900 0.7000 -0.0200 -0.8400 0.7700 -0.0200 -0.7700 0.7700 0.0140 -0.7000 0.7700 0.0410 -0.6300 0.7700 0.0622 -0.5600 0.7700 0.0827 -0.4900 0.7700 0.1000 -0.4200 0.7700 0.1134 -0.3500 0.7700 0.1281 -0.2800 0.7700 0.1406 -0.2100 0.7700 0.1415 -0.1400 0.7700 0.1290 -0.0700 0.7700 0.1078 0.0000 0.7700 0.0826 0.0700 0.7700 0.0541 0.1400 0.7700 0.0189 0.2100 0.7700 -0.0200 -0.7700 0.8400 -0.0200 -0.7000 0.8400 0.0120 -0.6300 0.8400 0.0343 -0.5600 0.8400 0.0561 -0.4900 0.8400 0.0783 -0.4200 0.8400 0.0949 -0.3500 0.8400 0.1070 -0.2800 0.8400 0.1142 -0.2100 0.8400 0.1106 -0.1400 0.8400 0.0933 -0.0700 0.8400 0.0675 0.0000 0.8400 0.0406 0.0700 0.8400 0.0109 0.1400 0.8400 -0.0200 -0.7000 0.9100 -0.0200 -0.6300 0.9100 0.0050 -0.5600 0.9100 0.0229 -0.4900 0.9100 0.0464 -0.4200 0.9100 0.0646 -0.3500 0.9100 0.0758 -0.2800 0.9100 0.0814 -0.2100 0.9100 0.0766 -0.1400 0.9100 0.0590 -0.0700 0.9100 0.0340 0.0000 0.9100 0.0055 0.0700 0.9100 -0.0200 -0.6300 0.9800 -0.0200 -0.5600 0.9800 -0.0200 -0.4900 0.9800 0.0112 -0.4200 0.9800 0.0282 -0.3500 0.9800 0.0357 -0.2800 0.9800 0.0395 -0.2100 0.9800 0.0365 -0.1400 0.9800 0.0211 -0.0700 0.9800 -0.0200 0.0000 0.9800 -0.0200 -0.5600 1.0500 -0.0200 -0.4900 1.0500 -0.0200 -0.4200 1.0500 -0.0200 -0.3500 1.0500 0.0050 -0.2800 1.0500 0.0050 -0.2100 1.0500 -0.0200 -0.1400 1.0500 -0.0200 -0.0700 1.0500 -0.0200 -0.4200 1.1200 -0.0200 -0.3500 1.1200 -0.0200 -0.2800 1.1200 -0.0200</float_array>
      <technique_common><accessor source="#p-a" count="759" stride="3"><param name="X" type="float"/><param name="Y" type="float"/><param name="Z" type="float"/></accessor></technique_common></source>
    <source id="n"><float_array id="n-a" count="2277">0.0000 -0.3363 0.9417 0.0000 -0.3363 0.9417 0.0000 -0.3363 0.9417 0.0000 -0.3363 0.9417 0.1150 -0.2301 0.9663 0.0000 0.0000 1.0000 -0.3264 -0.3264 0.8871 -0.0231 -0.6075 0.7940 -0.0276 -0.6516 0.7580 -0.0352 -0.7002 0.7131 -0.0046 -0.7361 0.6769 0.0383 -0.7222 0.6907 0.0398 -0.6608 0.7495 0.0064 -0.6087 0.7934 -0.0130 -0.6087 0.7933 -0.0221 -0.6380 0.7698 -0.1085 -0.6149 0.7811 -0.0769 -0.4661 0.8814 0.0032 -0.4219 0.9067 0.0098 -0.4084 0.9128 0.0200 -0.3748 0.9269 0.1303 -0.3670 0.9211 0.1576 -0.3631 0.9183 0.0267 -0.3832 0.9233 0.1150 -0.2301 0.9663 0.0000 0.0000 1.0000 -0.2403 -0.5859 0.7740 -0.3302 -0.5252 0.7843 -0.2444 -0.4415 0.8634 -0.0662 -0.5417 0.8379 -0.0801 -0.5573 0.8265 -0.0362 -0.5728 0.8189 0.0651 -0.5707 0.8186 0.1063 -0.5401 0.8349 0.0455 -0.5102 0.8589 -0.0282 -0.5146 0.8570 -0.0596 -0.5485 0.8340 -0.0494 -0.5840 0.8102 -0.0618 -0.5374 0.8410 0.0101 -0.5048 0.8632 0.0261 -0.5074 0.8613 0.0696 -0.5053 0.8601 0.1008 -0.4723 0.8757 0.1574 -0.4923 0.8560 0.0993 -0.4644 0.8800 0.1869 -0.3897 0.9018 0.2250 -0.2480 0.9423 0.0000 0.0000 1.0000 -0.5757 -0.2245 0.7863 -0.4331 -0.4030 0.8062 -0.2495 -0.5142 0.8206 -0.1905 -0.4655 0.8643 -0.0718 -0.4079 0.9102 -0.0735 -0.4082 0.9099 -0.0057 -0.3845 0.9231 0.1074 -0.3371 0.9353 0.1336 -0.3174 0.9388 0.0313 -0.3411 0.9395 -0.0884 -0.3835 0.9193 -0.1269 -0.4347 0.8916 -0.0923 -0.4737 0.8758 -0.0237 -0.4901 0.8714 0.0092 -0.4939 0.8695 0.0083 -0.4997 0.8662 0.0564 -0.5128 0.8566 0.1251 -0.5111 0.8504 0.1596 -0.4821 0.8614 0.1804 -0.4409 0.8792 0.2341 -0.3856 0.8925 0.4092 -0.3062 0.8595 0.3010 -0.1505 0.9417 -0.6317 -0.2767 0.7242 -0.5121 -0.2887 0.8090 -0.3030 -0.3391 0.8906 -0.1202 -0.3327 0.9354 -0.0936 -0.3567 0.9295 -0.0919 -0.3924 0.9152 0.0121 -0.4115 0.9113 0.1281 -0.4032 0.9061 0.1237 -0.4057 0.9056 0.0038 -0.4241 0.9056 -0.1226 -0.4345 0.8923 -0.1641 -0.4440 0.8808 -0.1166 -0.4577 0.8814 -0.0343 -0.4689 0.8826 0.0064 -0.4734 0.8808 0.0096 -0.4642 0.8857 0.0656 -0.4398 0.8957 0.1655 -0.4002 0.9014 0.2294 -0.3467 0.9095 0.2500 -0.2871 0.9247 0.2757 -0.2441 0.9297 0.4440 -0.2820 0.8505 0.4622 -0.2579 0.8484 0.0000 0.0000 1.0000 -0.5361 -0.3366 0.7741 -0.4874 -0.3393 0.8046 -0.4669 -0.3015 0.8313 -0.2923 -0.2646 0.9190 -0.1599 -0.3197 0.9339 -0.1427 -0.3815 0.9133 -0.1244 -0.4165 0.9006 0.0030 -0.4276 0.9040 0.1197 -0.4301 0.8948 0.0960 -0.4554 0.8851 -0.0186 -0.4865 0.8735 -0.1175 -0.4903 0.8636 -0.1506 -0.4682 0.8707 -0.1115 -0.4434 0.8894 -0.0383 -0.4313 0.9014 0.0123 -0.4264 0.9044 0.0488 -0.4048 0.9131 0.1307 -0.3485 0.9281 0.2344 -0.2751 0.9324 0.2956 -0.2152 0.9308 0.3115 -0.1645 0.9359 0.3020 -0.1195 0.9458 0.3478 -0.1142 0.9306 0.4948 -0.2139 0.8423 0.3573 -0.1787 0.9167 -0.5662 -0.1323 0.8136 -0.4495 -0.2785 0.8488 -0.4740 -0.2191 0.8529 -0.4139 -0.1597 0.8962 -0.3414 -0.1879 0.9209 -0.2560 -0.2922 0.9215 -0.2032 -0.3857 0.9000 -0.1287 -0.4128 0.9017 0.0115 -0.3977 0.9174 0.1010 -0.3980 0.9118 0.0531 -0.4325 0.9001 -0.0481 -0.4614 0.8859 -0.1048 -0.4604 0.8815 -0.1036 -0.4251 0.8992 -0.0618 -0.3639 0.9294 -0.0110 -0.3041 0.9526 0.0254 -0.2759 0.9609 0.0809 -0.2737 0.9584 0.1917 -0.2608 0.9462 0.2959 -0.2202 0.9295 0.3425 -0.1687 0.9243 0.3572 -0.1175 0.9266 0.3422 -0.0616 0.9376 0.3524 -0.0164 0.9357 0.4691 -0.0157 0.8830 0.5402 -0.0242 0.8412 -0.1794 -0.5055 0.8440 -0.4132 -0.3840 0.8257 -0.4779 -0.1797 0.8599 -0.3948 -0.1417 0.9077 -0.4086 -0.0925 0.9080 -0.4151 -0.1303 0.9004 -0.3751 -0.2409 0.8951 -0.2741 -0.3531 0.8945 -0.1165 -0.3919 0.9126 0.0309 -0.3735 0.9271 0.0729 -0.3794 0.9224 0.0169 -0.4104 0.9117 -0.0540 -0.4140 0.9087 -0.0774 -0.3868 0.9189 -0.0356 -0.3371 0.9408 0.0316 -0.2541 0.9667 0.0615 -0.1589 0.9854 0.0440 -0.1031 0.9937 0.0565 -0.1124 0.9921 0.1719 -0.1653 0.9711 0.3132 -0.1980 0.9288 0.3855 -0.1737 0.9062 0.4066 -0.1179 0.9060 0.3967 -0.0607 0.9160 0.3940 -0.0017 0.9191 0.4570 0.0331 0.8888 0.5312 0.0185 0.8470 -0.2643 -0.5699 0.7780 -0.3067 -0.4687 0.8284 -0.2289 -0.4851 0.8440 -0.3258 -0.3663 0.8716 -0.3208 -0.2437 0.9153 -0.3969 -0.2041 0.8949 -0.4584 -0.2090 0.8638 -0.4598 -0.2653 0.8475 -0.3441 -0.3557 0.8690 -0.1186 -0.4168 0.9012 0.0419 -0.4193 0.9069 0.0431 -0.4265 0.9035 -0.0024 -0.4479 0.8941 -0.0231 -0.4396 0.8979 -0.0234 -0.3965 0.9177 0.0387 -0.3421 0.9389 0.1316 -0.2649 0.9553 0.1527 -0.1679 0.9739 0.0868 -0.0834 0.9927 0.0337 -0.0393 0.9987 0.1121 -0.0551 0.9922 0.2893 -0.1006 0.9519 0.4142 -0.1109 0.9034 0.4467 -0.0854 0.8906 0.4323 -0.0611 0.8996 0.4333 -0.0348 0.9006 0.4694 0.0006 0.8830 0.5032 0.0099 0.8641 -0.1730 -0.6469 0.7427 -0.2510 -0.6632 0.7051 -0.3147 -0.5076 0.8021 -0.2337 -0.5120 0.8266 -0.2260 -0.4685 0.8541 -0.2097 -0.4479 0.8691 -0.2643 -0.4299 0.8633 -0.3560 -0.3999 0.8446 -0.4396 -0.3610 0.8225 -0.4780 -0.3351 0.8119 -0.3936 -0.3655 0.8435 -0.1524 -0.4372 0.8864 0.0378 -0.4706 0.8815 0.0271 -0.4770 0.8785 -0.0182 -0.4879 0.8727 0.0088 -0.4883 0.8726 0.0374 -0.4516 0.8915 0.0984 -0.3997 0.9113 0.2070 -0.3415 0.9168 0.2480 -0.2593 0.9334 0.1813 -0.1509 0.9718 0.0933 -0.0398 0.9948 0.1138 0.0310 0.9930 0.2644 0.0418 0.9635 0.4110 0.0215 0.9114 0.4570 0.0114 0.8894 0.4368 0.0087 0.8995 0.4419 0.0005 0.8971 0.4832 -0.0048 0.8755 0.5054 -0.0064 0.8629 -0.4391 -0.4800 0.7595 -0.3917 -0.4554 0.7995 -0.2316 -0.5660 0.7912 -0.2649 -0.5016 0.8236 -0.2080 -0.4280 0.8795 -0.2286 -0.4259 0.8754 -0.2319 -0.4640 0.8549 -0.2601 -0.4932 0.8301 -0.3169 -0.4831 0.8162 -0.3783 -0.4267 0.8215 -0.4397 -0.3366 0.8327 -0.4197 -0.2930 0.8590 -0.2237 -0.3539 0.9081 0.0074 -0.4256 0.9049 0.0213 -0.4431 0.8962 -0.0364 -0.4507 0.8919 0.0267 -0.4586 0.8882 0.1048 -0.4196 0.9016 0.1594 -0.3512 0.9226 0.2635 -0.2978 0.9176 0.3360 -0.2408 0.9106 0.2996 -0.1504 0.9421 0.2067 -0.0354 0.9778 0.1793 0.0672 0.9815 0.2693 0.1194 0.9556 0.3930 0.1164 0.9122 0.4505 0.1022 0.8869 0.4329 0.1072 0.8950 0.4276 0.1064 0.8977 0.4536 0.0653 0.8888 0.4971 0.0088 0.8677 -0.2735 -0.2735 0.9222 -0.3448 -0.4533 0.8220 -0.4341 -0.4038 0.8053 -0.3875 -0.4047 0.8283 -0.2923 -0.3799 0.8776 -0.1979 -0.3767 0.9049 -0.1975 -0.3745 0.9059 -0.2628 -0.3785 0.8875 -0.2909 -0.4040 0.8673 -0.2951 -0.4276 0.8544 -0.3032 -0.4224 0.8542 -0.3091 -0.3804 0.8716 -0.3557 -0.2894 0.8887 -0.4035 -0.1973 0.8934 -0.3095 -0.2094 0.9276 -0.0568 -0.3047 0.9507 0.0147 -0.3374 0.9412 -0.0478 -0.3337 0.9415 0.0408 -0.3284 0.9436 0.1877 -0.2805 0.9413 0.2416 -0.1960 0.9504 0.3060 -0.1422 0.9414 0.3846 -0.1235 0.9148 0.3759 -0.0912 0.9222 0.2993 -0.0286 0.9537 0.2587 0.0535 0.9645 0.3054 0.1213 0.9445 0.3908 0.1483 0.9084 0.4486 0.1492 0.8812 0.4400 0.1595 0.8837 0.4424 0.1971 0.8749 0.3458 0.2002 0.9167 0.4140 0.0488 0.9090 -0.5176 -0.2244 0.8257 -0.3952 -0.3490 0.8497 -0.4193 -0.3504 0.8375 -0.3526 -0.2878 0.8904 -0.2957 -0.2637 0.9182 -0.2317 -0.3030 0.9244 -0.2240 -0.3629 0.9045 -0.2764 -0.3876 0.8794 -0.3006 -0.3779 0.8757 -0.2931 -0.3473 0.8908 -0.2889 -0.3087 0.9062 -0.2788 -0.2873 0.9164 -0.2962 -0.2756 0.9145 -0.3474 -0.2405 0.9064 -0.3355 -0.2032 0.9199 -0.1441 -0.2520 0.9570 0.0211 -0.3008 0.9534 -0.0027 -0.2396 0.9709 0.0791 -0.1496 0.9856 0.2597 -0.0892 0.9616 0.3098 -0.0330 0.9502 0.3188 -0.0116 0.9478 0.3798 -0.0373 0.9243 0.3979 -0.0517 0.9160 0.3485 -0.0271 0.9369 0.3224 0.0207 0.9464 0.3599 0.0768 0.9298 0.4149 0.1234 0.9015 0.4543 0.1410 0.8796 0.4501 0.1478 0.8806 0.4783 0.1323 0.8682 0.4046 0.2240 0.8866 0.1933 0.1933 0.9619 -0.4762 -0.1679 0.8632 -0.4869 -0.2991 0.8206 -0.4609 -0.3007 0.8349 -0.3562 -0.2713 0.8942 -0.2976 -0.2005 0.9334 -0.3066 -0.1604 0.9382 -0.3147 -0.2057 0.9266 -0.3066 -0.3007 0.9031 -0.2957 -0.3583 0.8855 -0.2666 -0.3503 0.8979 -0.2408 -0.3005 0.9229 -0.2521 -0.2456 0.9360 -0.2825 -0.2166 0.9345 -0.3180 -0.2294 0.9199 -0.3408 -0.2629 0.9026 -0.3122 -0.2829 0.9069 -0.2003 -0.3057 0.9308 0.0639 -0.3219 0.9446 0.1298 -0.1818 0.9747 0.1881 -0.0317 0.9816 0.3056 0.0466 0.9510 0.3286 0.0644 0.9423 0.2917 0.0422 0.9556 0.3400 -0.0158 0.9403 0.4010 -0.0428 0.9151 0.3799 -0.0142 0.9249 0.3564 0.0193 0.9342 0.3983 0.0405 0.9164 0.4438 0.0649 0.8937 0.4629 0.0765 0.8831 0.4627 0.0813 0.8828 0.4411 0.0887 0.8931 0.4968 0.0435 0.8668 -0.6283 -0.0490 0.7764 -0.5093 -0.1739 0.8428 -0.4492 -0.1809 0.8749 -0.3052 -0.1449 0.9412 -0.2455 -0.1034 0.9639 -0.3062 -0.0743 0.9491 -0.3814 -0.0910 0.9199 -0.3932 -0.1458 0.9078 -0.3365 -0.1962 0.9210 -0.2489 -0.2074 0.9461 -0.2037 -0.1892 0.9606 -0.2169 -0.1633 0.9624 -0.2656 -0.1217 0.9564 -0.3332 -0.0817 0.9393 -0.3732 -0.0606 0.9258 -0.3397 -0.0521 0.9391 -0.2278 -0.0320 0.9732 0.0875 -0.0587 0.9944 0.2835 -0.0576 0.9572 0.2865 0.0050 0.9581 0.3309 0.0400 0.9428 0.3198 0.0421 0.9465 0.2491 0.0224 0.9682 0.2950 -0.0167 0.9554 0.4096 -0.0288 0.9118 0.4197 0.0126 0.9076 0.3750 0.0556 0.9254 0.4000 0.0556 0.9148 0.4456 0.0347 0.8946 0.4591 0.0136 0.8883 0.4760 0.0062 0.8794 0.4366 0.0303 0.8992 0.4249 0.0241 0.9049 0.0000 0.0000 1.0000 -0.5651 0.0137 0.8249 -0.5693 -0.0216 0.8218 -0.4204 -0.0223 0.9071 -0.2887 -0.0201 0.9572 -0.2306 -0.0263 0.9727 -0.2981 -0.0185 0.9543 -0.3911 0.0027 0.9203 -0.4178 0.0229 0.9082 -0.3603 0.0255 0.9325 -0.2584 0.0128 0.9660 -0.2036 -0.0018 0.9791 -0.1929 0.0032 0.9812 -0.2097 0.0565 0.9761 -0.2767 0.1374 0.9511 -0.3255 0.2058 0.9229 -0.2933 0.2624 0.9193 -0.1412 0.3259 0.9348 0.0525 0.4116 0.9099 0.1817 0.3508 0.9186 0.2284 0.1804 0.9567 0.3096 0.0587 0.9491 0.3100 0.0073 0.9507 0.2375 -0.0016 0.9714 0.2805 -0.0024 0.9598 0.4249 0.0013 0.9052 0.4624 0.0335 0.8860 0.4003 0.0819 0.9127 0.3819 0.0955 0.9192 0.4152 0.0616 0.9076 0.4367 0.0212 0.8993 0.5212 0.0582 0.8514 0.3936 0.1292 0.9102 0.4019 0.0018 0.9157 0.0000 0.0000 1.0000 -0.3767 0.0257 0.9260 -0.5744 0.0779 0.8149 -0.4257 0.0722 0.9020 -0.3215 0.0249 0.9466 -0.2460 -0.0186 0.9691 -0.2752 -0.0178 0.9612 -0.3449 0.0376 0.9379 -0.3799 0.1118 0.9182 -0.3518 0.1554 0.9231 -0.2733 0.1573 0.9490 -0.2106 0.1446 0.9668 -0.1622 0.1573 0.9741 -0.1344 0.2063 0.9692 -0.1880 0.2704 0.9442 -0.2530 0.3312 0.9090 -0.2336 0.3855 0.8927 -0.0756 0.4373 0.8961 0.1232 0.4836 0.8666 0.0892 0.5226 0.8479 0.0293 0.4659 0.8844 0.1642 0.3004 0.9396 0.2497 0.1595 0.9551 0.2245 0.0982 0.9695 0.2715 0.0672 0.9601 0.4237 0.0348 0.9051 0.4859 0.0240 0.8737 0.4355 0.0532 0.8986 0.3859 0.0955 0.9176 0.3877 0.1032 0.9160 0.4130 0.0848 0.9068 0.5824 0.0472 0.8116 0.5333 0.1855 0.8253 0.2087 0.2087 0.9554 0.0000 0.0000 1.0000 -0.3621 0.0305 0.9316 -0.5461 0.1141 0.8299 -0.4541 0.1292 0.8816 -0.3742 0.0941 0.9226 -0.2791 0.0418 0.9594 -0.2527 0.0180 0.9674 -0.2790 0.0524 0.9589 -0.3180 0.1145 0.9412 -0.3292 0.1597 0.9306 -0.2793 0.1751 0.9441 -0.2038 0.1842 0.9615 -0.1293 0.2126 0.9685 -0.0925 0.2388 0.9666 -0.1426 0.2500 0.9577 -0.2030 0.2758 0.9395 -0.1819 0.3285 0.9268 -0.0273 0.3866 0.9218 0.1853 0.4182 0.8892 0.1489 0.4729 0.8685 -0.0430 0.5298 0.8470 0.0020 0.4938 0.8696 0.1226 0.3951 0.9104 0.1479 0.2979 0.9431 0.2054 0.2021 0.9576 0.3719 0.0960 0.9233 0.4725 0.0198 0.8811 0.4652 0.0115 0.8851 0.4294 0.0652 0.9007 0.4028 0.1278 0.9063 0.4068 0.1563 0.9000 0.5311 0.1182 0.8390 0.6743 0.0313 0.7378 -0.4307 0.0545 0.9009 -0.4899 0.1313 0.8618 -0.4499 0.1776 0.8753 -0.3947 0.1957 0.8977 -0.3188 0.1710 0.9323 -0.2640 0.1324 0.9554 -0.2543 0.1196 0.9597 -0.2845 0.1229 0.9508 -0.3107 0.1346 0.9409 -0.2728 0.1479 0.9507 -0.1839 0.1648 0.9690 -0.1018 0.1909 0.9763 -0.0905 0.2007 0.9755 -0.1507 0.1845 0.9712 -0.1747 0.1838 0.9673 -0.1251 0.2294 0.9653 0.0162 0.2796 0.9600 0.2266 0.2851 0.9313 0.2531 0.3183 0.9136 0.0474 0.4421 0.8957 -0.0286 0.5182 0.8548 0.0270 0.5098 0.8599 0.0384 0.4493 0.8926 0.0832 0.3588 0.9297 0.2571 0.2356 0.9373 0.4127 0.1123 0.9039 0.4718 0.0556 0.8800 0.4825 0.0795 0.8723 0.4560 0.1508 0.8771 0.4228 0.2096 0.8817 0.4494 0.1813 0.8747 0.5820 0.0624 0.8108 -0.2301 0.1150 0.9663 -0.4255 0.1976 0.8831 -0.4220 0.2121 0.8814 -0.3853 0.2403 0.8910 -0.3451 0.2381 0.9079 -0.2863 0.2201 0.9325 -0.2602 0.2119 0.9420 -0.2839 0.2046 0.9368 -0.3039 0.1996 0.9316 -0.2654 0.1992 0.9433 -0.1773 0.1947 0.9647 -0.0955 0.1835 0.9784 -0.0927 0.1769 0.9799 -0.1568 0.1836 0.9704 -0.1560 0.1973 0.9679 -0.0816 0.2192 0.9723 0.0296 0.2294 0.9729 0.2165 0.1947 0.9567 0.3223 0.1766 0.9300 0.2134 0.2818 0.9354 0.0671 0.4288 0.9009 0.0158 0.4949 0.8688 -0.0279 0.4923 0.8700 -0.0095 0.4591 0.8883 0.1378 0.3982 0.9069 0.3095 0.2970 0.9033 0.4293 0.1952 0.8818 0.4980 0.1444 0.8551 0.5053 0.1610 0.8478 0.4614 0.2283 0.8573 0.3319 0.2376 0.9129 0.4101 0.0859 0.9080 0.0000 0.0000 1.0000 -0.2907 0.2444 0.9251 -0.4489 0.3359 0.8280 -0.3772 0.2667 0.8869 -0.3552 0.2611 0.8976 -0.2918 0.2599 0.9205 -0.2477 0.2716 0.9300 -0.2695 0.2914 0.9178 -0.2949 0.3034 0.9061 -0.2678 0.3018 0.9150 -0.2023 0.2837 0.9373 -0.1292 0.2423 0.9616 -0.0912 0.2100 0.9734 -0.1243 0.2314 0.9649 -0.1353 0.2662 0.9544 -0.0818 0.2656 0.9606 0.0020 0.2380 0.9713 0.1702 0.1942 0.9661 0.3348 0.1587 0.9288 0.3353 0.2016 0.9203 0.2125 0.3229 0.9223 0.0838 0.4301 0.8989 -0.0204 0.4834 0.8752 -0.0287 0.5010 0.8650 0.0816 0.4950 0.8650 0.2064 0.4501 0.8688 0.3260 0.3554 0.8760 0.4459 0.2408 0.8621 0.5173 0.1801 0.8366 0.4864 0.1670 0.8576 0.3822 0.2149 0.8987 0.1731 0.1731 0.9696 0.0000 0.0000 1.0000 -0.3486 0.3338 0.8759 -0.4601 0.3970 0.7942 -0.3641 0.2898 0.8851 -0.2960 0.2820 0.9126 -0.2320 0.2795 0.9317 -0.2417 0.2937 0.9248 -0.2784 0.3173 0.9065 -0.2684 0.3359 0.9028 -0.2276 0.3413 0.9120 -0.1815 0.3133 0.9321 -0.1124 0.2631 0.9582 -0.0854 0.2543 0.9633 -0.1134 0.2840 0.9521 -0.1075 0.2852 0.9524 -0.0294 0.2648 0.9639 0.1498 0.2606 0.9538 0.3319 0.2652 0.9053 0.3784 0.2870 0.8800 0.3066 0.3452 0.8870 0.1782 0.4271 0.8865 0.0389 0.4969 0.8669 -0.0025 0.5356 0.8444 0.0762 0.5521 0.8303 0.1459 0.5460 0.8250 0.2057 0.4961 0.8436 0.3394 0.3947 0.8538 0.4670 0.2942 0.8339 0.4848 0.2274 0.8445 0.4310 0.1112 0.8955 0.0000 0.0000 1.0000 -0.3844 0.3678 0.8467 -0.4695 0.4284 0.7720 -0.3174 0.3041 0.8982 -0.2505 0.2721 0.9291 -0.2361 0.2465 0.9399 -0.2561 0.2534 0.9328 -0.2432 0.2905 0.9255 -0.2174 0.3314 0.9181 -0.2183 0.3383 0.9154 -0.1699 0.2954 0.9402 -0.0882 0.2485 0.9646 -0.0853 0.2580 0.9624 -0.1015 0.2951 0.9501 -0.0201 0.3292 0.9440 0.1783 0.3625 0.9148 0.3521 0.3881 0.8517 0.3886 0.4188 0.8207 0.3325 0.4551 0.8260 0.2323 0.4978 0.8356 0.0989 0.5472 0.8311 0.0412 0.5869 0.8086 0.0948 0.6126 0.7847 0.1520 0.6356 0.7569 0.1060 0.6523 0.7505 0.1901 0.5612 0.8055 0.3709 0.4238 0.8264 0.4780 0.3411 0.8094 0.0000 0.0000 1.0000 -0.4021 0.3965 0.8253 -0.4624 0.4458 0.7665 -0.2959 0.2866 0.9112 -0.2633 0.2466 0.9327 -0.2453 0.2273 0.9424 -0.2066 0.2412 0.9482 -0.1816 0.2733 0.9446 -0.2240 0.2985 0.9277 -0.2253 0.2895 0.9303 -0.1221 0.2560 0.9589 -0.0419 0.2642 0.9636 -0.0232 0.3425 0.9392 0.0478 0.4348 0.8993 0.2144 0.4823 0.8494 0.3690 0.4818 0.7948 0.4029 0.4941 0.7704 0.3657 0.5516 0.7497 0.2038 0.6213 0.7566 0.1203 0.5902 0.7982 0.0693 0.5780 0.8131 0.1105 0.6034 0.7897 0.1867 0.6487 0.7378 0.1206 0.7091 0.6947 0.0377 0.6992 0.7139 0.1598 0.5802 0.7987 0.0000 0.0000 1.0000 -0.4897 0.3268 0.8083 -0.4351 0.3515 0.8289 -0.2880 0.2844 0.9144 -0.2580 0.2675 0.9284 -0.2106 0.2432 0.9468 -0.1696 0.2201 0.9606 -0.2040 0.2283 0.9520 -0.2299 0.2602 0.9378 -0.1318 0.2840 0.9497 0.0163 0.3167 0.9484 0.1011 0.4002 0.9108 0.1562 0.5017 0.8508 0.2462 0.5527 0.7961 0.3578 0.5405 0.7615 0.4093 0.5221 0.7483 0.4230 0.5271 0.7370 0.2557 0.6671 0.6997 0.0620 0.6671 0.7424 0.0259 0.5999 0.7996 0.0590 0.5425 0.8380 -0.4368 0.0000 0.8996 -0.4393 0.2812 0.8532 -0.3030 0.3366 0.8916 -0.2721 0.3269 0.9050 -0.2520 0.3014 0.9196 -0.2031 0.2506 0.9465 -0.1832 0.2271 0.9565 -0.1810 0.2637 0.9475 -0.0895 0.3239 0.9419 0.0787 0.3741 0.9241 0.2051 0.4267 0.8809 0.2576 0.4867 0.8347 0.2932 0.5262 0.7982 0.3474 0.5226 0.7786 0.4000 0.5131 0.7594 0.4082 0.5280 0.7447 -0.3808 0.4039 0.8318 -0.3189 0.3800 0.8683 -0.2691 0.3731 0.8879 -0.2775 0.3774 0.8835 -0.2431 0.3531 0.9035 -0.1809 0.3319 0.9258 -0.1302 0.3451 0.9295 -0.0330 0.3815 0.9238 0.1260 0.4094 0.9036 0.2556 0.4231 0.8693 0.3117 0.4384 0.8430 0.3251 0.4473 0.8332 0.3458 0.4642 0.8154 0.3774 0.4683 0.7989 -0.3089 0.3959 0.8648 -0.2114 0.4034 0.8903 -0.2761 0.4408 0.8541 -0.2537 0.4222 0.8703 -0.1748 0.4327 0.8844 -0.1041 0.4528 0.8855 -0.0128 0.4653 0.8850 0.1335 0.4579 0.8789 0.2867 0.4637 0.8383 0.2663 0.4704 0.8413 0.3346 0.3948 0.8557 0.3355 0.4017 0.8521 0.0000 0.3363 0.9417 -0.2080 0.3678 0.9063 -0.2441 0.4560 0.8558 -0.1882 0.4796 0.8571 -0.0716 0.4502 0.8900 0.0362 0.5102 0.8593 0.0821 0.5478 0.8326 0.2709 0.4108 0.8706 0.3217 0.4376 0.8397 0.1744 0.4861 0.8563 0.0000 0.0000 1.0000 -0.1410 0.2820 0.9490 -0.1727 0.3935 0.9029 -0.1244 0.3992 0.9084 0.0691 0.4056 0.9114 0.1081 0.5715 0.8134 0.0612 0.5503 0.8327 0.2712 0.2712 0.9235 0.0000 0.0000 1.0000 -0.1150 0.2301 0.9663 0.0000 0.3363 0.9417</float_array>
      <technique_common><accessor source="#n-a" count="759" stride="3"><param name="X" type="float"/><param name="Y" type="float"/><param name="Z" type="float"/></accessor></technique_common></source>
    <source id="t"><float_array id="t-a" count="1518">0.2520 -0.5880 0.2940 -0.5880 0.3360 -0.5880 0.3780 -0.5880 0.4200 -0.5880 0.4620 -0.5880 -0.2100 -0.5460 -0.1680 -0.5460 -0.1260 -0.5460 -0.0840 -0.5460 -0.0420 -0.5460 0.0000 -0.5460 0.0420 -0.5460 0.0840 -0.5460 0.1260 -0.5460 0.1680 -0.5460 0.2100 -0.5460 0.2520 -0.5460 0.2940 -0.5460 0.3360 -0.5460 0.3780 -0.5460 0.4200 -0.5460 0.4620 -0.5460 0.5040 -0.5460 0.5460 -0.5460 0.5880 -0.5460 -0.2520 -0.5040 -0.2100 -0.5040 -0.1680 -0.5040 -0.1260 -0.5040 -0.0840 -0.5040 -0.0420 -0.5040 0.0000 -0.5040 0.0420 -0.5040 0.0840 -0.5040 0.1260 -0.5040 0.1680 -0.5040 0.2100 -0.5040 0.2520 -0.5040 0.2940 -0.5040 0.3360 -0.5040 0.3780 -0.5040 0.4200 -0.5040 0.4620 -0.5040 0.5040 -0.5040 0.5460 -0.5040 0.5880 -0.5040 0.6300 -0.5040 -0.2940 -0.4620 -0.2520 -0.4620 -0.2100 -0.4620 -0.1680 -0.4620 -0.1260 -0.4620 -0.0840 -0.4620 -0.0420 -0.4620 0.0000 -0.4620 0.0420 -0.4620 0.0840 -0.4620 0.1260 -0.4620 0.1680 -0.4620 0.2100 -0.4620 0.2520 -0.4620 0.2940 -0.4620 0.3360 -0.4620 0.3780 -0.4620 0.4200 -0.4620 0.4620 -0.4620 0.5040 -0.4620 0.5460 -0.4620 0.5880 -0.4620 0.6300 -0.4620 -0.2940 -0.4200 -0.2520 -0.4200 -0.2100 -0.4200 -0.1680 -0.4200 -0.1260 -0.4200 -0.0840 -0.4200 -0.0420 -0.4200 0.0000 -0.4200 0.0420 -0.4200 0.0840 -0.4200 0.1260 -0.4200 0.1680 -0.4200 0.2100 -0.4200 0.2520 -0.4200 0.2940 -0.4200 0.3360 -0.4200 0.3780 -0.4200 0.4200 -0.4200 0.4620 -0.4200 0.5040 -0.4200 0.5460 -0.4200 0.5880 -0.4200 0.6300 -0.4200 0.6720 -0.4200 -0.3360 -0.3780 -0.2940 -0.3780 -0.2520 -0.3780 -0.2100 -0.3780 -0.1680 -0.3780 -0.1260 -0.3780 -0.0840 -0.3780 -0.0420 -0.3780 0.0000 -0.3780 0.0420 -0.3780 0.0840 -0.3780 0.1260 -0.3780 0.1680 -0.3780 0.2100 -0.3780 0.2520 -0.3780 0.2940 -0.3780 0.3360 -0.3780 0.3780 -0.3780 0.4200 -0.3780 0.4620 -0.3780 0.5040 -0.3780 0.5460 -0.3780 0.5880 -0.3780 0.6300 -0.3780 0.6720 -0.3780 -0.3780 -0.3360 -0.3360 -0.3360 -0.2940 -0.3360 -0.2520 -0.3360 -0.2100 -0.3360 -0.1680 -0.3360 -0.1260 -0.3360 -0.0840 -0.3360 -0.0420 -0.3360 0.0000 -0.3360 0.0420 -0.3360 0.0840 -0.3360 0.1260 -0.3360 0.1680 -0.3360 0.2100 -0.3360 0.2520 -0.3360 0.2940 -0.3360 0.3360 -0.3360 0.3780 -0.3360 0.4200 -0.3360 0.4620 -0.3360 0.5040 -0.3360 0.5460 -0.3360 0.5880 -0.3360 0.6300 -0.3360 0.6720 -0.3360 -0.4200 -0.2940 -0.3780 -0.2940 -0.3360 -0.2940 -0.2940 -0.2940 -0.2520 -0.2940 -0.2100 -0.2940 -0.1680 -0.2940 -0.1260 -0.2940 -0.0840 -0.2940 -0.0420 -0.2940 0.0000 -0.2940 0.0420 -0.2940 0.0840 -0.2940 0.1260 -0.2940 0.1680 -0.2940 0.2100 -0.2940 0.2520 -0.2940 0.2940 -0.2940 0.3360 -0.2940 0.3780 -0.2940 0.4200 -0.2940 0.4620 -0.2940 0.5040 -0.2940 0.5460 -0.2940 0.5880 -0.2940 0.6300 -0.2940 0.6720 -0.2940 -0.4620 -0.2520 -0.4200 -0.2520 -0.3780 -0.2520 -0.3360 -0.2520 -0.2940 -0.2520 -0.2520 -0.2520 -0.2100 -0.2520 -0.1680 -0.2520 -0.1260 -0.2520 -0.0840 -0.2520 -0.0420 -0.2520 0.0000 -0.2520 0.0420 -0.2520 0.0840 -0.2520 0.1260 -0.2520 0.1680 -0.2520 0.2100 -0.2520 0.2520 -0.2520 0.2940 -0.2520 0.3360 -0.2520 0.3780 -0.2520 0.4200 -0.2520 0.4620 -0.2520 0.5040 -0.2520 0.5460 -0.2520 0.5880 -0.2520 0.6300 -0.2520 0.6720 -0.2520 -0.5460 -0.2100 -0.5040 -0.2100 -0.4620 -0.2100 -0.4200 -0.2100 -0.3780 -0.2100 -0.3360 -0.2100 -0.2940 -0.2100 -0.2520 -0.2100 -0.2100 -0.2100 -0.1680 -0.2100 -0.1260 -0.2100 -0.0840 -0.2100 -0.0420 -0.2100 0.0000 -0.2100 0.0420 -0.2100 0.0840 -0.2100 0.1260 -0.2100 0.1680 -0.2100 0.2100 -0.2100 0.2520 -0.2100 0.2940 -0.2100 0.3360 -0.2100 0.3780 -0.2100 0.4200 -0.2100 0.4620 -0.2100 0.5040 -0.2100 0.5460 -0.2100 0.5880 -0.2100 0.6300 -0.2100 0.6720 -0.2100 -0.5880 -0.1680 -0.5460 -0.1680 -0.5040 -0.1680 -0.4620 -0.1680 -0.4200 -0.1680 -0.3780 -0.1680 -0.3360 -0.1680 -0.2940 -0.1680 -0.2520 -0.1680 -0.2100 -0.1680 -0.1680 -0.1680 -0.1260 -0.1680 -0.0840 -0.1680 -0.0420 -0.1680 0.0000 -0.1680 0.0420 -0.1680 0.0840 -0.1680 0.1260 -0.1680 0.1680 -0.1680 0.2100 -0.1680 0.2520 -0.1680 0.2940 -0.1680 0.3360 -0.1680 0.3780 -0.1680 0.4200 -0.1680 0.4620 -0.1680 0.5040 -0.1680 0.5460 -0.1680 0.5880 -0.1680 0.6300 -0.1680 0.6720 -0.1680 -0.6720 -0.1260 -0.6300 -0.1260 -0.5880 -0.1260 -0.5460 -0.1260 -0.5040 -0.1260 -0.4620 -0.1260 -0.4200 -0.1260 -0.3780 -0.1260 -0.3360 -0.1260 -0.2940 -0.1260 -0.2520 -0.1260 -0.2100 -0.1260 -0.1680 -0.1260 -0.1260 -0.1260 -0.0840 -0.1260 -0.0420 -0.1260 0.0000 -0.1260 0.0420 -0.1260 0.0840 -0.1260 0.1260 -0.1260 0.1680 -0.1260 0.2100 -0.1260 0.2520 -0.1260 0.2940 -0.1260 0.3360 -0.1260 0.3780 -0.1260 0.4200 -0.1260 0.4620 -0.1260 0.5040 -0.1260 0.5460 -0.1260 0.5880 -0.1260 0.6300 -0.1260 0.6720 -0.1260 -0.6720 -0.0840 -0.6300 -0.0840 -0.5880 -0.0840 -0.5460 -0.0840 -0.5040 -0.0840 -0.4620 -0.0840 -0.4200 -0.0840 -0.3780 -0.0840 -0.3360 -0.0840 -0.2940 -0.0840 -0.2520 -0.0840 -0.2100 -0.0840 -0.1680 -0.0840 -0.1260 -0.0840 -0.0840 -0.0840 -0.0420 -0.0840 0.0000 -0.0840 0.0420 -0.0840 0.0840 -0.0840 0.1260 -0.0840 0.1680 -0.0840 0.2100 -0.0840 0.2520 -0.0840 0.2940 -0.0840 0.3360 -0.0840 0.3780 -0.0840 0.4200 -0.0840 0.4620 -0.0840 0.5040 -0.0840 0.5460 -0.0840 0.5880 -0.0840 0.6300 -0.0840 0.6720 -0.0840 -0.7140 -0.0420 -0.6720 -0.0420 -0.6300 -0.0420 -0.5880 -0.0420 -0.5460 -0.0420 -0.5040 -0.0420 -0.4620 -0.0420 -0.4200 -0.0420 -0.3780 -0.0420 -0.3360 -0.0420 -0.2940 -0.0420 -0.2520 -0.0420 -0.2100 -0.0420 -0.1680 -0.0420 -0.1260 -0.0420 -0.0840 -0.0420 -0.0420 -0.0420 0.0000 -0.0420 0.0420 -0.0420 0.0840 -0.0420 0.1260 -0.0420 0.1680 -0.0420 0.2100 -0.0420 0.2520 -0.0420 0.2940 -0.0420 0.3360 -0.0420 0.3780 -0.0420 0.4200 -0.0420 0.4620 -0.0420 0.5040 -0.0420 0.5460 -0.0420 0.5880 -0.0420 0.6300 -0.0420 -0.7140 0.0000 -0.6720 0.0000 -0.6300 0.0000 -0.5880 0.0000 -0.5460 0.0000 -0.5040 0.0000 -0.4620 0.0000 -0.4200 0.0000 -0.3780 0.0000 -0.3360 0.0000 -0.2940 0.0000 -0.2520 0.0000 -0.2100 0.0000 -0.1680 0.0000 -0.1260 0.0000 -0.0840 0.0000 -0.0420 0.0000 0.0000 0.0000 0.0420 0.0000 0.0840 0.0000 0.1260 0.0000 0.1680 0.0000 0.2100 0.0000 0.2520 0.0000 0.2940 0.0000 0.3360 0.0000 0.3780 0.0000 0.4200 0.0000 0.4620 0.0000 0.5040 0.0000 0.5460 0.0000 0.5880 0.0000 0.6300 0.0000 -0.7560 0.0420 -0.7140 0.0420 -0.6720 0.0420 -0.6300 0.0420 -0.5880 0.0420 -0.5460 0.0420 -0.5040 0.0420 -0.4620 0.0420 -0.4200 0.0420 -0.3780 0.0420 -0.3360 0.0420 -0.2940 0.0420 -0.2520 0.0420 -0.2100 0.0420 -0.1680 0.0420 -0.1260 0.0420 -0.0840 0.0420 -0.0420 0.0420 0.0000 0.0420 0.0420 0.0420 0.0840 0.0420 0.1260 0.0420 0.1680 0.0420 0.2100 0.0420 0.2520 0.0420 0.2940 0.0420 0.3360 0.0420 0.3780 0.0420 0.4200 0.0420 0.4620 0.0420 0.5040 0.0420 0.5460 0.0420 0.5880 0.0420 0.6300 0.0420 -0.7560 0.0840 -0.7140 0.0840 -0.6720 0.0840 -0.6300 0.0840 -0.5880 0.0840 -0.5460 0.0840 -0.5040 0.0840 -0.4620 0.0840 -0.4200 0.0840 -0.3780 0.0840 -0.3360 0.0840 -0.2940 0.0840 -0.2520 0.0840 -0.2100 0.0840 -0.1680 0.0840 -0.1260 0.0840 -0.0840 0.0840 -0.0420 0.0840 0.0000 0.0840 0.0420 0.0840 0.0840 0.0840 0.1260 0.0840 0.1680 0.0840 0.2100 0.0840 0.2520 0.0840 0.2940 0.0840 0.3360 0.0840 0.3780 0.0840 0.4200 0.0840 0.4620 0.0840 0.5040 0.0840 0.5460 0.0840 0.5880 0.0840 0.6300 0.0840 -0.7560 0.1260 -0.7140 0.1260 -0.6720 0.1260 -0.6300 0.1260 -0.5880 0.1260 -0.5460 0.1260 -0.5040 0.1260 -0.4620 0.1260 -0.4200 0.1260 -0.3780 0.1260 -0.3360 0.1260 -0.2940 0.1260 -0.2520 0.1260 -0.2100 0.1260 -0.1680 0.1260 -0.1260 0.1260 -0.0840 0.1260 -0.0420 0.1260 0.0000 0.1260 0.0420 0.1260 0.0840 0.1260 0.1260 0.1260 0.1680 0.1260 0.2100 0.1260 0.2520 0.1260 0.2940 0.1260 0.3360 0.1260 0.3780 0.1260 0.4200 0.1260 0.4620 0.1260 0.5040 0.1260 0.5460 0.1260 0.5880 0.1260 -0.7140 0.1680 -0.6720 0.1680 -0.6300 0.1680 -0.5880 0.1680 -0.5460 0.1680 -0.5040 0.1680 -0.4620 0.1680 -0.4200 0.1680 -0.3780 0.1680 -0.3360 0.1680 -0.2940 0.1680 -0.2520 0.1680 -0.2100 0.1680 -0.1680 0.1680 -0.1260 0.1680 -0.0840 0.1680 -0.0420 0.1680 0.0000 0.1680 0.0420 0.1680 0.0840 0.1680 0.1260 0.1680 0.1680 0.1680 0.2100 0.1680 0.2520 0.1680 0.2940 0.1680 0.3360 0.1680 0.3780 0.1680 0.4200 0.1680 0.4620 0.1680 0.5040 0.1680 0.5460 0.1680 0.5880 0.1680 -0.7140 0.2100 -0.6720 0.2100 -0.6300 0.2100 -0.5880 0.2100 -0.5460 0.2100 -0.5040 0.2100 -0.4620 0.2100 -0.4200 0.2100 -0.3780 0.2100 -0.3360 0.2100 -0.2940 0.2100 -0.2520 0.2100 -0.2100 0.2100 -0.1680 0.2100 -0.1260 0.2100 -0.0840 0.2100 -0.0420 0.2100 0.0000 0.2100 0.0420 0.2100 0.0840 0.2100 0.1260 0.2100 0.1680 0.2100 0.2100 0.2100 0.2520 0.2100 0.2940 0.2100 0.3360 0.2100 0.3780 0.2100 0.4200 0.2100 0.4620 0.2100 0.5040 0.2100 0.5460 0.2100 0.5880 0.2100 -0.7140 0.2520 -0.6720 0.2520 -0.6300 0.2520 -0.5880 0.2520 -0.5460 0.2520 -0.5040 0.2520 -0.4620 0.2520 -0.4200 0.2520 -0.3780 0.2520 -0.3360 0.2520 -0.2940 0.2520 -0.2520 0.2520 -0.2100 0.2520 -0.1680 0.2520 -0.1260 0.2520 -0.0840 0.2520 -0.0420 0.2520 0.0000 0.2520 0.0420 0.2520 0.0840 0.2520 0.1260 0.2520 0.1680 0.2520 0.2100 0.2520 0.2520 0.2520 0.2940 0.2520 0.3360 0.2520 0.3780 0.2520 0.4200 0.2520 0.4620 0.2520 0.5040 0.2520 0.5460 0.2520 0.5880 0.2520 -0.6720 0.2940 -0.6300 0.2940 -0.5880 0.2940 -0.5460 0.2940 -0.5040 0.2940 -0.4620 0.2940 -0.4200 0.2940 -0.3780 0.2940 -0.3360 0.2940 -0.2940 0.2940 -0.2520 0.2940 -0.2100 0.2940 -0.1680 0.2940 -0.1260 0.2940 -0.0840 0.2940 -0.0420 0.2940 0.0000 0.2940 0.0420 0.2940 0.0840 0.2940 0.1260 0.2940 0.1680 0.2940 0.2100 0.2940 0.2520 0.2940 0.2940 0.2940 0.3360 0.2940 0.3780 0.2940 0.4200 0.2940 0.4620 0.2940 0.5040 0.2940 0.5460 0.2940 -0.6300 0.3360 -0.5880 0.3360 -0.5460 0.3360 -0.5040 0.3360 -0.4620 0.3360 -0.4200 0.3360 -0.3780 0.3360 -0.3360 0.3360 -0.2940 0.3360 -0.2520 0.3360 -0.2100 0.3360 -0.1680 0.3360 -0.1260 0.3360 -0.0840 0.3360 -0.0420 0.3360 0.0000 0.3360 0.0420 0.3360 0.0840 0.3360 0.1260 0.3360 0.1680 0.3360 0.2100 0.3360 0.2520 0.3360 0.2940 0.3360 0.3360 0.3360 0.3780 0.3360 0.4200 0.3360 0.4620 0.3360 0.5040 0.3360 -0.5880 0.3780 -0.5460 0.3780 -0.5040 0.3780 -0.4620 0.3780 -0.4200 0.3780 -0.3780 0.3780 -0.3360 0.3780 -0.2940 0.3780 -0.2520 0.3780 -0.2100 0.3780 -0.1680 0.3780 -0.1260 0.3780 -0.0840 0.3780 -0.0420 0.3780 0.0000 0.3780 0.0420 0.3780 0.0840 0.3780 0.1260 0.3780 0.1680 0.3780 0.2100 0.3780 0.2520 0.3780 0.2940 0.3780 0.3360 0.3780 0.3780 0.3780 0.4200 0.3780 0.4620 0.3780 -0.5460 0.4200 -0.5040 0.4200 -0.4620 0.4200 -0.4200 0.4200 -0.3780 0.4200 -0.3360 0.4200 -0.2940 0.4200 -0.2520 0.4200 -0.2100 0.4200 -0.1680 0.4200 -0.1260 0.4200 -0.0840 0.4200 -0.0420 0.4200 0.0000 0.4200 0.0420 0.4200 0.0840 0.4200 0.1260 0.4200 0.1680 0.4200 0.2100 0.4200 0.2520 0.4200 0.2940 0.4200 -0.5040 0.4620 -0.4620 0.4620 -0.4200 0.4620 -0.3780 0.4620 -0.3360 0.4620 -0.2940 0.4620 -0.2520 0.4620 -0.2100 0.4620 -0.1680 0.4620 -0.1260 0.4620 -0.0840 0.4620 -0.0420 0.4620 0.0000 0.4620 0.0420 0.4620 0.0840 0.4620 0.1260 0.4620 -0.4620 0.5040 -0.4200 0.5040 -0.3780 0.5040 -0.3360 0.5040 -0.2940 0.5040 -0.2520 0.5040 -0.2100 0.5040 -0.1680 0.5040 -0.1260 0.5040 -0.0840 0.5040 -0.0420 0.5040 0.0000 0.5040 0.0420 0.5040 0.0840 0.5040 -0.4200 0.5460 -0.3780 0.5460 -0.3360 0.5460 -0.2940 0.5460 -0.2520 0.5460 -0.2100 0.5460 -0.1680 0.5460 -0.1260 0.5460 -0.0840 0.5460 -0.0420 0.5460 0.0000 0.5460 0.0420 0.5460 -0.3780 0.5880 -0.3360 0.5880 -0.2940 0.5880 -0.2520 0.5880 -0.2100 0.5880 -0.1680 0.5880 -0.1260 0.5880 -0.0840 0.5880 -0.0420 0.5880 0.0000 0.5880 -0.3360 0.6300 -0.2940 0.6300 -0.2520 0.6300 -0.2100 0.6300 -0.1680 0.6300 -0.1260 0.6300 -0.0840 0.6300 -0.0420 0.6300 -0.2520 0.6720 -0.2100 0.6720 -0.1680 0.6720</float_array>
      <technique_common><accessor source="#t-a" count="759" stride="2"><param name="S" type="float"/><param name="T" type="float"/></accessor></technique_common></source>
    <vertices id="v"><input semantic="POSITION" source="#p"/></vertices>
    <triangles material="m" count="1388">
      <input semantic="VERTEX" source="#v" offset="0"/>
      <input semantic="NORMAL" source="#n" offset="1"/>
      <input semantic="TEXCOORD" source="#t" offset="2" set="0"/>
      <p>0 0 0 1 1 1 18 18 18 0 0 0 18 18 18 17 17 17 1 1 1 2 2 2 19 19 19 1 1 1 19 19 19 18 18 18 2 2 2 3 3 3 20 20 20 2 2 2 20 20 20 19 19 19 3 3 3 4 4 4 21 21 21 3 3 3 21 21 21 20 20 20 4 4 4 5 5 5 22 22 22 4 4 4 22 22 22 21 21 21 6 6 6 7 7 7 28 28 28 6 6 6 28 28 28 27 27 27 7 7 7 8 8 8 29 29 29 7 7 7 29 29 29 28 28 28 8 8 8 9 9 9 30 30 30 8 8 8 30 30 30 29 29 29 9 9 9 10 10 10 31 31 31 9 9 9 31 31 31 30 30 30 10 10 10 11 11 11 32 32 32 10 10 10 32 32 32 31 31 31 11 11 11 12 12 12 33 33 33 11 11 11 33 33 33 32 32 32 12 12 12 13 13 13 34 34 34 12 12 12 34 34 34 33 33 33 13 13 13 14 14 14 35 35 35 13 13 13 35 35 35 34 34 34 14 14 14 15 15 15 36 36 36 14 14 14 36 36 36 35 35 35 15 15 15 16 16 16 37 37 37 15 15 15 37 37 37 36 36 36 16 16 16 17 17 17 38 38 38 16 16 16 38 38 38 37 37 37 17 17 17 18 18 18 39 39 39 17 17 17 39 39 39 38 38 38 18 18 18 19 19 19 40 40 40 18 18 18 40 40 40 39 39 39 19 19 19 20 20 20 41 41 41 19 19 19 41 41 41 40 40 40 20 20 20 21 21 21 42 42 42 20 20 20 42 42 42 41 41 41 21 21 21 22 22 22 43 43 43 21 21 21 43 43 43 42 42 42 22 22 22 23 23 23 44 44 44 22 22 22 44 44 44 43 43 43 23 23 23 24 24 24 45 45 45 23 23 23 45 45 45 44 44 44 24 24 24 25 25 25 46 46 46 24 24 24 46 46 46 45 45 45 26 26 26 27 27 27 50 50 50 26 26 26 50 50 50 49 49 49 27 27 27 28 28 28 51 51 51 27 27 27 51 51 51 50 50 50 28 28 28 29 29 29 52 52 52 28 28 28 52 52 52 51 51 51 29 29 29 30 30 30 53 53 53 29 29 29 53 53 53 52 52 52 30 30 30 31 31 31 54 54 54 30 30 30 54 54 54 53 53 53 31 31 31 32 32 32 55 55 55 31 31 31 55 55 55 54 54 54 32 32 32 33 33 33 56 56 56 32 32 32 56 56 56 55 55 55 33 33 33 34 34 34 57 57 57 33 33 33 57 57 57 56 56 56 34 34 34 35 35 35 58 58 58 34 34 34 58 58 58 57 57 57 35 35 35 36 36 36 59 59 59 35 35 35 59 59 59 58 58 58 36 36 36 37 37 37 60 60 60 36 36 36 60 60 60 59 59 59 37 37 37 38 38 38 61 61 61 37 37 37 61 61 61 60 60 60 38 38 38 39 39 39 62 62 62 38 38 38 62 62 62 61 61 61 39 39 39 40 40 40 63 63 63 39 39 39 63 63 63 62 62 62 40 40 40 41 41 41 64 64 64 40 40 40 64 64 64 63 63 63 41 41 41 42 42 42 65 65 65 41 41 41 65 65 65 64 64 64 42 42 42 43 43 43 66 66 66 42 42 42 66 66 66 65 65 65 43 43 43 44 44 44 67 67 67 43 43 43 67 67 67 66 66 66 44 44 44 45 45 45 68 68 68 44 44 44 68 68 68 67 67 67 45 45 45 46 46 46 69 69 69 45 45 45 69 69 69 68 68 68 46 46 46 47 47 47 70 70 70 46 46 46 70 70 70 69 69 69 48 48 48 49 49 49 72 72 72 48 48 48 72 72 72 71 71 71 49 49 49 50 50 50 73 73 73 49 49 49 73 73 73 72 72 72 50 50 50 51 51 51 74 74 74 50 50 50 74 74 74 73 73 73 51 51 51 52 52 52 75 75 75 51 51 51 75 75 75 74 74 74 52 52 52 53 53 53 76 76 76 52 52 52 76 76 76 75 75 75 53 53 53 54 54 54 77 77 77 53 53 53 77 77 77 76 76 76 54 54 54 55 55 55 78 78 78 54 54 54 78 78 78 77 77 77 55 55 55 56 56 56 79 79 79 55 55 55 79 79 79 78 78 78 56 56 56 57 57 57 80 80 80 56 56 56 80 80 80 79 79 79 57 57 57 58 58 58 81 81 81 57 57 57 81 81 81 80 80 80 58 58 58 59 59 59 82 82 82 58 58 58 82 82 82 81 81 81 59 59 59 60 60 60 83 83 83 59 59 59 83 83 83 82 82 82 60 60 60 61 61 61 84 84 84 60 60 60 84 84 84 83 83 83 61 61 61 62 62 62 85 85 85 61 61 61 85 85 85 84 84 84 62 62 62 63 63 63 86 86 86 62 62 62 86 86 86 85 85 85 63 63 63 64 64 64 87 87 87 63 63 63 87 87 87 86 86 86 64 64 64 65 65 65 88 88 88 64 64 64 88 88 88 87 87 87 65 65 65 66 66 66 89 89 89 65 65 65 89 89 89 88 88 88 66 66 66 67 67 67 90 90 90 66 66 66 90 90 90 89 89 89 67 67 67 68 68 68 91 91 91 67 67 67 91 91 91 90 90 90 68 68 68 69 69 69 92 92 92 68 68 68 92 92 92 91 91 91 69 69 69 70 70 70 93 93 93 69 69 69 93 93 93 92 92 92 71 71 71 72 72 72 97 97 97 71 71 71 97 97 97 96 96 96 72 72 72 73 73 73 98 98 98 72 72 72 98 98 98 97 97 97 73 73 73 74 74 74 99 99 99 73 73 73 99 99 99 98 98 98 74 74 74 75 75 75 100 100 100 74 74 74 100 100 100 99 99 99 75 75 75 76 76 76 101 101 101 75 75 75 101 101 101 100 100 100 76 76 76 77 77 77 102 102 102 76 76 76 102 102 102 101 101 101 77 77 77 78 78 78 103 103 103 77 77 77 103 103 103 102 102 102 78 78 78 79 79 79 104 104 104 78 78 78 104 104 104 103 103 103 79 79 79 80 80 80 105 105 105 79 79 79 105 105 105 104 104 104 80 80 80 81 81 81 106 106 106 80 80 80 106 106 106 105 105 105 81 81 81 82 82 82 107 107 107 81 81 81 107 107 107 106 106 106 82 82 82 83 83 83 108 108 108 82 82 82 108 108 108 107 107 107 83 83 83 84 84 84 109 109 109 83 83 83 109 109 109 108 108 108 84 84 84 85 85 85 110 110 110 84 84 84 110 110 110 109 109 109 85 85 85 86 86 86 111 111 111 85 85 85 111 111 111 110 110 110 86 86 86 87 87 87 112 112 112 86 86 86 112 112 112 111 111 111 87 87 87 88 88 88 113 113 113 87 87 87 113 113 113 112 112 112 88 88 88 89 89 89 114 114 114 88 88 88 114 114 114 113 113 113 89 89 89 90 90 90 115 115 115 89 89 89 115 115 115 114 114 114 90 90 90 91 91 91 116 116 116 90 90 90 116 116 116 115 115 115 91 91 91 92 92 92 117 117 117 91 91 91 117 117 117 116 116 116 92 92 92 93 93 93 118 118 118 92 92 92 118 118 118 117 117 117 93 93 93 94 94 94 119 119 119 93 93 93 119 119 119 118 118 118 95 95 95 96 96 96 122 122 122 95 95 95 122 122 122 121 121 121 96 96 96 97 97 97 123 123 123 96 96 96 123 123 123 122 122 122 97 97 97 98 98 98 124 124 124 97 97 97 124 124 124 123 123 123 98 98 98 99 99 99 125 125 125 98 98 98 125 125 125 124 124 124 99 99 99 100 100 100 126 126 126 99 99 99 126 126 126 125 125 125 100 100 100 101 101 101 127 127 127 100 100 100 127 127 127 126 126 126 101 101 101 102 102 102 128 128 128 101 101 101 128 128 128 127 127 127 102 102 102 103 103 103 129 129 129 102 102 102 129 129 129 128 128 128 103 103 103 104 104 104 130 130 130 103 103 103 130 130 130 129 129 129 104 104 104 105 105 105 131 131 131 104 104 104 131 131 131 130 130 130 105 105 105 106 106 106 132 132 132 105 105 105 132 132 132 131 131 131 106 106 106 107 107 107 133 133 133 106 106 106 133 133 133 132 132 132 107 107 107 108 108 108 134 134 134 107 107 107 134 134 134 133 133 133 108 108 108 109 109 109 135 135 135 108 108 108 135 135 135 134 134 134 109 109 109 110 110 110 136 136 136 109 109 109 136 136 136 135 135 135 110 110 110 111 111 111 137 137 137 110 110 110 137 137 137 136 136 136 111 111 111 112 112 112 138 138 138 111 111 111 138 138 138 137 137 137 112 112 112 113 113 113 139 139 139 112 112 112 139 139 139 138 138 138 113 113 113 114 114 114 140 140 140 113 113 113 140 140 140 139 139 139 114 114 114 115 115 115 141 141 141 114 114 114 141 141 141 140 140 140 115 115 115 116 116 116 142 142 142 115 115 115 142 142 142 141 141 141 116 116 116 117 117 117 143 143 143 116 116 116 143 143 143 142 142 142 117 117 117 118 118 118 144 144 144 117 117 117 144 144 144 143 143 143 118 118 118 119 119 119 145 145 145 118 118 118 145 145 145 144 144 144 120 120 120 121 121 121 148 148 148 120 120 120 148 148 148 147 147 147 121 121 121 122 122 122 149 149 149 121 121 121 149 149 149 148 148 148 122 122 122 123 123 123 150 150 150 122 122 122 150 150 150 149 149 149 123 123 123 124 124 124 151 151 151 123 123 123 151 151 151 150 150 150 124 124 124 125 125 125 152 152 152 124 124 124 152 152 152 151 151 151 125 125 125 126 126 126 153 153 153 125 125 125 153 153 153 152 152 152 126 126 126 127 127 127 154 154 154 126 126 126 154 154 154 153 153 153 127 127 127 128 128 128 155 155 155 127 127 127 155 155 155 154 154 154 128 128 128 129 129 129 156 156 156 128 128 128 156 156 156 155 155 155 129 129 129 130 130 130 157 157 157 129 129 129 157 157 157 156 156 156 130 130 130 131 131 131 158 158 158 130 130 130 158 158 158 157 157 157 131 131 131 132 132 132 159 159 159 131 131 131 159 159 159 158 158 158 132 132 132 133 133 133 160 160 160 132 132 132 160 160 160 159 159 159 133 133 133 134 134 134 161 161 161 133 133 133 161 161 161 160 160 160 134 134 134 135 135 135 162 162 162 134 134 134 162 162 162 161 161 161 135 135 135 136 136 136 163 163 163 135 135 135 163 163 163 162 162 162 136 136 136 137 137 137 164 164 164 136 136 136 164 164 164 163 163 163 137 137 137 138 138 138 165 165 165 137 137 137 165 165 165 164 164 164 138 138 138 139 139 139 166 166 166 138 138 138 166 166 166 165 165 165 139 139 139 140 140 140 167 167 167 139 139 139 167 167 167 166 166 166 140 140 140 141 141 141 168 168 168 140 140 140 168 168 168 167 167 167 141 141 141 142 142 142 169 169 169 141 141 141 169 169 169 168 168 168 142 142 142 143 143 143 170 170 170 142 142 142 170 170 170 169 169 169 143 143 143 144 144 144 171 171 171 143 143 143 171 171 171 170 170 170 144 144 144 145 145 145 172 172 172 144 144 144 172 172 172 171 171 171 146 146 146 147 147 147 175 175 175 146 146 146 175 175 175 174 174 174 147 147 147 148 148 148 176 176 176 147 147 147 176 176 176 175 175 175 148 148 148 149 149 149 177 177 177 148 148 148 177 177 177 176 176 176 149 149 149 150 150 150 178 178 178 149 149 149 178 178 178 177 177 177 150 150 150 151 151 151 179 179 179 150 150 150 179 179 179 178 178 178 151 151 151 152 152 152 180 180 180 151 151 151 180 180 180 179 179 179 152 152 152 153 153 153 181 181 181 152 152 152 181 181 181 180 180 180 153 153 153 154 154 154 182 182 182 153 153 153 182 182 182 181 181 181 154 154 154 155 155 155 183 183 183 154 154 154 183 183 183 182 182 182 155 155 155 156 156 156 184 184 184 155 155 155 184 184 184 183 183 183 156 156 156 157 157 157 185 185 185 156 156 156 185 185 185 184 184 184 157 157 157 158 158 158 186 186 186 157 157 157 186 186 186 185 185 185 158 158 158 159 159 159 187 187 187 158 158 158 187 187 187 186 186 186 159 159 159 160 160 160 188 188 188 159 159 159 188 188 188 187 187 187 160 160 160 161 161 161 189 189 189 160 160 160 189 189 189 188 188 188 161 161 161 162 162 162 190 190 190 161 161 161 190 190 190 189 189 189 162 162 162 163 163 163 191 191 191 162 162 162 191 191 191 190 190 190 163 163 163 164 164 164 192 192 192 163 163 163 192 192 192 191 191 191 164 164 164 165 165 165 193 193 193 164 164 164 193 193 193 192 192 192 165 165 165 166 166 166 194 194 194 165 165 165 194 194 194 193 193 193 166 166 166 167 167 167 195 195 195 166 166 166 195 195 195 194 194 194 167 167 167 168 168 168 196 196 196 167 167 167 196 196 196 195 195 195 168 168 168 169 169 169 197 197 197 168 168 168 197 197 197 196 196 196 169 169 169 170 170 170 198 198 198 169 169 169 198 198 198 197 197 197 170 170 170 171 171 171 199 199 199 170 170 170 199 199 199 198 198 198 171 171 171 172 172 172 200 200 200 171 171 171 200 200 200 199 199 199 173 173 173 174 174 174 204 204 204 173 173 173 204 204 204 203 203 203 174 174 174 175 175 175 205 205 205 174 174 174 205 205 205 204 204 204 175 175 175 176 176 176 206 206 206 175 175 175 206 206 206 205 205 205 176 176 176 177 177 177 207 207 207 176 176 176 207 207 207 206 206 206 177 177 177 178 178 178 208 208 208 177 177 177 208 208 208 207 207 207 178 178 178 179 179 179 209 209 209 178 178 178 209 209 209 208 208 208 179 179 179 180 180 180 210 210 210 179 179 179 210 210 210 209 209 209 180 180 180 181 181 181 211 211 211 180 180 180 211 211 211 210 210 210 181 181 181 182 182 182 212 212 212 181 181 181 212 212 212 211 211 211 182 182 182 183 183 183 213 213 213 182 182 182 213 213 213 212 212 212 183 183 183 184 184 184 214 214 214 183 183 183 214 214 214 213 213 213 184 184 184 185 185 185 215 215 215 184 184 184 215 215 215 214 214 214 185 185 185 186 186 186 216 216 216 185 185 185 216 216 216 215 215 215 186 186 186 187 187 187 217 217 217 186 186 186 217 217 217 216 216 216 187 187 187 188 188 188 218 218 218 187 187 187 218 218 218 217 217 217 188 188 188 189 189 189 219 219 219 188 188 188 219 219 219 218 218 218 189 189 189 190 190 190 220 220 220 189 189 189 220 220 220 219 219 219 190 190 190 191 191 191 221 221 221 190 190 190 221 221 221 220 220 220 191 191 191 192 192 192 222 222 222 191 191 191 222 222 222 221 221 221 192 192 192 193 193 193 223 223 223 192 192 192 223 223 223 222 222 222 193 193 193 194 194 194 224 224 224 193 193 193 224 224 224 223 223 223 194 194 194 195 195 195 225 225 225 194 194 194 225 225 225 224 224 224 195 195 195 196 196 196 226 226 226 195 195 195 226 226 226 225 225 225 196 196 196 197 197 197 227 227 227 196 196 196 227 227 227 226 226 226 197 197 197 198 198 198 228 228 228 197 197 197 228 228 228 227 227 227 198 198 198 199 199 199 229 229 229 198 198 198 229 229 229 228 228 228 199 199 199 200 200 200 230 230 230 199 199 199 230 230 230 229 229 229 201 201 201 202 202 202 233 233 233 201 201 201 233 233 233 232 232 232 202 202 202 203 203 203 234 234 234 202 202 202 234 234 234 233 233 233 203 203 203 204 204 204 235 235 235 203 203 203 235 235 235 234 234 234 204 204 204 205 205 205 236 236 236 204 204 204 236 236 236 235 235 235 205 205 205 206 206 206 237 237 237 205 205 205 237 237 237 236 236 236 206 206 206 207 207 207 238 238 238 206 206 206 238 238 238 237 237 237 207 207 207 208 208 208 239 239 239 207 207 207 239 239 239 238 238 238 208 208 208 209 209 209 240 240 240 208 208 208 240 240 240 239 239 239 209 209 209 210 210 210 241 241 241 209 209 209 241 241 241 240 240 240 210 210 210 211 211 211 242 242 242 210 210 210 242 242 242 241 241 241 211 211 211 212 212 212 243 243 243 211 211 211 243 243 243 242 242 242 212 212 212 213 213 213 244 244 244 212 212 212 244 244 244 243 243 243 213 213 213 214 214 214 245 245 245 213 213 213 245 245 245 244 244 244 214 214 214 215 215 215 246 246 246 214 214 214 246 246 246 245 245 245 215 215 215 216 216 216 247 247 247 215 215 215 247 247 247 246 246 246 216 216 216 217 217 217 248 248 248 216 216 216 248 248 248 247 247 247 217 217 217 218 218 218 249 249 249 217 217 217 249 249 249 248 248 248 218 218 218 219 219 219 250 250 250 218 218 218 250 250 250 249 249 249 219 219 219 220 220 220 251 251 251 219 219 219 251 251 251 250 250 250 220 220 220 221 221 221 252 252 252 220 220 220 252 252 252 251 251 251 221 221 221 222 222 222 253 253 253 221 221 221 253 253 253 252 252 252 222 222 222 223 223 223 254 254 254 222 222 222 254 254 254 253 253 253 223 223 223 224 224 224 255 255 255 223 223 223 255 255 255 254 254 254 224 224 224 225 225 225 256 256 256 224 224 224 256 256 256 255 255 255 225 225 225 226 226 226 257 257 257 225 225 225 257 257 257 256 256 256 226 226 226 227 227 227 258 258 258 226 226 226 258 258 258 257 257 257 227 227 227 228 228 228 259 259 259 227 227 227 259 259 259 258 258 258 228 228 228 229 229 229 260 260 260 228 228 228 260 260 260 259 259 259 229 229 229 230 230 230 261 261 261 229 229 229 261 261 261 260 260 260 231 231 231 232 232 232 265 265 265 231 231 231 265 265 265 264 264 264 232 232 232 233 233 233 266 266 266 232 232 232 266 266 266 265 265 265 233 233 233 234 234 234 267 267 267 233 233 233 267 267 267 266 266 266 234 234 234 235 235 235 268 268 268 234 234 234 268 268 268 267 267 267 235 235 235 236 236 236 269 269 269 235 235 235 269 269 269 268 268 268 236 236 236 237 237 237 270 270 270 236 236 236 270 270 270 269 269 269 237 237 237 238 238 238 271 271 271 237 237 237 271 271 271 270 270 270 238 238 238 239 239 239 272 272 272 238 238 238 272 272 272 271 271 271 239 239 239 240 240 240 273 273 273 239 239 239 273 273 273 272 272 272 240 240 240 241 241 241 274 274 274 240 240 240 274 274 274 273 273 273 241 241 241 242 242 242 275 275 275 241 241 241 275 275 275 274 274 274 242 242 242 243 243 243 276 276 276 242 242 242 276 276 276 275 275 275 243 243 243 244 244 244 277 277 277 243 243 243 277 277 277 276 276 276 244 244 244 245 245 245 278 278 278 244 244 244 278 278 278 277 277 277 245 245 245 246 246 246 279 279 279 245 245 245 279 279 279 278 278 278 246 246 246 247 247 247 280 280 280 246 246 246 280 280 280 279 279 279 247 247 247 248 248 248 281 281 281 247 247 247 281 281 281 280 280 280 248 248 248 249 249 249 282 282 282 248 248 248 282 282 282 281 281 281 249 249 249 250 250 250 283 283 283 249 249 249 283 283 283 282 282 282 250 250 250 251 251 251 284 284 284 250 250 250 284 284 284 283 283 283 251 251 251 252 252 252 285 285 285 251 251 251 285 285 285 284 284 284 252 252 252 253 253 253 286 286 286 252 252 252 286 286 286 285 285 285 253 253 253 254 254 254 287 287 287 253 253 253 287 287 287 286 286 286 254 254 254 255 255 255 288 288 288 254 254 254 288 288 288 287 287 287 255 255 255 256 256 256 289 289 289 255 255 255 289 289 289 288 288 288 256 256 256 257 257 257 290 290 290 256 256 256 290 290 290 289 289 289 257 257 257 258 258 258 291 291 291 257 257 257 291 291 291 290 290 290 258 258 258 259 259 259 292 292 292 258 258 258 292 292 292 291 291 291 259 259 259 260 260 260 293 293 293 259 259 259 293 293 293 292 292 292 260 260 260 261 261 261 294 294 294 260 260 260 294 294 294 293 293 293 262 262 262 263 263 263 296 296 296 262 262 262 296 296 296 295 295 295 263 263 263 264 264 264 297 297 297 263 263 263 297 297 297 296 296 296 264 264 264 265 265 265 298 298 298 264 264 264 298 298 298 297 297 297 265 265 265 266 266 266 299 299 299 265 265 265 299 299 299 298 298 298 266 266 266 267 267 267 300 300 300 266 266 266 300 300 300 299 299 299 267 267 267 268 268 268 301 301 301 267 267 267 301 301 301 300 300 300 268 268 268 269 269 269 302 302 302 268 268 268 302 302 302 301 301 301 269 269 269 270 270 270 303 303 303 269 269 269 303 303 303 302 302 302 270 270 270 271 271 271 304 304 304 270 270 270 304 304 304 303 303 303 271 271 271 272 272 272 305 305 305 271 271 271 305 305 305 304 304 304 272 272 272 273 273 273 306 306 306 272 272 272 306 306 306 305 305 305 273 273 273 274 274 274 307 307 307 273 273 273 307 307 307 306 306 306 274 274 274 275 275 275 308 308 308 274 274 274 308 308 308 307 307 307 275 275 275 276 276 276 309 309 309 275 275 275 309 309 309 308 308 308 276 276 276 277 277 277 310 310 310 276 276 276 310 310 310 309 309 309 277 277 277 278 278 278 311 311 311 277 277 277 311 311 311 310 310 310 278 278 278 279 279 279 312 312 312 278 278 278 312 312 312 311 311 311 279 279 279 280 280 280 313 313 313 279 279 279 313 313 313 312 312 312 280 280 280 281 281 281 314 314 314 280 280 280 314 314 314 313 313 313 281 281 281 282 282 282 315 315 315 281 281 281 315 315 315 314 314 314 282 282 282 283 283 283 316 316 316 282 282 282 316 316 316 315 315 315 283 283 283 284 284 284 317 317 317 283 283 283 317 317 317 316 316 316 284 284 284 285 285 285 318 318 318 284 284 284 318 318 318 317 317 317 285 285 285 286 286 286 319 319 319 285 285 285 319 319 319 318 318 318 286 286 286 287 287 287 320 320 320 286 286 286 320 320 320 319 319 319 287 287 287 288 288 288 321 321 321 287 287 287 321 321 321 320 320 320 288 288 288 289 289 289 322 322 322 288 288 288 322 322 322 321 321 321 289 289 289 290 290 290 323 323 323 289 289 289 323 323 323 322 322 322 290 290 290 291 291 291 324 324 324 290 290 290 324 324 324 323 323 323 291 291 291 292 292 292 325 325 325 291 291 291 325 325 325 324 324 324 292 292 292 293 293 293 326 326 326 292 292 292 326 326 326 325 325 325 293 293 293 294 294 294 327 327 327 293 293 293 327 327 327 326 326 326 295 295 295 296 296 296 330 330 330 295 295 295 330 330 330 329 329 329 296 296 296 297 297 297 331 331 331 296 296 296 331 331 331 330 330 330 297 297 297 298 298 298 332 332 332 297 297 297 332 332 332 331 331 331 298 298 298 299 299 299 333 333 333 298 298 298 333 333 333 332 332 332 299 299 299 300 300 300 334 334 334 299 299 299 334 334 334 333 333 333 300 300 300 301 301 301 335 335 335 300 300 300 335 335 335 334 334 334 301 301 301 302 302 302 336 336 336 301 301 301 336 336 336 335 335 335 302 302 302 303 303 303 337 337 337 302 302 302 337 337 337 336 336 336 303 303 303 304 304 304 338 338 338 303 303 303 338 338 338 337 337 337 304 304 304 305 305 305 339 339 339 304 304 304 339 339 339 338 338 338 305 305 305 306 306 306 340 340 340 305 305 305 340 340 340 339 339 339 306 306 306 307 307 307 341 341 341 306 306 306 341 341 341 340 340 340 307 307 307 308 308 308 342 342 342 307 307 307 342 342 342 341 341 341 308 308 308 309 309 309 343 343 343 308 308 308 343 343 343 342 342 342 309 309 309 310 310 310 344 344 344 309 309 309 344 344 344 343 343 343 310 310 310 311 311 311 345 345 345 310 310 310 345 345 345 344 344 344 311 311 311 312 312 312 346 346 346 311 311 311 346 346 346 345 345 345 312 312 312 313 313 313 347 347 347 312 312 312 347 347 347 346 346 346 313 313 313 314 314 314 348 348 348 313 313 313 348 348 348 347 347 347 314 314 314 315 315 315 349 349 349 314 314 314 349 349 349 348 348 348 315 315 315 316 316 316 350 350 350 315 315 315 350 350 350 349 349 349 316 316 316 317 317 317 351 351 351 316 316 316 351 351 351 350 350 350 317 317 317 318 318 318 352 352 352 317 317 317 352 352 352 351 351 351 318 318 318 319 319 319 353 353 353 318 318 318 353 353 353 352 352 352 319 319 319 320 320 320 354 354 354 319 319 319 354 354 354 353 353 353 320 320 320 321 321 321 355 355 355 320 320 320 355 355 355 354 354 354 321 321 321 322 322 322 356 356 356 321 321 321 356 356 356 355 355 355 322 322 322 323 323 323 357 357 357 322 322 322 357 357 357 356 356 356 323 323 323 324 324 324 358 358 358 323 323 323 358 358 358 357 357 357 324 324 324 325 325 325 359 359 359 324 324 324 359 359 359 358 358 358 325 325 325 326 326 326 360 360 360 325 325 325 360 360 360 359 359 359 328 328 328 329 329 329 362 362 362 328 328 328 362 362 362 361 361 361 329 329 329 330 330 330 363 363 363 329 329 329 363 363 363 362 362 362 330 330 330 331 331 331 364 364 364 330 330 330 364 364 364 363 363 363 331 331 331 332 332 332 365 365 365 331 331 331 365 365 365 364 364 364 332 332 332 333 333 333 366 366 366 332 332 332 366 366 366 365 365 365 333 333 333 334 334 334 367 367 367 333 333 333 367 367 367 366 366 366 334 334 334 335 335 335 368 368 368 334 334 334 368 368 368 367 367 367 335 335 335 336 336 336 369 369 369 335 335 335 369 369 369 368 368 368 336 336 336 337 337 337 370 370 370 336 336 336 370 370 370 369 369 369 337 337 337 338 338 338 371 371 371 337 337 337 371 371 371 370 370 370 338 338 338 339 339 339 372 372 372 338 338 338 372 372 372 371 371 371 339 339 339 340 340 340 373 373 373 339 339 339 373 373 373 372 372 372 340 340 340 341 341 341 374 374 374 340 340 340 374 374 374 373 373 373 341 341 341 342 342 342 375 375 375 341 341 341 375 375 375 374 374 374 342 342 342 343 343 343 376 376 376 342 342 342 376 376 376 375 375 375 343 343 343 344 344 344 377 377 377 343 343 343 377 377 377 376 376 376 344 344 344 345 345 345 378 378 378 344 344 344 378 378 378 377 377 377 345 345 345 346 346 346 379 379 379 345 345 345 379 379 379 378 378 378 346 346 346 347 347 347 380 380 380 346 346 346 380 380 380 379 379 379 347 347 347 348 348 348 381 381 381 347 347 347 381 381 381 380 380 380 348 348 348 349 349 349 382 382 382 348 348 348 382 382 382 381 381 381 349 349 349 350 350 350 383 383 383 349 349 349 383 383 383 382 382 382 350 350 350 351 351 351 384 384 384 350 350 350 384 384 384 383 383 383 351 351 351 352 352 352 385 385 385 351 351 351 385 385 385 384 384 384 352 352 352 353 353 353 386 386 386 352 352 352 386 386 386 385 385 385 353 353 353 354 354 354 387 387 387 353 353 353 387 387 387 386 386 386 354 354 354 355 355 355 388 388 388 354 354 354 388 388 388 387 387 387 355 355 355 356 356 356 389 389 389 355 355 355 389 389 389 388 388 388 356 356 356 357 357 357 390 390 390 356 356 356 390 390 390 389 389 389 357 357 357 358 358 358 391 391 391 357 357 357 391 391 391 390 390 390 358 358 358 359 359 359 392 392 392 358 358 358 392 392 392 391 391 391 359 359 359 360 360 360 393 393 393 359 359 359 393 393 393 392 392 392 361 361 361 362 362 362 396 396 396 361 361 361 396 396 396 395 395 395 362 362 362 363 363 363 397 397 397 362 362 362 397 397 397 396 396 396 363 363 363 364 364 364 398 398 398 363 363 363 398 398 398 397 397 397 364 364 364 365 365 365 399 399 399 364 364 364 399 399 399 398 398 398 365 365 365 366 366 366 400 400 400 365 365 365 400 400 400 399 399 399 366 366 366 367 367 367 401 401 401 366 366 366 401 401 401 400 400 400 367 367 367 368 368 368 402 402 402 367 367 367 402 402 402 401 401 401 368 368 368 369 369 369 403 403 403 368 368 368 403 403 403 402 402 402 369 369 369 370 370 370 404 404 404 369 369 369 404 404 404 403 403 403 370 370 370 371 371 371 405 405 405 370 370 370 405 405 405 404 404 404 371 371 371 372 372 372 406 406 406 371 371 371 406 406 406 405 405 405 372 372 372 373 373 373 407 407 407 372 372 372 407 407 407 406 406 406 373 373 373 374 374 374 408 408 408 373 373 373 408 408 408 407 407 407 374 374 374 375 375 375 409 409 409 374 374 374 409 409 409 408 408 408 375 375 375 376 376 376 410 410 410 375 375 375 410 410 410 409 409 409 376 376 376 377 377 377 411 411 411 376 376 376 411 411 411 410 410 410 377 377 377 378 378 378 412 412 412 377 377 377 412 412 412 411 411 411 378 378 378 379 379 379 413 413 413 378 378 378 413 413 413 412 412 412 379 379 379 380 380 380 414 414 414 379 379 379 414 414 414 413 413 413 380 380 380 381 381 381 415 415 415 380 380 380 415 415 415 414 414 414 381 381 381 382 382 382 416 416 416 381 381 381 416 416 416 415 415 415 382 382 382 383 383 383 417 417 417 382 382 382 417 417 417 416 416 416 383 383 383 384 384 384 418 418 418 383 383 383 418 418 418 417 417 417 384 384 384 385 385 385 419 419 419 384 384 384 419 419 419 418 418 418 385 385 385 386 386 386 420 420 420 385 385 385 420 420 420 419 419 419 386 386 386 387 387 387 421 421 421 386 386 386 421 421 421 420 420 420 387 387 387 388 388 388 422 422 422 387 387 387 422 422 422 421 421 421 388 388 388 389 389 389 423 423 423 388 388 388 423 423 423 422 422 422 389 389 389 390 390 390 424 424 424 389 389 389 424 424 424 423 423 423 390 390 390 391 391 391 425 425 425 390 390 390 425 425 425 424 424 424 391 391 391 392 392 392 426 426 426 391 391 391 426 426 426 425 425 425 392 392 392 393 393 393 427 427 427 392 392 392 427 427 427 426 426 426 394 394 394 395 395 395 429 429 429 394 394 394 429 429 429 428 428 428 395 395 395 396 396 396 430 430 430 395 395 395 430 430 430 429 429 429 396 396 396 397 397 397 431 431 431 396 396 396 431 431 431 430 430 430 397 397 397 398 398 398 432 432 432 397 397 397 432 432 432 431 431 431 398 398 398 399 399 399 433 433 433 398 398 398 433 433 433 432 432 432 399 399 399 400 400 400 434 434 434 399 399 399 434 434 434 433 433 433 400 400 400 401 401 401 435 435 435 400 400 400 435 435 435 434 434 434 401 401 401 402 402 402 436 436 436 401 401 401 436 436 436 435 435 435 402 402 402 403 403 403 437 437 437 402 402 402 437 437 437 436 436 436 403 403 403 404 404 404 438 438 438 403 403 403 438 438 438 437 437 437 404 404 404 405 405 405 439 439 439 404 404 404 439 439 439 438 438 438 405 405 405 406 406 406 440 440 440 405 405 405 440 440 440 439 439 439 406 406 406 407 407 407 441 441 441 406 406 406 441 441 441 440 440 440 407 407 407 408 408 408 442 442 442 407 407 407 442 442 442 441 441 441 408 408 408 409 409 409 443 443 443 408 408 408 443 443 443 442 442 442 409 409 409 410 410 410 444 444 444 409 409 409 444 444 444 443 443 443 410 410 410 411 411 411 445 445 445 410 410 410 445 445 445 444 444 444 411 411 411 412 412 412 446 446 446 411 411 411 446 446 446 445 445 445 412 412 412 413 413 413 447 447 447 412 412 412 447 447 447 446 446 446 413 413 413 414 414 414 448 448 448 413 413 413 448 448 448 447 447 447 414 414 414 415 415 415 449 449 449 414 414 414 449 449 449 448 448 448 415 415 415 416 416 416 450 450 450 415 415 415 450 450 450 449 449 449 416 416 416 417 417 417 451 451 451 416 416 416 451 451 451 450 450 450 417 417 417 418 418 418 452 452 452 417 417 417 452 452 452 451 451 451 418 418 418 419 419 419 453 453 453 418 418 418 453 453 453 452 452 452 419 419 419 420 420 420 454 454 454 419 419 419 454 454 454 453 453 453 420 420 420 421 421 421 455 455 455 420 420 420 455 455 455 454 454 454 421 421 421 422 422 422 456 456 456 421 421 421 456 456 456 455 455 455 422 422 422 423 423 423 457 457 457 422 422 422 457 457 457 456 456 456 423 423 423 424 424 424 458 458 458 423 423 423 458 458 458 457 457 457 424 424 424 425 425 425 459 459 459 424 424 424 459 459 459 458 458 458 425 425 425 426 426 426 460 460 460 425 425 425 460 460 460 459 459 459 426 426 426 427 427 427 461 461 461 426 426 426 461 461 461 460 460 460 428 428 428 429 429 429 463 463 463 428 428 428 463 463 463 462 462 462 429 429 429 430 430 430 464 464 464 429 429 429 464 464 464 463 463 463 430 430 430 431 431 431 465 465 465 430 430 430 465 465 465 464 464 464 431 431 431 432 432 432 466 466 466 431 431 431 466 466 466 465 465 465 432 432 432 433 433 433 467 467 467 432 432 432 467 467 467 466 466 466 433 433 433 434 434 434 468 468 468 433 433 433 468 468 468 467 467 467 434 434 434 435 435 435 469 469 469 434 434 434 469 469 469 468 468 468 435 435 435 436 436 436 470 470 470 435 435 435 470 470 470 469 469 469 436 436 436 437 437 437 471 471 471 436 436 436 471 471 471 470 470 470 437 437 437 438 438 438 472 472 472 437 437 437 472 472 472 471 471 471 438 438 438 439 439 439 473 473 473 438 438 438 473 473 473 472 472 472 439 439 439 440 440 440 474 474 474 439 439 439 474 474 474 473 473 473 440 440 440 441 441 441 475 475 475 440 440 440 475 475 475 474 474 474 441 441 441 442 442 442 476 476 476 441 441 441 476 476 476 475 475 475 442 442 442 443 443 443 477 477 477 442 442 442 477 477 477 476 476 476 443 443 443 444 444 444 478 478 478 443 443 443 478 478 478 477 477 477 444 444 444 445 445 445 479 479 479 444 444 444 479 479 479 478 478 478 445 445 445 446 446 446 480 480 480 445 445 445 480 480 480 479 479 479 446 446 446 447 447 447 481 481 481 446 446 446 481 481 481 480 480 480 447 447 447 448 448 448 482 482 482 447 447 447 482 482 482 481 481 481 448 448 448 449 449 449 483 483 483 448 448 448 483 483 483 482 482 482 449 449 449 450 450 450 484 484 484 449 449 449 484 484 484 483 483 483 450 450 450 451 451 451 485 485 485 450 450 450 485 485 485 484 484 484 451 451 451 452 452 452 486 486 486 451 451 451 486 486 486 485 485 485 452 452 452 453 453 453 487 487 487 452 452 452 487 487 487 486 486 486 453 453 453 454 454 454 488 488 488 453 453 453 488 488 488 487 487 487 454 454 454 455 455 455 489 489 489 454 454 454 489 489 489 488 488 488 455 455 455 456 456 456 490 490 490 455 455 455 490 490 490 489 489 489 456 456 456 457 457 457 491 491 491 456 456 456 491 491 491 490 490 490 457 457 457 458 458 458 492 492 492 457 457 457 492 492 492 491 491 491 458 458 458 459 459 459 493 493 493 458 458 458 493 493 493 492 492 492 459 459 459 460 460 460 494 494 494 459 459 459 494 494 494 493 493 493 463 463 463 464 464 464 496 496 496 463 463 463 496 496 496 495 495 495 464 464 464 465 465 465 497 497 497 464 464 464 497 497 497 496 496 496 465 465 465 466 466 466 498 498 498 465 465 465 498 498 498 497 497 497 466 466 466 467 467 467 499 499 499 466 466 466 499 499 499 498 498 498 467 467 467 468 468 468 500 500 500 467 467 467 500 500 500 499 499 499 468 468 468 469 469 469 501 501 501 468 468 468 501 501 501 500 500 500 469 469 469 470 470 470 502 502 502 469 469 469 502 502 502 501 501 501 470 470 470 471 471 471 503 503 503 470 470 470 503 503 503 502 502 502 471 471 471 472 472 472 504 504 504 471 471 471 504 504 504 503 503 503 472 472 472 473 473 473 505 505 505 472 472 472 505 505 505 504 504 504 473 473 473 474 474 474 506 506 506 473 473 473 506 506 506 505 505 505 474 474 474 475 475 475 507 507 507 474 474 474 507 507 507 506 506 506 475 475 475 476 476 476 508 508 508 475 475 475 508 508 508 507 507 507 476 476 476 477 477 477 509 509 509 476 476 476 509 509 509 508 508 508 477 477 477 478 478 478 510 510 510 477 477 477 510 510 510 509 509 509 478 478 478 479 479 479 511 511 511 478 478 478 511 511 511 510 510 510 479 479 479 480 480 480 512 512 512 479 479 479 512 512 512 511 511 511 480 480 480 481 481 481 513 513 513 480 480 480 513 513 513 512 512 512 481 481 481 482 482 482 514 514 514 481 481 481 514 514 514 513 513 513 482 482 482 483 483 483 515 515 515 482 482 482 515 515 515 514 514 514 483 483 483 484 484 484 516 516 516 483 483 483 516 516 516 515 515 515 484 484 484 485 485 485 517 517 517 484 484 484 517 517 517 516 516 516 485 485 485 486 486 486 518 518 518 485 485 485 518 518 518 517 517 517 486 486 486 487 487 487 519 519 519 486 486 486 519 519 519 518 518 518 487 487 487 488 488 488 520 520 520 487 487 487 520 520 520 519 519 519 488 488 488 489 489 489 521 521 521 488 488 488 521 521 521 520 520 520 489 489 489 490 490 490 522 522 522 489 489 489 522 522 522 521 521 521 490 490 490 491 491 491 523 523 523 490 490 490 523 523 523 522 522 522 491 491 491 492 492 492 524 524 524 491 491 491 524 524 524 523 523 523 492 492 492 493 493 493 525 525 525 492 492 492 525 525 525 524 524 524 493 493 493 494 494 494 526 526 526 493 493 493 526 526 526 525 525 525 495 495 495 496 496 496 528 528 528 495 495 495 528 528 528 527 527 527 496 496 496 497 497 497 529 529 529 496 496 496 529 529 529 528 528 528 497 497 497 498 498 498 530 530 530 497 497 497 530 530 530 529 529 529 498 498 498 499 499 499 531 531 531 498 498 498 531 531 531 530 530 530 499 499 499 500 500 500 532 532 532 499 499 499 532 532 532 531 531 531 500 500 500 501 501 501 533 533 533 500 500 500 533 533 533 532 532 532 501 501 501 502 502 502 534 534 534 501 501 501 534 534 534 533 533 533 502 502 502 503 503 503 535 535 535 502 502 502 535 535 535 534 534 534 503 503 503 504 504 504 536 536 536 503 503 503 536 536 536 535 535 535 504 504 504 505 505 505 537 537 537 504 504 504 537 537 537 536 536 536 505 505 505 506 506 506 538 538 538 505 505 505 538 538 538 537 537 537 506 506 506 507 507 507 539 539 539 506 506 506 539 539 539 538 538 538 507 507 507 508 508 508 540 540 540 507 507 507 540 540 540 539 539 539 508 508 508 509 509 509 541 541 541 508 508 508 541 541 541 540 540 540 509 509 509 510 510 510 542 542 542 509 509 509 542 542 542 541 541 541 510 510 510 511 511 511 543 543 543 510 510 510 543 543 543 542 542 542 511 511 511 512 512 512 544 544 544 511 511 511 544 544 544 543 543 543 512 512 512 513 513 513 545 545 545 512 512 512 545 545 545 544 544 544 513 513 513 514 514 514 546 546 546 513 513 513 546 546 546 545 545 545 514 514 514 515 515 515 547 547 547 514 514 514 547 547 547 546 546 546 515 515 515 516 516 516 548 548 548 515 515 515 548 548 548 547 547 547 516 516 516 517 517 517 549 549 549 516 516 516 549 549 549 548 548 548 517 517 517 518 518 518 550 550 550 517 517 517 550 550 550 549 549 549 518 518 518 519 519 519 551 551 551 518 518 518 551 551 551 550 550 550 519 519 519 520 520 520 552 552 552 519 519 519 552 552 552 551 551 551 520 520 520 521 521 521 553 553 553 520 520 520 553 553 553 552 552 552 521 521 521 522 522 522 554 554 554 521 521 521 554 554 554 553 553 553 522 522 522 523 523 523 555 555 555 522 522 522 555 555 555 554 554 554 523 523 523 524 524 524 556 556 556 523 523 523 556 556 556 555 555 555 524 524 524 525 525 525 557 557 557 524 524 524 557 557 557 556 556 556 525 525 525 526 526 526 558 558 558 525 525 525 558 558 558 557 557 557 527 527 527 528 528 528 560 560 560 527 527 527 560 560 560 559 559 559 528 528 528 529 529 529 561 561 561 528 528 528 561 561 561 560 560 560 529 529 529 530 530 530 562 562 562 529 529 529 562 562 562 561 561 561 530 530 530 531 531 531 563 563 563 530 530 530 563 563 563 562 562 562 531 531 531 532 532 532 564 564 564 531 531 531 564 564 564 563 563 563 532 532 532 533 533 533 565 565 565 532 532 532 565 565 565 564 564 564 533 533 533 534 534 534 566 566 566 533 533 533 566 566 566 565 565 565 534 534 534 535 535 535 567 567 567 534 534 534 567 567 567 566 566 566 535 535 535 536 536 536 568 568 568 535 535 535 568 568 568 567 567 567 536 536 536 537 537 537 569 569 569 536 536 536 569 569 569 568 568 568 537 537 537 538 538 538 570 570 570 537 537 537 570 570 570 569 569 569 538 538 538 539 539 539 571 571 571 538 538 538 571 571 571 570 570 570 539 539 539 540 540 540 572 572 572 539 539 539 572 572 572 571 571 571 540 540 540 541 541 541 573 573 573 540 540 540 573 573 573 572 572 572 541 541 541 542 542 542 574 574 574 541 541 541 574 574 574 573 573 573 542 542 542 543 543 543 575 575 575 542 542 542 575 575 575 574 574 574 543 543 543 544 544 544 576 576 576 543 543 543 576 576 576 575 575 575 544 544 544 545 545 545 577 577 577 544 544 544 577 577 577 576 576 576 545 545 545 546 546 546 578 578 578 545 545 545 578 578 578 577 577 577 546 546 546 547 547 547 579 579 579 546 546 546 579 579 579 578 578 578 547 547 547 548 548 548 580 580 580 547 547 547 580 580 580 579 579 579 548 548 548 549 549 549 581 581 581 548 548 548 581 581 581 580 580 580 549 549 549 550 550 550 582 582 582 549 549 549 582 582 582 581 581 581 550 550 550 551 551 551 583 583 583 550 550 550 583 583 583 582 582 582 551 551 551 552 552 552 584 584 584 551 551 551 584 584 584 583 583 583 552 552 552 553 553 553 585 585 585 552 552 552 585 585 585 584 584 584 553 553 553 554 554 554 586 586 586 553 553 553 586 586 586 585 585 585 554 554 554 555 555 555 587 587 587 554 554 554 587 587 587 586 586 586 555 555 555 556 556 556 588 588 588 555 555 555 588 588 588 587 587 587 556 556 556 557 557 557 589 589 589 556 556 556 589 589 589 588 588 588 557 557 557 558 558 558 590 590 590 557 557 557 590 590 590 589 589 589 560 560 560 561 561 561 592 592 592 560 560 560 592 592 592 591 591 591 561 561 561 562 562 562 593 593 593 561 561 561 593 593 593 592 592 592 562 562 562 563 563 563 594 594 594 562 562 562 594 594 594 593 593 593 563 563 563 564 564 564 595 595 595 563 563 563 595 595 595 594 594 594 564 564 564 565 565 565 596 596 596 564 564 564 596 596 596 595 595 595 565 565 565 566 566 566 597 597 597 565 565 565 597 597 597 596 596 596 566 566 566 567 567 567 598 598 598 566 566 566 598 598 598 597 597 597 567 567 567 568 568 568 599 599 599 567 567 567 599 599 599 598 598 598 568 568 568 569 569 569 600 600 600 568 568 568 600 600 600 599 599 599 569 569 569 570 570 570 601 601 601 569 569 569 601 601 601 600 600 600 570 570 570 571 571 571 602 602 602 570 570 570 602 602 602 601 601 601 571 571 571 572 572 572 603 603 603 571 571 571 603 603 603 602 602 602 572 572 572 573 573 573 604 604 604 572 572 572 604 604 604 603 603 603 573 573 573 574 574 574 605 605 605 573 573 573 605 605 605 604 604 604 574 574 574 575 575 575 606 606 606 574 574 574 606 606 606 605 605 605 575 575 575 576 576 576 607 607 607 575 575 575 607 607 607 606 606 606 576 576 576 577 577 577 608 608 608 576 576 576 608 608 608 607 607 607 577 577 577 578 578 578 609 609 609 577 577 577 609 609 609 608 608 608 578 578 578 579 579 579 610 610 610 578 578 578 610 610 610 609 609 609 579 579 579 580 580 580 611 611 611 579 579 579 611 611 611 610 610 610 580 580 580 581 581 581 612 612 612 580 580 580 612 612 612 611 611 611 581 581 581 582 582 582 613 613 613 581 581 581 613 613 613 612 612 612 582 582 582 583 583 583 614 614 614 582 582 582 614 614 614 613 613 613 583 583 583 584 584 584 615 615 615 583 583 583 615 615 615 614 614 614 584 584 584 585 585 585 616 616 616 584 584 584 616 616 616 615 615 615 585 585 585 586 586 586 617 617 617 585 585 585 617 617 617 616 616 616 586 586 586 587 587 587 618 618 618 586 586 586 618 618 618 617 617 617 587 587 587 588 588 588 619 619 619 587 587 587 619 619 619 618 618 618 588 588 588 589 589 589 620 620 620 588 588 588 620 620 620 619 619 619 592 592 592 593 593 593 622 622 622 592 592 592 622 622 622 621 621 621 593 593 593 594 594 594 623 623 623 593 593 593 623 623 623 622 622 622 594 594 594 595 595 595 624 624 624 594 594 594 624 624 624 623 623 623 595 595 595 596 596 596 625 625 625 595 595 595 625 625 625 624 624 624 596 596 596 597 597 597 626 626 626 596 596 596 626 626 626 625 625 625 597 597 597 598 598 598 627 627 627 597 597 597 627 627 627 626 626 626 598 598 598 599 599 599 628 628 628 598 598 598 628 628 628 627 627 627 599 599 599 600 600 600 629 629 629 599 599 599 629 629 629 628 628 628 600 600 600 601 601 601 630 630 630 600 600 600 630 630 630 629 629 629 601 601 601 602 602 602 631 631 631 601 601 601 631 631 631 630 630 630 602 602 602 603 603 603 632 632 632 602 602 602 632 632 632 631 631 631 603 603 603 604 604 604 633 633 633 603 603 603 633 633 633 632 632 632 604 604 604 605 605 605 634 634 634 604 604 604 634 634 634 633 633 633 605 605 605 606 606 606 635 635 635 605 605 605 635 635 635 634 634 634 606 606 606 607 607 607 636 636 636 606 606 606 636 636 636 635 635 635 607 607 607 608 608 608 637 637 637 607 607 607 637 637 637 636 636 636 608 608 608 609 609 609 638 638 638 608 608 608 638 638 638 637 637 637 609 609 609 610 610 610 639 639 639 609 609 609 639 639 639 638 638 638 610 610 610 611 611 611 640 640 640 610 610 610 640 640 640 639 639 639 611 611 611 612 612 612 641 641 641 611 611 611 641 641 641 640 640 640 612 612 612 613 613 613 642 642 642 612 612 612 642 642 642 641 641 641 613 613 613 614 614 614 643 643 643 613 613 613 643 643 643 642 642 642 614 614 614 615 615 615 644 644 644 614 614 614 644 644 644 643 643 643 615 615 615 616 616 616 645 645 645 615 615 615 645 645 645 644 644 644 616 616 616 617 617 617 646 646 646 616 616 616 646 646 646 645 645 645 617 617 617 618 618 618 647 647 647 617 617 617 647 647 647 646 646 646 618 618 618 619 619 619 648 648 648 618 618 618 648 648 648 647 647 647 622 622 622 623 623 623 650 650 650 622 622 622 650 650 650 649 649 649 623 623 623 624 624 624 651 651 651 623 623 623 651 651 651 650 650 650 624 624 624 625 625 625 652 652 652 624 624 624 652 652 652 651 651 651 625 625 625 626 626 626 653 653 653 625 625 625 653 653 653 652 652 652 626 626 626 627 627 627 654 654 654 626 626 626 654 654 654 653 653 653 627 627 627 628 628 628 655 655 655 627 627 627 655 655 655 654 654 654 628 628 628 629 629 629 656 656 656 628 628 628 656 656 656 655 655 655 629 629 629 630 630 630 657 657 657 629 629 629 657 657 657 656 656 656 630 630 630 631 631 631 658 658 658 630 630 630 658 658 658 657 657 657 631 631 631 632 632 632 659 659 659 631 631 631 659 659 659 658 658 658 632 632 632 633 633 633 660 660 660 632 632 632 660 660 660 659 659 659 633 633 633 634 634 634 661 661 661 633 633 633 661 661 661 660 660 660 634 634 634 635 635 635 662 662 662 634 634 634 662 662 662 661 661 661 635 635 635 636 636 636 663 663 663 635 635 635 663 663 663 662 662 662 636 636 636 637 637 637 664 664 664 636 636 636 664 664 664 663 663 663 637 637 637 638 638 638 665 665 665 637 637 637 665 665 665 664 664 664 638 638 638 639 639 639 666 666 666 638 638 638 666 666 666 665 665 665 639 639 639 640 640 640 667 667 667 639 639 639 667 667 667 666 666 666 640 640 640 641 641 641 668 668 668 640 640 640 668 668 668 667 667 667 641 641 641 642 642 642 669 669 669 641 641 641 669 669 669 668 668 668 642 642 642 643 643 643 670 670 670 642 642 642 670 670 670 669 669 669 643 643 643 644 644 644 671 671 671 643 643 643 671 671 671 670 670 670 644 644 644 645 645 645 672 672 672 644 644 644 672 672 672 671 671 671 645 645 645 646 646 646 673 673 673 645 645 645 673 673 673 672 672 672 646 646 646 647 647 647 674 674 674 646 646 646 674 674 674 673 673 673 650 650 650 651 651 651 676 676 676 650 650 650 676 676 676 675 675 675 651 651 651 652 652 652 677 677 677 651 651 651 677 677 677 676 676 676 652 652 652 653 653 653 678 678 678 652 652 652 678 678 678 677 677 677 653 653 653 654 654 654 679 679 679 653 653 653 679 679 679 678 678 678 654 654 654 655 655 655 680 680 680 654 654 654 680 680 680 679 679 679 655 655 655 656 656 656 681 681 681 655 655 655 681 681 681 680 680 680 656 656 656 657 657 657 682 682 682 656 656 656 682 682 682 681 681 681 657 657 657 658 658 658 683 683 683 657 657 657 683 683 683 682 682 682 658 658 658 659 659 659 684 684 684 658 658 658 684 684 684 683 683 683 659 659 659 660 660 660 685 685 685 659 659 659 685 685 685 684 684 684 660 660 660 661 661 661 686 686 686 660 660 660 686 686 686 685 685 685 661 661 661 662 662 662 687 687 687 661 661 661 687 687 687 686 686 686 662 662 662 663 663 663 688 688 688 662 662 662 688 688 688 687 687 687 663 663 663 664 664 664 689 689 689 663 663 663 689 689 689 688 688 688 664 664 664 665 665 665 690 690 690 664 664 664 690 690 690 689 689 689 665 665 665 666 666 666 691 691 691 665 665 665 691 691 691 690 690 690 666 666 666 667 667 667 692 692 692 666 666 666 692 692 692 691 691 691 667 667 667 668 668 668 693 693 693 667 667 667 693 693 693 692 692 692 668 668 668 669 669 669 694 694 694 668 668 668 694 694 694 693 693 693 669 669 669 670 670 670 695 695 695 669 669 669 695 695 695 694 694 694 676 676 676 677 677 677 697 697 697 676 676 676 697 697 697 696 696 696 677 677 677 678 678 678 698 698 698 677 677 677 698 698 698 697 697 697 678 678 678 679 679 679 699 699 699 678 678 678 699 699 699 698 698 698 679 679 679 680 680 680 700 700 700 679 679 679 700 700 700 699 699 699 680 680 680 681 681 681 701 701 701 680 680 680 701 701 701 700 700 700 681 681 681 682 682 682 702 702 702 681 681 681 702 702 702 701 701 701 682 682 682 683 683 683 703 703 703 682 682 682 703 703 703 702 702 702 683 683 683 684 684 684 704 704 704 683 683 683 704 704 704 703 703 703 684 684 684 685 685 685 705 705 705 684 684 684 705 705 705 704 704 704 685 685 685 686 686 686 706 706 706 685 685 685 706 706 706 705 705 705 686 686 686 687 687 687 707 707 707 686 686 686 707 707 707 706 706 706 687 687 687 688 688 688 708 708 708 687 687 687 708 708 708 707 707 707 688 688 688 689 689 689 709 709 709 688 688 688 709 709 709 708 708 708 689 689 689 690 690 690 710 710 710 689 689 689 710 710 710 709 709 709 690 690 690 691 691 691 711 711 711 690 690 690 711 711 711 710 710 710 697 697 697 698 698 698 713 713 713 697 697 697 713 713 713 712 712 712 698 698 698 699 699 699 714 714 714 698 698 698 714 714 714 713 713 713 699 699 699 700 700 700 715 715 715 699 699 699 715 715 715 714 714 714 700 700 700 701 701 701 716 716 716 700 700 700 716 716 716 715 715 715 701 701 701 702 702 702 717 717 717 701 701 701 717 717 717 716 716 716 702 702 702 703 703 703 718 718 718 702 702 702 718 718 718 717 717 717 703 703 703 704 704 704 719 719 719 703 703 703 719 719 719 718 718 718 704 704 704 705 705 705 720 720 720 704 704 704 720 720 720 719 719 719 705 705 705 706 706 706 721 721 721 705 705 705 721 721 721 720 720 720 706 706 706 707 707 707 722 722 722 706 706 706 722 722 722 721 721 721 707 707 707 708 708 708 723 723 723 707 707 707 723 723 723 722 722 722 708 708 708 709 709 709 724 724 724 708 708 708 724 724 724 723 723 723 709 709 709 710 710 710 725 725 725 709 709 709 725 725 725 724 724 724 713 713 713 714 714 714 727 727 727 713 713 713 727 727 727 726 726 726 714 714 714 715 715 715 728 728 728 714 714 714 728 728 728 727 727 727 715 715 715 716 716 716 729 729 729 715 715 715 729 729 729 728 728 728 716 716 716 717 717 717 730 730 730 716 716 716 730 730 730 729 729 729 717 717 717 718 718 718 731 731 731 717 717 717 731 731 731 730 730 730 718 718 718 719 719 719 732 732 732 718 718 718 732 732 732 731 731 731 719 719 719 720 720 720 733 733 733 719 719 719 733 733 733 732 732 732 720 720 720 721 721 721 734 734 734 720 720 720 734 734 734 733 733 733 721 721 721 722 722 722 735 735 735 721 721 721 735 735 735 734 734 734 722 722 722 723 723 723 736 736 736 722 722 722 736 736 736 735 735 735 723 723 723 724 724 724 737 737 737 723 723 723 737 737 737 736 736 736 727 727 727 728 728 728 739 739 739 727 727 727 739 739 739 738 738 738 728 728 728 729 729 729 740 740 740 728 728 728 740 740 740 739 739 739 729 729 729 730 730 730 741 741 741 729 729 729 741 741 741 740 740 740 730 730 730 731 731 731 742 742 742 730 730 730 742 742 742 741 741 741 731 731 731 732 732 732 743 743 743 731 731 731 743 743 743 742 742 742 732 732 732 733 733 733 744 744 744 732 732 732 744 744 744 743 743 743 733 733 733 734 734 734 745 745 745 733 733 733 745 745 745 744 744 744 734 734 734 735 735 735 746 746 746 734 734 734 746 746 746 745 745 745 735 735 735 736 736 736 747 747 747 735 735 735 747 747 747 746 746 746 739 739 739 740 740 740 749 749 749 739 739 739 749 749 749 748 748 748 740 740 740 741 741 741 750 750 750 740 740 740 750 750 750 749 749 749 741 741 741 742 742 742 751 751 751 741 741 741 751 751 751 750 750 750 742 742 742 743 743 743 752 752 752 742 742 742 752 752 752 751 751 751 743 743 743 744 744 744 753 753 753 743 743 743 753 753 753 752 752 752 744 744 744 745 745 745 754 754 754 744 744 744 754 754 754 753 753 753 745 745 745 746 746 746 755 755 755 745 745 745 755 755 755 754 754 754 750 750 750 751 751 751 757 757 757 750 750 750 757 757 757 756 756 756 751 751 751 752 752 752 758 758 758 751 751 751 758 758 758 757 757 757</p>
    </triangles>
  </mesh></geometry></library_geometries>
  <library_visual_scenes><visual_scene id="s"><node id="q"><instance_geometry url="#g"><bind_material><technique_common>
    <instance_material symbol="m" target="#mat"><bind_vertex_input semantic="UV" input_semantic="TEXCOORD" input_set="0"/></instance_material>
  </technique_common></bind_material></instance_geometry></node></visual_scene></library_visual_scenes>
  <scene><instance_visual_scene url="#s"/></scene>
</COLLADA>
